G04*
G04 #@! TF.GenerationSoftware,Altium Limited,Altium Designer,21.6.4 (81)*
G04*
G04 Layer_Color=32896*
%FSLAX24Y24*%
%MOIN*%
G70*
G04*
G04 #@! TF.SameCoordinates,8E317252-C3AD-47CA-8584-9DD6DEF08156*
G04*
G04*
G04 #@! TF.FilePolarity,Positive*
G04*
G01*
G75*
%ADD11C,0.0039*%
D11*
X18938Y43110D02*
X19332D01*
X19135Y42913D02*
Y43307D01*
X14220Y50364D02*
Y50757D01*
X14023Y50561D02*
X14417D01*
X20500Y52809D02*
Y53203D01*
X20303Y53006D02*
X20697D01*
X13163Y50794D02*
X13557D01*
X13360Y50597D02*
Y50991D01*
X21323Y49980D02*
X21717D01*
X21520Y49783D02*
Y50177D01*
X20243Y49260D02*
X20637D01*
X20440Y49063D02*
Y49457D01*
X22540Y43355D02*
Y43749D01*
X22343Y43552D02*
X22737D01*
X14234Y49560D02*
X14628D01*
X14431Y49363D02*
Y49757D01*
X20723Y43160D02*
X21117D01*
X20920Y42963D02*
Y43357D01*
X24603Y50840D02*
X24997D01*
X24800Y50643D02*
Y51037D01*
X14500Y46403D02*
Y46797D01*
X14303Y46600D02*
X14697D01*
X22740Y51563D02*
Y51957D01*
X22543Y51760D02*
X22937D01*
X24563Y52180D02*
X24957D01*
X24760Y51983D02*
Y52377D01*
X20283Y46320D02*
X20677D01*
X20480Y46123D02*
Y46517D01*
X19763Y45340D02*
X20157D01*
X19960Y45143D02*
Y45537D01*
X15763Y51557D02*
X16157D01*
X15960Y51361D02*
Y51754D01*
X17700Y45323D02*
Y45717D01*
X17503Y45520D02*
X17897D01*
X20623Y47803D02*
X21017D01*
X20820Y47606D02*
Y47999D01*
X18363Y51700D02*
X18757D01*
X18560Y51503D02*
Y51897D01*
X16703Y52080D02*
X17097D01*
X16900Y51883D02*
Y52277D01*
X14400Y47679D02*
Y48073D01*
X14203Y47876D02*
X14597D01*
X20480Y51703D02*
Y52097D01*
X20283Y51900D02*
X20677D01*
X18583Y45454D02*
X18977D01*
X18780Y45257D02*
Y45651D01*
X19963Y50340D02*
X20357D01*
X20160Y50143D02*
Y50537D01*
X17663Y51860D02*
X18057D01*
X17860Y51663D02*
Y52057D01*
X25603Y52200D02*
X25997D01*
X25800Y52003D02*
Y52397D01*
X25623Y50840D02*
X26017D01*
X25820Y50643D02*
Y51037D01*
X22195Y41260D02*
X22589D01*
X22392Y41063D02*
Y41457D01*
M02*
