G04*
G04 #@! TF.GenerationSoftware,Altium Limited,Altium Designer,21.6.4 (81)*
G04*
G04 Layer_Color=16711935*
%FSLAX24Y24*%
%MOIN*%
G70*
G04*
G04 #@! TF.SameCoordinates,8E317252-C3AD-47CA-8584-9DD6DEF08156*
G04*
G04*
G04 #@! TF.FilePolarity,Positive*
G04*
G01*
G75*
%ADD10C,0.0079*%
%ADD11C,0.0039*%
%ADD13C,0.0050*%
%ADD14C,0.0100*%
%ADD84C,0.0000*%
D10*
X19868Y37030D02*
X25774D01*
D11*
X17860Y36625D02*
X17946D01*
X17975Y36634D01*
X17984Y36644D01*
X17994Y36663D01*
Y36691D01*
X17984Y36710D01*
X17975Y36720D01*
X17946Y36729D01*
X17860D01*
Y36530D01*
X18181Y36682D02*
X18172Y36701D01*
X18153Y36720D01*
X18134Y36729D01*
X18096D01*
X18077Y36720D01*
X18057Y36701D01*
X18048Y36682D01*
X18038Y36653D01*
Y36606D01*
X18048Y36577D01*
X18057Y36558D01*
X18077Y36539D01*
X18096Y36530D01*
X18134D01*
X18153Y36539D01*
X18172Y36558D01*
X18181Y36577D01*
X18237Y36729D02*
Y36530D01*
Y36729D02*
X18323D01*
X18352Y36720D01*
X18361Y36710D01*
X18371Y36691D01*
Y36672D01*
X18361Y36653D01*
X18352Y36644D01*
X18323Y36634D01*
X18237D02*
X18323D01*
X18352Y36625D01*
X18361Y36615D01*
X18371Y36596D01*
Y36568D01*
X18361Y36549D01*
X18352Y36539D01*
X18323Y36530D01*
X18237D01*
X18696Y36729D02*
X18573D01*
Y36530D01*
X18696D01*
X18573Y36634D02*
X18649D01*
X18730Y36729D02*
Y36530D01*
Y36729D02*
X18796D01*
X18825Y36720D01*
X18844Y36701D01*
X18854Y36682D01*
X18863Y36653D01*
Y36606D01*
X18854Y36577D01*
X18844Y36558D01*
X18825Y36539D01*
X18796Y36530D01*
X18730D01*
X19051Y36682D02*
X19041Y36701D01*
X19022Y36720D01*
X19003Y36729D01*
X18965D01*
X18946Y36720D01*
X18927Y36701D01*
X18917Y36682D01*
X18908Y36653D01*
Y36606D01*
X18917Y36577D01*
X18927Y36558D01*
X18946Y36539D01*
X18965Y36530D01*
X19003D01*
X19022Y36539D01*
X19041Y36558D01*
X19051Y36577D01*
Y36606D01*
X19003D02*
X19051D01*
X19220Y36729D02*
X19096D01*
Y36530D01*
X19220D01*
X19096Y36634D02*
X19172D01*
D13*
X25300Y46405D02*
X25148D01*
X25119Y46395D01*
X25110Y46385D01*
X25100Y46366D01*
Y46347D01*
X25110Y46328D01*
X25119Y46319D01*
X25148Y46309D01*
X25167D01*
X25262Y46456D02*
X25271Y46475D01*
X25300Y46504D01*
X25100D01*
X25320Y46645D02*
X25168D01*
X25139Y46654D01*
X25130Y46664D01*
X25120Y46683D01*
Y46702D01*
X25130Y46721D01*
X25139Y46731D01*
X25168Y46740D01*
X25187D01*
X25282Y46594D02*
X25291Y46575D01*
X25320Y46546D01*
X25120D01*
D14*
X26245Y44410D02*
Y48600D01*
X24015D02*
X26245D01*
X24015Y44410D02*
Y48600D01*
Y44410D02*
X26245D01*
X24035Y48639D02*
X26265D01*
X24035Y44450D02*
Y48639D01*
Y44450D02*
X26265D01*
Y48639D01*
D84*
X26640Y36100D02*
Y54300D01*
X12080D02*
X26640D01*
X12080Y36100D02*
Y54300D01*
Y36100D02*
X26640D01*
M02*
