G04*
G04 #@! TF.GenerationSoftware,Altium Limited,Altium Designer,21.6.4 (81)*
G04*
G04 Layer_Color=32768*
%FSLAX24Y24*%
%MOIN*%
G70*
G04*
G04 #@! TF.SameCoordinates,8E317252-C3AD-47CA-8584-9DD6DEF08156*
G04*
G04*
G04 #@! TF.FilePolarity,Positive*
G04*
G01*
G75*
%ADD10C,0.0079*%
G36*
X17514Y49778D02*
X17516Y49775D01*
X17518Y49772D01*
X17521Y49770D01*
X17523Y49767D01*
X17524Y49766D01*
X17525Y49765D01*
X17526Y49764D01*
X17526Y49764D01*
X17526Y49764D01*
X17530Y49761D01*
X17534Y49758D01*
X17538Y49755D01*
X17541Y49753D01*
X17544Y49751D01*
X17546Y49751D01*
X17547Y49750D01*
X17548Y49750D01*
X17549Y49749D01*
X17549Y49749D01*
X17549D01*
Y49734D01*
X17546Y49735D01*
X17544Y49736D01*
X17541Y49738D01*
X17538Y49739D01*
X17536Y49740D01*
X17534Y49741D01*
X17533Y49742D01*
X17533Y49742D01*
X17533D01*
X17529Y49744D01*
X17526Y49746D01*
X17524Y49748D01*
X17522Y49749D01*
X17520Y49751D01*
X17519Y49752D01*
X17518Y49753D01*
X17518Y49753D01*
Y49653D01*
X17502D01*
Y49781D01*
X17512D01*
X17514Y49778D01*
D02*
G37*
G36*
X17635Y49783D02*
X17640Y49782D01*
X17646Y49781D01*
X17648Y49780D01*
X17650Y49779D01*
X17652Y49778D01*
X17654Y49778D01*
X17656Y49777D01*
X17657Y49776D01*
X17658Y49776D01*
X17659Y49776D01*
X17659Y49775D01*
X17659Y49775D01*
X17665Y49772D01*
X17669Y49768D01*
X17672Y49765D01*
X17676Y49761D01*
X17678Y49758D01*
X17679Y49756D01*
X17680Y49755D01*
X17680Y49754D01*
X17681Y49753D01*
X17681Y49753D01*
X17681Y49752D01*
X17684Y49747D01*
X17686Y49741D01*
X17687Y49735D01*
X17688Y49729D01*
X17688Y49727D01*
X17688Y49725D01*
X17689Y49723D01*
Y49721D01*
X17689Y49720D01*
Y49719D01*
Y49718D01*
Y49718D01*
X17688Y49711D01*
X17688Y49704D01*
X17687Y49699D01*
X17686Y49696D01*
X17685Y49694D01*
X17685Y49691D01*
X17684Y49689D01*
X17684Y49687D01*
X17683Y49686D01*
X17683Y49685D01*
X17682Y49684D01*
X17682Y49683D01*
Y49683D01*
X17679Y49678D01*
X17676Y49673D01*
X17673Y49668D01*
X17671Y49667D01*
X17670Y49665D01*
X17668Y49664D01*
X17667Y49662D01*
X17665Y49661D01*
X17664Y49660D01*
X17664Y49660D01*
X17663Y49659D01*
X17662Y49659D01*
X17662Y49659D01*
X17660Y49657D01*
X17657Y49656D01*
X17652Y49654D01*
X17646Y49653D01*
X17641Y49652D01*
X17638Y49651D01*
X17636Y49651D01*
X17634Y49651D01*
X17632D01*
X17631Y49650D01*
X17629D01*
X17625Y49651D01*
X17621Y49651D01*
X17618Y49651D01*
X17615Y49652D01*
X17612Y49653D01*
X17609Y49654D01*
X17607Y49655D01*
X17604Y49656D01*
X17602Y49657D01*
X17600Y49658D01*
X17599Y49659D01*
X17597Y49660D01*
X17596Y49660D01*
X17595Y49661D01*
X17595Y49661D01*
X17595Y49661D01*
X17592Y49664D01*
X17590Y49666D01*
X17588Y49668D01*
X17586Y49671D01*
X17583Y49676D01*
X17580Y49681D01*
X17579Y49684D01*
X17578Y49686D01*
X17577Y49688D01*
X17577Y49690D01*
X17576Y49691D01*
X17576Y49692D01*
X17576Y49693D01*
Y49693D01*
X17593Y49697D01*
X17593Y49694D01*
X17594Y49692D01*
X17595Y49689D01*
X17596Y49687D01*
X17597Y49685D01*
X17598Y49683D01*
X17600Y49681D01*
X17601Y49679D01*
X17602Y49678D01*
X17603Y49677D01*
X17604Y49675D01*
X17604Y49675D01*
X17605Y49674D01*
X17606Y49673D01*
X17606Y49673D01*
X17606Y49673D01*
X17608Y49672D01*
X17610Y49670D01*
X17614Y49668D01*
X17618Y49667D01*
X17622Y49666D01*
X17625Y49665D01*
X17626Y49665D01*
X17628D01*
X17629Y49665D01*
X17630D01*
X17634Y49665D01*
X17638Y49666D01*
X17642Y49667D01*
X17645Y49668D01*
X17648Y49669D01*
X17649Y49670D01*
X17650Y49670D01*
X17651Y49670D01*
X17651Y49671D01*
X17652Y49671D01*
X17652D01*
X17655Y49673D01*
X17658Y49676D01*
X17661Y49679D01*
X17663Y49682D01*
X17665Y49685D01*
X17666Y49687D01*
X17666Y49688D01*
X17667Y49689D01*
X17667Y49689D01*
Y49689D01*
X17668Y49694D01*
X17669Y49699D01*
X17670Y49704D01*
X17671Y49708D01*
X17671Y49710D01*
X17671Y49712D01*
Y49714D01*
X17671Y49715D01*
Y49716D01*
Y49717D01*
Y49717D01*
Y49718D01*
X17671Y49722D01*
X17671Y49727D01*
X17670Y49731D01*
X17669Y49735D01*
X17669Y49738D01*
X17668Y49739D01*
X17668Y49740D01*
X17668Y49741D01*
X17668Y49742D01*
X17667Y49742D01*
Y49742D01*
X17666Y49746D01*
X17664Y49750D01*
X17661Y49754D01*
X17659Y49756D01*
X17657Y49759D01*
X17655Y49760D01*
X17654Y49761D01*
X17654Y49761D01*
X17654D01*
X17650Y49764D01*
X17645Y49766D01*
X17641Y49767D01*
X17637Y49768D01*
X17634Y49768D01*
X17632Y49768D01*
X17631D01*
X17630Y49769D01*
X17629D01*
X17624Y49768D01*
X17620Y49768D01*
X17616Y49766D01*
X17613Y49765D01*
X17611Y49764D01*
X17609Y49763D01*
X17608Y49762D01*
X17608Y49762D01*
X17605Y49759D01*
X17602Y49756D01*
X17600Y49753D01*
X17598Y49749D01*
X17596Y49746D01*
X17596Y49745D01*
X17595Y49744D01*
X17595Y49743D01*
X17595Y49742D01*
X17594Y49742D01*
Y49742D01*
X17578Y49746D01*
X17579Y49749D01*
X17580Y49752D01*
X17581Y49755D01*
X17583Y49757D01*
X17584Y49760D01*
X17586Y49762D01*
X17587Y49764D01*
X17589Y49766D01*
X17590Y49768D01*
X17592Y49769D01*
X17593Y49770D01*
X17594Y49771D01*
X17595Y49772D01*
X17595Y49773D01*
X17596Y49773D01*
X17596Y49773D01*
X17599Y49775D01*
X17601Y49776D01*
X17604Y49778D01*
X17607Y49779D01*
X17612Y49781D01*
X17617Y49782D01*
X17620Y49782D01*
X17622Y49782D01*
X17624Y49783D01*
X17625Y49783D01*
X17627Y49783D01*
X17628D01*
X17635Y49783D01*
D02*
G37*
G36*
X17460Y49764D02*
X17398D01*
X17402Y49759D01*
X17406Y49753D01*
X17410Y49747D01*
X17414Y49742D01*
X17415Y49739D01*
X17416Y49737D01*
X17418Y49735D01*
X17419Y49734D01*
X17419Y49732D01*
X17420Y49731D01*
X17420Y49730D01*
X17420Y49730D01*
X17424Y49723D01*
X17428Y49715D01*
X17430Y49708D01*
X17431Y49705D01*
X17433Y49702D01*
X17434Y49699D01*
X17434Y49697D01*
X17435Y49694D01*
X17436Y49693D01*
X17436Y49691D01*
X17437Y49690D01*
X17437Y49689D01*
Y49689D01*
X17439Y49681D01*
X17439Y49678D01*
X17440Y49674D01*
X17440Y49671D01*
X17441Y49668D01*
X17441Y49665D01*
X17442Y49663D01*
X17442Y49661D01*
X17442Y49659D01*
X17442Y49657D01*
Y49655D01*
X17443Y49654D01*
Y49653D01*
Y49653D01*
Y49653D01*
X17426D01*
X17426Y49660D01*
X17425Y49666D01*
X17424Y49672D01*
X17423Y49675D01*
X17423Y49677D01*
X17423Y49680D01*
X17422Y49682D01*
X17422Y49684D01*
X17421Y49685D01*
X17421Y49686D01*
X17421Y49687D01*
X17420Y49688D01*
Y49688D01*
X17418Y49696D01*
X17415Y49704D01*
X17413Y49708D01*
X17412Y49712D01*
X17410Y49715D01*
X17409Y49719D01*
X17407Y49722D01*
X17406Y49724D01*
X17405Y49726D01*
X17404Y49728D01*
X17403Y49730D01*
X17403Y49731D01*
X17402Y49732D01*
X17402Y49732D01*
X17400Y49736D01*
X17398Y49740D01*
X17395Y49743D01*
X17393Y49747D01*
X17391Y49750D01*
X17389Y49753D01*
X17387Y49755D01*
X17385Y49757D01*
X17384Y49760D01*
X17382Y49761D01*
X17381Y49763D01*
X17380Y49764D01*
X17379Y49765D01*
X17378Y49766D01*
X17378Y49766D01*
X17378Y49767D01*
Y49779D01*
X17460D01*
Y49764D01*
D02*
G37*
G36*
X16909Y48877D02*
X16916Y48876D01*
X16921Y48875D01*
X16924Y48875D01*
X16926Y48874D01*
X16929Y48874D01*
X16931Y48873D01*
X16933Y48872D01*
X16934Y48872D01*
X16935Y48871D01*
X16936Y48871D01*
X16937Y48871D01*
X16937D01*
X16942Y48868D01*
X16947Y48865D01*
X16952Y48862D01*
X16953Y48860D01*
X16955Y48858D01*
X16956Y48857D01*
X16958Y48855D01*
X16959Y48854D01*
X16960Y48853D01*
X16960Y48852D01*
X16961Y48852D01*
X16961Y48851D01*
X16961Y48851D01*
X16963Y48848D01*
X16964Y48846D01*
X16966Y48840D01*
X16967Y48835D01*
X16968Y48829D01*
X16969Y48827D01*
X16969Y48825D01*
X16969Y48823D01*
Y48821D01*
X16970Y48819D01*
Y48817D01*
X16969Y48814D01*
X16969Y48810D01*
X16969Y48807D01*
X16968Y48804D01*
X16967Y48801D01*
X16966Y48798D01*
X16965Y48795D01*
X16964Y48793D01*
X16963Y48791D01*
X16962Y48789D01*
X16961Y48787D01*
X16960Y48786D01*
X16960Y48785D01*
X16959Y48784D01*
X16959Y48784D01*
X16959Y48783D01*
X16956Y48781D01*
X16954Y48779D01*
X16952Y48777D01*
X16949Y48775D01*
X16944Y48771D01*
X16939Y48769D01*
X16936Y48768D01*
X16934Y48767D01*
X16932Y48766D01*
X16930Y48765D01*
X16929Y48765D01*
X16928Y48764D01*
X16927Y48764D01*
X16927D01*
X16923Y48781D01*
X16925Y48782D01*
X16928Y48783D01*
X16931Y48784D01*
X16933Y48785D01*
X16935Y48786D01*
X16937Y48787D01*
X16939Y48788D01*
X16941Y48789D01*
X16942Y48790D01*
X16943Y48791D01*
X16945Y48792D01*
X16945Y48793D01*
X16946Y48794D01*
X16947Y48794D01*
X16947Y48795D01*
X16947Y48795D01*
X16948Y48797D01*
X16950Y48799D01*
X16952Y48803D01*
X16953Y48807D01*
X16954Y48811D01*
X16955Y48814D01*
X16955Y48815D01*
Y48816D01*
X16955Y48818D01*
Y48819D01*
X16955Y48823D01*
X16954Y48827D01*
X16953Y48831D01*
X16952Y48834D01*
X16951Y48837D01*
X16950Y48838D01*
X16950Y48839D01*
X16950Y48840D01*
X16949Y48840D01*
X16949Y48840D01*
Y48841D01*
X16947Y48844D01*
X16944Y48847D01*
X16941Y48850D01*
X16938Y48852D01*
X16935Y48853D01*
X16933Y48855D01*
X16932Y48855D01*
X16931Y48855D01*
X16931Y48855D01*
X16931D01*
X16926Y48857D01*
X16921Y48858D01*
X16916Y48859D01*
X16912Y48860D01*
X16910Y48860D01*
X16908Y48860D01*
X16906D01*
X16905Y48860D01*
X16904D01*
X16903D01*
X16903D01*
X16902D01*
X16898Y48860D01*
X16893Y48860D01*
X16889Y48859D01*
X16885Y48858D01*
X16882Y48858D01*
X16881Y48857D01*
X16880Y48857D01*
X16879Y48857D01*
X16878Y48856D01*
X16878Y48856D01*
X16878D01*
X16874Y48854D01*
X16870Y48852D01*
X16866Y48850D01*
X16864Y48848D01*
X16861Y48846D01*
X16860Y48844D01*
X16859Y48843D01*
X16859Y48843D01*
Y48842D01*
X16856Y48838D01*
X16854Y48834D01*
X16853Y48830D01*
X16852Y48826D01*
X16852Y48823D01*
X16852Y48821D01*
Y48820D01*
X16852Y48819D01*
Y48818D01*
X16852Y48813D01*
X16852Y48809D01*
X16854Y48805D01*
X16855Y48802D01*
X16856Y48800D01*
X16857Y48798D01*
X16858Y48797D01*
X16858Y48796D01*
X16861Y48793D01*
X16864Y48791D01*
X16867Y48788D01*
X16871Y48786D01*
X16874Y48785D01*
X16875Y48784D01*
X16876Y48784D01*
X16877Y48784D01*
X16878Y48783D01*
X16878Y48783D01*
X16878D01*
X16874Y48766D01*
X16871Y48768D01*
X16868Y48769D01*
X16865Y48770D01*
X16863Y48771D01*
X16860Y48773D01*
X16858Y48775D01*
X16856Y48776D01*
X16854Y48778D01*
X16852Y48779D01*
X16851Y48780D01*
X16850Y48782D01*
X16849Y48783D01*
X16848Y48783D01*
X16847Y48784D01*
X16847Y48785D01*
X16847Y48785D01*
X16845Y48787D01*
X16844Y48790D01*
X16842Y48793D01*
X16841Y48795D01*
X16839Y48801D01*
X16838Y48806D01*
X16838Y48808D01*
X16838Y48810D01*
X16837Y48812D01*
X16837Y48814D01*
X16837Y48815D01*
Y48817D01*
X16837Y48823D01*
X16838Y48829D01*
X16839Y48834D01*
X16840Y48837D01*
X16841Y48839D01*
X16842Y48841D01*
X16842Y48843D01*
X16843Y48844D01*
X16844Y48846D01*
X16844Y48847D01*
X16844Y48848D01*
X16845Y48848D01*
X16845Y48848D01*
X16848Y48853D01*
X16852Y48858D01*
X16855Y48861D01*
X16859Y48864D01*
X16862Y48867D01*
X16864Y48868D01*
X16865Y48868D01*
X16866Y48869D01*
X16867Y48870D01*
X16867Y48870D01*
X16868Y48870D01*
X16873Y48872D01*
X16879Y48874D01*
X16885Y48876D01*
X16891Y48877D01*
X16893Y48877D01*
X16895Y48877D01*
X16897Y48877D01*
X16899D01*
X16900Y48877D01*
X16901D01*
X16902D01*
X16902D01*
X16909Y48877D01*
D02*
G37*
G36*
X16885Y48735D02*
X16884Y48732D01*
X16882Y48729D01*
X16881Y48727D01*
X16880Y48725D01*
X16879Y48723D01*
X16878Y48722D01*
X16878Y48722D01*
Y48721D01*
X16876Y48718D01*
X16874Y48715D01*
X16872Y48712D01*
X16871Y48710D01*
X16869Y48709D01*
X16868Y48707D01*
X16867Y48707D01*
X16867Y48706D01*
X16967D01*
Y48691D01*
X16839D01*
Y48701D01*
X16842Y48703D01*
X16845Y48705D01*
X16848Y48707D01*
X16850Y48709D01*
X16853Y48712D01*
X16854Y48713D01*
X16855Y48714D01*
X16856Y48714D01*
X16856Y48715D01*
X16856Y48715D01*
X16859Y48719D01*
X16862Y48723D01*
X16865Y48726D01*
X16867Y48730D01*
X16869Y48733D01*
X16869Y48734D01*
X16870Y48736D01*
X16870Y48737D01*
X16871Y48737D01*
X16871Y48738D01*
Y48738D01*
X16886D01*
X16885Y48735D01*
D02*
G37*
G36*
X16936Y48650D02*
X16939Y48649D01*
X16944Y48648D01*
X16949Y48646D01*
X16951Y48644D01*
X16953Y48643D01*
X16954Y48642D01*
X16955Y48641D01*
X16957Y48640D01*
X16958Y48639D01*
X16958Y48639D01*
X16959Y48638D01*
X16959Y48638D01*
X16960Y48638D01*
X16961Y48635D01*
X16963Y48633D01*
X16964Y48631D01*
X16965Y48628D01*
X16967Y48624D01*
X16968Y48619D01*
X16969Y48617D01*
X16969Y48616D01*
X16969Y48614D01*
X16969Y48612D01*
X16970Y48611D01*
Y48610D01*
X16969Y48606D01*
X16969Y48603D01*
X16968Y48600D01*
X16968Y48597D01*
X16967Y48594D01*
X16966Y48592D01*
X16965Y48589D01*
X16964Y48587D01*
X16963Y48585D01*
X16962Y48584D01*
X16961Y48582D01*
X16960Y48581D01*
X16959Y48580D01*
X16958Y48579D01*
X16958Y48579D01*
X16958Y48579D01*
X16956Y48576D01*
X16953Y48575D01*
X16951Y48573D01*
X16948Y48572D01*
X16946Y48570D01*
X16944Y48569D01*
X16939Y48568D01*
X16937Y48567D01*
X16935Y48567D01*
X16934Y48567D01*
X16932Y48566D01*
X16931Y48566D01*
X16930D01*
X16930D01*
X16930D01*
X16925Y48566D01*
X16921Y48567D01*
X16918Y48568D01*
X16915Y48569D01*
X16912Y48571D01*
X16910Y48572D01*
X16909Y48572D01*
X16909Y48573D01*
X16906Y48575D01*
X16904Y48578D01*
X16902Y48581D01*
X16900Y48584D01*
X16899Y48586D01*
X16898Y48589D01*
X16898Y48589D01*
X16898Y48590D01*
X16898Y48590D01*
Y48590D01*
X16896Y48587D01*
X16895Y48585D01*
X16893Y48582D01*
X16891Y48581D01*
X16890Y48579D01*
X16888Y48578D01*
X16888Y48577D01*
X16887Y48577D01*
X16885Y48576D01*
X16882Y48575D01*
X16879Y48574D01*
X16877Y48573D01*
X16875Y48573D01*
X16874Y48573D01*
X16872D01*
X16872D01*
X16869Y48573D01*
X16866Y48573D01*
X16863Y48574D01*
X16861Y48575D01*
X16859Y48576D01*
X16857Y48577D01*
X16856Y48577D01*
X16856Y48577D01*
X16853Y48579D01*
X16850Y48581D01*
X16848Y48584D01*
X16846Y48586D01*
X16845Y48588D01*
X16844Y48589D01*
X16844Y48591D01*
X16843Y48591D01*
Y48591D01*
X16842Y48594D01*
X16841Y48598D01*
X16840Y48601D01*
X16839Y48604D01*
X16839Y48606D01*
X16839Y48608D01*
Y48613D01*
X16839Y48616D01*
X16840Y48621D01*
X16842Y48625D01*
X16843Y48628D01*
X16844Y48630D01*
X16845Y48631D01*
X16845Y48633D01*
X16846Y48634D01*
X16847Y48634D01*
X16847Y48635D01*
X16847Y48635D01*
X16847Y48636D01*
X16851Y48639D01*
X16855Y48642D01*
X16859Y48644D01*
X16863Y48646D01*
X16866Y48647D01*
X16868Y48648D01*
X16869Y48648D01*
X16870Y48648D01*
X16871Y48648D01*
X16872Y48648D01*
X16872D01*
X16875Y48633D01*
X16871Y48632D01*
X16867Y48631D01*
X16864Y48630D01*
X16862Y48628D01*
X16860Y48627D01*
X16859Y48626D01*
X16858Y48625D01*
X16857Y48625D01*
X16856Y48623D01*
X16854Y48620D01*
X16853Y48618D01*
X16852Y48615D01*
X16852Y48613D01*
X16852Y48611D01*
Y48610D01*
X16852Y48606D01*
X16853Y48604D01*
X16854Y48601D01*
X16854Y48599D01*
X16856Y48597D01*
X16856Y48596D01*
X16857Y48595D01*
X16857Y48595D01*
X16860Y48593D01*
X16862Y48591D01*
X16864Y48590D01*
X16867Y48589D01*
X16869Y48589D01*
X16870Y48589D01*
X16871D01*
X16871D01*
X16872D01*
X16874D01*
X16876Y48589D01*
X16879Y48590D01*
X16881Y48591D01*
X16884Y48593D01*
X16886Y48594D01*
X16887Y48596D01*
X16888Y48596D01*
X16888Y48597D01*
Y48597D01*
X16889Y48600D01*
X16891Y48603D01*
X16892Y48606D01*
X16892Y48609D01*
X16893Y48611D01*
X16893Y48613D01*
Y48616D01*
X16893Y48616D01*
Y48617D01*
X16907Y48619D01*
X16906Y48617D01*
X16906Y48615D01*
X16905Y48613D01*
X16905Y48611D01*
X16905Y48610D01*
Y48608D01*
X16905Y48604D01*
X16906Y48601D01*
X16907Y48598D01*
X16908Y48595D01*
X16910Y48593D01*
X16911Y48591D01*
X16912Y48591D01*
X16912Y48590D01*
X16915Y48588D01*
X16918Y48586D01*
X16921Y48585D01*
X16924Y48584D01*
X16926Y48583D01*
X16928Y48583D01*
X16929Y48583D01*
X16929D01*
X16930D01*
X16930D01*
X16934Y48583D01*
X16938Y48584D01*
X16941Y48585D01*
X16944Y48587D01*
X16946Y48588D01*
X16948Y48589D01*
X16949Y48590D01*
X16949Y48591D01*
X16952Y48594D01*
X16953Y48597D01*
X16955Y48600D01*
X16956Y48603D01*
X16956Y48606D01*
X16956Y48608D01*
X16957Y48608D01*
Y48609D01*
X16956Y48613D01*
X16956Y48616D01*
X16955Y48619D01*
X16954Y48621D01*
X16953Y48623D01*
X16952Y48624D01*
X16951Y48625D01*
X16951Y48625D01*
X16948Y48628D01*
X16945Y48629D01*
X16942Y48631D01*
X16939Y48632D01*
X16936Y48633D01*
X16935Y48634D01*
X16934Y48634D01*
X16933Y48634D01*
X16932Y48634D01*
X16932Y48634D01*
X16931D01*
X16933Y48650D01*
X16936Y48650D01*
D02*
G37*
D10*
X17340Y49892D02*
X18038D01*
X17340Y49548D02*
Y49892D01*
Y49548D02*
X18038D01*
Y49892D01*
X16752Y49153D02*
X17048D01*
Y48602D02*
Y49153D01*
X16752Y48602D02*
X17048D01*
X16752D02*
Y49153D01*
M02*
