G04*
G04 #@! TF.GenerationSoftware,Altium Limited,Altium Designer,21.6.4 (81)*
G04*
G04 Layer_Color=8388736*
%FSLAX24Y24*%
%MOIN*%
G70*
G04*
G04 #@! TF.SameCoordinates,8E317252-C3AD-47CA-8584-9DD6DEF08156*
G04*
G04*
G04 #@! TF.FilePolarity,Positive*
G04*
G01*
G75*
%ADD10C,0.0079*%
G36*
X19407Y43164D02*
X19411Y43164D01*
X19414Y43163D01*
X19418Y43163D01*
X19421Y43162D01*
X19421D01*
X19422Y43162D01*
X19422D01*
X19423Y43162D01*
X19425Y43161D01*
X19428Y43160D01*
X19431Y43159D01*
X19434Y43157D01*
X19437Y43155D01*
X19440Y43153D01*
X19440Y43153D01*
X19440Y43152D01*
X19441Y43152D01*
X19441Y43151D01*
X19443Y43149D01*
X19446Y43147D01*
X19448Y43144D01*
X19451Y43140D01*
X19453Y43136D01*
X19455Y43131D01*
Y43131D01*
X19455Y43130D01*
X19456Y43130D01*
X19456Y43129D01*
X19456Y43127D01*
X19457Y43126D01*
X19457Y43124D01*
X19458Y43122D01*
X19458Y43120D01*
X19458Y43118D01*
X19459Y43112D01*
X19460Y43107D01*
X19460Y43100D01*
Y43100D01*
Y43100D01*
Y43099D01*
Y43098D01*
X19460Y43097D01*
Y43095D01*
X19460Y43092D01*
X19459Y43088D01*
X19459Y43083D01*
X19458Y43079D01*
X19457Y43075D01*
Y43074D01*
X19456Y43074D01*
X19456Y43073D01*
X19456Y43073D01*
X19455Y43071D01*
X19454Y43068D01*
X19453Y43065D01*
X19452Y43062D01*
X19450Y43059D01*
X19448Y43056D01*
X19448Y43056D01*
X19447Y43055D01*
X19446Y43053D01*
X19444Y43052D01*
X19443Y43050D01*
X19441Y43048D01*
X19439Y43046D01*
X19436Y43044D01*
X19436Y43044D01*
X19435Y43044D01*
X19434Y43043D01*
X19432Y43042D01*
X19430Y43041D01*
X19427Y43040D01*
X19424Y43039D01*
X19421Y43038D01*
X19421D01*
X19420Y43038D01*
X19419Y43038D01*
X19418Y43037D01*
X19415Y43037D01*
X19412Y43037D01*
X19409Y43036D01*
X19405Y43036D01*
X19400Y43036D01*
X19354D01*
Y43164D01*
X19404D01*
X19407Y43164D01*
D02*
G37*
G36*
X19328Y43149D02*
X19252D01*
Y43110D01*
X19323D01*
Y43095D01*
X19252D01*
Y43051D01*
X19331D01*
Y43036D01*
X19235D01*
Y43164D01*
X19328D01*
Y43149D01*
D02*
G37*
G36*
X19152Y43051D02*
X19215D01*
Y43036D01*
X19135D01*
Y43164D01*
X19152D01*
Y43051D01*
D02*
G37*
G36*
X14259Y51079D02*
X14131D01*
Y51172D01*
X14146D01*
Y51096D01*
X14185D01*
Y51167D01*
X14200D01*
Y51096D01*
X14243D01*
Y51175D01*
X14259D01*
Y51079D01*
D02*
G37*
G36*
Y50978D02*
X14131D01*
Y50995D01*
X14243D01*
Y51059D01*
X14259D01*
Y50978D01*
D02*
G37*
G36*
X14225Y50956D02*
X14227Y50955D01*
X14230Y50955D01*
X14232Y50954D01*
X14235Y50953D01*
X14238Y50952D01*
X14239Y50952D01*
X14240Y50951D01*
X14241Y50950D01*
X14243Y50949D01*
X14245Y50948D01*
X14247Y50946D01*
X14249Y50945D01*
X14250Y50943D01*
X14250Y50942D01*
X14251Y50942D01*
X14252Y50940D01*
X14252Y50939D01*
X14254Y50937D01*
X14255Y50934D01*
X14256Y50932D01*
X14257Y50928D01*
Y50928D01*
X14257Y50927D01*
X14257Y50925D01*
X14257Y50923D01*
X14258Y50920D01*
X14258Y50916D01*
X14258Y50912D01*
X14259Y50908D01*
Y50859D01*
X14131D01*
Y50909D01*
X14131Y50911D01*
Y50912D01*
X14131Y50916D01*
X14131Y50919D01*
X14132Y50923D01*
X14133Y50927D01*
X14134Y50931D01*
Y50931D01*
X14135Y50931D01*
X14135Y50932D01*
X14136Y50934D01*
X14137Y50936D01*
X14139Y50938D01*
X14141Y50940D01*
X14144Y50942D01*
X14146Y50944D01*
X14147Y50945D01*
X14148Y50945D01*
X14149Y50946D01*
X14152Y50947D01*
X14154Y50948D01*
X14157Y50949D01*
X14160Y50949D01*
X14163Y50950D01*
X14164D01*
X14165D01*
X14166Y50949D01*
X14168Y50949D01*
X14171Y50948D01*
X14173Y50948D01*
X14176Y50946D01*
X14179Y50945D01*
X14179Y50945D01*
X14180Y50944D01*
X14181Y50943D01*
X14183Y50942D01*
X14185Y50940D01*
X14187Y50938D01*
X14188Y50935D01*
X14190Y50932D01*
Y50932D01*
X14191Y50932D01*
X14191Y50933D01*
X14191Y50933D01*
X14192Y50936D01*
X14193Y50938D01*
X14195Y50941D01*
X14197Y50944D01*
X14199Y50947D01*
X14202Y50950D01*
X14203Y50950D01*
X14204Y50950D01*
X14205Y50952D01*
X14208Y50953D01*
X14210Y50954D01*
X14214Y50955D01*
X14217Y50956D01*
X14221Y50956D01*
X14222D01*
X14222D01*
X14223D01*
X14225Y50956D01*
D02*
G37*
G36*
X14294Y50744D02*
X14283D01*
Y50848D01*
X14294D01*
Y50744D01*
D02*
G37*
G36*
X14259Y50698D02*
X14159D01*
X14159Y50698D01*
X14159Y50697D01*
X14161Y50696D01*
X14162Y50694D01*
X14164Y50692D01*
X14165Y50689D01*
X14167Y50686D01*
X14169Y50683D01*
Y50683D01*
X14170Y50682D01*
X14170Y50681D01*
X14171Y50679D01*
X14172Y50677D01*
X14174Y50675D01*
X14175Y50672D01*
X14176Y50669D01*
X14177Y50666D01*
X14162D01*
Y50667D01*
X14162Y50667D01*
X14162Y50668D01*
X14161Y50669D01*
X14161Y50670D01*
X14160Y50671D01*
X14158Y50674D01*
X14156Y50678D01*
X14153Y50682D01*
X14150Y50685D01*
X14147Y50689D01*
X14147Y50689D01*
X14147Y50690D01*
X14146Y50690D01*
X14146Y50691D01*
X14144Y50693D01*
X14142Y50695D01*
X14139Y50697D01*
X14136Y50699D01*
X14133Y50701D01*
X14130Y50703D01*
Y50714D01*
X14259D01*
Y50698D01*
D02*
G37*
G36*
Y50561D02*
X14131D01*
Y50578D01*
X14243D01*
Y50641D01*
X14259D01*
Y50561D01*
D02*
G37*
G36*
X20500Y53143D02*
X20400D01*
X20400Y53143D01*
X20401Y53142D01*
X20402Y53141D01*
X20403Y53139D01*
X20405Y53137D01*
X20407Y53134D01*
X20409Y53131D01*
X20411Y53128D01*
Y53128D01*
X20411Y53128D01*
X20412Y53127D01*
X20413Y53125D01*
X20414Y53123D01*
X20415Y53120D01*
X20416Y53117D01*
X20418Y53114D01*
X20419Y53112D01*
X20404D01*
Y53112D01*
X20403Y53112D01*
X20403Y53113D01*
X20403Y53114D01*
X20402Y53115D01*
X20401Y53116D01*
X20399Y53119D01*
X20397Y53123D01*
X20395Y53127D01*
X20392Y53131D01*
X20389Y53135D01*
X20388Y53135D01*
X20388Y53135D01*
X20388Y53136D01*
X20387Y53136D01*
X20385Y53138D01*
X20383Y53140D01*
X20380Y53142D01*
X20378Y53145D01*
X20375Y53147D01*
X20371Y53149D01*
Y53159D01*
X20500D01*
Y53143D01*
D02*
G37*
G36*
Y53006D02*
X20372D01*
Y53023D01*
X20485D01*
Y53086D01*
X20500D01*
Y53006D01*
D02*
G37*
G36*
X13524Y50777D02*
X13411D01*
Y50714D01*
X13396D01*
Y50794D01*
X13524D01*
Y50777D01*
D02*
G37*
G36*
X13399Y50703D02*
X13401Y50702D01*
X13403Y50702D01*
X13404Y50702D01*
X13406Y50701D01*
X13407D01*
X13407Y50701D01*
X13408Y50700D01*
X13410Y50700D01*
X13412Y50698D01*
X13414Y50697D01*
X13417Y50695D01*
X13420Y50693D01*
X13423Y50690D01*
X13424D01*
X13424Y50690D01*
X13425Y50689D01*
X13427Y50688D01*
X13429Y50685D01*
X13432Y50682D01*
X13435Y50679D01*
X13439Y50675D01*
X13443Y50670D01*
X13443Y50670D01*
X13443Y50669D01*
X13444Y50668D01*
X13445Y50667D01*
X13447Y50665D01*
X13449Y50663D01*
X13450Y50661D01*
X13452Y50658D01*
X13457Y50654D01*
X13461Y50649D01*
X13464Y50647D01*
X13466Y50645D01*
X13468Y50643D01*
X13470Y50642D01*
X13470D01*
X13470Y50641D01*
X13471Y50641D01*
X13472Y50641D01*
X13474Y50639D01*
X13476Y50638D01*
X13479Y50636D01*
X13482Y50635D01*
X13486Y50634D01*
X13489Y50634D01*
X13489D01*
X13489D01*
X13490Y50634D01*
X13492Y50634D01*
X13494Y50635D01*
X13497Y50636D01*
X13499Y50637D01*
X13502Y50639D01*
X13505Y50641D01*
X13505Y50641D01*
X13506Y50642D01*
X13507Y50643D01*
X13508Y50646D01*
X13509Y50648D01*
X13510Y50651D01*
X13511Y50655D01*
X13511Y50658D01*
Y50660D01*
X13511Y50660D01*
X13511Y50663D01*
X13510Y50665D01*
X13509Y50668D01*
X13508Y50671D01*
X13507Y50674D01*
X13504Y50677D01*
X13504Y50677D01*
X13503Y50678D01*
X13502Y50679D01*
X13499Y50680D01*
X13497Y50681D01*
X13493Y50683D01*
X13490Y50683D01*
X13485Y50684D01*
X13487Y50700D01*
X13487D01*
X13488Y50700D01*
X13489D01*
X13490Y50699D01*
X13492Y50699D01*
X13493Y50699D01*
X13495Y50698D01*
X13497Y50697D01*
X13502Y50696D01*
X13506Y50694D01*
X13508Y50693D01*
X13511Y50691D01*
X13513Y50689D01*
X13514Y50687D01*
X13515Y50687D01*
X13515Y50687D01*
X13515Y50686D01*
X13516Y50685D01*
X13517Y50684D01*
X13517Y50683D01*
X13518Y50681D01*
X13519Y50680D01*
X13520Y50678D01*
X13521Y50675D01*
X13522Y50673D01*
X13523Y50670D01*
X13523Y50668D01*
X13524Y50665D01*
X13524Y50661D01*
X13524Y50658D01*
Y50656D01*
X13524Y50655D01*
X13524Y50653D01*
X13524Y50652D01*
X13523Y50650D01*
X13523Y50648D01*
X13521Y50643D01*
X13520Y50638D01*
X13519Y50636D01*
X13517Y50633D01*
X13516Y50631D01*
X13514Y50629D01*
X13514Y50629D01*
X13513Y50628D01*
X13513Y50628D01*
X13512Y50627D01*
X13511Y50626D01*
X13510Y50625D01*
X13508Y50624D01*
X13507Y50623D01*
X13503Y50621D01*
X13499Y50620D01*
X13497Y50619D01*
X13494Y50619D01*
X13491Y50618D01*
X13489Y50618D01*
X13488D01*
X13487D01*
X13486Y50618D01*
X13484Y50618D01*
X13482Y50619D01*
X13479Y50619D01*
X13476Y50620D01*
X13473Y50621D01*
X13473Y50621D01*
X13472Y50622D01*
X13471Y50623D01*
X13469Y50624D01*
X13466Y50625D01*
X13464Y50627D01*
X13461Y50629D01*
X13458Y50632D01*
X13457Y50632D01*
X13456Y50633D01*
X13455Y50634D01*
X13454Y50635D01*
X13453Y50636D01*
X13452Y50638D01*
X13450Y50639D01*
X13449Y50641D01*
X13447Y50643D01*
X13445Y50645D01*
X13443Y50647D01*
X13440Y50650D01*
X13438Y50653D01*
X13435Y50656D01*
X13435Y50656D01*
X13435Y50656D01*
X13434Y50657D01*
X13433Y50658D01*
X13432Y50659D01*
X13431Y50661D01*
X13429Y50663D01*
X13426Y50667D01*
X13423Y50670D01*
X13421Y50672D01*
X13420Y50673D01*
X13419Y50674D01*
X13419Y50674D01*
X13418Y50675D01*
X13418Y50676D01*
X13416Y50677D01*
X13415Y50678D01*
X13414Y50679D01*
X13411Y50681D01*
Y50618D01*
X13396D01*
Y50703D01*
X13396D01*
X13396D01*
X13398D01*
X13399Y50703D01*
D02*
G37*
G36*
X13371Y50507D02*
X13360D01*
Y50611D01*
X13371D01*
Y50507D01*
D02*
G37*
G36*
X13524Y50445D02*
X13523Y50444D01*
Y50443D01*
X13523Y50439D01*
X13523Y50436D01*
X13522Y50432D01*
X13521Y50428D01*
X13520Y50424D01*
Y50424D01*
X13519Y50424D01*
X13519Y50423D01*
X13518Y50421D01*
X13517Y50419D01*
X13515Y50417D01*
X13513Y50415D01*
X13510Y50412D01*
X13508Y50410D01*
X13507Y50410D01*
X13506Y50410D01*
X13505Y50409D01*
X13502Y50408D01*
X13500Y50407D01*
X13497Y50406D01*
X13494Y50405D01*
X13491Y50405D01*
X13490D01*
X13489D01*
X13488Y50405D01*
X13486Y50406D01*
X13483Y50406D01*
X13481Y50407D01*
X13478Y50408D01*
X13475Y50410D01*
X13475Y50410D01*
X13474Y50411D01*
X13473Y50412D01*
X13471Y50413D01*
X13470Y50415D01*
X13467Y50417D01*
X13466Y50420D01*
X13464Y50423D01*
Y50423D01*
X13464Y50423D01*
X13463Y50422D01*
X13463Y50421D01*
X13462Y50419D01*
X13461Y50416D01*
X13459Y50414D01*
X13457Y50411D01*
X13455Y50408D01*
X13452Y50405D01*
X13452Y50405D01*
X13450Y50404D01*
X13449Y50403D01*
X13447Y50402D01*
X13444Y50401D01*
X13440Y50400D01*
X13437Y50399D01*
X13433Y50399D01*
X13433D01*
X13432D01*
X13431D01*
X13429Y50399D01*
X13427Y50399D01*
X13425Y50400D01*
X13422Y50401D01*
X13419Y50402D01*
X13416Y50403D01*
X13415Y50403D01*
X13415Y50404D01*
X13413Y50404D01*
X13411Y50405D01*
X13410Y50407D01*
X13408Y50408D01*
X13406Y50410D01*
X13404Y50412D01*
X13404Y50412D01*
X13403Y50413D01*
X13402Y50414D01*
X13402Y50416D01*
X13401Y50418D01*
X13399Y50421D01*
X13398Y50423D01*
X13398Y50426D01*
Y50427D01*
X13397Y50428D01*
X13397Y50430D01*
X13397Y50432D01*
X13396Y50435D01*
X13396Y50438D01*
X13396Y50442D01*
X13396Y50447D01*
Y50496D01*
X13524D01*
Y50445D01*
D02*
G37*
G36*
Y50359D02*
X13411D01*
Y50296D01*
X13396D01*
Y50376D01*
X13524D01*
Y50359D01*
D02*
G37*
G36*
Y50183D02*
X13508D01*
Y50259D01*
X13469D01*
Y50188D01*
X13454D01*
Y50259D01*
X13411D01*
Y50180D01*
X13396D01*
Y50276D01*
X13524D01*
Y50183D01*
D02*
G37*
G36*
X21518Y50205D02*
X21518D01*
X21517D01*
X21516D01*
X21514Y50205D01*
X21513Y50205D01*
X21511Y50206D01*
X21509Y50206D01*
X21507Y50207D01*
X21507D01*
X21507Y50207D01*
X21505Y50207D01*
X21504Y50208D01*
X21502Y50209D01*
X21499Y50211D01*
X21496Y50213D01*
X21493Y50215D01*
X21490Y50217D01*
X21490D01*
X21489Y50218D01*
X21488Y50218D01*
X21487Y50220D01*
X21484Y50223D01*
X21482Y50225D01*
X21478Y50229D01*
X21474Y50233D01*
X21471Y50238D01*
X21470Y50238D01*
X21470Y50239D01*
X21469Y50240D01*
X21468Y50241D01*
X21466Y50243D01*
X21465Y50245D01*
X21463Y50247D01*
X21461Y50249D01*
X21456Y50254D01*
X21452Y50258D01*
X21450Y50261D01*
X21447Y50263D01*
X21445Y50265D01*
X21443Y50266D01*
X21443D01*
X21443Y50266D01*
X21442Y50267D01*
X21442Y50267D01*
X21440Y50268D01*
X21437Y50270D01*
X21434Y50271D01*
X21431Y50272D01*
X21428Y50273D01*
X21424Y50274D01*
X21424D01*
X21424D01*
X21423Y50273D01*
X21421Y50273D01*
X21419Y50273D01*
X21416Y50272D01*
X21414Y50271D01*
X21411Y50269D01*
X21409Y50267D01*
X21408Y50266D01*
X21408Y50265D01*
X21407Y50264D01*
X21405Y50262D01*
X21404Y50260D01*
X21403Y50257D01*
X21402Y50253D01*
X21402Y50249D01*
Y50248D01*
X21402Y50247D01*
X21403Y50245D01*
X21403Y50243D01*
X21404Y50240D01*
X21405Y50237D01*
X21407Y50234D01*
X21409Y50231D01*
X21409Y50230D01*
X21410Y50230D01*
X21412Y50229D01*
X21414Y50228D01*
X21417Y50226D01*
X21420Y50225D01*
X21424Y50224D01*
X21428Y50224D01*
X21426Y50208D01*
X21426D01*
X21425Y50208D01*
X21425D01*
X21423Y50208D01*
X21422Y50209D01*
X21420Y50209D01*
X21418Y50210D01*
X21416Y50210D01*
X21412Y50212D01*
X21407Y50214D01*
X21405Y50215D01*
X21403Y50217D01*
X21401Y50218D01*
X21399Y50220D01*
X21399Y50220D01*
X21398Y50221D01*
X21398Y50221D01*
X21397Y50222D01*
X21397Y50223D01*
X21396Y50225D01*
X21395Y50226D01*
X21394Y50228D01*
X21393Y50230D01*
X21392Y50232D01*
X21391Y50235D01*
X21391Y50237D01*
X21390Y50240D01*
X21390Y50243D01*
X21389Y50246D01*
X21389Y50250D01*
Y50251D01*
X21389Y50253D01*
X21390Y50254D01*
X21390Y50256D01*
X21390Y50258D01*
X21391Y50260D01*
X21392Y50265D01*
X21394Y50270D01*
X21395Y50272D01*
X21396Y50275D01*
X21398Y50277D01*
X21400Y50279D01*
X21400Y50279D01*
X21400Y50279D01*
X21401Y50280D01*
X21401Y50280D01*
X21402Y50281D01*
X21404Y50282D01*
X21405Y50283D01*
X21407Y50284D01*
X21410Y50286D01*
X21415Y50288D01*
X21417Y50289D01*
X21419Y50289D01*
X21422Y50290D01*
X21425Y50290D01*
X21425D01*
X21426D01*
X21428Y50290D01*
X21430Y50289D01*
X21432Y50289D01*
X21434Y50288D01*
X21437Y50287D01*
X21440Y50286D01*
X21440Y50286D01*
X21441Y50286D01*
X21443Y50285D01*
X21445Y50284D01*
X21447Y50282D01*
X21450Y50281D01*
X21452Y50278D01*
X21456Y50276D01*
X21456Y50275D01*
X21457Y50275D01*
X21458Y50274D01*
X21459Y50273D01*
X21460Y50272D01*
X21462Y50270D01*
X21463Y50269D01*
X21465Y50267D01*
X21467Y50265D01*
X21469Y50263D01*
X21471Y50260D01*
X21473Y50258D01*
X21475Y50255D01*
X21478Y50252D01*
X21478Y50252D01*
X21479Y50251D01*
X21479Y50250D01*
X21480Y50250D01*
X21481Y50248D01*
X21482Y50247D01*
X21484Y50244D01*
X21487Y50241D01*
X21490Y50238D01*
X21492Y50235D01*
X21493Y50234D01*
X21494Y50233D01*
X21494Y50233D01*
X21495Y50233D01*
X21496Y50232D01*
X21497Y50231D01*
X21498Y50230D01*
X21499Y50229D01*
X21503Y50227D01*
Y50290D01*
X21518D01*
Y50205D01*
D02*
G37*
G36*
Y50105D02*
X21518D01*
X21517D01*
X21516D01*
X21514Y50106D01*
X21513Y50106D01*
X21511Y50106D01*
X21509Y50107D01*
X21507Y50107D01*
X21507D01*
X21507Y50107D01*
X21505Y50108D01*
X21504Y50109D01*
X21502Y50110D01*
X21499Y50111D01*
X21496Y50113D01*
X21493Y50115D01*
X21490Y50118D01*
X21490D01*
X21489Y50118D01*
X21488Y50119D01*
X21487Y50121D01*
X21484Y50123D01*
X21482Y50126D01*
X21478Y50129D01*
X21474Y50134D01*
X21471Y50138D01*
X21470Y50138D01*
X21470Y50139D01*
X21469Y50140D01*
X21468Y50142D01*
X21466Y50143D01*
X21465Y50145D01*
X21463Y50147D01*
X21461Y50150D01*
X21456Y50154D01*
X21452Y50159D01*
X21450Y50161D01*
X21447Y50163D01*
X21445Y50165D01*
X21443Y50166D01*
X21443D01*
X21443Y50167D01*
X21442Y50167D01*
X21442Y50168D01*
X21440Y50169D01*
X21437Y50170D01*
X21434Y50172D01*
X21431Y50173D01*
X21428Y50174D01*
X21424Y50174D01*
X21424D01*
X21424D01*
X21423Y50174D01*
X21421Y50174D01*
X21419Y50173D01*
X21416Y50172D01*
X21414Y50171D01*
X21411Y50169D01*
X21409Y50167D01*
X21408Y50167D01*
X21408Y50166D01*
X21407Y50165D01*
X21405Y50163D01*
X21404Y50160D01*
X21403Y50157D01*
X21402Y50154D01*
X21402Y50150D01*
Y50149D01*
X21402Y50148D01*
X21403Y50146D01*
X21403Y50143D01*
X21404Y50140D01*
X21405Y50137D01*
X21407Y50134D01*
X21409Y50131D01*
X21409Y50131D01*
X21410Y50130D01*
X21412Y50129D01*
X21414Y50128D01*
X21417Y50127D01*
X21420Y50126D01*
X21424Y50125D01*
X21428Y50124D01*
X21426Y50108D01*
X21426D01*
X21425Y50109D01*
X21425D01*
X21423Y50109D01*
X21422Y50109D01*
X21420Y50109D01*
X21418Y50110D01*
X21416Y50111D01*
X21412Y50112D01*
X21407Y50114D01*
X21405Y50116D01*
X21403Y50117D01*
X21401Y50119D01*
X21399Y50121D01*
X21399Y50121D01*
X21398Y50121D01*
X21398Y50122D01*
X21397Y50123D01*
X21397Y50124D01*
X21396Y50125D01*
X21395Y50127D01*
X21394Y50129D01*
X21393Y50131D01*
X21392Y50133D01*
X21391Y50135D01*
X21391Y50138D01*
X21390Y50141D01*
X21390Y50144D01*
X21389Y50147D01*
X21389Y50150D01*
Y50152D01*
X21389Y50153D01*
X21390Y50155D01*
X21390Y50156D01*
X21390Y50159D01*
X21391Y50161D01*
X21392Y50165D01*
X21394Y50170D01*
X21395Y50173D01*
X21396Y50175D01*
X21398Y50177D01*
X21400Y50179D01*
X21400Y50179D01*
X21400Y50180D01*
X21401Y50180D01*
X21401Y50181D01*
X21402Y50182D01*
X21404Y50183D01*
X21405Y50184D01*
X21407Y50185D01*
X21410Y50187D01*
X21415Y50188D01*
X21417Y50189D01*
X21419Y50190D01*
X21422Y50190D01*
X21425Y50190D01*
X21425D01*
X21426D01*
X21428Y50190D01*
X21430Y50190D01*
X21432Y50189D01*
X21434Y50189D01*
X21437Y50188D01*
X21440Y50187D01*
X21440Y50187D01*
X21441Y50186D01*
X21443Y50186D01*
X21445Y50184D01*
X21447Y50183D01*
X21450Y50181D01*
X21452Y50179D01*
X21456Y50176D01*
X21456Y50176D01*
X21457Y50175D01*
X21458Y50174D01*
X21459Y50173D01*
X21460Y50172D01*
X21462Y50171D01*
X21463Y50169D01*
X21465Y50167D01*
X21467Y50165D01*
X21469Y50163D01*
X21471Y50161D01*
X21473Y50158D01*
X21475Y50155D01*
X21478Y50152D01*
X21478Y50152D01*
X21479Y50152D01*
X21479Y50151D01*
X21480Y50150D01*
X21481Y50149D01*
X21482Y50148D01*
X21484Y50145D01*
X21487Y50142D01*
X21490Y50139D01*
X21492Y50136D01*
X21493Y50135D01*
X21494Y50134D01*
X21494Y50134D01*
X21495Y50133D01*
X21496Y50132D01*
X21497Y50132D01*
X21498Y50131D01*
X21499Y50129D01*
X21503Y50127D01*
Y50190D01*
X21518D01*
Y50105D01*
D02*
G37*
G36*
X21478Y50093D02*
X21479Y50093D01*
X21481Y50092D01*
X21482Y50092D01*
X21484Y50091D01*
X21487Y50090D01*
X21489Y50089D01*
X21494Y50086D01*
X21499Y50083D01*
X21502Y50081D01*
X21505Y50079D01*
X21507Y50077D01*
X21509Y50074D01*
X21509Y50074D01*
X21510Y50073D01*
X21510Y50072D01*
X21511Y50072D01*
X21512Y50070D01*
X21513Y50069D01*
X21514Y50067D01*
X21514Y50065D01*
X21516Y50062D01*
X21516Y50060D01*
X21517Y50057D01*
X21518Y50054D01*
X21519Y50051D01*
X21519Y50047D01*
X21520Y50044D01*
X21520Y50040D01*
Y50038D01*
X21520Y50037D01*
Y50035D01*
X21520Y50033D01*
X21519Y50031D01*
X21519Y50028D01*
X21518Y50023D01*
X21516Y50017D01*
X21514Y50012D01*
X21513Y50009D01*
X21512Y50006D01*
X21511Y50006D01*
X21511Y50006D01*
X21511Y50005D01*
X21510Y50004D01*
X21509Y50003D01*
X21508Y50002D01*
X21507Y50001D01*
X21505Y49999D01*
X21504Y49998D01*
X21502Y49996D01*
X21498Y49993D01*
X21493Y49989D01*
X21487Y49987D01*
X21487D01*
X21487Y49986D01*
X21486Y49986D01*
X21484Y49986D01*
X21483Y49985D01*
X21481Y49985D01*
X21479Y49984D01*
X21477Y49983D01*
X21474Y49983D01*
X21472Y49982D01*
X21466Y49981D01*
X21460Y49980D01*
X21453Y49980D01*
X21453D01*
X21452D01*
X21451D01*
X21450Y49980D01*
X21448D01*
X21446Y49980D01*
X21443Y49981D01*
X21441Y49981D01*
X21436Y49982D01*
X21430Y49983D01*
X21424Y49985D01*
X21418Y49988D01*
X21418Y49988D01*
X21417Y49988D01*
X21417Y49988D01*
X21416Y49989D01*
X21414Y49990D01*
X21413Y49991D01*
X21410Y49993D01*
X21406Y49996D01*
X21402Y50000D01*
X21398Y50004D01*
X21395Y50009D01*
X21395Y50009D01*
X21395Y50010D01*
X21395Y50011D01*
X21394Y50012D01*
X21393Y50013D01*
X21393Y50015D01*
X21392Y50016D01*
X21391Y50018D01*
X21391Y50021D01*
X21390Y50023D01*
X21389Y50028D01*
X21388Y50034D01*
X21388Y50040D01*
Y50042D01*
X21388Y50043D01*
X21388Y50045D01*
X21388Y50047D01*
X21388Y50049D01*
X21389Y50052D01*
X21390Y50057D01*
X21392Y50062D01*
X21393Y50065D01*
X21394Y50068D01*
X21396Y50070D01*
X21397Y50073D01*
X21398Y50073D01*
X21398Y50073D01*
X21398Y50074D01*
X21399Y50075D01*
X21400Y50076D01*
X21401Y50077D01*
X21403Y50078D01*
X21404Y50080D01*
X21406Y50081D01*
X21408Y50083D01*
X21411Y50085D01*
X21413Y50086D01*
X21416Y50087D01*
X21419Y50089D01*
X21422Y50090D01*
X21425Y50091D01*
X21429Y50074D01*
X21429D01*
X21428Y50074D01*
X21428Y50074D01*
X21427Y50073D01*
X21425Y50073D01*
X21424Y50072D01*
X21421Y50071D01*
X21418Y50069D01*
X21414Y50067D01*
X21411Y50064D01*
X21408Y50061D01*
X21408Y50061D01*
X21407Y50060D01*
X21406Y50058D01*
X21405Y50055D01*
X21404Y50052D01*
X21403Y50049D01*
X21402Y50045D01*
X21402Y50040D01*
Y50038D01*
X21402Y50038D01*
Y50036D01*
X21402Y50035D01*
X21403Y50031D01*
X21404Y50027D01*
X21405Y50023D01*
X21407Y50019D01*
X21409Y50015D01*
Y50015D01*
X21410Y50015D01*
X21410Y50013D01*
X21412Y50012D01*
X21414Y50010D01*
X21417Y50007D01*
X21420Y50005D01*
X21424Y50003D01*
X21428Y50001D01*
X21428D01*
X21429Y50001D01*
X21429Y50001D01*
X21430Y50001D01*
X21431Y50000D01*
X21433Y50000D01*
X21436Y49999D01*
X21440Y49999D01*
X21444Y49998D01*
X21448Y49998D01*
X21453Y49997D01*
X21453D01*
X21454D01*
X21455D01*
X21456D01*
X21457Y49998D01*
X21459D01*
X21460Y49998D01*
X21462Y49998D01*
X21467Y49998D01*
X21472Y49999D01*
X21477Y50001D01*
X21481Y50002D01*
X21482D01*
X21482Y50002D01*
X21482Y50003D01*
X21483Y50003D01*
X21486Y50004D01*
X21488Y50006D01*
X21491Y50008D01*
X21494Y50010D01*
X21497Y50013D01*
X21500Y50017D01*
Y50017D01*
X21500Y50017D01*
X21500Y50018D01*
X21501Y50019D01*
X21501Y50020D01*
X21502Y50021D01*
X21503Y50023D01*
X21504Y50027D01*
X21505Y50030D01*
X21505Y50034D01*
X21506Y50039D01*
Y50040D01*
X21505Y50041D01*
Y50042D01*
X21505Y50044D01*
X21504Y50047D01*
X21504Y50051D01*
X21502Y50055D01*
X21500Y50059D01*
X21499Y50061D01*
X21497Y50063D01*
X21497Y50063D01*
X21497Y50063D01*
X21497Y50064D01*
X21496Y50064D01*
X21495Y50065D01*
X21494Y50066D01*
X21493Y50067D01*
X21491Y50068D01*
X21490Y50069D01*
X21488Y50070D01*
X21486Y50072D01*
X21484Y50073D01*
X21481Y50074D01*
X21479Y50075D01*
X21476Y50075D01*
X21473Y50076D01*
X21477Y50093D01*
X21477D01*
X21478Y50093D01*
D02*
G37*
G36*
X20438Y49531D02*
X20338D01*
X20338Y49530D01*
X20339Y49530D01*
X20340Y49528D01*
X20341Y49527D01*
X20343Y49525D01*
X20345Y49522D01*
X20347Y49519D01*
X20349Y49516D01*
Y49515D01*
X20349Y49515D01*
X20350Y49514D01*
X20350Y49512D01*
X20352Y49510D01*
X20353Y49508D01*
X20354Y49505D01*
X20355Y49502D01*
X20357Y49499D01*
X20341D01*
Y49499D01*
X20341Y49500D01*
X20341Y49500D01*
X20340Y49501D01*
X20340Y49503D01*
X20339Y49504D01*
X20337Y49507D01*
X20335Y49511D01*
X20333Y49514D01*
X20330Y49518D01*
X20326Y49522D01*
X20326Y49522D01*
X20326Y49523D01*
X20325Y49523D01*
X20325Y49524D01*
X20323Y49525D01*
X20321Y49528D01*
X20318Y49530D01*
X20315Y49532D01*
X20312Y49534D01*
X20309Y49536D01*
Y49546D01*
X20438D01*
Y49531D01*
D02*
G37*
G36*
Y49385D02*
X20438D01*
X20437D01*
X20436D01*
X20434Y49386D01*
X20433Y49386D01*
X20431Y49386D01*
X20429Y49387D01*
X20427Y49387D01*
X20427D01*
X20426Y49387D01*
X20425Y49388D01*
X20424Y49389D01*
X20422Y49390D01*
X20419Y49391D01*
X20416Y49393D01*
X20413Y49395D01*
X20410Y49398D01*
X20410D01*
X20409Y49398D01*
X20408Y49399D01*
X20407Y49401D01*
X20404Y49403D01*
X20402Y49406D01*
X20398Y49409D01*
X20394Y49414D01*
X20391Y49418D01*
X20390Y49418D01*
X20390Y49419D01*
X20389Y49420D01*
X20388Y49422D01*
X20386Y49423D01*
X20385Y49425D01*
X20383Y49427D01*
X20381Y49430D01*
X20376Y49434D01*
X20372Y49439D01*
X20370Y49441D01*
X20367Y49443D01*
X20365Y49445D01*
X20363Y49446D01*
X20363D01*
X20363Y49447D01*
X20362Y49447D01*
X20362Y49448D01*
X20360Y49449D01*
X20357Y49450D01*
X20354Y49452D01*
X20351Y49453D01*
X20348Y49454D01*
X20344Y49454D01*
X20344D01*
X20344D01*
X20343Y49454D01*
X20341Y49454D01*
X20339Y49453D01*
X20336Y49452D01*
X20334Y49451D01*
X20331Y49449D01*
X20329Y49447D01*
X20328Y49447D01*
X20328Y49446D01*
X20327Y49445D01*
X20325Y49443D01*
X20324Y49440D01*
X20323Y49437D01*
X20322Y49434D01*
X20322Y49430D01*
Y49429D01*
X20322Y49428D01*
X20323Y49426D01*
X20323Y49423D01*
X20324Y49420D01*
X20325Y49417D01*
X20327Y49414D01*
X20329Y49411D01*
X20329Y49411D01*
X20330Y49410D01*
X20332Y49409D01*
X20334Y49408D01*
X20337Y49407D01*
X20340Y49406D01*
X20344Y49405D01*
X20348Y49404D01*
X20346Y49388D01*
X20346D01*
X20345Y49389D01*
X20345D01*
X20343Y49389D01*
X20342Y49389D01*
X20340Y49389D01*
X20338Y49390D01*
X20336Y49391D01*
X20332Y49392D01*
X20327Y49394D01*
X20325Y49396D01*
X20323Y49397D01*
X20321Y49399D01*
X20319Y49401D01*
X20319Y49401D01*
X20318Y49401D01*
X20318Y49402D01*
X20317Y49403D01*
X20317Y49404D01*
X20316Y49405D01*
X20315Y49407D01*
X20314Y49409D01*
X20313Y49411D01*
X20312Y49413D01*
X20311Y49415D01*
X20311Y49418D01*
X20310Y49421D01*
X20310Y49424D01*
X20309Y49427D01*
X20309Y49430D01*
Y49432D01*
X20309Y49433D01*
X20310Y49435D01*
X20310Y49436D01*
X20310Y49439D01*
X20310Y49441D01*
X20312Y49445D01*
X20314Y49450D01*
X20315Y49453D01*
X20316Y49455D01*
X20318Y49457D01*
X20320Y49459D01*
X20320Y49459D01*
X20320Y49460D01*
X20321Y49460D01*
X20321Y49461D01*
X20322Y49462D01*
X20324Y49463D01*
X20325Y49464D01*
X20327Y49465D01*
X20330Y49467D01*
X20335Y49468D01*
X20337Y49469D01*
X20339Y49470D01*
X20342Y49470D01*
X20345Y49470D01*
X20345D01*
X20346D01*
X20347Y49470D01*
X20350Y49470D01*
X20352Y49469D01*
X20354Y49469D01*
X20357Y49468D01*
X20360Y49467D01*
X20360Y49467D01*
X20361Y49466D01*
X20363Y49466D01*
X20365Y49464D01*
X20367Y49463D01*
X20370Y49461D01*
X20372Y49459D01*
X20376Y49456D01*
X20376Y49456D01*
X20377Y49455D01*
X20378Y49454D01*
X20379Y49453D01*
X20380Y49452D01*
X20382Y49451D01*
X20383Y49449D01*
X20385Y49447D01*
X20387Y49445D01*
X20389Y49443D01*
X20391Y49441D01*
X20393Y49438D01*
X20395Y49435D01*
X20398Y49432D01*
X20398Y49432D01*
X20399Y49432D01*
X20399Y49431D01*
X20400Y49430D01*
X20401Y49429D01*
X20402Y49428D01*
X20404Y49425D01*
X20407Y49422D01*
X20410Y49419D01*
X20412Y49416D01*
X20413Y49415D01*
X20414Y49414D01*
X20414Y49414D01*
X20415Y49413D01*
X20416Y49412D01*
X20417Y49412D01*
X20418Y49411D01*
X20419Y49409D01*
X20423Y49407D01*
Y49470D01*
X20438D01*
Y49385D01*
D02*
G37*
G36*
X20398Y49373D02*
X20399Y49373D01*
X20401Y49372D01*
X20402Y49372D01*
X20404Y49371D01*
X20407Y49370D01*
X20409Y49369D01*
X20414Y49366D01*
X20419Y49363D01*
X20422Y49361D01*
X20425Y49359D01*
X20427Y49357D01*
X20429Y49354D01*
X20429Y49354D01*
X20430Y49353D01*
X20430Y49352D01*
X20431Y49352D01*
X20432Y49350D01*
X20433Y49349D01*
X20434Y49347D01*
X20434Y49345D01*
X20436Y49342D01*
X20436Y49340D01*
X20437Y49337D01*
X20438Y49334D01*
X20439Y49331D01*
X20439Y49327D01*
X20440Y49324D01*
X20440Y49320D01*
Y49318D01*
X20440Y49317D01*
Y49315D01*
X20440Y49313D01*
X20439Y49311D01*
X20439Y49308D01*
X20438Y49303D01*
X20436Y49297D01*
X20434Y49292D01*
X20433Y49289D01*
X20432Y49286D01*
X20431Y49286D01*
X20431Y49286D01*
X20431Y49285D01*
X20430Y49284D01*
X20429Y49283D01*
X20428Y49282D01*
X20427Y49281D01*
X20425Y49279D01*
X20424Y49278D01*
X20422Y49276D01*
X20418Y49273D01*
X20413Y49269D01*
X20407Y49267D01*
X20407D01*
X20407Y49266D01*
X20406Y49266D01*
X20404Y49266D01*
X20403Y49265D01*
X20401Y49265D01*
X20399Y49264D01*
X20397Y49263D01*
X20394Y49263D01*
X20392Y49262D01*
X20386Y49261D01*
X20380Y49260D01*
X20373Y49260D01*
X20373D01*
X20372D01*
X20371D01*
X20370Y49260D01*
X20368D01*
X20366Y49260D01*
X20363Y49261D01*
X20361Y49261D01*
X20356Y49262D01*
X20350Y49263D01*
X20344Y49265D01*
X20338Y49268D01*
X20338Y49268D01*
X20337Y49268D01*
X20337Y49268D01*
X20336Y49269D01*
X20334Y49270D01*
X20333Y49271D01*
X20330Y49273D01*
X20326Y49276D01*
X20322Y49280D01*
X20318Y49284D01*
X20315Y49289D01*
X20315Y49289D01*
X20315Y49290D01*
X20315Y49291D01*
X20314Y49292D01*
X20313Y49293D01*
X20313Y49295D01*
X20312Y49296D01*
X20311Y49298D01*
X20311Y49301D01*
X20310Y49303D01*
X20309Y49308D01*
X20308Y49314D01*
X20308Y49320D01*
Y49322D01*
X20308Y49323D01*
X20308Y49325D01*
X20308Y49327D01*
X20308Y49329D01*
X20309Y49332D01*
X20310Y49337D01*
X20312Y49342D01*
X20313Y49345D01*
X20314Y49348D01*
X20316Y49350D01*
X20317Y49353D01*
X20318Y49353D01*
X20318Y49353D01*
X20318Y49354D01*
X20319Y49355D01*
X20320Y49356D01*
X20321Y49357D01*
X20323Y49358D01*
X20324Y49360D01*
X20326Y49361D01*
X20328Y49363D01*
X20331Y49365D01*
X20333Y49366D01*
X20336Y49367D01*
X20339Y49369D01*
X20342Y49370D01*
X20345Y49371D01*
X20349Y49354D01*
X20349D01*
X20348Y49354D01*
X20347Y49354D01*
X20347Y49353D01*
X20345Y49353D01*
X20344Y49352D01*
X20341Y49351D01*
X20338Y49349D01*
X20334Y49347D01*
X20331Y49344D01*
X20328Y49341D01*
X20328Y49341D01*
X20327Y49340D01*
X20326Y49338D01*
X20325Y49335D01*
X20324Y49332D01*
X20323Y49329D01*
X20322Y49325D01*
X20322Y49320D01*
Y49318D01*
X20322Y49318D01*
Y49316D01*
X20322Y49315D01*
X20323Y49311D01*
X20324Y49307D01*
X20325Y49303D01*
X20327Y49299D01*
X20329Y49295D01*
Y49295D01*
X20330Y49295D01*
X20330Y49293D01*
X20332Y49292D01*
X20334Y49290D01*
X20337Y49287D01*
X20340Y49285D01*
X20344Y49283D01*
X20348Y49281D01*
X20348D01*
X20349Y49281D01*
X20349Y49281D01*
X20350Y49281D01*
X20351Y49280D01*
X20353Y49280D01*
X20356Y49279D01*
X20360Y49279D01*
X20364Y49278D01*
X20368Y49278D01*
X20373Y49277D01*
X20373D01*
X20374D01*
X20375D01*
X20376D01*
X20377Y49278D01*
X20379D01*
X20380Y49278D01*
X20382Y49278D01*
X20387Y49278D01*
X20392Y49279D01*
X20397Y49281D01*
X20401Y49282D01*
X20402D01*
X20402Y49282D01*
X20402Y49283D01*
X20403Y49283D01*
X20406Y49284D01*
X20408Y49286D01*
X20411Y49288D01*
X20414Y49290D01*
X20417Y49293D01*
X20420Y49297D01*
Y49297D01*
X20420Y49297D01*
X20420Y49298D01*
X20421Y49299D01*
X20421Y49300D01*
X20422Y49301D01*
X20423Y49303D01*
X20424Y49307D01*
X20425Y49310D01*
X20425Y49314D01*
X20426Y49319D01*
Y49320D01*
X20425Y49321D01*
Y49322D01*
X20425Y49324D01*
X20424Y49327D01*
X20424Y49331D01*
X20422Y49335D01*
X20420Y49339D01*
X20419Y49341D01*
X20417Y49343D01*
X20417Y49343D01*
X20417Y49343D01*
X20417Y49344D01*
X20416Y49344D01*
X20415Y49345D01*
X20414Y49346D01*
X20413Y49347D01*
X20411Y49348D01*
X20410Y49349D01*
X20408Y49350D01*
X20406Y49352D01*
X20404Y49353D01*
X20401Y49354D01*
X20399Y49355D01*
X20396Y49355D01*
X20393Y49356D01*
X20397Y49373D01*
X20397D01*
X20398Y49373D01*
D02*
G37*
G36*
X22538Y43823D02*
X22438D01*
X22438Y43822D01*
X22439Y43821D01*
X22440Y43820D01*
X22441Y43818D01*
X22443Y43816D01*
X22445Y43814D01*
X22447Y43811D01*
X22449Y43808D01*
Y43807D01*
X22449Y43807D01*
X22450Y43806D01*
X22450Y43804D01*
X22452Y43802D01*
X22453Y43799D01*
X22454Y43797D01*
X22455Y43794D01*
X22457Y43791D01*
X22441D01*
Y43791D01*
X22441Y43792D01*
X22441Y43792D01*
X22440Y43793D01*
X22440Y43794D01*
X22439Y43796D01*
X22437Y43799D01*
X22435Y43803D01*
X22433Y43806D01*
X22430Y43810D01*
X22426Y43814D01*
X22426Y43814D01*
X22426Y43814D01*
X22425Y43815D01*
X22425Y43816D01*
X22423Y43817D01*
X22421Y43820D01*
X22418Y43822D01*
X22415Y43824D01*
X22412Y43826D01*
X22409Y43828D01*
Y43838D01*
X22538D01*
Y43823D01*
D02*
G37*
G36*
X22503Y43763D02*
X22504Y43763D01*
X22506Y43763D01*
X22508Y43762D01*
X22510Y43762D01*
X22514Y43761D01*
X22517Y43759D01*
X22519Y43758D01*
X22521Y43757D01*
X22524Y43755D01*
X22526Y43753D01*
X22528Y43751D01*
X22529Y43751D01*
X22529Y43751D01*
X22529Y43750D01*
X22530Y43749D01*
X22531Y43748D01*
X22532Y43746D01*
X22533Y43745D01*
X22534Y43743D01*
X22535Y43741D01*
X22536Y43738D01*
X22537Y43736D01*
X22538Y43733D01*
X22539Y43730D01*
X22539Y43727D01*
X22540Y43724D01*
X22540Y43720D01*
Y43719D01*
X22540Y43717D01*
X22540Y43716D01*
X22539Y43714D01*
X22539Y43712D01*
X22539Y43710D01*
X22538Y43706D01*
X22536Y43701D01*
X22535Y43699D01*
X22533Y43697D01*
X22532Y43695D01*
X22530Y43692D01*
X22530Y43692D01*
X22529Y43692D01*
X22529Y43691D01*
X22528Y43691D01*
X22527Y43690D01*
X22526Y43689D01*
X22525Y43688D01*
X22523Y43687D01*
X22521Y43685D01*
X22519Y43684D01*
X22515Y43682D01*
X22510Y43681D01*
X22507Y43680D01*
X22504Y43680D01*
X22502Y43695D01*
X22502D01*
X22502Y43696D01*
X22503Y43696D01*
X22504Y43696D01*
X22505Y43696D01*
X22507Y43697D01*
X22509Y43697D01*
X22513Y43699D01*
X22516Y43700D01*
X22519Y43702D01*
X22521Y43705D01*
X22522Y43705D01*
X22522Y43706D01*
X22523Y43707D01*
X22524Y43709D01*
X22525Y43711D01*
X22526Y43714D01*
X22527Y43717D01*
X22527Y43720D01*
Y43722D01*
X22527Y43722D01*
X22527Y43724D01*
X22526Y43727D01*
X22525Y43730D01*
X22524Y43733D01*
X22522Y43736D01*
X22519Y43739D01*
X22519Y43739D01*
X22518Y43740D01*
X22516Y43742D01*
X22514Y43743D01*
X22511Y43744D01*
X22508Y43746D01*
X22504Y43747D01*
X22500Y43747D01*
X22500D01*
X22500D01*
X22499D01*
X22499Y43747D01*
X22497Y43747D01*
X22494Y43746D01*
X22491Y43745D01*
X22488Y43744D01*
X22485Y43742D01*
X22482Y43740D01*
X22482Y43739D01*
X22481Y43738D01*
X22480Y43737D01*
X22479Y43735D01*
X22478Y43732D01*
X22477Y43729D01*
X22476Y43726D01*
X22475Y43722D01*
Y43720D01*
X22476Y43719D01*
X22476Y43717D01*
X22476Y43715D01*
X22477Y43713D01*
X22477Y43711D01*
X22463Y43712D01*
Y43713D01*
X22463Y43714D01*
Y43717D01*
X22463Y43719D01*
X22463Y43721D01*
X22462Y43724D01*
X22461Y43727D01*
X22460Y43730D01*
X22458Y43733D01*
Y43733D01*
X22458Y43733D01*
X22457Y43734D01*
X22456Y43736D01*
X22454Y43737D01*
X22452Y43739D01*
X22449Y43740D01*
X22446Y43741D01*
X22444Y43741D01*
X22442D01*
X22442D01*
X22442D01*
X22441D01*
X22439Y43741D01*
X22437Y43740D01*
X22435Y43740D01*
X22433Y43739D01*
X22430Y43737D01*
X22428Y43735D01*
X22428Y43735D01*
X22427Y43734D01*
X22426Y43733D01*
X22425Y43731D01*
X22424Y43729D01*
X22423Y43726D01*
X22422Y43723D01*
X22422Y43720D01*
Y43719D01*
X22423Y43717D01*
X22423Y43715D01*
X22424Y43712D01*
X22425Y43710D01*
X22426Y43707D01*
X22428Y43705D01*
X22428Y43705D01*
X22429Y43704D01*
X22430Y43703D01*
X22432Y43702D01*
X22435Y43700D01*
X22438Y43699D01*
X22441Y43698D01*
X22445Y43697D01*
X22442Y43681D01*
X22442D01*
X22442Y43682D01*
X22441Y43682D01*
X22440Y43682D01*
X22438Y43682D01*
X22437Y43683D01*
X22433Y43684D01*
X22429Y43686D01*
X22425Y43688D01*
X22421Y43691D01*
X22418Y43694D01*
X22418Y43695D01*
X22418Y43695D01*
X22417Y43695D01*
X22417Y43696D01*
X22416Y43697D01*
X22415Y43698D01*
X22414Y43700D01*
X22413Y43701D01*
X22412Y43705D01*
X22411Y43709D01*
X22410Y43714D01*
X22409Y43717D01*
Y43722D01*
X22409Y43724D01*
X22410Y43726D01*
X22410Y43729D01*
X22411Y43732D01*
X22412Y43736D01*
X22414Y43739D01*
Y43739D01*
X22414Y43739D01*
X22415Y43740D01*
X22416Y43742D01*
X22417Y43744D01*
X22419Y43746D01*
X22421Y43748D01*
X22423Y43751D01*
X22426Y43752D01*
X22426Y43753D01*
X22427Y43753D01*
X22429Y43754D01*
X22431Y43755D01*
X22433Y43756D01*
X22436Y43756D01*
X22439Y43757D01*
X22443Y43757D01*
X22443D01*
X22444D01*
X22445Y43757D01*
X22448Y43757D01*
X22450Y43756D01*
X22452Y43755D01*
X22455Y43754D01*
X22458Y43753D01*
X22458Y43752D01*
X22459Y43752D01*
X22460Y43751D01*
X22462Y43749D01*
X22463Y43747D01*
X22465Y43745D01*
X22467Y43743D01*
X22468Y43739D01*
Y43740D01*
X22469Y43740D01*
X22469Y43741D01*
X22469Y43741D01*
X22470Y43743D01*
X22471Y43746D01*
X22472Y43749D01*
X22474Y43752D01*
X22477Y43755D01*
X22479Y43757D01*
X22480Y43757D01*
X22481Y43758D01*
X22483Y43759D01*
X22485Y43760D01*
X22488Y43762D01*
X22492Y43763D01*
X22496Y43763D01*
X22500Y43764D01*
X22500D01*
X22501D01*
X22502D01*
X22503Y43763D01*
D02*
G37*
G36*
X22498Y43665D02*
X22499Y43665D01*
X22501Y43664D01*
X22502Y43663D01*
X22504Y43663D01*
X22507Y43662D01*
X22509Y43661D01*
X22514Y43658D01*
X22519Y43655D01*
X22522Y43653D01*
X22525Y43651D01*
X22527Y43648D01*
X22529Y43646D01*
X22529Y43646D01*
X22530Y43645D01*
X22530Y43644D01*
X22531Y43643D01*
X22532Y43642D01*
X22533Y43641D01*
X22534Y43638D01*
X22534Y43636D01*
X22536Y43634D01*
X22536Y43631D01*
X22537Y43629D01*
X22538Y43626D01*
X22539Y43623D01*
X22539Y43619D01*
X22540Y43616D01*
X22540Y43612D01*
Y43610D01*
X22540Y43608D01*
Y43607D01*
X22540Y43605D01*
X22539Y43603D01*
X22539Y43600D01*
X22538Y43595D01*
X22536Y43589D01*
X22534Y43584D01*
X22533Y43581D01*
X22532Y43578D01*
X22531Y43578D01*
X22531Y43578D01*
X22531Y43577D01*
X22530Y43576D01*
X22529Y43575D01*
X22528Y43574D01*
X22527Y43572D01*
X22525Y43571D01*
X22524Y43569D01*
X22522Y43568D01*
X22518Y43564D01*
X22513Y43561D01*
X22507Y43559D01*
X22507D01*
X22507Y43558D01*
X22506Y43558D01*
X22504Y43557D01*
X22503Y43557D01*
X22501Y43557D01*
X22499Y43556D01*
X22497Y43555D01*
X22494Y43555D01*
X22492Y43554D01*
X22486Y43553D01*
X22480Y43552D01*
X22473Y43552D01*
X22473D01*
X22472D01*
X22471D01*
X22470Y43552D01*
X22468D01*
X22466Y43552D01*
X22463Y43552D01*
X22461Y43553D01*
X22456Y43554D01*
X22450Y43555D01*
X22444Y43557D01*
X22438Y43559D01*
X22438Y43560D01*
X22437Y43560D01*
X22437Y43560D01*
X22436Y43561D01*
X22434Y43562D01*
X22433Y43563D01*
X22430Y43565D01*
X22426Y43568D01*
X22422Y43572D01*
X22418Y43576D01*
X22415Y43581D01*
X22415Y43581D01*
X22415Y43582D01*
X22415Y43583D01*
X22414Y43584D01*
X22413Y43585D01*
X22413Y43586D01*
X22412Y43588D01*
X22411Y43590D01*
X22411Y43593D01*
X22410Y43595D01*
X22409Y43600D01*
X22408Y43606D01*
X22408Y43612D01*
Y43614D01*
X22408Y43615D01*
X22408Y43617D01*
X22408Y43619D01*
X22408Y43621D01*
X22409Y43623D01*
X22410Y43628D01*
X22412Y43634D01*
X22413Y43637D01*
X22414Y43639D01*
X22416Y43642D01*
X22417Y43645D01*
X22418Y43645D01*
X22418Y43645D01*
X22418Y43646D01*
X22419Y43647D01*
X22420Y43648D01*
X22421Y43649D01*
X22423Y43650D01*
X22424Y43652D01*
X22426Y43653D01*
X22428Y43655D01*
X22431Y43656D01*
X22433Y43658D01*
X22436Y43659D01*
X22439Y43661D01*
X22442Y43662D01*
X22445Y43663D01*
X22449Y43646D01*
X22449D01*
X22448Y43646D01*
X22448Y43646D01*
X22447Y43645D01*
X22445Y43645D01*
X22444Y43644D01*
X22441Y43643D01*
X22438Y43641D01*
X22434Y43639D01*
X22431Y43636D01*
X22428Y43633D01*
X22428Y43633D01*
X22427Y43632D01*
X22426Y43630D01*
X22425Y43627D01*
X22424Y43624D01*
X22423Y43621D01*
X22422Y43616D01*
X22422Y43612D01*
Y43610D01*
X22422Y43609D01*
Y43608D01*
X22422Y43607D01*
X22423Y43603D01*
X22424Y43599D01*
X22425Y43595D01*
X22427Y43591D01*
X22429Y43587D01*
Y43587D01*
X22430Y43587D01*
X22430Y43585D01*
X22432Y43584D01*
X22434Y43582D01*
X22437Y43579D01*
X22440Y43577D01*
X22444Y43575D01*
X22448Y43573D01*
X22448D01*
X22449Y43573D01*
X22449Y43573D01*
X22450Y43573D01*
X22451Y43572D01*
X22453Y43572D01*
X22456Y43571D01*
X22460Y43571D01*
X22464Y43570D01*
X22468Y43569D01*
X22473Y43569D01*
X22473D01*
X22474D01*
X22475D01*
X22476D01*
X22477Y43569D01*
X22479D01*
X22480Y43570D01*
X22482Y43570D01*
X22487Y43570D01*
X22492Y43571D01*
X22497Y43572D01*
X22501Y43574D01*
X22502D01*
X22502Y43574D01*
X22502Y43574D01*
X22503Y43575D01*
X22506Y43576D01*
X22508Y43578D01*
X22511Y43580D01*
X22514Y43582D01*
X22517Y43585D01*
X22520Y43589D01*
Y43589D01*
X22520Y43589D01*
X22520Y43590D01*
X22521Y43591D01*
X22521Y43591D01*
X22522Y43593D01*
X22523Y43595D01*
X22524Y43599D01*
X22525Y43602D01*
X22525Y43606D01*
X22526Y43611D01*
Y43612D01*
X22525Y43613D01*
Y43614D01*
X22525Y43616D01*
X22524Y43619D01*
X22524Y43623D01*
X22522Y43627D01*
X22520Y43631D01*
X22519Y43633D01*
X22517Y43635D01*
X22517Y43635D01*
X22517Y43635D01*
X22517Y43636D01*
X22516Y43636D01*
X22515Y43637D01*
X22514Y43638D01*
X22513Y43639D01*
X22511Y43640D01*
X22510Y43641D01*
X22508Y43642D01*
X22506Y43643D01*
X22504Y43645D01*
X22501Y43646D01*
X22499Y43646D01*
X22496Y43647D01*
X22493Y43648D01*
X22497Y43665D01*
X22497D01*
X22498Y43665D01*
D02*
G37*
G36*
X14214Y49549D02*
X14110D01*
Y49560D01*
X14214D01*
Y49549D01*
D02*
G37*
G36*
X14375Y49527D02*
X14376D01*
X14378Y49526D01*
X14381Y49526D01*
X14383Y49526D01*
X14389Y49525D01*
X14394Y49523D01*
X14400Y49521D01*
X14402Y49520D01*
X14405Y49518D01*
X14405Y49518D01*
X14405Y49518D01*
X14406Y49517D01*
X14407Y49517D01*
X14408Y49516D01*
X14409Y49515D01*
X14411Y49514D01*
X14412Y49512D01*
X14414Y49510D01*
X14415Y49509D01*
X14419Y49504D01*
X14422Y49500D01*
X14425Y49494D01*
Y49494D01*
X14425Y49493D01*
X14425Y49492D01*
X14426Y49491D01*
X14426Y49490D01*
X14427Y49488D01*
X14427Y49486D01*
X14428Y49484D01*
X14429Y49481D01*
X14429Y49478D01*
X14430Y49473D01*
X14431Y49466D01*
X14431Y49460D01*
Y49459D01*
Y49459D01*
Y49458D01*
X14431Y49456D01*
Y49454D01*
X14431Y49453D01*
X14431Y49450D01*
X14430Y49448D01*
X14429Y49442D01*
X14428Y49436D01*
X14426Y49430D01*
X14424Y49425D01*
X14424Y49425D01*
X14423Y49424D01*
X14423Y49423D01*
X14422Y49422D01*
X14421Y49421D01*
X14421Y49420D01*
X14418Y49416D01*
X14415Y49413D01*
X14411Y49409D01*
X14407Y49405D01*
X14402Y49402D01*
X14402Y49402D01*
X14401Y49402D01*
X14401Y49401D01*
X14400Y49401D01*
X14398Y49400D01*
X14397Y49400D01*
X14395Y49399D01*
X14393Y49398D01*
X14391Y49397D01*
X14388Y49397D01*
X14383Y49396D01*
X14377Y49395D01*
X14371Y49394D01*
X14369D01*
X14368Y49394D01*
X14366Y49395D01*
X14364Y49395D01*
X14362Y49395D01*
X14360Y49396D01*
X14355Y49397D01*
X14349Y49398D01*
X14346Y49399D01*
X14344Y49401D01*
X14341Y49402D01*
X14339Y49404D01*
X14338Y49404D01*
X14338Y49404D01*
X14337Y49405D01*
X14336Y49406D01*
X14335Y49407D01*
X14334Y49408D01*
X14333Y49410D01*
X14331Y49411D01*
X14330Y49413D01*
X14328Y49415D01*
X14327Y49417D01*
X14325Y49420D01*
X14324Y49423D01*
X14323Y49425D01*
X14321Y49428D01*
X14320Y49432D01*
X14337Y49436D01*
Y49435D01*
X14337Y49435D01*
X14337Y49434D01*
X14338Y49433D01*
X14338Y49432D01*
X14339Y49431D01*
X14340Y49428D01*
X14342Y49424D01*
X14344Y49421D01*
X14347Y49418D01*
X14350Y49415D01*
X14350Y49415D01*
X14352Y49414D01*
X14353Y49413D01*
X14356Y49412D01*
X14359Y49411D01*
X14362Y49410D01*
X14367Y49409D01*
X14371Y49409D01*
X14373D01*
X14374Y49409D01*
X14375D01*
X14377Y49409D01*
X14380Y49410D01*
X14384Y49410D01*
X14388Y49412D01*
X14392Y49413D01*
X14396Y49416D01*
X14396D01*
X14397Y49416D01*
X14398Y49417D01*
X14399Y49419D01*
X14401Y49421D01*
X14404Y49424D01*
X14406Y49427D01*
X14408Y49431D01*
X14410Y49435D01*
Y49435D01*
X14410Y49436D01*
X14410Y49436D01*
X14411Y49437D01*
X14411Y49438D01*
X14411Y49439D01*
X14412Y49443D01*
X14413Y49446D01*
X14413Y49450D01*
X14414Y49455D01*
X14414Y49460D01*
Y49460D01*
Y49460D01*
Y49461D01*
Y49462D01*
X14414Y49464D01*
Y49465D01*
X14414Y49467D01*
X14413Y49469D01*
X14413Y49474D01*
X14412Y49478D01*
X14411Y49483D01*
X14409Y49488D01*
Y49488D01*
X14409Y49489D01*
X14409Y49489D01*
X14408Y49490D01*
X14407Y49492D01*
X14406Y49495D01*
X14404Y49498D01*
X14401Y49501D01*
X14398Y49504D01*
X14394Y49506D01*
X14394D01*
X14394Y49507D01*
X14393Y49507D01*
X14393Y49507D01*
X14392Y49508D01*
X14391Y49508D01*
X14388Y49509D01*
X14385Y49510D01*
X14381Y49511D01*
X14377Y49512D01*
X14373Y49512D01*
X14371D01*
X14370Y49512D01*
X14369D01*
X14368Y49512D01*
X14364Y49511D01*
X14360Y49510D01*
X14357Y49509D01*
X14352Y49507D01*
X14350Y49506D01*
X14349Y49504D01*
X14348Y49504D01*
X14348Y49504D01*
X14348Y49503D01*
X14347Y49503D01*
X14346Y49502D01*
X14345Y49501D01*
X14344Y49500D01*
X14343Y49498D01*
X14342Y49496D01*
X14341Y49495D01*
X14340Y49493D01*
X14339Y49490D01*
X14338Y49488D01*
X14337Y49485D01*
X14336Y49483D01*
X14335Y49480D01*
X14318Y49484D01*
Y49484D01*
X14318Y49485D01*
X14319Y49486D01*
X14319Y49487D01*
X14320Y49489D01*
X14320Y49491D01*
X14321Y49493D01*
X14323Y49496D01*
X14325Y49501D01*
X14328Y49506D01*
X14330Y49509D01*
X14332Y49511D01*
X14335Y49514D01*
X14337Y49516D01*
X14337Y49516D01*
X14338Y49516D01*
X14339Y49517D01*
X14340Y49517D01*
X14341Y49518D01*
X14343Y49519D01*
X14345Y49520D01*
X14347Y49521D01*
X14349Y49522D01*
X14352Y49523D01*
X14354Y49524D01*
X14357Y49525D01*
X14361Y49526D01*
X14364Y49526D01*
X14367Y49527D01*
X14371Y49527D01*
X14373D01*
X14375Y49527D01*
D02*
G37*
G36*
X14099Y49396D02*
X14049D01*
X14047Y49397D01*
X14046D01*
X14042Y49397D01*
X14039Y49397D01*
X14035Y49398D01*
X14031Y49399D01*
X14027Y49400D01*
X14027D01*
X14027Y49401D01*
X14026Y49401D01*
X14024Y49402D01*
X14022Y49403D01*
X14020Y49405D01*
X14018Y49407D01*
X14016Y49410D01*
X14014Y49412D01*
X14013Y49413D01*
X14013Y49414D01*
X14012Y49415D01*
X14011Y49418D01*
X14010Y49420D01*
X14009Y49423D01*
X14009Y49426D01*
X14008Y49429D01*
Y49430D01*
Y49430D01*
X14009Y49432D01*
X14009Y49434D01*
X14009Y49437D01*
X14010Y49439D01*
X14012Y49442D01*
X14013Y49445D01*
X14013Y49445D01*
X14014Y49446D01*
X14015Y49447D01*
X14016Y49449D01*
X14018Y49450D01*
X14020Y49453D01*
X14023Y49454D01*
X14026Y49456D01*
X14026D01*
X14026Y49456D01*
X14025Y49457D01*
X14024Y49457D01*
X14022Y49458D01*
X14020Y49459D01*
X14017Y49461D01*
X14014Y49463D01*
X14011Y49465D01*
X14008Y49468D01*
X14008Y49468D01*
X14007Y49470D01*
X14006Y49471D01*
X14005Y49473D01*
X14004Y49476D01*
X14003Y49480D01*
X14002Y49483D01*
X14002Y49487D01*
Y49487D01*
Y49488D01*
Y49489D01*
X14002Y49491D01*
X14003Y49493D01*
X14003Y49495D01*
X14004Y49498D01*
X14005Y49501D01*
X14006Y49504D01*
X14006Y49504D01*
X14007Y49505D01*
X14007Y49507D01*
X14009Y49509D01*
X14010Y49510D01*
X14012Y49512D01*
X14013Y49514D01*
X14015Y49516D01*
X14016Y49516D01*
X14016Y49517D01*
X14018Y49518D01*
X14019Y49518D01*
X14021Y49519D01*
X14024Y49521D01*
X14026Y49522D01*
X14029Y49522D01*
X14030D01*
X14031Y49523D01*
X14033Y49523D01*
X14035Y49523D01*
X14038Y49524D01*
X14042Y49524D01*
X14046Y49524D01*
X14050Y49524D01*
X14099D01*
Y49396D01*
D02*
G37*
G36*
X13980D02*
X13962D01*
Y49509D01*
X13899D01*
Y49524D01*
X13980D01*
Y49396D01*
D02*
G37*
G36*
X13879D02*
X13786D01*
Y49412D01*
X13862D01*
Y49451D01*
X13791D01*
Y49466D01*
X13862D01*
Y49509D01*
X13783D01*
Y49524D01*
X13879D01*
Y49396D01*
D02*
G37*
G36*
X14260Y49424D02*
X14260Y49425D01*
X14261Y49425D01*
X14262Y49426D01*
X14264Y49428D01*
X14266Y49429D01*
X14269Y49431D01*
X14272Y49433D01*
X14275Y49435D01*
X14275D01*
X14276Y49436D01*
X14277Y49436D01*
X14278Y49437D01*
X14281Y49438D01*
X14283Y49440D01*
X14286Y49441D01*
X14289Y49442D01*
X14292Y49443D01*
Y49428D01*
X14291D01*
X14291Y49428D01*
X14290Y49428D01*
X14289Y49427D01*
X14288Y49426D01*
X14287Y49426D01*
X14284Y49424D01*
X14280Y49422D01*
X14276Y49419D01*
X14273Y49416D01*
X14269Y49413D01*
X14268Y49413D01*
X14268Y49413D01*
X14268Y49412D01*
X14267Y49412D01*
X14265Y49410D01*
X14263Y49408D01*
X14261Y49405D01*
X14258Y49402D01*
X14256Y49399D01*
X14255Y49396D01*
X14244D01*
Y49524D01*
X14260D01*
Y49424D01*
D02*
G37*
G36*
X21201Y43160D02*
X21185D01*
Y43260D01*
X21185Y43260D01*
X21184Y43259D01*
X21183Y43258D01*
X21181Y43257D01*
X21179Y43255D01*
X21177Y43253D01*
X21174Y43251D01*
X21170Y43249D01*
X21170D01*
X21170Y43249D01*
X21169Y43248D01*
X21167Y43247D01*
X21165Y43246D01*
X21162Y43245D01*
X21160Y43244D01*
X21157Y43242D01*
X21154Y43241D01*
Y43256D01*
X21154D01*
X21155Y43257D01*
X21155Y43257D01*
X21156Y43257D01*
X21157Y43258D01*
X21159Y43259D01*
X21162Y43261D01*
X21165Y43263D01*
X21169Y43265D01*
X21173Y43268D01*
X21177Y43271D01*
X21177Y43272D01*
X21177Y43272D01*
X21178Y43272D01*
X21179Y43273D01*
X21180Y43275D01*
X21183Y43277D01*
X21185Y43280D01*
X21187Y43282D01*
X21189Y43285D01*
X21191Y43289D01*
X21201D01*
Y43160D01*
D02*
G37*
G36*
X21102D02*
X21086D01*
Y43260D01*
X21086Y43260D01*
X21085Y43259D01*
X21084Y43258D01*
X21082Y43257D01*
X21080Y43255D01*
X21077Y43253D01*
X21074Y43251D01*
X21071Y43249D01*
X21071D01*
X21071Y43249D01*
X21069Y43248D01*
X21068Y43247D01*
X21065Y43246D01*
X21063Y43245D01*
X21060Y43244D01*
X21057Y43242D01*
X21054Y43241D01*
Y43256D01*
X21055D01*
X21055Y43257D01*
X21056Y43257D01*
X21057Y43257D01*
X21058Y43258D01*
X21059Y43259D01*
X21062Y43261D01*
X21066Y43263D01*
X21070Y43265D01*
X21074Y43268D01*
X21077Y43271D01*
X21078Y43272D01*
X21078Y43272D01*
X21078Y43272D01*
X21079Y43273D01*
X21081Y43275D01*
X21083Y43277D01*
X21085Y43280D01*
X21088Y43282D01*
X21090Y43285D01*
X21091Y43289D01*
X21102D01*
Y43160D01*
D02*
G37*
G36*
X20981Y43288D02*
X20983D01*
X20986Y43288D01*
X20990Y43287D01*
X20995Y43287D01*
X20999Y43286D01*
X21001Y43285D01*
X21003Y43285D01*
X21003D01*
X21003Y43284D01*
X21004Y43284D01*
X21006Y43283D01*
X21008Y43282D01*
X21010Y43280D01*
X21012Y43278D01*
X21015Y43275D01*
X21017Y43272D01*
Y43272D01*
X21017Y43272D01*
X21018Y43271D01*
X21019Y43269D01*
X21020Y43267D01*
X21021Y43264D01*
X21022Y43260D01*
X21022Y43257D01*
X21022Y43253D01*
Y43253D01*
Y43252D01*
Y43252D01*
X21022Y43251D01*
Y43250D01*
X21022Y43248D01*
X21021Y43245D01*
X21020Y43241D01*
X21019Y43238D01*
X21016Y43234D01*
X21015Y43232D01*
X21013Y43230D01*
X21013Y43230D01*
X21013Y43230D01*
X21012Y43229D01*
X21012Y43228D01*
X21011Y43228D01*
X21010Y43227D01*
X21008Y43226D01*
X21007Y43225D01*
X21005Y43224D01*
X21003Y43223D01*
X21001Y43222D01*
X20998Y43221D01*
X20995Y43220D01*
X20993Y43219D01*
X20990Y43219D01*
X20986Y43218D01*
X20987Y43218D01*
X20987Y43218D01*
X20988Y43217D01*
X20990Y43216D01*
X20993Y43214D01*
X20995Y43213D01*
X20996Y43212D01*
X20997Y43211D01*
X20998Y43211D01*
X20999Y43209D01*
X21001Y43207D01*
X21003Y43205D01*
X21005Y43202D01*
X21008Y43198D01*
X21010Y43195D01*
X21032Y43160D01*
X21011D01*
X20995Y43187D01*
Y43187D01*
X20994Y43187D01*
X20994Y43188D01*
X20993Y43188D01*
X20992Y43191D01*
X20990Y43193D01*
X20988Y43196D01*
X20986Y43199D01*
X20984Y43202D01*
X20982Y43204D01*
X20982Y43204D01*
X20982Y43205D01*
X20981Y43206D01*
X20979Y43208D01*
X20977Y43210D01*
X20975Y43212D01*
X20974Y43213D01*
X20973Y43213D01*
X20973Y43213D01*
X20972Y43213D01*
X20971Y43214D01*
X20970Y43215D01*
X20969Y43215D01*
X20966Y43216D01*
X20966D01*
X20965Y43216D01*
X20965D01*
X20964Y43216D01*
X20962Y43217D01*
X20961D01*
X20959Y43217D01*
X20937D01*
Y43160D01*
X20920D01*
Y43288D01*
X20979D01*
X20981Y43288D01*
D02*
G37*
G36*
X24798Y51105D02*
X24698D01*
X24698Y51105D01*
X24699Y51104D01*
X24700Y51103D01*
X24701Y51101D01*
X24703Y51099D01*
X24705Y51097D01*
X24707Y51094D01*
X24709Y51090D01*
Y51090D01*
X24709Y51090D01*
X24710Y51089D01*
X24710Y51087D01*
X24712Y51085D01*
X24713Y51082D01*
X24714Y51080D01*
X24715Y51077D01*
X24717Y51074D01*
X24701D01*
Y51074D01*
X24701Y51075D01*
X24701Y51075D01*
X24700Y51076D01*
X24700Y51077D01*
X24699Y51079D01*
X24697Y51082D01*
X24695Y51085D01*
X24693Y51089D01*
X24690Y51093D01*
X24686Y51097D01*
X24686Y51097D01*
X24686Y51097D01*
X24685Y51098D01*
X24685Y51099D01*
X24683Y51100D01*
X24681Y51103D01*
X24678Y51105D01*
X24675Y51107D01*
X24672Y51109D01*
X24669Y51111D01*
Y51121D01*
X24798D01*
Y51105D01*
D02*
G37*
G36*
X24763Y51046D02*
X24764Y51046D01*
X24766Y51046D01*
X24768Y51045D01*
X24770Y51045D01*
X24774Y51044D01*
X24777Y51042D01*
X24779Y51041D01*
X24781Y51040D01*
X24784Y51038D01*
X24786Y51036D01*
X24788Y51034D01*
X24789Y51034D01*
X24789Y51034D01*
X24789Y51033D01*
X24790Y51032D01*
X24791Y51031D01*
X24792Y51029D01*
X24793Y51028D01*
X24794Y51026D01*
X24795Y51024D01*
X24796Y51021D01*
X24797Y51019D01*
X24798Y51016D01*
X24799Y51013D01*
X24799Y51010D01*
X24800Y51007D01*
X24800Y51003D01*
Y51002D01*
X24800Y51000D01*
X24800Y50999D01*
X24799Y50997D01*
X24799Y50995D01*
X24799Y50993D01*
X24798Y50989D01*
X24796Y50984D01*
X24795Y50982D01*
X24793Y50980D01*
X24792Y50977D01*
X24790Y50975D01*
X24790Y50975D01*
X24789Y50975D01*
X24789Y50974D01*
X24788Y50974D01*
X24787Y50973D01*
X24786Y50972D01*
X24785Y50971D01*
X24783Y50969D01*
X24781Y50968D01*
X24779Y50967D01*
X24775Y50965D01*
X24770Y50964D01*
X24767Y50963D01*
X24764Y50963D01*
X24762Y50978D01*
X24762D01*
X24762Y50979D01*
X24763Y50979D01*
X24764Y50979D01*
X24765Y50979D01*
X24767Y50979D01*
X24769Y50980D01*
X24773Y50982D01*
X24776Y50983D01*
X24779Y50985D01*
X24781Y50987D01*
X24782Y50988D01*
X24782Y50989D01*
X24783Y50990D01*
X24784Y50992D01*
X24785Y50994D01*
X24786Y50997D01*
X24787Y51000D01*
X24787Y51003D01*
Y51004D01*
X24787Y51005D01*
X24787Y51007D01*
X24786Y51010D01*
X24785Y51013D01*
X24784Y51016D01*
X24782Y51019D01*
X24779Y51022D01*
X24779Y51022D01*
X24778Y51023D01*
X24776Y51024D01*
X24774Y51026D01*
X24771Y51027D01*
X24768Y51029D01*
X24764Y51029D01*
X24760Y51030D01*
X24760D01*
X24760D01*
X24759D01*
X24759Y51030D01*
X24757Y51029D01*
X24754Y51029D01*
X24751Y51028D01*
X24748Y51027D01*
X24745Y51025D01*
X24742Y51023D01*
X24742Y51022D01*
X24741Y51021D01*
X24740Y51020D01*
X24739Y51018D01*
X24738Y51015D01*
X24737Y51012D01*
X24736Y51009D01*
X24735Y51005D01*
Y51003D01*
X24736Y51002D01*
X24736Y51000D01*
X24736Y50998D01*
X24737Y50996D01*
X24737Y50994D01*
X24723Y50995D01*
Y50996D01*
X24723Y50997D01*
Y50999D01*
X24723Y51002D01*
X24723Y51004D01*
X24722Y51007D01*
X24721Y51010D01*
X24720Y51013D01*
X24718Y51016D01*
Y51016D01*
X24718Y51016D01*
X24717Y51017D01*
X24716Y51019D01*
X24714Y51020D01*
X24712Y51021D01*
X24709Y51023D01*
X24706Y51024D01*
X24704Y51024D01*
X24702D01*
X24702D01*
X24702D01*
X24701D01*
X24699Y51024D01*
X24697Y51023D01*
X24695Y51023D01*
X24693Y51022D01*
X24690Y51020D01*
X24688Y51018D01*
X24688Y51018D01*
X24687Y51017D01*
X24686Y51016D01*
X24685Y51014D01*
X24684Y51012D01*
X24683Y51009D01*
X24682Y51006D01*
X24682Y51003D01*
Y51002D01*
X24683Y51000D01*
X24683Y50998D01*
X24684Y50995D01*
X24685Y50993D01*
X24686Y50990D01*
X24688Y50988D01*
X24688Y50988D01*
X24689Y50987D01*
X24690Y50986D01*
X24692Y50984D01*
X24695Y50983D01*
X24698Y50982D01*
X24701Y50981D01*
X24705Y50980D01*
X24702Y50964D01*
X24702D01*
X24702Y50964D01*
X24701Y50965D01*
X24700Y50965D01*
X24698Y50965D01*
X24697Y50966D01*
X24693Y50967D01*
X24689Y50969D01*
X24685Y50971D01*
X24681Y50974D01*
X24678Y50977D01*
X24678Y50977D01*
X24678Y50978D01*
X24677Y50978D01*
X24677Y50979D01*
X24676Y50980D01*
X24675Y50981D01*
X24674Y50983D01*
X24673Y50984D01*
X24672Y50988D01*
X24671Y50992D01*
X24670Y50997D01*
X24669Y51000D01*
Y51004D01*
X24669Y51006D01*
X24670Y51009D01*
X24670Y51012D01*
X24671Y51015D01*
X24672Y51019D01*
X24674Y51022D01*
Y51022D01*
X24674Y51022D01*
X24675Y51023D01*
X24676Y51025D01*
X24677Y51027D01*
X24679Y51029D01*
X24681Y51031D01*
X24683Y51034D01*
X24686Y51035D01*
X24686Y51036D01*
X24687Y51036D01*
X24689Y51037D01*
X24691Y51038D01*
X24693Y51039D01*
X24696Y51039D01*
X24699Y51040D01*
X24703Y51040D01*
X24703D01*
X24704D01*
X24705Y51040D01*
X24708Y51040D01*
X24710Y51039D01*
X24713Y51038D01*
X24715Y51037D01*
X24718Y51036D01*
X24718Y51035D01*
X24719Y51035D01*
X24720Y51034D01*
X24722Y51032D01*
X24723Y51030D01*
X24725Y51028D01*
X24727Y51026D01*
X24728Y51022D01*
Y51023D01*
X24729Y51023D01*
X24729Y51024D01*
X24729Y51024D01*
X24730Y51026D01*
X24731Y51029D01*
X24732Y51032D01*
X24734Y51035D01*
X24737Y51038D01*
X24739Y51040D01*
X24740Y51040D01*
X24741Y51041D01*
X24743Y51042D01*
X24745Y51043D01*
X24748Y51044D01*
X24752Y51046D01*
X24756Y51046D01*
X24760Y51046D01*
X24760D01*
X24761D01*
X24762D01*
X24763Y51046D01*
D02*
G37*
G36*
X24798Y50931D02*
X24771Y50915D01*
X24771D01*
X24771Y50914D01*
X24770Y50914D01*
X24769Y50913D01*
X24767Y50912D01*
X24765Y50910D01*
X24762Y50908D01*
X24759Y50906D01*
X24756Y50904D01*
X24754Y50902D01*
X24753Y50902D01*
X24753Y50902D01*
X24752Y50901D01*
X24750Y50899D01*
X24747Y50897D01*
X24746Y50895D01*
X24745Y50894D01*
X24745Y50893D01*
X24745Y50893D01*
X24744Y50892D01*
X24744Y50891D01*
X24743Y50890D01*
X24743Y50889D01*
X24742Y50886D01*
Y50886D01*
X24742Y50885D01*
Y50885D01*
X24741Y50884D01*
X24741Y50882D01*
Y50881D01*
X24741Y50879D01*
Y50857D01*
X24798D01*
Y50840D01*
X24670D01*
Y50899D01*
X24670Y50901D01*
Y50903D01*
X24670Y50906D01*
X24671Y50910D01*
X24671Y50915D01*
X24672Y50919D01*
X24673Y50921D01*
X24673Y50923D01*
Y50923D01*
X24673Y50923D01*
X24674Y50924D01*
X24675Y50926D01*
X24676Y50928D01*
X24678Y50930D01*
X24680Y50932D01*
X24683Y50935D01*
X24685Y50937D01*
X24686D01*
X24686Y50937D01*
X24687Y50938D01*
X24689Y50939D01*
X24691Y50940D01*
X24694Y50941D01*
X24697Y50942D01*
X24701Y50942D01*
X24705Y50942D01*
X24705D01*
X24705D01*
X24706D01*
X24707Y50942D01*
X24708D01*
X24710Y50942D01*
X24713Y50941D01*
X24716Y50940D01*
X24720Y50939D01*
X24724Y50936D01*
X24726Y50935D01*
X24728Y50933D01*
X24728Y50933D01*
X24728Y50933D01*
X24729Y50932D01*
X24729Y50932D01*
X24730Y50931D01*
X24731Y50930D01*
X24732Y50928D01*
X24733Y50927D01*
X24734Y50925D01*
X24735Y50923D01*
X24736Y50921D01*
X24737Y50918D01*
X24737Y50915D01*
X24738Y50913D01*
X24739Y50910D01*
X24740Y50906D01*
X24740Y50907D01*
X24740Y50907D01*
X24741Y50908D01*
X24742Y50910D01*
X24744Y50913D01*
X24745Y50915D01*
X24746Y50916D01*
X24746Y50917D01*
X24747Y50918D01*
X24749Y50919D01*
X24751Y50921D01*
X24753Y50923D01*
X24756Y50925D01*
X24759Y50928D01*
X24763Y50930D01*
X24798Y50952D01*
Y50931D01*
D02*
G37*
G36*
X14500Y46472D02*
X14413D01*
Y46487D01*
X14483D01*
Y46527D01*
X14423D01*
Y46542D01*
X14483D01*
Y46600D01*
X14500D01*
Y46472D01*
D02*
G37*
G36*
X14392D02*
X14342D01*
X14341Y46472D01*
X14339D01*
X14336Y46473D01*
X14332Y46473D01*
X14328Y46474D01*
X14324Y46475D01*
X14321Y46476D01*
X14321D01*
X14320Y46476D01*
X14319Y46477D01*
X14318Y46478D01*
X14316Y46479D01*
X14314Y46480D01*
X14311Y46483D01*
X14309Y46485D01*
X14307Y46488D01*
X14307Y46488D01*
X14306Y46489D01*
X14305Y46491D01*
X14304Y46493D01*
X14303Y46496D01*
X14302Y46498D01*
X14302Y46502D01*
X14302Y46505D01*
Y46505D01*
Y46506D01*
X14302Y46508D01*
X14302Y46510D01*
X14303Y46512D01*
X14304Y46515D01*
X14305Y46517D01*
X14306Y46520D01*
X14306Y46520D01*
X14307Y46521D01*
X14308Y46523D01*
X14310Y46524D01*
X14311Y46526D01*
X14314Y46528D01*
X14316Y46530D01*
X14320Y46532D01*
X14319D01*
X14319Y46532D01*
X14319Y46532D01*
X14318Y46532D01*
X14316Y46533D01*
X14313Y46535D01*
X14310Y46536D01*
X14307Y46538D01*
X14304Y46541D01*
X14302Y46544D01*
X14302Y46544D01*
X14301Y46545D01*
X14300Y46547D01*
X14299Y46549D01*
X14297Y46552D01*
X14296Y46555D01*
X14296Y46559D01*
X14295Y46563D01*
Y46563D01*
Y46563D01*
Y46564D01*
X14296Y46566D01*
X14296Y46568D01*
X14296Y46571D01*
X14297Y46574D01*
X14298Y46577D01*
X14299Y46580D01*
X14299Y46580D01*
X14300Y46581D01*
X14301Y46582D01*
X14302Y46584D01*
X14303Y46586D01*
X14305Y46588D01*
X14307Y46590D01*
X14309Y46592D01*
X14309Y46592D01*
X14310Y46592D01*
X14311Y46593D01*
X14313Y46594D01*
X14315Y46595D01*
X14317Y46596D01*
X14320Y46597D01*
X14323Y46598D01*
X14323D01*
X14324Y46598D01*
X14326Y46599D01*
X14329Y46599D01*
X14331Y46599D01*
X14335Y46600D01*
X14339Y46600D01*
X14343Y46600D01*
X14392D01*
Y46472D01*
D02*
G37*
G36*
X14228Y46569D02*
X14284D01*
Y46555D01*
X14225Y46472D01*
X14213D01*
Y46555D01*
X14195D01*
Y46569D01*
X14213D01*
Y46600D01*
X14228D01*
Y46569D01*
D02*
G37*
G36*
X22870Y51701D02*
X22870Y51699D01*
Y51697D01*
X22870Y51694D01*
X22869Y51690D01*
X22869Y51685D01*
X22868Y51681D01*
X22867Y51679D01*
X22867Y51677D01*
Y51677D01*
X22867Y51677D01*
X22866Y51676D01*
X22865Y51674D01*
X22864Y51672D01*
X22862Y51670D01*
X22860Y51667D01*
X22857Y51665D01*
X22855Y51663D01*
X22854D01*
X22854Y51663D01*
X22853Y51662D01*
X22851Y51661D01*
X22849Y51660D01*
X22846Y51659D01*
X22843Y51658D01*
X22839Y51658D01*
X22835Y51658D01*
X22835D01*
X22835D01*
X22834D01*
X22833Y51658D01*
X22832D01*
X22830Y51658D01*
X22827Y51659D01*
X22824Y51660D01*
X22820Y51661D01*
X22816Y51664D01*
X22814Y51665D01*
X22812Y51667D01*
X22812Y51667D01*
X22812Y51667D01*
X22811Y51667D01*
X22811Y51668D01*
X22810Y51669D01*
X22809Y51670D01*
X22808Y51672D01*
X22807Y51673D01*
X22806Y51675D01*
X22805Y51677D01*
X22804Y51679D01*
X22803Y51682D01*
X22803Y51685D01*
X22802Y51687D01*
X22801Y51690D01*
X22800Y51694D01*
X22800Y51693D01*
X22800Y51693D01*
X22799Y51692D01*
X22798Y51690D01*
X22796Y51687D01*
X22795Y51685D01*
X22794Y51684D01*
X22794Y51683D01*
X22793Y51682D01*
X22791Y51681D01*
X22789Y51679D01*
X22787Y51677D01*
X22784Y51675D01*
X22781Y51672D01*
X22777Y51670D01*
X22742Y51648D01*
Y51669D01*
X22769Y51685D01*
X22769D01*
X22769Y51686D01*
X22770Y51686D01*
X22771Y51687D01*
X22773Y51688D01*
X22775Y51690D01*
X22778Y51692D01*
X22781Y51694D01*
X22784Y51696D01*
X22786Y51698D01*
X22787Y51698D01*
X22787Y51698D01*
X22788Y51699D01*
X22790Y51701D01*
X22793Y51703D01*
X22794Y51705D01*
X22795Y51706D01*
X22795Y51707D01*
X22795Y51707D01*
X22796Y51708D01*
X22796Y51709D01*
X22797Y51710D01*
X22797Y51711D01*
X22798Y51714D01*
Y51714D01*
X22798Y51715D01*
Y51715D01*
X22799Y51716D01*
X22799Y51718D01*
Y51719D01*
X22799Y51721D01*
Y51743D01*
X22742D01*
Y51760D01*
X22870D01*
Y51701D01*
D02*
G37*
G36*
Y51538D02*
X22855D01*
Y51614D01*
X22816D01*
Y51543D01*
X22801D01*
Y51614D01*
X22757D01*
Y51535D01*
X22742D01*
Y51631D01*
X22870D01*
Y51538D01*
D02*
G37*
G36*
X22785Y51502D02*
X22785D01*
X22784D01*
X22784Y51501D01*
X22783D01*
X22781Y51501D01*
X22779Y51500D01*
X22777Y51500D01*
X22774Y51499D01*
X22771Y51498D01*
X22769Y51496D01*
X22769Y51496D01*
X22768Y51496D01*
X22767Y51495D01*
X22765Y51493D01*
X22764Y51491D01*
X22762Y51489D01*
X22760Y51487D01*
X22759Y51484D01*
Y51483D01*
X22759Y51483D01*
X22758Y51483D01*
X22758Y51482D01*
X22758Y51480D01*
X22757Y51478D01*
X22756Y51475D01*
X22756Y51472D01*
X22755Y51468D01*
X22755Y51464D01*
Y51462D01*
X22755Y51460D01*
X22756Y51458D01*
X22756Y51455D01*
X22756Y51453D01*
X22757Y51450D01*
X22758Y51447D01*
X22758Y51446D01*
X22758Y51445D01*
X22759Y51444D01*
X22760Y51443D01*
X22761Y51441D01*
X22763Y51439D01*
X22764Y51437D01*
X22766Y51436D01*
X22766Y51436D01*
X22767Y51435D01*
X22768Y51435D01*
X22769Y51434D01*
X22771Y51433D01*
X22773Y51433D01*
X22775Y51432D01*
X22777Y51432D01*
X22777D01*
X22778D01*
X22779Y51432D01*
X22781Y51432D01*
X22782Y51433D01*
X22784Y51433D01*
X22786Y51434D01*
X22787Y51436D01*
X22788Y51436D01*
X22788Y51436D01*
X22789Y51437D01*
X22790Y51438D01*
X22791Y51440D01*
X22792Y51442D01*
X22794Y51444D01*
X22795Y51447D01*
X22795Y51447D01*
X22795Y51448D01*
X22796Y51450D01*
X22796Y51451D01*
X22796Y51452D01*
X22797Y51453D01*
X22797Y51455D01*
X22798Y51457D01*
X22798Y51459D01*
X22799Y51461D01*
X22800Y51464D01*
X22800Y51467D01*
X22801Y51470D01*
Y51470D01*
X22801Y51471D01*
X22801Y51472D01*
X22802Y51473D01*
X22802Y51474D01*
X22803Y51476D01*
X22804Y51480D01*
X22805Y51484D01*
X22806Y51488D01*
X22808Y51492D01*
X22808Y51493D01*
X22809Y51495D01*
Y51495D01*
X22809Y51495D01*
X22810Y51496D01*
X22811Y51498D01*
X22812Y51500D01*
X22814Y51502D01*
X22816Y51504D01*
X22818Y51506D01*
X22821Y51508D01*
X22821Y51508D01*
X22822Y51509D01*
X22824Y51510D01*
X22826Y51510D01*
X22828Y51511D01*
X22831Y51512D01*
X22834Y51512D01*
X22837Y51513D01*
X22837D01*
X22837D01*
X22838D01*
X22839D01*
X22840Y51512D01*
X22843Y51512D01*
X22846Y51511D01*
X22849Y51510D01*
X22852Y51509D01*
X22855Y51507D01*
X22855D01*
X22855Y51507D01*
X22857Y51506D01*
X22858Y51505D01*
X22860Y51503D01*
X22862Y51501D01*
X22864Y51498D01*
X22866Y51495D01*
X22868Y51491D01*
Y51491D01*
X22868Y51491D01*
X22868Y51490D01*
X22869Y51489D01*
X22869Y51488D01*
X22870Y51487D01*
X22870Y51484D01*
X22871Y51481D01*
X22872Y51477D01*
X22872Y51473D01*
X22872Y51468D01*
Y51465D01*
X22872Y51464D01*
Y51463D01*
X22872Y51459D01*
X22871Y51455D01*
X22870Y51451D01*
X22869Y51447D01*
X22868Y51443D01*
Y51443D01*
X22868Y51442D01*
X22867Y51442D01*
X22867Y51441D01*
X22866Y51439D01*
X22864Y51437D01*
X22862Y51434D01*
X22860Y51431D01*
X22857Y51428D01*
X22854Y51426D01*
X22854D01*
X22854Y51426D01*
X22853Y51426D01*
X22853Y51425D01*
X22851Y51424D01*
X22848Y51423D01*
X22845Y51422D01*
X22842Y51421D01*
X22838Y51420D01*
X22834Y51420D01*
X22833Y51436D01*
X22833D01*
X22833D01*
X22834Y51436D01*
X22835Y51436D01*
X22837Y51437D01*
X22840Y51438D01*
X22843Y51439D01*
X22846Y51440D01*
X22848Y51442D01*
X22851Y51445D01*
X22851Y51445D01*
X22852Y51446D01*
X22853Y51448D01*
X22854Y51451D01*
X22855Y51454D01*
X22856Y51457D01*
X22857Y51462D01*
X22857Y51467D01*
Y51470D01*
X22857Y51471D01*
X22857Y51472D01*
X22857Y51476D01*
X22856Y51479D01*
X22855Y51483D01*
X22853Y51487D01*
X22852Y51488D01*
X22852Y51490D01*
X22851Y51490D01*
X22851Y51491D01*
X22849Y51492D01*
X22848Y51493D01*
X22846Y51494D01*
X22844Y51495D01*
X22841Y51496D01*
X22838Y51496D01*
X22838D01*
X22837D01*
X22836Y51496D01*
X22834Y51496D01*
X22832Y51495D01*
X22830Y51494D01*
X22829Y51493D01*
X22827Y51492D01*
X22827Y51491D01*
X22826Y51490D01*
X22825Y51490D01*
X22825Y51489D01*
X22825Y51488D01*
X22824Y51487D01*
X22823Y51485D01*
X22823Y51483D01*
X22822Y51481D01*
X22821Y51479D01*
X22820Y51476D01*
X22819Y51473D01*
X22818Y51470D01*
X22818Y51466D01*
Y51466D01*
X22817Y51465D01*
X22817Y51464D01*
X22817Y51463D01*
X22816Y51461D01*
X22816Y51459D01*
X22815Y51457D01*
X22815Y51455D01*
X22813Y51450D01*
X22812Y51445D01*
X22811Y51443D01*
X22811Y51441D01*
X22810Y51439D01*
X22809Y51438D01*
Y51438D01*
X22809Y51437D01*
X22809Y51437D01*
X22808Y51436D01*
X22807Y51434D01*
X22806Y51431D01*
X22804Y51429D01*
X22802Y51426D01*
X22799Y51423D01*
X22796Y51421D01*
X22796Y51421D01*
X22795Y51420D01*
X22793Y51419D01*
X22791Y51418D01*
X22788Y51417D01*
X22785Y51416D01*
X22782Y51416D01*
X22778Y51416D01*
X22778D01*
X22778D01*
X22777D01*
X22776D01*
X22774Y51416D01*
X22772Y51416D01*
X22769Y51417D01*
X22766Y51418D01*
X22762Y51420D01*
X22759Y51422D01*
X22759D01*
X22758Y51422D01*
X22757Y51423D01*
X22756Y51424D01*
X22754Y51426D01*
X22752Y51428D01*
X22749Y51431D01*
X22747Y51435D01*
X22745Y51438D01*
Y51439D01*
X22745Y51439D01*
X22745Y51440D01*
X22744Y51440D01*
X22744Y51441D01*
X22743Y51443D01*
X22743Y51446D01*
X22742Y51449D01*
X22741Y51453D01*
X22740Y51458D01*
X22740Y51463D01*
Y51466D01*
X22740Y51468D01*
Y51469D01*
X22740Y51471D01*
X22741Y51473D01*
X22741Y51478D01*
X22742Y51483D01*
X22743Y51487D01*
X22745Y51492D01*
Y51492D01*
X22745Y51493D01*
X22746Y51493D01*
X22746Y51494D01*
X22747Y51496D01*
X22749Y51499D01*
X22751Y51502D01*
X22754Y51505D01*
X22757Y51508D01*
X22760Y51511D01*
X22760D01*
X22761Y51511D01*
X22761Y51511D01*
X22762Y51512D01*
X22763Y51512D01*
X22764Y51513D01*
X22767Y51514D01*
X22770Y51515D01*
X22774Y51516D01*
X22779Y51517D01*
X22783Y51517D01*
X22785Y51502D01*
D02*
G37*
G36*
X22870Y51300D02*
X22855D01*
Y51375D01*
X22816D01*
Y51304D01*
X22801D01*
Y51375D01*
X22757D01*
Y51297D01*
X22742D01*
Y51392D01*
X22870D01*
Y51300D01*
D02*
G37*
G36*
Y51181D02*
X22855D01*
Y51224D01*
X22742D01*
Y51241D01*
X22855D01*
Y51283D01*
X22870D01*
Y51181D01*
D02*
G37*
G36*
X24764Y52164D02*
X24764D01*
X24764D01*
X24763Y52164D01*
X24762D01*
X24761Y52164D01*
X24758Y52163D01*
X24756Y52162D01*
X24753Y52161D01*
X24750Y52160D01*
X24748Y52159D01*
X24748Y52159D01*
X24747Y52158D01*
X24746Y52157D01*
X24745Y52156D01*
X24743Y52154D01*
X24741Y52152D01*
X24740Y52149D01*
X24738Y52146D01*
Y52146D01*
X24738Y52146D01*
X24738Y52145D01*
X24738Y52145D01*
X24737Y52143D01*
X24736Y52140D01*
X24735Y52137D01*
X24735Y52134D01*
X24735Y52130D01*
X24734Y52126D01*
Y52125D01*
X24735Y52123D01*
X24735Y52121D01*
X24735Y52118D01*
X24735Y52115D01*
X24736Y52112D01*
X24737Y52109D01*
X24737Y52109D01*
X24738Y52108D01*
X24738Y52107D01*
X24739Y52105D01*
X24740Y52103D01*
X24742Y52102D01*
X24743Y52100D01*
X24745Y52098D01*
X24745Y52098D01*
X24746Y52098D01*
X24747Y52097D01*
X24748Y52096D01*
X24750Y52096D01*
X24752Y52095D01*
X24754Y52095D01*
X24756Y52095D01*
X24756D01*
X24757D01*
X24758Y52095D01*
X24760Y52095D01*
X24761Y52095D01*
X24763Y52096D01*
X24765Y52097D01*
X24767Y52098D01*
X24767Y52098D01*
X24767Y52099D01*
X24768Y52100D01*
X24769Y52101D01*
X24770Y52102D01*
X24772Y52105D01*
X24773Y52107D01*
X24774Y52110D01*
X24774Y52110D01*
X24774Y52111D01*
X24775Y52112D01*
X24775Y52113D01*
X24775Y52115D01*
X24776Y52116D01*
X24776Y52117D01*
X24777Y52119D01*
X24777Y52122D01*
X24778Y52124D01*
X24779Y52126D01*
X24780Y52129D01*
X24780Y52132D01*
Y52133D01*
X24780Y52133D01*
X24781Y52134D01*
X24781Y52135D01*
X24781Y52137D01*
X24782Y52138D01*
X24783Y52142D01*
X24784Y52146D01*
X24785Y52150D01*
X24787Y52154D01*
X24787Y52156D01*
X24788Y52157D01*
Y52157D01*
X24788Y52158D01*
X24789Y52159D01*
X24790Y52160D01*
X24792Y52162D01*
X24793Y52164D01*
X24795Y52167D01*
X24798Y52169D01*
X24800Y52171D01*
X24801Y52171D01*
X24802Y52171D01*
X24803Y52172D01*
X24805Y52173D01*
X24807Y52174D01*
X24810Y52174D01*
X24813Y52175D01*
X24816Y52175D01*
X24816D01*
X24817D01*
X24817D01*
X24818D01*
X24820Y52175D01*
X24822Y52174D01*
X24825Y52174D01*
X24828Y52173D01*
X24831Y52172D01*
X24834Y52170D01*
X24834D01*
X24835Y52170D01*
X24836Y52169D01*
X24837Y52167D01*
X24839Y52166D01*
X24841Y52164D01*
X24843Y52161D01*
X24845Y52157D01*
X24847Y52154D01*
Y52154D01*
X24847Y52153D01*
X24848Y52153D01*
X24848Y52152D01*
X24848Y52151D01*
X24849Y52150D01*
X24849Y52147D01*
X24850Y52143D01*
X24851Y52139D01*
X24851Y52135D01*
X24852Y52130D01*
Y52128D01*
X24851Y52127D01*
Y52125D01*
X24851Y52122D01*
X24851Y52118D01*
X24850Y52114D01*
X24848Y52109D01*
X24847Y52105D01*
Y52105D01*
X24847Y52105D01*
X24846Y52104D01*
X24846Y52103D01*
X24845Y52102D01*
X24844Y52099D01*
X24842Y52096D01*
X24839Y52094D01*
X24836Y52091D01*
X24833Y52089D01*
X24833D01*
X24833Y52088D01*
X24832Y52088D01*
X24832Y52088D01*
X24830Y52087D01*
X24828Y52086D01*
X24825Y52084D01*
X24821Y52083D01*
X24817Y52083D01*
X24813Y52082D01*
X24812Y52098D01*
X24812D01*
X24813D01*
X24813Y52099D01*
X24814Y52099D01*
X24816Y52099D01*
X24819Y52100D01*
X24822Y52101D01*
X24825Y52103D01*
X24828Y52105D01*
X24830Y52107D01*
X24830Y52108D01*
X24831Y52109D01*
X24832Y52111D01*
X24833Y52113D01*
X24834Y52116D01*
X24836Y52120D01*
X24836Y52125D01*
X24836Y52130D01*
Y52132D01*
X24836Y52133D01*
X24836Y52135D01*
X24836Y52138D01*
X24835Y52142D01*
X24834Y52146D01*
X24833Y52149D01*
X24832Y52151D01*
X24831Y52152D01*
X24831Y52152D01*
X24830Y52153D01*
X24829Y52154D01*
X24827Y52155D01*
X24825Y52157D01*
X24823Y52158D01*
X24820Y52159D01*
X24817Y52159D01*
X24817D01*
X24816D01*
X24815Y52159D01*
X24813Y52158D01*
X24811Y52158D01*
X24810Y52157D01*
X24808Y52156D01*
X24806Y52154D01*
X24806Y52154D01*
X24805Y52153D01*
X24805Y52152D01*
X24804Y52152D01*
X24804Y52150D01*
X24803Y52149D01*
X24802Y52147D01*
X24802Y52146D01*
X24801Y52144D01*
X24800Y52141D01*
X24799Y52139D01*
X24798Y52136D01*
X24798Y52132D01*
X24797Y52129D01*
Y52128D01*
X24797Y52128D01*
X24796Y52127D01*
X24796Y52125D01*
X24796Y52124D01*
X24795Y52122D01*
X24794Y52119D01*
X24794Y52117D01*
X24793Y52112D01*
X24791Y52108D01*
X24791Y52106D01*
X24790Y52104D01*
X24789Y52102D01*
X24789Y52100D01*
Y52100D01*
X24788Y52100D01*
X24788Y52099D01*
X24788Y52098D01*
X24787Y52096D01*
X24785Y52094D01*
X24783Y52091D01*
X24781Y52088D01*
X24778Y52086D01*
X24775Y52084D01*
X24775Y52083D01*
X24774Y52083D01*
X24772Y52082D01*
X24770Y52081D01*
X24768Y52080D01*
X24765Y52079D01*
X24761Y52078D01*
X24757Y52078D01*
X24757D01*
X24757D01*
X24756D01*
X24756D01*
X24754Y52079D01*
X24751Y52079D01*
X24748Y52080D01*
X24745Y52081D01*
X24742Y52082D01*
X24738Y52084D01*
X24738D01*
X24738Y52084D01*
X24737Y52085D01*
X24735Y52087D01*
X24733Y52088D01*
X24731Y52091D01*
X24728Y52094D01*
X24726Y52097D01*
X24724Y52101D01*
Y52101D01*
X24724Y52102D01*
X24724Y52102D01*
X24723Y52103D01*
X24723Y52104D01*
X24723Y52105D01*
X24722Y52108D01*
X24721Y52112D01*
X24720Y52116D01*
X24719Y52121D01*
X24719Y52126D01*
Y52129D01*
X24719Y52130D01*
Y52132D01*
X24720Y52134D01*
X24720Y52136D01*
X24720Y52140D01*
X24721Y52145D01*
X24723Y52150D01*
X24724Y52155D01*
Y52155D01*
X24724Y52155D01*
X24725Y52156D01*
X24725Y52157D01*
X24726Y52159D01*
X24728Y52161D01*
X24730Y52164D01*
X24733Y52167D01*
X24736Y52170D01*
X24739Y52173D01*
X24740D01*
X24740Y52174D01*
X24740Y52174D01*
X24741Y52174D01*
X24742Y52175D01*
X24743Y52175D01*
X24746Y52176D01*
X24750Y52178D01*
X24753Y52179D01*
X24758Y52180D01*
X24762Y52180D01*
X24764Y52164D01*
D02*
G37*
G36*
X24849Y52006D02*
X24849Y52002D01*
X24849Y51999D01*
X24849Y51995D01*
X24848Y51991D01*
X24848Y51988D01*
Y51988D01*
X24847Y51988D01*
Y51987D01*
X24847Y51986D01*
X24846Y51984D01*
X24846Y51982D01*
X24844Y51979D01*
X24843Y51976D01*
X24841Y51972D01*
X24838Y51969D01*
X24838Y51969D01*
X24838Y51969D01*
X24837Y51969D01*
X24837Y51968D01*
X24835Y51966D01*
X24832Y51964D01*
X24829Y51961D01*
X24826Y51959D01*
X24821Y51956D01*
X24817Y51954D01*
X24816D01*
X24816Y51954D01*
X24815Y51954D01*
X24814Y51954D01*
X24813Y51953D01*
X24811Y51953D01*
X24810Y51952D01*
X24808Y51952D01*
X24806Y51951D01*
X24803Y51951D01*
X24798Y51950D01*
X24792Y51949D01*
X24786Y51949D01*
X24786D01*
X24785D01*
X24784D01*
X24784D01*
X24782Y51949D01*
X24781D01*
X24777Y51949D01*
X24773Y51950D01*
X24769Y51951D01*
X24765Y51952D01*
X24760Y51953D01*
X24760D01*
X24760Y51953D01*
X24759Y51953D01*
X24758Y51953D01*
X24756Y51954D01*
X24754Y51955D01*
X24751Y51956D01*
X24748Y51958D01*
X24745Y51959D01*
X24742Y51961D01*
X24741Y51962D01*
X24740Y51962D01*
X24739Y51963D01*
X24737Y51965D01*
X24735Y51967D01*
X24734Y51969D01*
X24732Y51971D01*
X24730Y51973D01*
X24730Y51973D01*
X24729Y51974D01*
X24728Y51975D01*
X24728Y51977D01*
X24726Y51979D01*
X24725Y51982D01*
X24724Y51985D01*
X24723Y51988D01*
Y51989D01*
X24723Y51989D01*
X24723Y51990D01*
X24723Y51992D01*
X24723Y51994D01*
X24722Y51997D01*
X24722Y52001D01*
X24722Y52005D01*
X24721Y52009D01*
Y52055D01*
X24849D01*
Y52006D01*
D02*
G37*
G36*
X24697Y51838D02*
X24686D01*
Y51942D01*
X24697D01*
Y51838D01*
D02*
G37*
G36*
X24849Y51810D02*
X24737D01*
Y51747D01*
X24721D01*
Y51827D01*
X24849D01*
Y51810D01*
D02*
G37*
G36*
Y51634D02*
X24834D01*
Y51710D01*
X24795D01*
Y51639D01*
X24780D01*
Y51710D01*
X24737D01*
Y51631D01*
X24721D01*
Y51727D01*
X24849D01*
Y51634D01*
D02*
G37*
G36*
Y51558D02*
X24849Y51555D01*
X24849Y51551D01*
X24849Y51547D01*
X24848Y51544D01*
X24848Y51541D01*
Y51540D01*
X24847Y51540D01*
Y51540D01*
X24847Y51539D01*
X24846Y51537D01*
X24846Y51534D01*
X24844Y51531D01*
X24843Y51528D01*
X24841Y51525D01*
X24838Y51522D01*
X24838Y51522D01*
X24838Y51522D01*
X24837Y51521D01*
X24837Y51520D01*
X24835Y51518D01*
X24832Y51516D01*
X24829Y51514D01*
X24826Y51511D01*
X24821Y51509D01*
X24817Y51507D01*
X24816D01*
X24816Y51507D01*
X24815Y51506D01*
X24814Y51506D01*
X24813Y51505D01*
X24811Y51505D01*
X24810Y51505D01*
X24808Y51504D01*
X24806Y51504D01*
X24803Y51503D01*
X24798Y51502D01*
X24792Y51502D01*
X24786Y51502D01*
X24786D01*
X24785D01*
X24784D01*
X24784D01*
X24782Y51502D01*
X24781D01*
X24777Y51502D01*
X24773Y51503D01*
X24769Y51503D01*
X24765Y51504D01*
X24760Y51505D01*
X24760D01*
X24760Y51505D01*
X24759Y51505D01*
X24758Y51506D01*
X24756Y51506D01*
X24754Y51508D01*
X24751Y51509D01*
X24748Y51510D01*
X24745Y51512D01*
X24742Y51514D01*
X24741Y51514D01*
X24740Y51515D01*
X24739Y51516D01*
X24737Y51517D01*
X24735Y51519D01*
X24734Y51521D01*
X24732Y51523D01*
X24730Y51525D01*
X24730Y51526D01*
X24729Y51527D01*
X24728Y51528D01*
X24728Y51530D01*
X24726Y51532D01*
X24725Y51535D01*
X24724Y51537D01*
X24723Y51541D01*
Y51541D01*
X24723Y51542D01*
X24723Y51542D01*
X24723Y51544D01*
X24723Y51547D01*
X24722Y51550D01*
X24722Y51553D01*
X24722Y51557D01*
X24721Y51561D01*
Y51607D01*
X24849D01*
Y51558D01*
D02*
G37*
G36*
X20550Y46320D02*
X20552D01*
X20554Y46320D01*
X20557Y46319D01*
X20559Y46319D01*
X20564Y46318D01*
X20570Y46317D01*
X20576Y46315D01*
X20582Y46312D01*
X20582Y46312D01*
X20583Y46312D01*
X20583Y46312D01*
X20584Y46311D01*
X20586Y46310D01*
X20587Y46309D01*
X20590Y46307D01*
X20594Y46304D01*
X20598Y46300D01*
X20602Y46296D01*
X20605Y46291D01*
X20605Y46291D01*
X20605Y46290D01*
X20605Y46289D01*
X20606Y46288D01*
X20607Y46287D01*
X20607Y46285D01*
X20608Y46284D01*
X20609Y46282D01*
X20609Y46279D01*
X20610Y46277D01*
X20611Y46272D01*
X20612Y46266D01*
X20612Y46260D01*
Y46258D01*
X20612Y46257D01*
X20612Y46255D01*
X20612Y46253D01*
X20612Y46251D01*
X20611Y46248D01*
X20610Y46243D01*
X20608Y46238D01*
X20607Y46235D01*
X20606Y46233D01*
X20604Y46230D01*
X20603Y46227D01*
X20602Y46227D01*
X20602Y46227D01*
X20602Y46226D01*
X20601Y46225D01*
X20600Y46224D01*
X20599Y46223D01*
X20597Y46222D01*
X20596Y46220D01*
X20594Y46219D01*
X20592Y46217D01*
X20589Y46215D01*
X20587Y46214D01*
X20584Y46213D01*
X20581Y46211D01*
X20578Y46210D01*
X20575Y46209D01*
X20571Y46226D01*
X20571D01*
X20572Y46226D01*
X20572Y46226D01*
X20573Y46227D01*
X20575Y46227D01*
X20576Y46227D01*
X20579Y46229D01*
X20582Y46231D01*
X20586Y46233D01*
X20589Y46236D01*
X20592Y46239D01*
X20592Y46239D01*
X20593Y46240D01*
X20594Y46242D01*
X20595Y46245D01*
X20596Y46248D01*
X20597Y46251D01*
X20598Y46255D01*
X20598Y46260D01*
Y46262D01*
X20598Y46262D01*
Y46264D01*
X20598Y46265D01*
X20597Y46269D01*
X20596Y46273D01*
X20595Y46277D01*
X20593Y46281D01*
X20591Y46285D01*
Y46285D01*
X20590Y46285D01*
X20590Y46287D01*
X20588Y46288D01*
X20586Y46290D01*
X20583Y46293D01*
X20580Y46295D01*
X20576Y46297D01*
X20572Y46299D01*
X20572D01*
X20571Y46299D01*
X20571Y46299D01*
X20570Y46299D01*
X20569Y46300D01*
X20567Y46300D01*
X20564Y46301D01*
X20560Y46301D01*
X20556Y46302D01*
X20552Y46302D01*
X20547Y46303D01*
X20547D01*
X20546D01*
X20545D01*
X20544D01*
X20543Y46302D01*
X20541D01*
X20540Y46302D01*
X20538Y46302D01*
X20533Y46301D01*
X20528Y46301D01*
X20523Y46299D01*
X20519Y46298D01*
X20518D01*
X20518Y46298D01*
X20518Y46297D01*
X20517Y46297D01*
X20514Y46296D01*
X20512Y46294D01*
X20509Y46292D01*
X20506Y46290D01*
X20503Y46287D01*
X20500Y46283D01*
Y46283D01*
X20500Y46283D01*
X20500Y46282D01*
X20499Y46281D01*
X20499Y46280D01*
X20498Y46279D01*
X20497Y46277D01*
X20496Y46273D01*
X20495Y46270D01*
X20495Y46266D01*
X20494Y46261D01*
Y46260D01*
X20495Y46259D01*
Y46258D01*
X20495Y46256D01*
X20496Y46253D01*
X20496Y46249D01*
X20498Y46245D01*
X20500Y46241D01*
X20501Y46239D01*
X20503Y46237D01*
X20503Y46237D01*
X20503Y46237D01*
X20503Y46236D01*
X20504Y46236D01*
X20505Y46235D01*
X20506Y46234D01*
X20507Y46233D01*
X20509Y46232D01*
X20510Y46231D01*
X20512Y46230D01*
X20514Y46228D01*
X20516Y46227D01*
X20519Y46226D01*
X20521Y46225D01*
X20524Y46225D01*
X20527Y46224D01*
X20523Y46207D01*
X20523D01*
X20522Y46207D01*
X20521Y46207D01*
X20519Y46208D01*
X20518Y46208D01*
X20516Y46209D01*
X20513Y46210D01*
X20511Y46211D01*
X20506Y46214D01*
X20501Y46217D01*
X20498Y46219D01*
X20495Y46221D01*
X20493Y46223D01*
X20491Y46226D01*
X20491Y46226D01*
X20490Y46227D01*
X20490Y46227D01*
X20489Y46228D01*
X20488Y46230D01*
X20487Y46231D01*
X20486Y46233D01*
X20486Y46235D01*
X20484Y46238D01*
X20484Y46240D01*
X20483Y46243D01*
X20482Y46246D01*
X20481Y46249D01*
X20481Y46253D01*
X20480Y46256D01*
X20480Y46260D01*
Y46262D01*
X20480Y46263D01*
Y46265D01*
X20480Y46267D01*
X20481Y46269D01*
X20481Y46272D01*
X20482Y46277D01*
X20484Y46283D01*
X20486Y46288D01*
X20487Y46291D01*
X20488Y46294D01*
X20489Y46294D01*
X20489Y46294D01*
X20489Y46295D01*
X20490Y46296D01*
X20491Y46297D01*
X20492Y46298D01*
X20493Y46299D01*
X20495Y46301D01*
X20496Y46302D01*
X20498Y46304D01*
X20502Y46307D01*
X20507Y46311D01*
X20513Y46313D01*
X20513D01*
X20513Y46314D01*
X20514Y46314D01*
X20516Y46314D01*
X20517Y46315D01*
X20519Y46315D01*
X20521Y46316D01*
X20523Y46317D01*
X20526Y46317D01*
X20528Y46318D01*
X20534Y46319D01*
X20540Y46320D01*
X20547Y46320D01*
X20547D01*
X20548D01*
X20549D01*
X20550Y46320D01*
D02*
G37*
G36*
X20579Y46180D02*
X20579Y46180D01*
X20579Y46179D01*
X20580Y46178D01*
X20580Y46177D01*
X20581Y46176D01*
X20583Y46173D01*
X20585Y46169D01*
X20587Y46165D01*
X20590Y46161D01*
X20594Y46157D01*
X20594Y46157D01*
X20594Y46157D01*
X20595Y46156D01*
X20595Y46156D01*
X20597Y46154D01*
X20599Y46152D01*
X20602Y46150D01*
X20605Y46147D01*
X20608Y46145D01*
X20611Y46143D01*
Y46133D01*
X20482D01*
Y46149D01*
X20582D01*
X20582Y46149D01*
X20581Y46150D01*
X20580Y46151D01*
X20579Y46153D01*
X20577Y46155D01*
X20575Y46158D01*
X20573Y46161D01*
X20571Y46164D01*
Y46164D01*
X20571Y46164D01*
X20570Y46165D01*
X20570Y46167D01*
X20568Y46169D01*
X20567Y46172D01*
X20566Y46175D01*
X20565Y46178D01*
X20563Y46180D01*
X20579D01*
Y46180D01*
D02*
G37*
G36*
X20030Y45340D02*
X20032D01*
X20034Y45340D01*
X20037Y45339D01*
X20039Y45339D01*
X20044Y45338D01*
X20050Y45337D01*
X20056Y45335D01*
X20062Y45332D01*
X20062Y45332D01*
X20063Y45332D01*
X20063Y45332D01*
X20064Y45331D01*
X20066Y45330D01*
X20067Y45329D01*
X20070Y45327D01*
X20074Y45324D01*
X20078Y45320D01*
X20082Y45316D01*
X20085Y45311D01*
X20085Y45311D01*
X20085Y45310D01*
X20085Y45309D01*
X20086Y45308D01*
X20087Y45307D01*
X20087Y45305D01*
X20088Y45304D01*
X20089Y45302D01*
X20089Y45299D01*
X20090Y45297D01*
X20091Y45292D01*
X20092Y45286D01*
X20092Y45280D01*
Y45278D01*
X20092Y45277D01*
X20092Y45275D01*
X20092Y45273D01*
X20092Y45271D01*
X20091Y45268D01*
X20090Y45263D01*
X20088Y45258D01*
X20087Y45255D01*
X20086Y45252D01*
X20084Y45250D01*
X20083Y45247D01*
X20082Y45247D01*
X20082Y45247D01*
X20082Y45246D01*
X20081Y45245D01*
X20080Y45244D01*
X20079Y45243D01*
X20077Y45242D01*
X20076Y45240D01*
X20074Y45239D01*
X20072Y45237D01*
X20069Y45235D01*
X20067Y45234D01*
X20064Y45233D01*
X20061Y45231D01*
X20058Y45230D01*
X20055Y45229D01*
X20051Y45246D01*
X20051D01*
X20052Y45246D01*
X20052Y45246D01*
X20053Y45247D01*
X20055Y45247D01*
X20056Y45248D01*
X20059Y45249D01*
X20062Y45251D01*
X20066Y45253D01*
X20069Y45256D01*
X20072Y45259D01*
X20072Y45259D01*
X20073Y45260D01*
X20074Y45262D01*
X20075Y45265D01*
X20076Y45268D01*
X20077Y45271D01*
X20078Y45275D01*
X20078Y45280D01*
Y45282D01*
X20078Y45282D01*
Y45284D01*
X20078Y45285D01*
X20077Y45289D01*
X20076Y45293D01*
X20075Y45297D01*
X20073Y45301D01*
X20071Y45305D01*
Y45305D01*
X20070Y45305D01*
X20070Y45307D01*
X20068Y45308D01*
X20066Y45310D01*
X20063Y45313D01*
X20060Y45315D01*
X20056Y45317D01*
X20052Y45319D01*
X20052D01*
X20051Y45319D01*
X20051Y45319D01*
X20050Y45319D01*
X20049Y45320D01*
X20047Y45320D01*
X20044Y45321D01*
X20040Y45321D01*
X20036Y45322D01*
X20032Y45322D01*
X20027Y45323D01*
X20027D01*
X20026D01*
X20025D01*
X20024D01*
X20023Y45322D01*
X20021D01*
X20020Y45322D01*
X20018Y45322D01*
X20013Y45321D01*
X20008Y45321D01*
X20003Y45319D01*
X19999Y45318D01*
X19998D01*
X19998Y45318D01*
X19998Y45317D01*
X19997Y45317D01*
X19994Y45316D01*
X19992Y45314D01*
X19989Y45312D01*
X19986Y45310D01*
X19983Y45307D01*
X19980Y45303D01*
Y45303D01*
X19980Y45303D01*
X19980Y45302D01*
X19979Y45301D01*
X19979Y45300D01*
X19978Y45299D01*
X19977Y45297D01*
X19976Y45293D01*
X19975Y45290D01*
X19975Y45286D01*
X19974Y45281D01*
Y45280D01*
X19975Y45279D01*
Y45278D01*
X19975Y45276D01*
X19976Y45273D01*
X19976Y45269D01*
X19978Y45265D01*
X19980Y45261D01*
X19981Y45259D01*
X19983Y45257D01*
X19983Y45257D01*
X19983Y45257D01*
X19983Y45256D01*
X19984Y45256D01*
X19985Y45255D01*
X19986Y45254D01*
X19987Y45253D01*
X19989Y45252D01*
X19990Y45251D01*
X19992Y45250D01*
X19994Y45248D01*
X19996Y45247D01*
X19999Y45246D01*
X20001Y45245D01*
X20004Y45245D01*
X20007Y45244D01*
X20003Y45227D01*
X20003D01*
X20002Y45227D01*
X20001Y45227D01*
X19999Y45228D01*
X19998Y45228D01*
X19996Y45229D01*
X19993Y45230D01*
X19991Y45231D01*
X19986Y45234D01*
X19981Y45237D01*
X19978Y45239D01*
X19975Y45241D01*
X19973Y45243D01*
X19971Y45246D01*
X19971Y45246D01*
X19970Y45247D01*
X19970Y45248D01*
X19969Y45248D01*
X19968Y45250D01*
X19967Y45251D01*
X19966Y45253D01*
X19966Y45255D01*
X19964Y45258D01*
X19964Y45260D01*
X19963Y45263D01*
X19962Y45266D01*
X19961Y45269D01*
X19961Y45273D01*
X19960Y45276D01*
X19960Y45280D01*
Y45282D01*
X19960Y45283D01*
Y45285D01*
X19960Y45287D01*
X19961Y45289D01*
X19961Y45292D01*
X19962Y45297D01*
X19964Y45303D01*
X19966Y45308D01*
X19967Y45311D01*
X19968Y45314D01*
X19969Y45314D01*
X19969Y45314D01*
X19969Y45315D01*
X19970Y45316D01*
X19971Y45317D01*
X19972Y45318D01*
X19973Y45319D01*
X19975Y45321D01*
X19976Y45322D01*
X19978Y45324D01*
X19982Y45327D01*
X19987Y45331D01*
X19993Y45333D01*
X19993D01*
X19993Y45334D01*
X19994Y45334D01*
X19996Y45334D01*
X19997Y45335D01*
X19999Y45335D01*
X20001Y45336D01*
X20003Y45337D01*
X20006Y45337D01*
X20008Y45338D01*
X20014Y45339D01*
X20020Y45340D01*
X20027Y45340D01*
X20027D01*
X20028D01*
X20029D01*
X20030Y45340D01*
D02*
G37*
G36*
X19966Y45214D02*
X19967Y45214D01*
X19969Y45214D01*
X19971Y45213D01*
X19973Y45213D01*
X19973D01*
X19973Y45213D01*
X19975Y45212D01*
X19976Y45211D01*
X19978Y45210D01*
X19981Y45209D01*
X19984Y45207D01*
X19987Y45205D01*
X19990Y45202D01*
X19990D01*
X19991Y45202D01*
X19992Y45201D01*
X19993Y45199D01*
X19996Y45197D01*
X19998Y45194D01*
X20002Y45191D01*
X20006Y45186D01*
X20009Y45182D01*
X20010Y45182D01*
X20010Y45181D01*
X20011Y45180D01*
X20012Y45178D01*
X20014Y45177D01*
X20015Y45175D01*
X20017Y45173D01*
X20019Y45170D01*
X20024Y45166D01*
X20028Y45161D01*
X20030Y45159D01*
X20033Y45157D01*
X20035Y45155D01*
X20037Y45154D01*
X20037D01*
X20037Y45153D01*
X20038Y45153D01*
X20038Y45152D01*
X20040Y45151D01*
X20043Y45150D01*
X20046Y45148D01*
X20049Y45147D01*
X20052Y45146D01*
X20056Y45146D01*
X20056D01*
X20056D01*
X20057Y45146D01*
X20059Y45146D01*
X20061Y45147D01*
X20064Y45148D01*
X20066Y45149D01*
X20069Y45151D01*
X20071Y45153D01*
X20072Y45153D01*
X20072Y45154D01*
X20073Y45155D01*
X20075Y45157D01*
X20076Y45160D01*
X20077Y45163D01*
X20078Y45166D01*
X20078Y45170D01*
Y45171D01*
X20078Y45172D01*
X20077Y45174D01*
X20077Y45177D01*
X20076Y45180D01*
X20075Y45183D01*
X20073Y45186D01*
X20071Y45189D01*
X20071Y45189D01*
X20070Y45190D01*
X20068Y45191D01*
X20066Y45192D01*
X20063Y45193D01*
X20060Y45194D01*
X20056Y45195D01*
X20052Y45196D01*
X20054Y45212D01*
X20054D01*
X20055Y45211D01*
X20055D01*
X20057Y45211D01*
X20058Y45211D01*
X20060Y45211D01*
X20062Y45210D01*
X20064Y45209D01*
X20068Y45208D01*
X20073Y45206D01*
X20075Y45204D01*
X20077Y45203D01*
X20079Y45201D01*
X20081Y45199D01*
X20081Y45199D01*
X20082Y45199D01*
X20082Y45198D01*
X20083Y45197D01*
X20083Y45196D01*
X20084Y45195D01*
X20085Y45193D01*
X20086Y45191D01*
X20087Y45189D01*
X20088Y45187D01*
X20089Y45185D01*
X20089Y45182D01*
X20090Y45179D01*
X20090Y45176D01*
X20091Y45173D01*
X20091Y45170D01*
Y45168D01*
X20091Y45167D01*
X20090Y45165D01*
X20090Y45164D01*
X20090Y45161D01*
X20089Y45159D01*
X20088Y45155D01*
X20086Y45150D01*
X20085Y45147D01*
X20084Y45145D01*
X20082Y45143D01*
X20080Y45141D01*
X20080Y45141D01*
X20080Y45140D01*
X20079Y45140D01*
X20079Y45139D01*
X20078Y45138D01*
X20076Y45137D01*
X20075Y45136D01*
X20073Y45135D01*
X20070Y45133D01*
X20065Y45132D01*
X20063Y45131D01*
X20061Y45130D01*
X20058Y45130D01*
X20055Y45130D01*
X20055D01*
X20054D01*
X20052Y45130D01*
X20050Y45130D01*
X20048Y45131D01*
X20046Y45131D01*
X20043Y45132D01*
X20040Y45133D01*
X20040Y45133D01*
X20039Y45134D01*
X20037Y45134D01*
X20035Y45136D01*
X20033Y45137D01*
X20030Y45139D01*
X20028Y45141D01*
X20024Y45144D01*
X20024Y45144D01*
X20023Y45145D01*
X20022Y45146D01*
X20021Y45147D01*
X20020Y45148D01*
X20018Y45149D01*
X20017Y45151D01*
X20015Y45153D01*
X20013Y45155D01*
X20011Y45157D01*
X20009Y45159D01*
X20007Y45162D01*
X20005Y45165D01*
X20002Y45168D01*
X20002Y45168D01*
X20001Y45168D01*
X20001Y45169D01*
X20000Y45170D01*
X19999Y45171D01*
X19998Y45172D01*
X19996Y45175D01*
X19993Y45178D01*
X19990Y45181D01*
X19988Y45184D01*
X19987Y45185D01*
X19986Y45186D01*
X19986Y45186D01*
X19985Y45187D01*
X19984Y45188D01*
X19983Y45188D01*
X19982Y45189D01*
X19981Y45191D01*
X19977Y45193D01*
Y45130D01*
X19962D01*
Y45215D01*
X19962D01*
X19963D01*
X19964D01*
X19966Y45214D01*
D02*
G37*
G36*
X15927Y51751D02*
X15958D01*
Y51735D01*
X15927D01*
Y51680D01*
X15913D01*
X15830Y51738D01*
Y51751D01*
X15913D01*
Y51769D01*
X15927D01*
Y51751D01*
D02*
G37*
G36*
X15918Y51671D02*
X15919Y51670D01*
X15921Y51670D01*
X15922Y51669D01*
X15924Y51668D01*
X15927Y51667D01*
X15929Y51666D01*
X15934Y51664D01*
X15939Y51660D01*
X15942Y51658D01*
X15945Y51656D01*
X15947Y51654D01*
X15949Y51651D01*
X15949Y51651D01*
X15950Y51651D01*
X15950Y51650D01*
X15951Y51649D01*
X15952Y51648D01*
X15953Y51646D01*
X15954Y51644D01*
X15954Y51642D01*
X15956Y51640D01*
X15956Y51637D01*
X15957Y51634D01*
X15958Y51631D01*
X15959Y51628D01*
X15959Y51625D01*
X15960Y51621D01*
X15960Y51618D01*
Y51616D01*
X15960Y51614D01*
Y51612D01*
X15960Y51610D01*
X15959Y51608D01*
X15959Y51606D01*
X15958Y51600D01*
X15956Y51595D01*
X15954Y51589D01*
X15953Y51587D01*
X15952Y51584D01*
X15951Y51584D01*
X15951Y51583D01*
X15951Y51583D01*
X15950Y51582D01*
X15949Y51581D01*
X15948Y51579D01*
X15947Y51578D01*
X15945Y51577D01*
X15944Y51575D01*
X15942Y51573D01*
X15938Y51570D01*
X15933Y51567D01*
X15927Y51564D01*
X15927D01*
X15927Y51564D01*
X15926Y51564D01*
X15924Y51563D01*
X15923Y51563D01*
X15921Y51562D01*
X15919Y51561D01*
X15917Y51561D01*
X15914Y51560D01*
X15912Y51560D01*
X15906Y51559D01*
X15900Y51558D01*
X15893Y51557D01*
X15893D01*
X15892D01*
X15891D01*
X15890Y51558D01*
X15888D01*
X15886Y51558D01*
X15883Y51558D01*
X15881Y51558D01*
X15876Y51559D01*
X15870Y51561D01*
X15864Y51562D01*
X15858Y51565D01*
X15858Y51565D01*
X15857Y51565D01*
X15857Y51566D01*
X15856Y51567D01*
X15854Y51567D01*
X15853Y51568D01*
X15850Y51571D01*
X15846Y51574D01*
X15842Y51577D01*
X15838Y51582D01*
X15835Y51587D01*
X15835Y51587D01*
X15835Y51587D01*
X15835Y51588D01*
X15834Y51589D01*
X15833Y51591D01*
X15833Y51592D01*
X15832Y51594D01*
X15831Y51596D01*
X15831Y51598D01*
X15830Y51601D01*
X15829Y51606D01*
X15828Y51612D01*
X15828Y51618D01*
Y51620D01*
X15828Y51621D01*
X15828Y51623D01*
X15828Y51625D01*
X15828Y51627D01*
X15829Y51629D01*
X15830Y51634D01*
X15832Y51640D01*
X15833Y51642D01*
X15834Y51645D01*
X15836Y51648D01*
X15837Y51650D01*
X15838Y51650D01*
X15838Y51651D01*
X15838Y51651D01*
X15839Y51652D01*
X15840Y51653D01*
X15841Y51655D01*
X15843Y51656D01*
X15844Y51657D01*
X15846Y51659D01*
X15848Y51660D01*
X15851Y51662D01*
X15853Y51663D01*
X15856Y51665D01*
X15859Y51666D01*
X15862Y51667D01*
X15865Y51668D01*
X15869Y51652D01*
X15869D01*
X15868Y51652D01*
X15868Y51651D01*
X15867Y51651D01*
X15865Y51651D01*
X15864Y51650D01*
X15861Y51648D01*
X15858Y51647D01*
X15854Y51644D01*
X15851Y51642D01*
X15848Y51639D01*
X15848Y51638D01*
X15847Y51637D01*
X15846Y51635D01*
X15845Y51633D01*
X15844Y51630D01*
X15843Y51626D01*
X15842Y51622D01*
X15842Y51617D01*
Y51616D01*
X15842Y51615D01*
Y51614D01*
X15842Y51612D01*
X15843Y51609D01*
X15844Y51605D01*
X15845Y51601D01*
X15847Y51597D01*
X15849Y51593D01*
Y51592D01*
X15850Y51592D01*
X15850Y51591D01*
X15852Y51589D01*
X15854Y51587D01*
X15857Y51585D01*
X15860Y51583D01*
X15864Y51581D01*
X15868Y51579D01*
X15868D01*
X15869Y51579D01*
X15869Y51578D01*
X15870Y51578D01*
X15871Y51578D01*
X15873Y51577D01*
X15876Y51577D01*
X15880Y51576D01*
X15884Y51575D01*
X15888Y51575D01*
X15893Y51575D01*
X15893D01*
X15894D01*
X15895D01*
X15896D01*
X15897Y51575D01*
X15899D01*
X15900Y51575D01*
X15902Y51575D01*
X15907Y51576D01*
X15912Y51577D01*
X15917Y51578D01*
X15921Y51579D01*
X15922D01*
X15922Y51580D01*
X15922Y51580D01*
X15923Y51580D01*
X15926Y51582D01*
X15928Y51583D01*
X15931Y51585D01*
X15934Y51588D01*
X15937Y51591D01*
X15940Y51594D01*
Y51594D01*
X15940Y51595D01*
X15940Y51595D01*
X15941Y51596D01*
X15941Y51597D01*
X15941Y51598D01*
X15943Y51601D01*
X15944Y51604D01*
X15945Y51608D01*
X15945Y51612D01*
X15946Y51616D01*
Y51617D01*
X15945Y51619D01*
Y51620D01*
X15945Y51621D01*
X15944Y51624D01*
X15944Y51628D01*
X15942Y51632D01*
X15940Y51636D01*
X15939Y51638D01*
X15937Y51640D01*
X15937Y51640D01*
X15937Y51641D01*
X15937Y51641D01*
X15936Y51642D01*
X15935Y51643D01*
X15934Y51644D01*
X15933Y51645D01*
X15931Y51646D01*
X15930Y51647D01*
X15928Y51648D01*
X15926Y51649D01*
X15924Y51650D01*
X15921Y51651D01*
X15919Y51652D01*
X15916Y51653D01*
X15913Y51654D01*
X15917Y51671D01*
X15917D01*
X15918Y51671D01*
D02*
G37*
G36*
X17659Y45731D02*
X17661D01*
X17664Y45731D01*
X17667Y45730D01*
X17671Y45729D01*
X17675Y45728D01*
X17679Y45726D01*
X17679D01*
X17679Y45726D01*
X17680Y45726D01*
X17680Y45725D01*
X17682Y45724D01*
X17685Y45723D01*
X17687Y45721D01*
X17690Y45718D01*
X17692Y45715D01*
X17695Y45712D01*
Y45712D01*
X17695Y45712D01*
X17695Y45711D01*
X17695Y45710D01*
X17696Y45709D01*
X17697Y45706D01*
X17698Y45703D01*
X17699Y45699D01*
X17700Y45696D01*
X17700Y45691D01*
Y45690D01*
X17700Y45689D01*
Y45688D01*
X17700Y45686D01*
X17699Y45684D01*
X17699Y45682D01*
X17698Y45680D01*
X17697Y45677D01*
X17696Y45675D01*
X17695Y45672D01*
X17694Y45669D01*
X17692Y45667D01*
X17690Y45664D01*
X17688Y45662D01*
X17686Y45659D01*
X17685Y45659D01*
X17685Y45659D01*
X17684Y45658D01*
X17683Y45657D01*
X17681Y45656D01*
X17679Y45655D01*
X17677Y45654D01*
X17674Y45653D01*
X17671Y45652D01*
X17668Y45651D01*
X17664Y45650D01*
X17659Y45649D01*
X17655Y45648D01*
X17650Y45647D01*
X17644Y45647D01*
X17638Y45647D01*
X17638D01*
X17638D01*
X17637D01*
X17636D01*
X17635Y45647D01*
X17632D01*
X17629Y45647D01*
X17625Y45648D01*
X17622Y45648D01*
X17617Y45649D01*
X17613Y45649D01*
X17608Y45650D01*
X17604Y45651D01*
X17600Y45653D01*
X17595Y45654D01*
X17591Y45656D01*
X17587Y45658D01*
X17584Y45661D01*
X17584Y45661D01*
X17583Y45661D01*
X17583Y45662D01*
X17582Y45663D01*
X17580Y45664D01*
X17579Y45665D01*
X17578Y45667D01*
X17577Y45669D01*
X17575Y45671D01*
X17574Y45674D01*
X17573Y45676D01*
X17571Y45679D01*
X17571Y45682D01*
X17570Y45686D01*
X17569Y45689D01*
X17569Y45693D01*
Y45694D01*
X17569Y45696D01*
Y45697D01*
X17570Y45698D01*
X17570Y45702D01*
X17571Y45706D01*
X17573Y45710D01*
X17575Y45714D01*
X17576Y45716D01*
X17578Y45718D01*
X17578Y45718D01*
X17578Y45718D01*
X17579Y45719D01*
X17579Y45719D01*
X17580Y45720D01*
X17581Y45721D01*
X17584Y45723D01*
X17587Y45725D01*
X17591Y45727D01*
X17596Y45728D01*
X17601Y45730D01*
X17602Y45714D01*
X17602D01*
X17602Y45714D01*
X17601Y45714D01*
X17599Y45713D01*
X17597Y45712D01*
X17595Y45711D01*
X17593Y45710D01*
X17591Y45709D01*
X17589Y45708D01*
X17589Y45707D01*
X17588Y45707D01*
X17587Y45705D01*
X17585Y45704D01*
X17584Y45701D01*
X17583Y45699D01*
X17583Y45695D01*
X17582Y45692D01*
Y45691D01*
X17582Y45689D01*
X17583Y45688D01*
X17583Y45685D01*
X17584Y45683D01*
X17585Y45681D01*
X17586Y45679D01*
X17587Y45678D01*
X17587Y45677D01*
X17589Y45676D01*
X17590Y45674D01*
X17593Y45673D01*
X17595Y45671D01*
X17599Y45669D01*
X17602Y45667D01*
X17603D01*
X17603Y45667D01*
X17603Y45667D01*
X17604Y45666D01*
X17605Y45666D01*
X17607Y45666D01*
X17608Y45665D01*
X17610Y45665D01*
X17612Y45664D01*
X17614Y45664D01*
X17617Y45664D01*
X17619Y45663D01*
X17622Y45663D01*
X17625Y45663D01*
X17628Y45663D01*
X17632D01*
X17632Y45663D01*
X17630Y45664D01*
X17629Y45665D01*
X17627Y45667D01*
X17625Y45668D01*
X17623Y45671D01*
X17621Y45673D01*
X17619Y45676D01*
Y45676D01*
X17619Y45677D01*
X17618Y45678D01*
X17618Y45679D01*
X17617Y45682D01*
X17616Y45684D01*
X17615Y45687D01*
X17615Y45690D01*
X17615Y45694D01*
Y45695D01*
X17615Y45696D01*
X17615Y45698D01*
X17615Y45699D01*
X17616Y45701D01*
X17616Y45703D01*
X17617Y45707D01*
X17618Y45709D01*
X17620Y45712D01*
X17621Y45714D01*
X17622Y45716D01*
X17624Y45718D01*
X17626Y45721D01*
X17627Y45721D01*
X17627Y45721D01*
X17627Y45722D01*
X17628Y45722D01*
X17630Y45723D01*
X17631Y45724D01*
X17633Y45725D01*
X17635Y45726D01*
X17637Y45727D01*
X17639Y45728D01*
X17641Y45729D01*
X17644Y45730D01*
X17647Y45731D01*
X17650Y45731D01*
X17653Y45731D01*
X17656Y45732D01*
X17657D01*
X17657D01*
X17657D01*
X17658D01*
X17659Y45731D01*
D02*
G37*
G36*
X17658Y45633D02*
X17659Y45633D01*
X17661Y45632D01*
X17662Y45632D01*
X17664Y45631D01*
X17667Y45630D01*
X17669Y45629D01*
X17674Y45626D01*
X17679Y45623D01*
X17682Y45621D01*
X17685Y45619D01*
X17687Y45617D01*
X17689Y45614D01*
X17689Y45614D01*
X17690Y45613D01*
X17690Y45612D01*
X17691Y45612D01*
X17692Y45610D01*
X17693Y45609D01*
X17694Y45607D01*
X17694Y45605D01*
X17696Y45602D01*
X17696Y45600D01*
X17697Y45597D01*
X17698Y45594D01*
X17699Y45591D01*
X17699Y45587D01*
X17700Y45584D01*
X17700Y45580D01*
Y45578D01*
X17700Y45577D01*
Y45575D01*
X17700Y45573D01*
X17699Y45571D01*
X17699Y45568D01*
X17698Y45563D01*
X17696Y45557D01*
X17694Y45552D01*
X17693Y45549D01*
X17692Y45546D01*
X17691Y45546D01*
X17691Y45546D01*
X17691Y45545D01*
X17690Y45544D01*
X17689Y45543D01*
X17688Y45542D01*
X17687Y45541D01*
X17685Y45539D01*
X17684Y45538D01*
X17682Y45536D01*
X17678Y45533D01*
X17673Y45529D01*
X17667Y45527D01*
X17667D01*
X17667Y45526D01*
X17666Y45526D01*
X17664Y45526D01*
X17663Y45525D01*
X17661Y45525D01*
X17659Y45524D01*
X17657Y45523D01*
X17654Y45523D01*
X17652Y45522D01*
X17646Y45521D01*
X17640Y45520D01*
X17633Y45520D01*
X17633D01*
X17632D01*
X17631D01*
X17630Y45520D01*
X17628D01*
X17626Y45520D01*
X17623Y45521D01*
X17621Y45521D01*
X17616Y45522D01*
X17610Y45523D01*
X17604Y45525D01*
X17598Y45528D01*
X17598Y45528D01*
X17597Y45528D01*
X17597Y45528D01*
X17596Y45529D01*
X17594Y45530D01*
X17593Y45531D01*
X17590Y45533D01*
X17586Y45536D01*
X17582Y45540D01*
X17578Y45544D01*
X17575Y45549D01*
X17575Y45549D01*
X17575Y45550D01*
X17575Y45551D01*
X17574Y45552D01*
X17573Y45553D01*
X17573Y45555D01*
X17572Y45556D01*
X17571Y45558D01*
X17571Y45561D01*
X17570Y45563D01*
X17569Y45568D01*
X17568Y45574D01*
X17568Y45580D01*
Y45582D01*
X17568Y45583D01*
X17568Y45585D01*
X17568Y45587D01*
X17568Y45589D01*
X17569Y45592D01*
X17570Y45597D01*
X17572Y45602D01*
X17573Y45605D01*
X17574Y45608D01*
X17576Y45610D01*
X17577Y45613D01*
X17578Y45613D01*
X17578Y45613D01*
X17578Y45614D01*
X17579Y45615D01*
X17580Y45616D01*
X17581Y45617D01*
X17583Y45618D01*
X17584Y45620D01*
X17586Y45621D01*
X17588Y45623D01*
X17591Y45625D01*
X17593Y45626D01*
X17596Y45627D01*
X17599Y45629D01*
X17602Y45630D01*
X17605Y45631D01*
X17609Y45614D01*
X17609D01*
X17608Y45614D01*
X17608Y45614D01*
X17607Y45613D01*
X17605Y45613D01*
X17604Y45612D01*
X17601Y45611D01*
X17598Y45609D01*
X17594Y45607D01*
X17591Y45604D01*
X17588Y45601D01*
X17588Y45601D01*
X17587Y45600D01*
X17586Y45598D01*
X17585Y45595D01*
X17584Y45592D01*
X17583Y45589D01*
X17582Y45585D01*
X17582Y45580D01*
Y45578D01*
X17582Y45578D01*
Y45576D01*
X17582Y45575D01*
X17583Y45571D01*
X17584Y45567D01*
X17585Y45563D01*
X17587Y45559D01*
X17589Y45555D01*
Y45555D01*
X17590Y45555D01*
X17590Y45553D01*
X17592Y45552D01*
X17594Y45550D01*
X17597Y45547D01*
X17600Y45545D01*
X17604Y45543D01*
X17608Y45541D01*
X17608D01*
X17609Y45541D01*
X17609Y45541D01*
X17610Y45541D01*
X17611Y45540D01*
X17613Y45540D01*
X17616Y45539D01*
X17620Y45539D01*
X17624Y45538D01*
X17628Y45538D01*
X17633Y45537D01*
X17633D01*
X17634D01*
X17635D01*
X17636D01*
X17637Y45538D01*
X17639D01*
X17640Y45538D01*
X17642Y45538D01*
X17647Y45539D01*
X17652Y45539D01*
X17657Y45541D01*
X17661Y45542D01*
X17662D01*
X17662Y45542D01*
X17662Y45543D01*
X17663Y45543D01*
X17666Y45544D01*
X17668Y45546D01*
X17671Y45548D01*
X17674Y45550D01*
X17677Y45553D01*
X17680Y45557D01*
Y45557D01*
X17680Y45557D01*
X17680Y45558D01*
X17681Y45559D01*
X17681Y45560D01*
X17681Y45561D01*
X17683Y45563D01*
X17684Y45567D01*
X17685Y45570D01*
X17685Y45574D01*
X17686Y45579D01*
Y45580D01*
X17685Y45581D01*
Y45582D01*
X17685Y45584D01*
X17684Y45587D01*
X17684Y45591D01*
X17682Y45595D01*
X17680Y45599D01*
X17679Y45601D01*
X17677Y45603D01*
X17677Y45603D01*
X17677Y45603D01*
X17677Y45604D01*
X17676Y45604D01*
X17675Y45605D01*
X17674Y45606D01*
X17673Y45607D01*
X17671Y45608D01*
X17670Y45609D01*
X17668Y45610D01*
X17666Y45612D01*
X17664Y45613D01*
X17661Y45614D01*
X17659Y45615D01*
X17656Y45615D01*
X17653Y45616D01*
X17657Y45633D01*
X17657D01*
X17658Y45633D01*
D02*
G37*
G36*
X20704Y48014D02*
X20704Y48014D01*
X20705Y48013D01*
X20706Y48012D01*
X20708Y48011D01*
X20709Y48010D01*
X20711Y48008D01*
X20713Y48006D01*
X20715Y48005D01*
X20718Y48003D01*
X20721Y48001D01*
X20724Y47999D01*
X20727Y47996D01*
X20731Y47994D01*
X20735Y47992D01*
X20738Y47990D01*
X20739Y47990D01*
X20739Y47989D01*
X20740Y47989D01*
X20742Y47988D01*
X20744Y47987D01*
X20746Y47986D01*
X20749Y47984D01*
X20752Y47983D01*
X20755Y47982D01*
X20759Y47980D01*
X20762Y47978D01*
X20766Y47977D01*
X20774Y47974D01*
X20783Y47971D01*
X20783D01*
X20783Y47971D01*
X20784Y47971D01*
X20785Y47970D01*
X20787Y47970D01*
X20789Y47970D01*
X20791Y47969D01*
X20793Y47969D01*
X20796Y47968D01*
X20798Y47968D01*
X20804Y47967D01*
X20811Y47966D01*
X20818Y47965D01*
Y47949D01*
X20818D01*
X20817D01*
X20816D01*
X20815Y47949D01*
X20814D01*
X20812Y47950D01*
X20810Y47950D01*
X20808Y47950D01*
X20805Y47950D01*
X20802Y47951D01*
X20799Y47951D01*
X20796Y47952D01*
X20793Y47952D01*
X20789Y47953D01*
X20782Y47955D01*
X20781D01*
X20781Y47955D01*
X20779Y47956D01*
X20778Y47956D01*
X20776Y47957D01*
X20774Y47957D01*
X20771Y47958D01*
X20768Y47959D01*
X20765Y47960D01*
X20762Y47961D01*
X20755Y47964D01*
X20748Y47968D01*
X20740Y47971D01*
X20740Y47971D01*
X20739Y47972D01*
X20738Y47972D01*
X20737Y47973D01*
X20735Y47974D01*
X20733Y47975D01*
X20731Y47977D01*
X20729Y47978D01*
X20723Y47982D01*
X20718Y47985D01*
X20712Y47990D01*
X20707Y47994D01*
Y47931D01*
X20691D01*
Y48014D01*
X20704D01*
X20704Y48014D01*
D02*
G37*
G36*
X20778Y47916D02*
X20779Y47915D01*
X20781Y47915D01*
X20782Y47914D01*
X20784Y47913D01*
X20787Y47912D01*
X20789Y47911D01*
X20794Y47909D01*
X20799Y47905D01*
X20802Y47903D01*
X20805Y47901D01*
X20807Y47899D01*
X20809Y47896D01*
X20809Y47896D01*
X20810Y47896D01*
X20810Y47895D01*
X20811Y47894D01*
X20812Y47893D01*
X20813Y47891D01*
X20814Y47889D01*
X20814Y47887D01*
X20816Y47885D01*
X20816Y47882D01*
X20817Y47879D01*
X20818Y47876D01*
X20819Y47873D01*
X20819Y47870D01*
X20820Y47866D01*
X20820Y47863D01*
Y47861D01*
X20820Y47859D01*
Y47857D01*
X20820Y47855D01*
X20819Y47853D01*
X20819Y47851D01*
X20818Y47845D01*
X20816Y47840D01*
X20814Y47834D01*
X20813Y47832D01*
X20812Y47829D01*
X20811Y47829D01*
X20811Y47828D01*
X20811Y47828D01*
X20810Y47827D01*
X20809Y47826D01*
X20808Y47825D01*
X20807Y47823D01*
X20805Y47822D01*
X20804Y47820D01*
X20802Y47818D01*
X20798Y47815D01*
X20793Y47812D01*
X20787Y47809D01*
X20787D01*
X20787Y47809D01*
X20786Y47809D01*
X20784Y47808D01*
X20783Y47808D01*
X20781Y47807D01*
X20779Y47806D01*
X20777Y47806D01*
X20774Y47805D01*
X20772Y47805D01*
X20766Y47804D01*
X20760Y47803D01*
X20753Y47803D01*
X20753D01*
X20752D01*
X20751D01*
X20750Y47803D01*
X20748D01*
X20746Y47803D01*
X20743Y47803D01*
X20741Y47803D01*
X20736Y47804D01*
X20730Y47806D01*
X20724Y47808D01*
X20718Y47810D01*
X20718Y47810D01*
X20717Y47810D01*
X20717Y47811D01*
X20716Y47812D01*
X20714Y47812D01*
X20713Y47813D01*
X20710Y47816D01*
X20706Y47819D01*
X20702Y47822D01*
X20698Y47827D01*
X20695Y47832D01*
X20695Y47832D01*
X20695Y47832D01*
X20695Y47833D01*
X20694Y47834D01*
X20693Y47836D01*
X20693Y47837D01*
X20692Y47839D01*
X20691Y47841D01*
X20691Y47843D01*
X20690Y47846D01*
X20689Y47851D01*
X20688Y47857D01*
X20688Y47863D01*
Y47865D01*
X20688Y47866D01*
X20688Y47868D01*
X20688Y47870D01*
X20688Y47872D01*
X20689Y47874D01*
X20690Y47879D01*
X20692Y47885D01*
X20693Y47887D01*
X20694Y47890D01*
X20696Y47893D01*
X20697Y47895D01*
X20698Y47895D01*
X20698Y47896D01*
X20698Y47896D01*
X20699Y47897D01*
X20700Y47898D01*
X20701Y47900D01*
X20703Y47901D01*
X20704Y47902D01*
X20706Y47904D01*
X20708Y47905D01*
X20711Y47907D01*
X20713Y47909D01*
X20716Y47910D01*
X20719Y47911D01*
X20722Y47912D01*
X20725Y47914D01*
X20729Y47897D01*
X20729D01*
X20728Y47897D01*
X20728Y47896D01*
X20727Y47896D01*
X20725Y47896D01*
X20724Y47895D01*
X20721Y47894D01*
X20718Y47892D01*
X20714Y47889D01*
X20711Y47887D01*
X20708Y47884D01*
X20708Y47883D01*
X20707Y47882D01*
X20706Y47880D01*
X20705Y47878D01*
X20704Y47875D01*
X20703Y47871D01*
X20702Y47867D01*
X20702Y47862D01*
Y47861D01*
X20702Y47860D01*
Y47859D01*
X20702Y47857D01*
X20703Y47854D01*
X20704Y47850D01*
X20705Y47846D01*
X20707Y47842D01*
X20709Y47838D01*
Y47837D01*
X20710Y47837D01*
X20710Y47836D01*
X20712Y47834D01*
X20714Y47832D01*
X20717Y47830D01*
X20720Y47828D01*
X20724Y47826D01*
X20728Y47824D01*
X20728D01*
X20729Y47824D01*
X20729Y47823D01*
X20730Y47823D01*
X20731Y47823D01*
X20733Y47822D01*
X20736Y47822D01*
X20740Y47821D01*
X20744Y47820D01*
X20748Y47820D01*
X20753Y47820D01*
X20753D01*
X20754D01*
X20755D01*
X20756D01*
X20757Y47820D01*
X20759D01*
X20760Y47820D01*
X20762Y47820D01*
X20767Y47821D01*
X20772Y47822D01*
X20777Y47823D01*
X20781Y47825D01*
X20782D01*
X20782Y47825D01*
X20782Y47825D01*
X20783Y47825D01*
X20786Y47827D01*
X20788Y47828D01*
X20791Y47830D01*
X20794Y47833D01*
X20797Y47836D01*
X20800Y47839D01*
Y47840D01*
X20800Y47840D01*
X20800Y47840D01*
X20801Y47841D01*
X20801Y47842D01*
X20801Y47843D01*
X20803Y47846D01*
X20804Y47849D01*
X20805Y47853D01*
X20805Y47857D01*
X20806Y47861D01*
Y47862D01*
X20805Y47864D01*
Y47865D01*
X20805Y47866D01*
X20804Y47869D01*
X20804Y47873D01*
X20802Y47877D01*
X20800Y47881D01*
X20799Y47883D01*
X20797Y47885D01*
X20797Y47885D01*
X20797Y47886D01*
X20797Y47886D01*
X20796Y47887D01*
X20795Y47888D01*
X20794Y47889D01*
X20793Y47890D01*
X20791Y47891D01*
X20790Y47892D01*
X20788Y47893D01*
X20786Y47894D01*
X20784Y47895D01*
X20781Y47896D01*
X20779Y47897D01*
X20776Y47898D01*
X20773Y47899D01*
X20777Y47916D01*
X20777D01*
X20778Y47916D01*
D02*
G37*
G36*
X18630Y51700D02*
X18632D01*
X18634Y51700D01*
X18637Y51699D01*
X18639Y51699D01*
X18644Y51698D01*
X18650Y51697D01*
X18656Y51695D01*
X18662Y51692D01*
X18662Y51692D01*
X18663Y51692D01*
X18663Y51692D01*
X18664Y51691D01*
X18666Y51690D01*
X18667Y51689D01*
X18670Y51687D01*
X18674Y51684D01*
X18678Y51680D01*
X18682Y51676D01*
X18685Y51671D01*
X18685Y51671D01*
X18685Y51670D01*
X18685Y51669D01*
X18686Y51668D01*
X18687Y51667D01*
X18687Y51665D01*
X18688Y51664D01*
X18689Y51662D01*
X18689Y51659D01*
X18690Y51657D01*
X18691Y51652D01*
X18692Y51646D01*
X18692Y51640D01*
Y51638D01*
X18692Y51637D01*
X18692Y51635D01*
X18692Y51633D01*
X18692Y51631D01*
X18691Y51628D01*
X18690Y51623D01*
X18688Y51618D01*
X18687Y51615D01*
X18686Y51613D01*
X18684Y51610D01*
X18683Y51607D01*
X18682Y51607D01*
X18682Y51607D01*
X18682Y51606D01*
X18681Y51605D01*
X18680Y51604D01*
X18679Y51603D01*
X18677Y51602D01*
X18676Y51600D01*
X18674Y51599D01*
X18672Y51597D01*
X18669Y51595D01*
X18667Y51594D01*
X18664Y51593D01*
X18661Y51591D01*
X18658Y51590D01*
X18655Y51589D01*
X18651Y51606D01*
X18651D01*
X18652Y51606D01*
X18652Y51606D01*
X18653Y51607D01*
X18655Y51607D01*
X18656Y51607D01*
X18659Y51609D01*
X18662Y51611D01*
X18666Y51613D01*
X18669Y51616D01*
X18672Y51619D01*
X18672Y51619D01*
X18673Y51620D01*
X18674Y51622D01*
X18675Y51625D01*
X18676Y51628D01*
X18677Y51631D01*
X18678Y51635D01*
X18678Y51640D01*
Y51642D01*
X18678Y51642D01*
Y51644D01*
X18678Y51645D01*
X18677Y51649D01*
X18676Y51653D01*
X18675Y51657D01*
X18673Y51661D01*
X18671Y51665D01*
Y51665D01*
X18670Y51665D01*
X18670Y51667D01*
X18668Y51668D01*
X18666Y51670D01*
X18663Y51673D01*
X18660Y51675D01*
X18656Y51677D01*
X18652Y51679D01*
X18652D01*
X18651Y51679D01*
X18651Y51679D01*
X18650Y51679D01*
X18649Y51680D01*
X18647Y51680D01*
X18644Y51681D01*
X18640Y51681D01*
X18636Y51682D01*
X18632Y51682D01*
X18627Y51683D01*
X18627D01*
X18626D01*
X18625D01*
X18624D01*
X18623Y51682D01*
X18621D01*
X18620Y51682D01*
X18618Y51682D01*
X18613Y51681D01*
X18608Y51681D01*
X18603Y51679D01*
X18599Y51678D01*
X18598D01*
X18598Y51678D01*
X18598Y51677D01*
X18597Y51677D01*
X18594Y51676D01*
X18592Y51674D01*
X18589Y51672D01*
X18586Y51670D01*
X18583Y51667D01*
X18580Y51663D01*
Y51663D01*
X18580Y51663D01*
X18580Y51662D01*
X18579Y51661D01*
X18579Y51660D01*
X18578Y51659D01*
X18577Y51657D01*
X18576Y51653D01*
X18575Y51650D01*
X18575Y51646D01*
X18574Y51641D01*
Y51640D01*
X18575Y51639D01*
Y51638D01*
X18575Y51636D01*
X18576Y51633D01*
X18576Y51629D01*
X18578Y51625D01*
X18580Y51621D01*
X18581Y51619D01*
X18583Y51617D01*
X18583Y51617D01*
X18583Y51617D01*
X18583Y51616D01*
X18584Y51616D01*
X18585Y51615D01*
X18586Y51614D01*
X18587Y51613D01*
X18589Y51612D01*
X18590Y51611D01*
X18592Y51610D01*
X18594Y51608D01*
X18596Y51607D01*
X18599Y51606D01*
X18601Y51605D01*
X18604Y51605D01*
X18607Y51604D01*
X18603Y51587D01*
X18603D01*
X18602Y51587D01*
X18601Y51587D01*
X18599Y51588D01*
X18598Y51588D01*
X18596Y51589D01*
X18593Y51590D01*
X18591Y51591D01*
X18586Y51594D01*
X18581Y51597D01*
X18578Y51599D01*
X18575Y51601D01*
X18573Y51603D01*
X18571Y51606D01*
X18571Y51606D01*
X18570Y51607D01*
X18570Y51607D01*
X18569Y51608D01*
X18568Y51610D01*
X18567Y51611D01*
X18566Y51613D01*
X18566Y51615D01*
X18564Y51618D01*
X18564Y51620D01*
X18563Y51623D01*
X18562Y51626D01*
X18561Y51629D01*
X18561Y51633D01*
X18560Y51636D01*
X18560Y51640D01*
Y51642D01*
X18560Y51643D01*
Y51645D01*
X18560Y51647D01*
X18561Y51649D01*
X18561Y51652D01*
X18562Y51657D01*
X18564Y51663D01*
X18566Y51668D01*
X18567Y51671D01*
X18568Y51674D01*
X18569Y51674D01*
X18569Y51674D01*
X18569Y51675D01*
X18570Y51676D01*
X18571Y51677D01*
X18572Y51678D01*
X18573Y51679D01*
X18575Y51681D01*
X18576Y51682D01*
X18578Y51684D01*
X18582Y51687D01*
X18587Y51691D01*
X18593Y51693D01*
X18593D01*
X18593Y51694D01*
X18594Y51694D01*
X18596Y51694D01*
X18597Y51695D01*
X18599Y51695D01*
X18601Y51696D01*
X18603Y51697D01*
X18606Y51697D01*
X18608Y51698D01*
X18614Y51699D01*
X18620Y51700D01*
X18627Y51700D01*
X18627D01*
X18628D01*
X18629D01*
X18630Y51700D01*
D02*
G37*
G36*
X18659Y51560D02*
X18659Y51560D01*
X18659Y51559D01*
X18660Y51558D01*
X18660Y51557D01*
X18661Y51556D01*
X18663Y51553D01*
X18665Y51549D01*
X18667Y51545D01*
X18670Y51541D01*
X18674Y51537D01*
X18674Y51537D01*
X18674Y51537D01*
X18675Y51536D01*
X18675Y51536D01*
X18677Y51534D01*
X18679Y51532D01*
X18682Y51530D01*
X18685Y51527D01*
X18688Y51525D01*
X18691Y51523D01*
Y51513D01*
X18562D01*
Y51529D01*
X18662D01*
X18662Y51529D01*
X18661Y51530D01*
X18660Y51531D01*
X18659Y51533D01*
X18657Y51535D01*
X18655Y51538D01*
X18653Y51541D01*
X18651Y51544D01*
Y51544D01*
X18651Y51544D01*
X18650Y51545D01*
X18650Y51547D01*
X18648Y51549D01*
X18647Y51552D01*
X18646Y51555D01*
X18645Y51558D01*
X18643Y51560D01*
X18659D01*
Y51560D01*
D02*
G37*
G36*
X18631Y51473D02*
X18633D01*
X18636Y51472D01*
X18638Y51472D01*
X18644Y51472D01*
X18650Y51471D01*
X18656Y51470D01*
X18659Y51469D01*
X18662Y51468D01*
X18662D01*
X18662Y51468D01*
X18663Y51468D01*
X18664Y51467D01*
X18665Y51467D01*
X18667Y51466D01*
X18670Y51465D01*
X18673Y51463D01*
X18677Y51460D01*
X18680Y51458D01*
X18683Y51454D01*
Y51454D01*
X18684Y51454D01*
X18684Y51453D01*
X18684Y51453D01*
X18685Y51452D01*
X18686Y51451D01*
X18687Y51448D01*
X18688Y51445D01*
X18690Y51441D01*
X18690Y51436D01*
X18691Y51431D01*
Y51429D01*
X18691Y51427D01*
X18690Y51425D01*
X18690Y51422D01*
X18689Y51419D01*
X18688Y51416D01*
X18687Y51413D01*
Y51413D01*
X18686Y51413D01*
X18686Y51412D01*
X18685Y51410D01*
X18684Y51408D01*
X18682Y51406D01*
X18680Y51404D01*
X18677Y51402D01*
X18675Y51400D01*
X18674Y51400D01*
X18673Y51399D01*
X18672Y51398D01*
X18669Y51397D01*
X18666Y51396D01*
X18663Y51395D01*
X18660Y51393D01*
X18655Y51392D01*
X18655D01*
X18655Y51392D01*
X18654Y51392D01*
X18653Y51392D01*
X18652Y51391D01*
X18651Y51391D01*
X18649Y51391D01*
X18648Y51391D01*
X18645Y51390D01*
X18643Y51390D01*
X18641Y51390D01*
X18638Y51390D01*
X18635Y51389D01*
X18632D01*
X18629Y51389D01*
X18625D01*
X18625D01*
X18624D01*
X18623D01*
X18622D01*
X18620Y51389D01*
X18617D01*
X18615Y51390D01*
X18612Y51390D01*
X18606Y51390D01*
X18600Y51391D01*
X18594Y51392D01*
X18592Y51393D01*
X18589Y51394D01*
X18589D01*
X18588Y51394D01*
X18588Y51395D01*
X18587Y51395D01*
X18585Y51395D01*
X18584Y51396D01*
X18581Y51398D01*
X18578Y51399D01*
X18574Y51402D01*
X18571Y51405D01*
X18567Y51408D01*
Y51408D01*
X18567Y51408D01*
X18567Y51409D01*
X18566Y51410D01*
X18566Y51410D01*
X18565Y51411D01*
X18564Y51414D01*
X18562Y51418D01*
X18561Y51421D01*
X18560Y51426D01*
X18560Y51431D01*
Y51433D01*
X18560Y51434D01*
X18560Y51436D01*
X18561Y51437D01*
X18561Y51440D01*
X18562Y51442D01*
X18562Y51444D01*
X18563Y51446D01*
X18564Y51449D01*
X18566Y51451D01*
X18567Y51454D01*
X18569Y51456D01*
X18571Y51458D01*
X18573Y51460D01*
X18573Y51460D01*
X18574Y51461D01*
X18575Y51461D01*
X18576Y51462D01*
X18578Y51463D01*
X18580Y51464D01*
X18583Y51465D01*
X18586Y51467D01*
X18589Y51468D01*
X18593Y51469D01*
X18597Y51470D01*
X18602Y51471D01*
X18607Y51472D01*
X18613Y51472D01*
X18619Y51473D01*
X18625Y51473D01*
X18625D01*
X18626D01*
X18628D01*
X18629D01*
X18631Y51473D01*
D02*
G37*
G36*
X16898Y52351D02*
X16798D01*
X16798Y52350D01*
X16799Y52350D01*
X16800Y52348D01*
X16801Y52347D01*
X16803Y52345D01*
X16805Y52342D01*
X16807Y52339D01*
X16809Y52336D01*
Y52335D01*
X16809Y52335D01*
X16810Y52334D01*
X16810Y52332D01*
X16812Y52330D01*
X16813Y52328D01*
X16814Y52325D01*
X16815Y52322D01*
X16817Y52319D01*
X16801D01*
Y52319D01*
X16801Y52320D01*
X16801Y52320D01*
X16800Y52321D01*
X16800Y52323D01*
X16799Y52324D01*
X16797Y52327D01*
X16795Y52331D01*
X16793Y52334D01*
X16790Y52338D01*
X16786Y52342D01*
X16786Y52342D01*
X16786Y52343D01*
X16785Y52343D01*
X16785Y52344D01*
X16783Y52345D01*
X16781Y52348D01*
X16778Y52350D01*
X16775Y52352D01*
X16772Y52354D01*
X16769Y52356D01*
Y52366D01*
X16898D01*
Y52351D01*
D02*
G37*
G36*
Y52251D02*
X16798D01*
X16798Y52251D01*
X16799Y52250D01*
X16800Y52249D01*
X16801Y52247D01*
X16803Y52245D01*
X16805Y52242D01*
X16807Y52239D01*
X16809Y52236D01*
Y52236D01*
X16809Y52236D01*
X16810Y52235D01*
X16810Y52233D01*
X16812Y52231D01*
X16813Y52228D01*
X16814Y52225D01*
X16815Y52222D01*
X16817Y52220D01*
X16801D01*
Y52220D01*
X16801Y52220D01*
X16801Y52221D01*
X16800Y52222D01*
X16800Y52223D01*
X16799Y52224D01*
X16797Y52227D01*
X16795Y52231D01*
X16793Y52235D01*
X16790Y52239D01*
X16786Y52243D01*
X16786Y52243D01*
X16786Y52243D01*
X16785Y52244D01*
X16785Y52244D01*
X16783Y52246D01*
X16781Y52248D01*
X16778Y52250D01*
X16775Y52253D01*
X16772Y52255D01*
X16769Y52257D01*
Y52267D01*
X16898D01*
Y52251D01*
D02*
G37*
G36*
X16858Y52193D02*
X16859Y52193D01*
X16861Y52192D01*
X16862Y52192D01*
X16864Y52191D01*
X16867Y52190D01*
X16869Y52189D01*
X16874Y52186D01*
X16879Y52183D01*
X16882Y52181D01*
X16885Y52179D01*
X16887Y52177D01*
X16889Y52174D01*
X16889Y52174D01*
X16890Y52173D01*
X16890Y52172D01*
X16891Y52172D01*
X16892Y52170D01*
X16893Y52169D01*
X16894Y52167D01*
X16894Y52165D01*
X16896Y52162D01*
X16896Y52160D01*
X16897Y52157D01*
X16898Y52154D01*
X16899Y52151D01*
X16899Y52147D01*
X16900Y52144D01*
X16900Y52140D01*
Y52138D01*
X16900Y52137D01*
Y52135D01*
X16900Y52133D01*
X16899Y52131D01*
X16899Y52128D01*
X16898Y52123D01*
X16896Y52117D01*
X16894Y52112D01*
X16893Y52109D01*
X16892Y52106D01*
X16891Y52106D01*
X16891Y52106D01*
X16891Y52105D01*
X16890Y52104D01*
X16889Y52103D01*
X16888Y52102D01*
X16887Y52101D01*
X16885Y52099D01*
X16884Y52098D01*
X16882Y52096D01*
X16878Y52093D01*
X16873Y52089D01*
X16867Y52087D01*
X16867D01*
X16867Y52086D01*
X16866Y52086D01*
X16864Y52086D01*
X16863Y52085D01*
X16861Y52085D01*
X16859Y52084D01*
X16857Y52083D01*
X16854Y52083D01*
X16852Y52082D01*
X16846Y52081D01*
X16840Y52080D01*
X16833Y52080D01*
X16833D01*
X16832D01*
X16831D01*
X16830Y52080D01*
X16828D01*
X16826Y52080D01*
X16823Y52081D01*
X16821Y52081D01*
X16816Y52082D01*
X16810Y52083D01*
X16804Y52085D01*
X16798Y52088D01*
X16798Y52088D01*
X16797Y52088D01*
X16797Y52088D01*
X16796Y52089D01*
X16794Y52090D01*
X16793Y52091D01*
X16790Y52093D01*
X16786Y52096D01*
X16782Y52100D01*
X16778Y52104D01*
X16775Y52109D01*
X16775Y52109D01*
X16775Y52110D01*
X16775Y52111D01*
X16774Y52112D01*
X16773Y52113D01*
X16773Y52115D01*
X16772Y52116D01*
X16771Y52118D01*
X16771Y52121D01*
X16770Y52123D01*
X16769Y52128D01*
X16768Y52134D01*
X16768Y52140D01*
Y52142D01*
X16768Y52143D01*
X16768Y52145D01*
X16768Y52147D01*
X16768Y52149D01*
X16769Y52152D01*
X16770Y52157D01*
X16772Y52162D01*
X16773Y52165D01*
X16774Y52168D01*
X16776Y52170D01*
X16777Y52173D01*
X16778Y52173D01*
X16778Y52173D01*
X16778Y52174D01*
X16779Y52175D01*
X16780Y52176D01*
X16781Y52177D01*
X16783Y52178D01*
X16784Y52180D01*
X16786Y52181D01*
X16788Y52183D01*
X16791Y52185D01*
X16793Y52186D01*
X16796Y52187D01*
X16799Y52189D01*
X16802Y52190D01*
X16805Y52191D01*
X16809Y52174D01*
X16809D01*
X16808Y52174D01*
X16808Y52174D01*
X16807Y52173D01*
X16805Y52173D01*
X16804Y52172D01*
X16801Y52171D01*
X16798Y52169D01*
X16794Y52167D01*
X16791Y52164D01*
X16788Y52161D01*
X16788Y52161D01*
X16787Y52160D01*
X16786Y52158D01*
X16785Y52155D01*
X16784Y52152D01*
X16783Y52149D01*
X16782Y52145D01*
X16782Y52140D01*
Y52138D01*
X16782Y52138D01*
Y52136D01*
X16782Y52135D01*
X16783Y52131D01*
X16784Y52127D01*
X16785Y52123D01*
X16787Y52119D01*
X16789Y52115D01*
Y52115D01*
X16790Y52115D01*
X16790Y52113D01*
X16792Y52112D01*
X16794Y52110D01*
X16797Y52107D01*
X16800Y52105D01*
X16804Y52103D01*
X16808Y52101D01*
X16808D01*
X16809Y52101D01*
X16809Y52101D01*
X16810Y52101D01*
X16811Y52100D01*
X16813Y52100D01*
X16816Y52099D01*
X16820Y52099D01*
X16824Y52098D01*
X16828Y52098D01*
X16833Y52097D01*
X16833D01*
X16834D01*
X16835D01*
X16836D01*
X16837Y52098D01*
X16839D01*
X16840Y52098D01*
X16842Y52098D01*
X16847Y52098D01*
X16852Y52099D01*
X16857Y52101D01*
X16861Y52102D01*
X16862D01*
X16862Y52102D01*
X16862Y52103D01*
X16863Y52103D01*
X16866Y52104D01*
X16868Y52106D01*
X16871Y52108D01*
X16874Y52110D01*
X16877Y52113D01*
X16880Y52117D01*
Y52117D01*
X16880Y52117D01*
X16880Y52118D01*
X16881Y52119D01*
X16881Y52120D01*
X16882Y52121D01*
X16883Y52123D01*
X16884Y52127D01*
X16885Y52130D01*
X16885Y52134D01*
X16886Y52139D01*
Y52140D01*
X16885Y52141D01*
Y52142D01*
X16885Y52144D01*
X16884Y52147D01*
X16884Y52151D01*
X16882Y52155D01*
X16880Y52159D01*
X16879Y52161D01*
X16877Y52163D01*
X16877Y52163D01*
X16877Y52163D01*
X16877Y52164D01*
X16876Y52164D01*
X16875Y52165D01*
X16874Y52166D01*
X16873Y52167D01*
X16871Y52168D01*
X16870Y52169D01*
X16868Y52170D01*
X16866Y52172D01*
X16864Y52173D01*
X16861Y52174D01*
X16859Y52175D01*
X16856Y52175D01*
X16853Y52176D01*
X16857Y52193D01*
X16857D01*
X16858Y52193D01*
D02*
G37*
G36*
X14470Y47876D02*
X14472D01*
X14474Y47875D01*
X14477Y47875D01*
X14479Y47875D01*
X14484Y47874D01*
X14490Y47873D01*
X14496Y47871D01*
X14502Y47868D01*
X14502Y47868D01*
X14503Y47868D01*
X14503Y47867D01*
X14504Y47867D01*
X14506Y47866D01*
X14507Y47865D01*
X14510Y47863D01*
X14514Y47859D01*
X14518Y47856D01*
X14522Y47851D01*
X14525Y47846D01*
X14525Y47846D01*
X14525Y47846D01*
X14525Y47845D01*
X14526Y47844D01*
X14527Y47843D01*
X14527Y47841D01*
X14528Y47839D01*
X14529Y47837D01*
X14529Y47835D01*
X14530Y47833D01*
X14531Y47827D01*
X14532Y47821D01*
X14532Y47815D01*
Y47814D01*
X14532Y47812D01*
X14532Y47811D01*
X14532Y47809D01*
X14532Y47807D01*
X14531Y47804D01*
X14530Y47799D01*
X14528Y47794D01*
X14527Y47791D01*
X14526Y47788D01*
X14524Y47786D01*
X14523Y47783D01*
X14522Y47783D01*
X14522Y47782D01*
X14522Y47782D01*
X14521Y47781D01*
X14520Y47780D01*
X14519Y47779D01*
X14517Y47777D01*
X14516Y47776D01*
X14514Y47774D01*
X14512Y47773D01*
X14509Y47771D01*
X14507Y47770D01*
X14504Y47768D01*
X14501Y47767D01*
X14498Y47766D01*
X14495Y47765D01*
X14491Y47781D01*
X14491D01*
X14492Y47782D01*
X14492Y47782D01*
X14493Y47782D01*
X14495Y47783D01*
X14496Y47783D01*
X14499Y47785D01*
X14502Y47787D01*
X14506Y47789D01*
X14509Y47792D01*
X14512Y47794D01*
X14512Y47795D01*
X14513Y47796D01*
X14514Y47798D01*
X14515Y47800D01*
X14516Y47803D01*
X14517Y47807D01*
X14518Y47811D01*
X14518Y47816D01*
Y47817D01*
X14518Y47818D01*
Y47819D01*
X14518Y47821D01*
X14517Y47824D01*
X14516Y47828D01*
X14515Y47832D01*
X14513Y47837D01*
X14511Y47841D01*
Y47841D01*
X14510Y47841D01*
X14510Y47842D01*
X14508Y47844D01*
X14506Y47846D01*
X14503Y47848D01*
X14500Y47851D01*
X14496Y47853D01*
X14492Y47854D01*
X14492D01*
X14491Y47855D01*
X14491Y47855D01*
X14490Y47855D01*
X14489Y47855D01*
X14487Y47856D01*
X14484Y47856D01*
X14480Y47857D01*
X14476Y47858D01*
X14472Y47858D01*
X14467Y47858D01*
X14467D01*
X14466D01*
X14465D01*
X14464D01*
X14463Y47858D01*
X14461D01*
X14460Y47858D01*
X14458Y47858D01*
X14453Y47857D01*
X14448Y47856D01*
X14443Y47855D01*
X14439Y47854D01*
X14438D01*
X14438Y47853D01*
X14438Y47853D01*
X14437Y47853D01*
X14434Y47852D01*
X14432Y47850D01*
X14429Y47848D01*
X14426Y47845D01*
X14423Y47842D01*
X14420Y47839D01*
Y47839D01*
X14420Y47838D01*
X14420Y47838D01*
X14419Y47837D01*
X14419Y47836D01*
X14418Y47835D01*
X14417Y47832D01*
X14416Y47829D01*
X14415Y47825D01*
X14415Y47821D01*
X14414Y47817D01*
Y47816D01*
X14415Y47815D01*
Y47813D01*
X14415Y47812D01*
X14416Y47809D01*
X14416Y47805D01*
X14418Y47801D01*
X14420Y47797D01*
X14421Y47795D01*
X14423Y47793D01*
X14423Y47793D01*
X14423Y47793D01*
X14423Y47792D01*
X14424Y47791D01*
X14425Y47791D01*
X14426Y47790D01*
X14427Y47789D01*
X14429Y47788D01*
X14430Y47787D01*
X14432Y47785D01*
X14434Y47784D01*
X14436Y47783D01*
X14439Y47782D01*
X14441Y47781D01*
X14444Y47780D01*
X14447Y47779D01*
X14443Y47762D01*
X14443D01*
X14442Y47763D01*
X14441Y47763D01*
X14439Y47764D01*
X14438Y47764D01*
X14436Y47765D01*
X14433Y47766D01*
X14431Y47767D01*
X14426Y47770D01*
X14421Y47773D01*
X14418Y47775D01*
X14415Y47777D01*
X14413Y47779D01*
X14411Y47782D01*
X14411Y47782D01*
X14410Y47782D01*
X14410Y47783D01*
X14409Y47784D01*
X14408Y47786D01*
X14407Y47787D01*
X14406Y47789D01*
X14406Y47791D01*
X14404Y47794D01*
X14404Y47796D01*
X14403Y47799D01*
X14402Y47802D01*
X14401Y47805D01*
X14401Y47808D01*
X14400Y47812D01*
X14400Y47816D01*
Y47818D01*
X14400Y47819D01*
Y47821D01*
X14400Y47823D01*
X14401Y47825D01*
X14401Y47828D01*
X14402Y47833D01*
X14404Y47839D01*
X14406Y47844D01*
X14407Y47847D01*
X14408Y47849D01*
X14409Y47849D01*
X14409Y47850D01*
X14409Y47851D01*
X14410Y47851D01*
X14411Y47852D01*
X14412Y47854D01*
X14413Y47855D01*
X14415Y47857D01*
X14416Y47858D01*
X14418Y47860D01*
X14422Y47863D01*
X14427Y47866D01*
X14433Y47869D01*
X14433D01*
X14433Y47869D01*
X14434Y47870D01*
X14436Y47870D01*
X14437Y47871D01*
X14439Y47871D01*
X14441Y47872D01*
X14443Y47872D01*
X14446Y47873D01*
X14448Y47874D01*
X14454Y47875D01*
X14460Y47875D01*
X14467Y47876D01*
X14467D01*
X14468D01*
X14469D01*
X14470Y47876D01*
D02*
G37*
G36*
X14499Y47736D02*
X14499Y47735D01*
X14499Y47735D01*
X14500Y47734D01*
X14500Y47733D01*
X14501Y47731D01*
X14503Y47728D01*
X14505Y47725D01*
X14507Y47721D01*
X14510Y47717D01*
X14514Y47713D01*
X14514Y47713D01*
X14514Y47713D01*
X14515Y47712D01*
X14515Y47711D01*
X14517Y47710D01*
X14519Y47708D01*
X14522Y47705D01*
X14525Y47703D01*
X14528Y47701D01*
X14531Y47699D01*
Y47689D01*
X14402D01*
Y47705D01*
X14502D01*
X14502Y47705D01*
X14501Y47706D01*
X14500Y47707D01*
X14499Y47709D01*
X14497Y47711D01*
X14495Y47713D01*
X14493Y47716D01*
X14491Y47720D01*
Y47720D01*
X14491Y47720D01*
X14490Y47721D01*
X14490Y47723D01*
X14488Y47725D01*
X14487Y47728D01*
X14486Y47730D01*
X14485Y47733D01*
X14483Y47736D01*
X14499D01*
Y47736D01*
D02*
G37*
G36*
X14437Y47632D02*
X14437D01*
X14436D01*
X14436Y47632D01*
X14435Y47632D01*
X14433Y47631D01*
X14430Y47630D01*
X14427Y47629D01*
X14424Y47628D01*
X14421Y47626D01*
X14419Y47624D01*
X14419Y47623D01*
X14418Y47623D01*
X14417Y47621D01*
X14416Y47619D01*
X14415Y47617D01*
X14414Y47614D01*
X14413Y47611D01*
X14413Y47607D01*
Y47606D01*
X14413Y47606D01*
X14413Y47603D01*
X14414Y47601D01*
X14415Y47598D01*
X14416Y47594D01*
X14419Y47591D01*
X14420Y47590D01*
X14421Y47588D01*
X14422Y47588D01*
X14422Y47588D01*
X14422Y47587D01*
X14423Y47587D01*
X14425Y47586D01*
X14428Y47584D01*
X14431Y47583D01*
X14435Y47582D01*
X14439Y47581D01*
X14442Y47580D01*
X14444D01*
X14444D01*
X14445D01*
X14446D01*
X14446Y47580D01*
X14448D01*
X14449Y47581D01*
X14452Y47581D01*
X14455Y47582D01*
X14459Y47583D01*
X14462Y47585D01*
X14465Y47588D01*
X14465D01*
X14466Y47588D01*
X14467Y47589D01*
X14468Y47591D01*
X14469Y47593D01*
X14471Y47596D01*
X14472Y47599D01*
X14473Y47603D01*
X14473Y47605D01*
Y47609D01*
X14473Y47610D01*
X14473Y47612D01*
X14472Y47614D01*
X14472Y47617D01*
X14471Y47619D01*
X14470Y47622D01*
X14470Y47622D01*
X14469Y47622D01*
X14468Y47624D01*
X14467Y47625D01*
X14466Y47627D01*
X14464Y47628D01*
X14463Y47630D01*
X14461Y47631D01*
X14463Y47646D01*
X14529Y47633D01*
Y47570D01*
X14514D01*
Y47621D01*
X14479Y47628D01*
X14479Y47628D01*
X14479Y47627D01*
X14480Y47627D01*
X14480Y47626D01*
X14481Y47625D01*
X14482Y47623D01*
X14483Y47620D01*
X14485Y47617D01*
X14486Y47613D01*
X14487Y47608D01*
X14487Y47606D01*
Y47602D01*
X14487Y47601D01*
X14487Y47599D01*
X14487Y47598D01*
X14486Y47596D01*
X14486Y47594D01*
X14484Y47589D01*
X14483Y47587D01*
X14482Y47585D01*
X14481Y47582D01*
X14479Y47580D01*
X14478Y47577D01*
X14475Y47575D01*
X14475Y47575D01*
X14475Y47575D01*
X14474Y47574D01*
X14473Y47573D01*
X14472Y47572D01*
X14471Y47572D01*
X14469Y47570D01*
X14467Y47569D01*
X14465Y47568D01*
X14463Y47567D01*
X14460Y47566D01*
X14458Y47565D01*
X14455Y47565D01*
X14452Y47564D01*
X14449Y47564D01*
X14446Y47564D01*
X14445D01*
X14445D01*
X14444D01*
X14443Y47564D01*
X14441Y47564D01*
X14439Y47564D01*
X14437Y47565D01*
X14435Y47565D01*
X14431Y47566D01*
X14426Y47568D01*
X14423Y47569D01*
X14421Y47570D01*
X14418Y47572D01*
X14416Y47574D01*
X14415Y47574D01*
X14415Y47574D01*
X14414Y47575D01*
X14413Y47576D01*
X14412Y47577D01*
X14411Y47579D01*
X14409Y47581D01*
X14408Y47583D01*
X14406Y47585D01*
X14405Y47587D01*
X14404Y47590D01*
X14402Y47593D01*
X14401Y47596D01*
X14401Y47600D01*
X14400Y47604D01*
X14400Y47607D01*
Y47609D01*
X14400Y47610D01*
X14400Y47612D01*
X14401Y47614D01*
X14401Y47616D01*
X14401Y47618D01*
X14402Y47622D01*
X14404Y47627D01*
X14405Y47629D01*
X14406Y47632D01*
X14408Y47634D01*
X14410Y47636D01*
X14410Y47636D01*
X14410Y47637D01*
X14411Y47637D01*
X14411Y47638D01*
X14412Y47639D01*
X14413Y47640D01*
X14415Y47641D01*
X14417Y47642D01*
X14418Y47643D01*
X14420Y47644D01*
X14425Y47646D01*
X14430Y47648D01*
X14433Y47648D01*
X14436Y47649D01*
X14437Y47632D01*
D02*
G37*
G36*
X20550Y51900D02*
X20552D01*
X20554Y51900D01*
X20557Y51899D01*
X20559Y51899D01*
X20564Y51898D01*
X20570Y51897D01*
X20576Y51895D01*
X20582Y51892D01*
X20582Y51892D01*
X20583Y51892D01*
X20583Y51892D01*
X20584Y51891D01*
X20586Y51890D01*
X20587Y51889D01*
X20590Y51887D01*
X20594Y51884D01*
X20598Y51880D01*
X20602Y51876D01*
X20605Y51871D01*
X20605Y51871D01*
X20605Y51870D01*
X20605Y51869D01*
X20606Y51868D01*
X20607Y51867D01*
X20607Y51865D01*
X20608Y51864D01*
X20609Y51862D01*
X20609Y51859D01*
X20610Y51857D01*
X20611Y51852D01*
X20612Y51846D01*
X20612Y51840D01*
Y51838D01*
X20612Y51837D01*
X20612Y51835D01*
X20612Y51833D01*
X20612Y51831D01*
X20611Y51828D01*
X20610Y51823D01*
X20608Y51818D01*
X20607Y51815D01*
X20606Y51813D01*
X20604Y51810D01*
X20603Y51807D01*
X20602Y51807D01*
X20602Y51807D01*
X20602Y51806D01*
X20601Y51805D01*
X20600Y51804D01*
X20599Y51803D01*
X20597Y51802D01*
X20596Y51800D01*
X20594Y51799D01*
X20592Y51797D01*
X20589Y51795D01*
X20587Y51794D01*
X20584Y51793D01*
X20581Y51791D01*
X20578Y51790D01*
X20575Y51789D01*
X20571Y51806D01*
X20571D01*
X20572Y51806D01*
X20572Y51806D01*
X20573Y51807D01*
X20575Y51807D01*
X20576Y51807D01*
X20579Y51809D01*
X20582Y51811D01*
X20586Y51813D01*
X20589Y51816D01*
X20592Y51819D01*
X20592Y51819D01*
X20593Y51820D01*
X20594Y51822D01*
X20595Y51825D01*
X20596Y51828D01*
X20597Y51831D01*
X20598Y51835D01*
X20598Y51840D01*
Y51842D01*
X20598Y51842D01*
Y51844D01*
X20598Y51845D01*
X20597Y51849D01*
X20596Y51853D01*
X20595Y51857D01*
X20593Y51861D01*
X20591Y51865D01*
Y51865D01*
X20590Y51865D01*
X20590Y51867D01*
X20588Y51868D01*
X20586Y51870D01*
X20583Y51873D01*
X20580Y51875D01*
X20576Y51877D01*
X20572Y51879D01*
X20572D01*
X20571Y51879D01*
X20571Y51879D01*
X20570Y51879D01*
X20569Y51880D01*
X20567Y51880D01*
X20564Y51881D01*
X20560Y51881D01*
X20556Y51882D01*
X20552Y51882D01*
X20547Y51883D01*
X20547D01*
X20546D01*
X20545D01*
X20544D01*
X20543Y51882D01*
X20541D01*
X20540Y51882D01*
X20538Y51882D01*
X20533Y51881D01*
X20528Y51881D01*
X20523Y51879D01*
X20519Y51878D01*
X20518D01*
X20518Y51878D01*
X20518Y51877D01*
X20517Y51877D01*
X20514Y51876D01*
X20512Y51874D01*
X20509Y51872D01*
X20506Y51870D01*
X20503Y51867D01*
X20500Y51863D01*
Y51863D01*
X20500Y51863D01*
X20500Y51862D01*
X20499Y51861D01*
X20499Y51860D01*
X20498Y51859D01*
X20497Y51857D01*
X20496Y51853D01*
X20495Y51850D01*
X20495Y51846D01*
X20494Y51841D01*
Y51840D01*
X20495Y51839D01*
Y51838D01*
X20495Y51836D01*
X20496Y51833D01*
X20496Y51829D01*
X20498Y51825D01*
X20500Y51821D01*
X20501Y51819D01*
X20503Y51817D01*
X20503Y51817D01*
X20503Y51817D01*
X20503Y51816D01*
X20504Y51816D01*
X20505Y51815D01*
X20506Y51814D01*
X20507Y51813D01*
X20509Y51812D01*
X20510Y51811D01*
X20512Y51810D01*
X20514Y51808D01*
X20516Y51807D01*
X20519Y51806D01*
X20521Y51805D01*
X20524Y51805D01*
X20527Y51804D01*
X20523Y51787D01*
X20523D01*
X20522Y51787D01*
X20521Y51787D01*
X20519Y51788D01*
X20518Y51788D01*
X20516Y51789D01*
X20513Y51790D01*
X20511Y51791D01*
X20506Y51794D01*
X20501Y51797D01*
X20498Y51799D01*
X20495Y51801D01*
X20493Y51803D01*
X20491Y51806D01*
X20491Y51806D01*
X20490Y51807D01*
X20490Y51807D01*
X20489Y51808D01*
X20488Y51810D01*
X20487Y51811D01*
X20486Y51813D01*
X20486Y51815D01*
X20484Y51818D01*
X20484Y51820D01*
X20483Y51823D01*
X20482Y51826D01*
X20481Y51829D01*
X20481Y51833D01*
X20480Y51836D01*
X20480Y51840D01*
Y51842D01*
X20480Y51843D01*
Y51845D01*
X20480Y51847D01*
X20481Y51849D01*
X20481Y51852D01*
X20482Y51857D01*
X20484Y51863D01*
X20486Y51868D01*
X20487Y51871D01*
X20488Y51874D01*
X20489Y51874D01*
X20489Y51874D01*
X20489Y51875D01*
X20490Y51876D01*
X20491Y51877D01*
X20492Y51878D01*
X20493Y51879D01*
X20495Y51881D01*
X20496Y51882D01*
X20498Y51884D01*
X20502Y51887D01*
X20507Y51891D01*
X20513Y51893D01*
X20513D01*
X20513Y51894D01*
X20514Y51894D01*
X20516Y51894D01*
X20517Y51895D01*
X20519Y51895D01*
X20521Y51896D01*
X20523Y51897D01*
X20526Y51897D01*
X20528Y51898D01*
X20534Y51899D01*
X20540Y51900D01*
X20547Y51900D01*
X20547D01*
X20548D01*
X20549D01*
X20550Y51900D01*
D02*
G37*
G36*
X20579Y51760D02*
X20579Y51760D01*
X20579Y51759D01*
X20580Y51758D01*
X20580Y51757D01*
X20581Y51756D01*
X20583Y51753D01*
X20585Y51749D01*
X20587Y51745D01*
X20590Y51741D01*
X20594Y51737D01*
X20594Y51737D01*
X20594Y51737D01*
X20595Y51736D01*
X20595Y51736D01*
X20597Y51734D01*
X20599Y51732D01*
X20602Y51730D01*
X20605Y51727D01*
X20608Y51725D01*
X20611Y51723D01*
Y51713D01*
X20482D01*
Y51729D01*
X20582D01*
X20582Y51729D01*
X20581Y51730D01*
X20580Y51731D01*
X20579Y51733D01*
X20577Y51735D01*
X20575Y51738D01*
X20573Y51741D01*
X20571Y51744D01*
Y51744D01*
X20571Y51744D01*
X20570Y51745D01*
X20570Y51747D01*
X20568Y51749D01*
X20567Y51752D01*
X20566Y51755D01*
X20565Y51758D01*
X20563Y51760D01*
X20579D01*
Y51760D01*
D02*
G37*
G36*
X20545Y51673D02*
X20548D01*
X20551Y51673D01*
X20555Y51673D01*
X20558Y51672D01*
X20563Y51672D01*
X20567Y51671D01*
X20572Y51670D01*
X20576Y51669D01*
X20580Y51668D01*
X20585Y51666D01*
X20589Y51664D01*
X20593Y51662D01*
X20596Y51660D01*
X20596Y51660D01*
X20597Y51659D01*
X20597Y51659D01*
X20598Y51658D01*
X20600Y51657D01*
X20601Y51655D01*
X20602Y51653D01*
X20603Y51651D01*
X20605Y51649D01*
X20606Y51647D01*
X20607Y51644D01*
X20609Y51641D01*
X20610Y51638D01*
X20610Y51635D01*
X20611Y51631D01*
X20611Y51627D01*
Y51626D01*
X20611Y51625D01*
Y51624D01*
X20610Y51622D01*
X20610Y51619D01*
X20609Y51615D01*
X20607Y51611D01*
X20605Y51607D01*
X20604Y51605D01*
X20602Y51603D01*
X20602Y51603D01*
X20602Y51602D01*
X20601Y51602D01*
X20601Y51601D01*
X20600Y51600D01*
X20599Y51600D01*
X20596Y51598D01*
X20593Y51595D01*
X20589Y51594D01*
X20584Y51592D01*
X20579Y51591D01*
X20578Y51607D01*
X20578D01*
X20578Y51607D01*
X20579Y51607D01*
X20581Y51608D01*
X20583Y51608D01*
X20585Y51609D01*
X20587Y51610D01*
X20589Y51611D01*
X20591Y51613D01*
X20591Y51613D01*
X20592Y51614D01*
X20593Y51615D01*
X20595Y51617D01*
X20596Y51619D01*
X20597Y51622D01*
X20597Y51625D01*
X20598Y51628D01*
Y51630D01*
X20598Y51631D01*
X20597Y51633D01*
X20597Y51635D01*
X20596Y51637D01*
X20595Y51640D01*
X20594Y51642D01*
X20593Y51642D01*
X20593Y51643D01*
X20591Y51644D01*
X20590Y51646D01*
X20587Y51648D01*
X20585Y51650D01*
X20581Y51652D01*
X20578Y51654D01*
X20577D01*
X20577Y51654D01*
X20577Y51654D01*
X20576Y51654D01*
X20575Y51655D01*
X20573Y51655D01*
X20572Y51655D01*
X20570Y51656D01*
X20568Y51656D01*
X20566Y51657D01*
X20563Y51657D01*
X20561Y51657D01*
X20558Y51657D01*
X20555Y51658D01*
X20552Y51658D01*
X20548D01*
X20548Y51658D01*
X20550Y51657D01*
X20551Y51656D01*
X20553Y51654D01*
X20555Y51652D01*
X20557Y51650D01*
X20559Y51647D01*
X20561Y51644D01*
Y51644D01*
X20561Y51644D01*
X20562Y51643D01*
X20562Y51641D01*
X20563Y51639D01*
X20564Y51636D01*
X20565Y51633D01*
X20565Y51630D01*
X20565Y51627D01*
Y51625D01*
X20565Y51624D01*
X20565Y51623D01*
X20565Y51621D01*
X20564Y51619D01*
X20564Y51618D01*
X20563Y51613D01*
X20562Y51611D01*
X20560Y51609D01*
X20559Y51607D01*
X20558Y51604D01*
X20556Y51602D01*
X20554Y51600D01*
X20553Y51600D01*
X20553Y51599D01*
X20553Y51599D01*
X20552Y51598D01*
X20550Y51597D01*
X20549Y51596D01*
X20547Y51595D01*
X20545Y51594D01*
X20543Y51593D01*
X20541Y51592D01*
X20539Y51591D01*
X20536Y51590D01*
X20533Y51590D01*
X20530Y51589D01*
X20527Y51589D01*
X20524Y51589D01*
X20523D01*
X20523D01*
X20523D01*
X20522D01*
X20521Y51589D01*
X20519D01*
X20516Y51590D01*
X20513Y51590D01*
X20509Y51591D01*
X20505Y51592D01*
X20501Y51594D01*
X20501D01*
X20501Y51594D01*
X20500Y51595D01*
X20500Y51595D01*
X20498Y51596D01*
X20495Y51598D01*
X20493Y51600D01*
X20490Y51602D01*
X20488Y51605D01*
X20485Y51608D01*
Y51609D01*
X20485Y51609D01*
X20485Y51609D01*
X20485Y51610D01*
X20484Y51612D01*
X20483Y51614D01*
X20482Y51618D01*
X20481Y51621D01*
X20480Y51625D01*
X20480Y51629D01*
Y51630D01*
X20480Y51631D01*
Y51632D01*
X20480Y51634D01*
X20481Y51636D01*
X20481Y51638D01*
X20482Y51640D01*
X20483Y51643D01*
X20484Y51646D01*
X20485Y51648D01*
X20486Y51651D01*
X20488Y51654D01*
X20490Y51656D01*
X20492Y51659D01*
X20494Y51661D01*
X20495Y51661D01*
X20495Y51662D01*
X20496Y51662D01*
X20497Y51663D01*
X20499Y51664D01*
X20501Y51665D01*
X20503Y51666D01*
X20506Y51667D01*
X20509Y51669D01*
X20512Y51670D01*
X20516Y51671D01*
X20521Y51672D01*
X20525Y51672D01*
X20531Y51673D01*
X20536Y51673D01*
X20542Y51674D01*
X20542D01*
X20542D01*
X20543D01*
X20544D01*
X20545Y51673D01*
D02*
G37*
G36*
X18908Y45368D02*
X18893D01*
Y45437D01*
X18853D01*
Y45377D01*
X18838D01*
Y45437D01*
X18780D01*
Y45454D01*
X18908D01*
Y45368D01*
D02*
G37*
G36*
Y45296D02*
X18908Y45295D01*
Y45293D01*
X18907Y45290D01*
X18907Y45286D01*
X18906Y45282D01*
X18905Y45279D01*
X18904Y45275D01*
Y45275D01*
X18904Y45275D01*
X18903Y45274D01*
X18902Y45272D01*
X18901Y45270D01*
X18900Y45268D01*
X18897Y45265D01*
X18895Y45263D01*
X18892Y45261D01*
X18892Y45261D01*
X18891Y45260D01*
X18889Y45259D01*
X18887Y45259D01*
X18884Y45258D01*
X18882Y45257D01*
X18878Y45256D01*
X18875Y45256D01*
X18875D01*
X18874D01*
X18872Y45256D01*
X18870Y45256D01*
X18868Y45257D01*
X18865Y45258D01*
X18863Y45259D01*
X18860Y45261D01*
X18860Y45261D01*
X18859Y45261D01*
X18857Y45262D01*
X18856Y45264D01*
X18854Y45266D01*
X18852Y45268D01*
X18850Y45271D01*
X18848Y45274D01*
Y45274D01*
X18848Y45273D01*
X18848Y45273D01*
X18848Y45272D01*
X18847Y45270D01*
X18845Y45267D01*
X18844Y45264D01*
X18842Y45261D01*
X18839Y45259D01*
X18836Y45256D01*
X18836Y45256D01*
X18835Y45255D01*
X18833Y45254D01*
X18831Y45253D01*
X18828Y45252D01*
X18825Y45251D01*
X18821Y45250D01*
X18817Y45250D01*
X18817D01*
X18817D01*
X18816D01*
X18814Y45250D01*
X18812Y45250D01*
X18809Y45251D01*
X18806Y45251D01*
X18803Y45252D01*
X18800Y45254D01*
X18800Y45254D01*
X18799Y45254D01*
X18798Y45255D01*
X18796Y45256D01*
X18794Y45258D01*
X18792Y45259D01*
X18790Y45261D01*
X18788Y45263D01*
X18788Y45263D01*
X18788Y45264D01*
X18787Y45265D01*
X18786Y45267D01*
X18785Y45269D01*
X18784Y45271D01*
X18783Y45274D01*
X18782Y45277D01*
Y45277D01*
X18782Y45279D01*
X18781Y45280D01*
X18781Y45283D01*
X18781Y45286D01*
X18780Y45289D01*
X18780Y45293D01*
X18780Y45298D01*
Y45346D01*
X18908D01*
Y45296D01*
D02*
G37*
G36*
X18876Y45221D02*
X18877Y45220D01*
X18877Y45219D01*
X18877Y45219D01*
X18878Y45217D01*
X18879Y45216D01*
X18881Y45213D01*
X18883Y45209D01*
X18885Y45206D01*
X18888Y45202D01*
X18891Y45198D01*
X18892Y45198D01*
X18892Y45197D01*
X18892Y45197D01*
X18893Y45196D01*
X18895Y45195D01*
X18897Y45192D01*
X18900Y45190D01*
X18902Y45188D01*
X18905Y45186D01*
X18909Y45184D01*
Y45174D01*
X18780D01*
Y45189D01*
X18880D01*
X18880Y45190D01*
X18879Y45190D01*
X18878Y45192D01*
X18877Y45193D01*
X18875Y45195D01*
X18873Y45198D01*
X18871Y45201D01*
X18869Y45204D01*
Y45205D01*
X18869Y45205D01*
X18868Y45206D01*
X18867Y45208D01*
X18866Y45210D01*
X18865Y45212D01*
X18864Y45215D01*
X18862Y45218D01*
X18861Y45221D01*
X18876D01*
Y45221D01*
D02*
G37*
G36*
X20188Y50273D02*
X20173D01*
Y50343D01*
X20133D01*
Y50283D01*
X20118D01*
Y50343D01*
X20060D01*
Y50360D01*
X20188D01*
Y50273D01*
D02*
G37*
G36*
Y50202D02*
X20188Y50201D01*
Y50199D01*
X20187Y50196D01*
X20187Y50192D01*
X20186Y50188D01*
X20185Y50184D01*
X20184Y50181D01*
Y50181D01*
X20184Y50180D01*
X20183Y50179D01*
X20182Y50178D01*
X20181Y50176D01*
X20180Y50174D01*
X20177Y50171D01*
X20175Y50169D01*
X20172Y50167D01*
X20172Y50167D01*
X20171Y50166D01*
X20169Y50165D01*
X20167Y50164D01*
X20164Y50163D01*
X20162Y50162D01*
X20158Y50162D01*
X20155Y50162D01*
X20155D01*
X20154D01*
X20152Y50162D01*
X20150Y50162D01*
X20148Y50163D01*
X20145Y50164D01*
X20143Y50165D01*
X20140Y50166D01*
X20140Y50166D01*
X20139Y50167D01*
X20137Y50168D01*
X20136Y50170D01*
X20134Y50171D01*
X20132Y50174D01*
X20130Y50176D01*
X20128Y50180D01*
Y50179D01*
X20128Y50179D01*
X20128Y50179D01*
X20128Y50178D01*
X20127Y50176D01*
X20125Y50173D01*
X20124Y50170D01*
X20122Y50167D01*
X20119Y50164D01*
X20116Y50162D01*
X20116Y50161D01*
X20115Y50161D01*
X20113Y50160D01*
X20111Y50159D01*
X20108Y50157D01*
X20105Y50156D01*
X20101Y50156D01*
X20097Y50155D01*
X20097D01*
X20097D01*
X20096D01*
X20094Y50156D01*
X20092Y50156D01*
X20089Y50156D01*
X20086Y50157D01*
X20083Y50158D01*
X20080Y50159D01*
X20080Y50159D01*
X20079Y50160D01*
X20078Y50161D01*
X20076Y50162D01*
X20074Y50163D01*
X20072Y50165D01*
X20070Y50167D01*
X20068Y50169D01*
X20068Y50169D01*
X20068Y50170D01*
X20067Y50171D01*
X20066Y50173D01*
X20065Y50175D01*
X20064Y50177D01*
X20063Y50180D01*
X20062Y50183D01*
Y50183D01*
X20062Y50184D01*
X20061Y50186D01*
X20061Y50188D01*
X20061Y50191D01*
X20060Y50195D01*
X20060Y50199D01*
X20060Y50203D01*
Y50252D01*
X20188D01*
Y50202D01*
D02*
G37*
G36*
X20064Y50141D02*
X20065Y50140D01*
X20067Y50140D01*
X20069Y50140D01*
X20071Y50139D01*
X20071D01*
X20071Y50139D01*
X20072Y50138D01*
X20074Y50138D01*
X20076Y50137D01*
X20079Y50135D01*
X20082Y50133D01*
X20085Y50131D01*
X20088Y50129D01*
X20088D01*
X20088Y50128D01*
X20089Y50127D01*
X20091Y50126D01*
X20093Y50123D01*
X20096Y50120D01*
X20100Y50117D01*
X20103Y50113D01*
X20107Y50108D01*
X20107Y50108D01*
X20108Y50107D01*
X20109Y50106D01*
X20110Y50105D01*
X20111Y50103D01*
X20113Y50101D01*
X20115Y50099D01*
X20117Y50097D01*
X20121Y50092D01*
X20126Y50087D01*
X20128Y50085D01*
X20130Y50083D01*
X20132Y50081D01*
X20134Y50080D01*
X20135D01*
X20135Y50079D01*
X20135Y50079D01*
X20136Y50079D01*
X20138Y50077D01*
X20140Y50076D01*
X20143Y50075D01*
X20147Y50073D01*
X20150Y50073D01*
X20153Y50072D01*
X20154D01*
X20154D01*
X20155Y50072D01*
X20157Y50073D01*
X20159Y50073D01*
X20161Y50074D01*
X20164Y50075D01*
X20167Y50077D01*
X20169Y50079D01*
X20170Y50079D01*
X20170Y50080D01*
X20171Y50082D01*
X20172Y50084D01*
X20174Y50086D01*
X20175Y50089D01*
X20175Y50093D01*
X20176Y50097D01*
Y50098D01*
X20175Y50098D01*
X20175Y50101D01*
X20175Y50103D01*
X20174Y50106D01*
X20173Y50109D01*
X20171Y50112D01*
X20169Y50115D01*
X20168Y50115D01*
X20167Y50116D01*
X20166Y50117D01*
X20164Y50118D01*
X20161Y50120D01*
X20158Y50121D01*
X20154Y50121D01*
X20150Y50122D01*
X20152Y50138D01*
X20152D01*
X20152Y50138D01*
X20153D01*
X20155Y50137D01*
X20156Y50137D01*
X20158Y50137D01*
X20160Y50136D01*
X20162Y50136D01*
X20166Y50134D01*
X20171Y50132D01*
X20173Y50131D01*
X20175Y50129D01*
X20177Y50127D01*
X20179Y50125D01*
X20179Y50125D01*
X20179Y50125D01*
X20180Y50124D01*
X20180Y50123D01*
X20181Y50122D01*
X20182Y50121D01*
X20183Y50120D01*
X20184Y50118D01*
X20185Y50116D01*
X20186Y50113D01*
X20186Y50111D01*
X20187Y50108D01*
X20188Y50106D01*
X20188Y50103D01*
X20188Y50100D01*
X20189Y50096D01*
Y50094D01*
X20188Y50093D01*
X20188Y50092D01*
X20188Y50090D01*
X20188Y50088D01*
X20187Y50086D01*
X20186Y50081D01*
X20184Y50076D01*
X20183Y50074D01*
X20182Y50071D01*
X20180Y50069D01*
X20178Y50067D01*
X20178Y50067D01*
X20178Y50066D01*
X20177Y50066D01*
X20176Y50065D01*
X20175Y50064D01*
X20174Y50063D01*
X20173Y50063D01*
X20171Y50061D01*
X20168Y50060D01*
X20163Y50058D01*
X20161Y50057D01*
X20158Y50057D01*
X20156Y50056D01*
X20153Y50056D01*
X20153D01*
X20152D01*
X20150Y50056D01*
X20148Y50056D01*
X20146Y50057D01*
X20143Y50058D01*
X20141Y50058D01*
X20138Y50059D01*
X20138Y50060D01*
X20137Y50060D01*
X20135Y50061D01*
X20133Y50062D01*
X20131Y50063D01*
X20128Y50065D01*
X20125Y50067D01*
X20122Y50070D01*
X20122Y50070D01*
X20121Y50071D01*
X20120Y50072D01*
X20119Y50073D01*
X20118Y50074D01*
X20116Y50076D01*
X20115Y50077D01*
X20113Y50079D01*
X20111Y50081D01*
X20109Y50083D01*
X20107Y50085D01*
X20105Y50088D01*
X20102Y50091D01*
X20100Y50094D01*
X20100Y50094D01*
X20099Y50095D01*
X20099Y50095D01*
X20098Y50096D01*
X20097Y50097D01*
X20096Y50099D01*
X20093Y50102D01*
X20091Y50105D01*
X20088Y50108D01*
X20085Y50110D01*
X20084Y50111D01*
X20083Y50112D01*
X20083Y50112D01*
X20083Y50113D01*
X20082Y50114D01*
X20081Y50115D01*
X20080Y50116D01*
X20078Y50117D01*
X20075Y50119D01*
Y50056D01*
X20060D01*
Y50141D01*
X20060D01*
X20061D01*
X20062D01*
X20064Y50141D01*
D02*
G37*
G36*
X17990Y51773D02*
X17975D01*
Y51843D01*
X17935D01*
Y51783D01*
X17920D01*
Y51843D01*
X17862D01*
Y51860D01*
X17990D01*
Y51773D01*
D02*
G37*
G36*
Y51702D02*
X17990Y51701D01*
Y51699D01*
X17990Y51696D01*
X17989Y51692D01*
X17989Y51688D01*
X17988Y51684D01*
X17986Y51681D01*
Y51681D01*
X17986Y51680D01*
X17986Y51679D01*
X17985Y51678D01*
X17983Y51676D01*
X17982Y51674D01*
X17980Y51671D01*
X17977Y51669D01*
X17974Y51667D01*
X17974Y51667D01*
X17973Y51666D01*
X17971Y51665D01*
X17969Y51664D01*
X17967Y51663D01*
X17964Y51662D01*
X17961Y51662D01*
X17957Y51662D01*
X17957D01*
X17956D01*
X17955Y51662D01*
X17952Y51662D01*
X17950Y51663D01*
X17947Y51664D01*
X17945Y51665D01*
X17942Y51666D01*
X17942Y51666D01*
X17941Y51667D01*
X17940Y51668D01*
X17938Y51670D01*
X17936Y51671D01*
X17934Y51674D01*
X17932Y51676D01*
X17930Y51680D01*
Y51679D01*
X17930Y51679D01*
X17930Y51679D01*
X17930Y51678D01*
X17929Y51676D01*
X17928Y51673D01*
X17926Y51670D01*
X17924Y51667D01*
X17922Y51664D01*
X17919Y51662D01*
X17918Y51662D01*
X17917Y51661D01*
X17916Y51660D01*
X17913Y51659D01*
X17910Y51657D01*
X17907Y51656D01*
X17903Y51656D01*
X17899Y51655D01*
X17899D01*
X17899D01*
X17898D01*
X17896Y51656D01*
X17894Y51656D01*
X17891Y51656D01*
X17888Y51657D01*
X17886Y51658D01*
X17883Y51659D01*
X17882Y51659D01*
X17881Y51660D01*
X17880Y51661D01*
X17878Y51662D01*
X17876Y51663D01*
X17874Y51665D01*
X17872Y51667D01*
X17871Y51669D01*
X17870Y51669D01*
X17870Y51670D01*
X17869Y51671D01*
X17868Y51673D01*
X17867Y51675D01*
X17866Y51677D01*
X17865Y51680D01*
X17864Y51683D01*
Y51683D01*
X17864Y51684D01*
X17864Y51686D01*
X17863Y51689D01*
X17863Y51691D01*
X17863Y51695D01*
X17862Y51699D01*
X17862Y51703D01*
Y51752D01*
X17990D01*
Y51702D01*
D02*
G37*
G36*
X17898Y51623D02*
X17898D01*
X17898Y51622D01*
X17897Y51622D01*
X17896Y51622D01*
X17895Y51622D01*
X17893Y51622D01*
X17891Y51621D01*
X17887Y51619D01*
X17884Y51618D01*
X17881Y51616D01*
X17879Y51614D01*
X17879Y51613D01*
X17878Y51612D01*
X17877Y51611D01*
X17876Y51609D01*
X17875Y51607D01*
X17874Y51604D01*
X17873Y51601D01*
X17873Y51598D01*
Y51597D01*
X17873Y51596D01*
X17873Y51594D01*
X17874Y51591D01*
X17875Y51588D01*
X17876Y51585D01*
X17878Y51582D01*
X17881Y51579D01*
X17881Y51579D01*
X17882Y51578D01*
X17884Y51577D01*
X17886Y51575D01*
X17889Y51574D01*
X17892Y51573D01*
X17896Y51572D01*
X17900Y51571D01*
X17900D01*
X17900D01*
X17901D01*
X17901Y51571D01*
X17903Y51572D01*
X17906Y51572D01*
X17909Y51573D01*
X17912Y51574D01*
X17915Y51576D01*
X17918Y51578D01*
X17918Y51579D01*
X17919Y51580D01*
X17920Y51581D01*
X17921Y51583D01*
X17922Y51586D01*
X17923Y51589D01*
X17924Y51592D01*
X17925Y51596D01*
Y51598D01*
X17924Y51599D01*
X17924Y51601D01*
X17924Y51603D01*
X17923Y51605D01*
X17923Y51607D01*
X17937Y51606D01*
Y51605D01*
X17937Y51604D01*
Y51602D01*
X17937Y51600D01*
X17937Y51597D01*
X17938Y51594D01*
X17939Y51591D01*
X17940Y51588D01*
X17942Y51585D01*
Y51585D01*
X17942Y51585D01*
X17943Y51584D01*
X17944Y51583D01*
X17946Y51581D01*
X17948Y51580D01*
X17951Y51578D01*
X17954Y51577D01*
X17956Y51577D01*
X17958D01*
X17958D01*
X17958D01*
X17959D01*
X17961Y51577D01*
X17963Y51578D01*
X17965Y51578D01*
X17967Y51579D01*
X17970Y51581D01*
X17972Y51583D01*
X17972Y51583D01*
X17973Y51584D01*
X17974Y51585D01*
X17975Y51587D01*
X17976Y51589D01*
X17977Y51592D01*
X17978Y51595D01*
X17978Y51598D01*
Y51600D01*
X17977Y51601D01*
X17977Y51603D01*
X17976Y51606D01*
X17975Y51608D01*
X17974Y51611D01*
X17972Y51613D01*
X17972Y51613D01*
X17971Y51614D01*
X17970Y51615D01*
X17968Y51617D01*
X17965Y51618D01*
X17962Y51619D01*
X17959Y51620D01*
X17955Y51621D01*
X17958Y51637D01*
X17958D01*
X17958Y51637D01*
X17959Y51636D01*
X17960Y51636D01*
X17962Y51636D01*
X17963Y51635D01*
X17967Y51634D01*
X17971Y51632D01*
X17975Y51630D01*
X17979Y51627D01*
X17982Y51624D01*
X17982Y51624D01*
X17982Y51623D01*
X17983Y51623D01*
X17983Y51622D01*
X17984Y51621D01*
X17985Y51620D01*
X17986Y51618D01*
X17987Y51617D01*
X17988Y51613D01*
X17989Y51609D01*
X17990Y51604D01*
X17991Y51601D01*
Y51597D01*
X17991Y51595D01*
X17990Y51592D01*
X17990Y51589D01*
X17989Y51586D01*
X17988Y51583D01*
X17986Y51579D01*
Y51579D01*
X17986Y51579D01*
X17985Y51578D01*
X17984Y51576D01*
X17983Y51574D01*
X17981Y51572D01*
X17979Y51570D01*
X17977Y51568D01*
X17974Y51566D01*
X17974Y51565D01*
X17973Y51565D01*
X17971Y51564D01*
X17969Y51563D01*
X17967Y51562D01*
X17964Y51562D01*
X17961Y51561D01*
X17957Y51561D01*
X17957D01*
X17956D01*
X17955Y51561D01*
X17952Y51561D01*
X17950Y51562D01*
X17947Y51563D01*
X17945Y51564D01*
X17942Y51565D01*
X17942Y51566D01*
X17941Y51566D01*
X17940Y51567D01*
X17938Y51569D01*
X17937Y51571D01*
X17935Y51573D01*
X17933Y51575D01*
X17932Y51579D01*
Y51578D01*
X17931Y51578D01*
X17931Y51578D01*
X17931Y51577D01*
X17930Y51575D01*
X17929Y51572D01*
X17928Y51569D01*
X17926Y51566D01*
X17923Y51563D01*
X17921Y51561D01*
X17920Y51561D01*
X17919Y51560D01*
X17917Y51559D01*
X17915Y51558D01*
X17912Y51557D01*
X17908Y51556D01*
X17904Y51555D01*
X17900Y51555D01*
X17900D01*
X17899D01*
X17898D01*
X17897Y51555D01*
X17896Y51555D01*
X17894Y51555D01*
X17892Y51556D01*
X17890Y51556D01*
X17886Y51558D01*
X17883Y51559D01*
X17881Y51560D01*
X17879Y51561D01*
X17876Y51563D01*
X17874Y51565D01*
X17872Y51567D01*
X17871Y51567D01*
X17871Y51568D01*
X17871Y51568D01*
X17870Y51569D01*
X17869Y51570D01*
X17868Y51572D01*
X17867Y51573D01*
X17866Y51575D01*
X17865Y51578D01*
X17864Y51580D01*
X17863Y51582D01*
X17862Y51585D01*
X17861Y51588D01*
X17861Y51591D01*
X17860Y51594D01*
X17860Y51598D01*
Y51600D01*
X17860Y51601D01*
X17860Y51602D01*
X17861Y51604D01*
X17861Y51606D01*
X17861Y51608D01*
X17862Y51612D01*
X17864Y51617D01*
X17865Y51619D01*
X17867Y51621D01*
X17868Y51624D01*
X17870Y51626D01*
X17870Y51626D01*
X17871Y51626D01*
X17871Y51627D01*
X17872Y51627D01*
X17873Y51628D01*
X17874Y51629D01*
X17875Y51630D01*
X17877Y51632D01*
X17879Y51633D01*
X17881Y51634D01*
X17885Y51636D01*
X17890Y51637D01*
X17893Y51638D01*
X17896Y51638D01*
X17898Y51623D01*
D02*
G37*
G36*
X25854Y52150D02*
X25854Y52148D01*
Y52147D01*
X25853Y52144D01*
X25853Y52140D01*
X25852Y52136D01*
X25851Y52132D01*
X25850Y52129D01*
Y52128D01*
X25850Y52128D01*
X25849Y52127D01*
X25848Y52125D01*
X25847Y52124D01*
X25845Y52121D01*
X25843Y52119D01*
X25841Y52117D01*
X25838Y52115D01*
X25838Y52115D01*
X25837Y52114D01*
X25835Y52113D01*
X25833Y52112D01*
X25830Y52111D01*
X25827Y52110D01*
X25824Y52110D01*
X25821Y52110D01*
X25821D01*
X25820D01*
X25818Y52110D01*
X25816Y52110D01*
X25814Y52111D01*
X25811Y52112D01*
X25809Y52113D01*
X25806Y52114D01*
X25805Y52114D01*
X25805Y52115D01*
X25803Y52116D01*
X25802Y52117D01*
X25800Y52119D01*
X25798Y52122D01*
X25796Y52124D01*
X25794Y52127D01*
Y52127D01*
X25794Y52127D01*
X25794Y52126D01*
X25793Y52126D01*
X25793Y52123D01*
X25791Y52121D01*
X25790Y52118D01*
X25788Y52115D01*
X25785Y52112D01*
X25782Y52110D01*
X25782Y52109D01*
X25781Y52109D01*
X25779Y52108D01*
X25777Y52106D01*
X25774Y52105D01*
X25771Y52104D01*
X25767Y52103D01*
X25763Y52103D01*
X25763D01*
X25763D01*
X25762D01*
X25760Y52103D01*
X25758Y52104D01*
X25755Y52104D01*
X25752Y52105D01*
X25749Y52106D01*
X25746Y52107D01*
X25746Y52107D01*
X25745Y52108D01*
X25744Y52109D01*
X25742Y52110D01*
X25740Y52111D01*
X25738Y52113D01*
X25736Y52115D01*
X25734Y52117D01*
X25734Y52117D01*
X25733Y52117D01*
X25733Y52119D01*
X25732Y52120D01*
X25731Y52122D01*
X25730Y52125D01*
X25729Y52127D01*
X25728Y52131D01*
Y52131D01*
X25728Y52132D01*
X25727Y52134D01*
X25727Y52136D01*
X25727Y52139D01*
X25726Y52143D01*
X25726Y52147D01*
X25726Y52151D01*
Y52200D01*
X25854D01*
Y52150D01*
D02*
G37*
G36*
Y52064D02*
X25741D01*
Y52001D01*
X25726D01*
Y52081D01*
X25854D01*
Y52064D01*
D02*
G37*
G36*
Y51888D02*
X25839D01*
Y51963D01*
X25800D01*
Y51892D01*
X25785D01*
Y51963D01*
X25741D01*
Y51885D01*
X25726D01*
Y51980D01*
X25854D01*
Y51888D01*
D02*
G37*
G36*
X25760Y51145D02*
X25763D01*
X25765Y51145D01*
X25768Y51145D01*
X25774Y51145D01*
X25780Y51144D01*
X25786Y51142D01*
X25788Y51142D01*
X25791Y51141D01*
X25791D01*
X25792Y51141D01*
X25792Y51140D01*
X25793Y51140D01*
X25795Y51140D01*
X25796Y51139D01*
X25799Y51137D01*
X25802Y51135D01*
X25806Y51133D01*
X25809Y51130D01*
X25813Y51127D01*
Y51127D01*
X25813Y51127D01*
X25813Y51126D01*
X25814Y51125D01*
X25814Y51124D01*
X25815Y51123D01*
X25816Y51121D01*
X25818Y51117D01*
X25819Y51113D01*
X25820Y51109D01*
X25820Y51104D01*
Y51102D01*
X25820Y51101D01*
X25820Y51099D01*
X25819Y51097D01*
X25819Y51095D01*
X25818Y51093D01*
X25818Y51091D01*
X25817Y51088D01*
X25816Y51086D01*
X25814Y51084D01*
X25813Y51081D01*
X25811Y51079D01*
X25809Y51077D01*
X25807Y51075D01*
X25807Y51074D01*
X25806Y51074D01*
X25805Y51073D01*
X25804Y51073D01*
X25802Y51072D01*
X25800Y51071D01*
X25797Y51069D01*
X25794Y51068D01*
X25791Y51067D01*
X25787Y51066D01*
X25783Y51065D01*
X25778Y51064D01*
X25773Y51063D01*
X25767Y51063D01*
X25761Y51062D01*
X25755Y51062D01*
X25755D01*
X25754D01*
X25752D01*
X25751D01*
X25749Y51062D01*
X25747D01*
X25744Y51062D01*
X25742Y51063D01*
X25736Y51063D01*
X25730Y51064D01*
X25724Y51065D01*
X25721Y51066D01*
X25718Y51067D01*
X25718D01*
X25718Y51067D01*
X25717Y51067D01*
X25716Y51068D01*
X25715Y51068D01*
X25713Y51069D01*
X25710Y51070D01*
X25707Y51072D01*
X25703Y51074D01*
X25700Y51077D01*
X25697Y51080D01*
Y51081D01*
X25696Y51081D01*
X25696Y51081D01*
X25696Y51082D01*
X25695Y51083D01*
X25694Y51084D01*
X25693Y51087D01*
X25692Y51090D01*
X25690Y51094D01*
X25690Y51099D01*
X25689Y51104D01*
Y51105D01*
X25689Y51108D01*
X25690Y51110D01*
X25690Y51113D01*
X25691Y51116D01*
X25692Y51119D01*
X25693Y51122D01*
Y51122D01*
X25694Y51122D01*
X25694Y51123D01*
X25695Y51125D01*
X25696Y51126D01*
X25698Y51128D01*
X25700Y51131D01*
X25703Y51133D01*
X25705Y51135D01*
X25706Y51135D01*
X25707Y51136D01*
X25708Y51136D01*
X25711Y51138D01*
X25714Y51139D01*
X25717Y51140D01*
X25720Y51142D01*
X25725Y51143D01*
X25725D01*
X25725Y51143D01*
X25726Y51143D01*
X25727Y51143D01*
X25728Y51143D01*
X25729Y51144D01*
X25731Y51144D01*
X25733Y51144D01*
X25735Y51145D01*
X25737Y51145D01*
X25739Y51145D01*
X25742Y51145D01*
X25745Y51145D01*
X25748D01*
X25751Y51146D01*
X25755D01*
X25755D01*
X25756D01*
X25757D01*
X25758D01*
X25760Y51145D01*
D02*
G37*
G36*
X25783Y51046D02*
X25784Y51046D01*
X25786Y51046D01*
X25788Y51045D01*
X25790Y51045D01*
X25794Y51044D01*
X25797Y51042D01*
X25799Y51041D01*
X25801Y51040D01*
X25804Y51038D01*
X25806Y51036D01*
X25808Y51034D01*
X25809Y51034D01*
X25809Y51034D01*
X25809Y51033D01*
X25810Y51032D01*
X25811Y51031D01*
X25812Y51029D01*
X25813Y51028D01*
X25814Y51026D01*
X25815Y51024D01*
X25816Y51021D01*
X25817Y51019D01*
X25818Y51016D01*
X25819Y51013D01*
X25819Y51010D01*
X25820Y51007D01*
X25820Y51003D01*
Y51002D01*
X25820Y51000D01*
X25820Y50999D01*
X25819Y50997D01*
X25819Y50995D01*
X25819Y50993D01*
X25818Y50989D01*
X25816Y50984D01*
X25815Y50982D01*
X25813Y50980D01*
X25812Y50977D01*
X25810Y50975D01*
X25810Y50975D01*
X25809Y50975D01*
X25809Y50974D01*
X25808Y50974D01*
X25807Y50973D01*
X25806Y50972D01*
X25805Y50971D01*
X25803Y50970D01*
X25801Y50968D01*
X25799Y50967D01*
X25795Y50965D01*
X25790Y50964D01*
X25787Y50963D01*
X25784Y50963D01*
X25782Y50978D01*
X25782D01*
X25782Y50979D01*
X25783Y50979D01*
X25784Y50979D01*
X25785Y50979D01*
X25787Y50979D01*
X25789Y50980D01*
X25793Y50982D01*
X25796Y50983D01*
X25799Y50985D01*
X25801Y50987D01*
X25801Y50988D01*
X25802Y50989D01*
X25803Y50990D01*
X25804Y50992D01*
X25805Y50994D01*
X25806Y50997D01*
X25807Y51000D01*
X25807Y51003D01*
Y51004D01*
X25807Y51005D01*
X25807Y51007D01*
X25806Y51010D01*
X25805Y51013D01*
X25804Y51016D01*
X25802Y51019D01*
X25799Y51022D01*
X25799Y51022D01*
X25798Y51023D01*
X25796Y51024D01*
X25794Y51026D01*
X25791Y51027D01*
X25788Y51029D01*
X25784Y51029D01*
X25780Y51030D01*
X25780D01*
X25780D01*
X25779D01*
X25779Y51030D01*
X25777Y51029D01*
X25774Y51029D01*
X25771Y51028D01*
X25768Y51027D01*
X25765Y51025D01*
X25762Y51023D01*
X25762Y51022D01*
X25761Y51021D01*
X25760Y51020D01*
X25759Y51018D01*
X25758Y51015D01*
X25757Y51012D01*
X25756Y51009D01*
X25755Y51005D01*
Y51003D01*
X25756Y51002D01*
X25756Y51000D01*
X25756Y50998D01*
X25757Y50996D01*
X25757Y50994D01*
X25743Y50995D01*
Y50996D01*
X25743Y50997D01*
Y50999D01*
X25743Y51002D01*
X25743Y51004D01*
X25742Y51007D01*
X25741Y51010D01*
X25740Y51013D01*
X25738Y51016D01*
Y51016D01*
X25738Y51016D01*
X25737Y51017D01*
X25736Y51019D01*
X25734Y51020D01*
X25732Y51021D01*
X25729Y51023D01*
X25726Y51024D01*
X25724Y51024D01*
X25722D01*
X25722D01*
X25722D01*
X25721D01*
X25719Y51024D01*
X25717Y51023D01*
X25715Y51023D01*
X25713Y51022D01*
X25710Y51020D01*
X25708Y51018D01*
X25708Y51018D01*
X25707Y51017D01*
X25706Y51016D01*
X25705Y51014D01*
X25704Y51012D01*
X25703Y51009D01*
X25702Y51006D01*
X25702Y51003D01*
Y51002D01*
X25703Y51000D01*
X25703Y50998D01*
X25704Y50995D01*
X25705Y50993D01*
X25706Y50990D01*
X25708Y50988D01*
X25708Y50988D01*
X25709Y50987D01*
X25710Y50986D01*
X25712Y50984D01*
X25715Y50983D01*
X25718Y50982D01*
X25721Y50981D01*
X25725Y50980D01*
X25722Y50964D01*
X25722D01*
X25722Y50964D01*
X25721Y50965D01*
X25720Y50965D01*
X25718Y50965D01*
X25717Y50966D01*
X25713Y50967D01*
X25709Y50969D01*
X25705Y50971D01*
X25701Y50974D01*
X25698Y50977D01*
X25698Y50977D01*
X25698Y50978D01*
X25697Y50978D01*
X25697Y50979D01*
X25696Y50980D01*
X25695Y50981D01*
X25694Y50983D01*
X25693Y50984D01*
X25692Y50988D01*
X25691Y50992D01*
X25690Y50997D01*
X25689Y51000D01*
Y51004D01*
X25689Y51006D01*
X25690Y51009D01*
X25690Y51012D01*
X25691Y51015D01*
X25692Y51019D01*
X25694Y51022D01*
Y51022D01*
X25694Y51022D01*
X25695Y51023D01*
X25696Y51025D01*
X25697Y51027D01*
X25699Y51029D01*
X25701Y51031D01*
X25703Y51034D01*
X25706Y51035D01*
X25706Y51036D01*
X25707Y51036D01*
X25709Y51037D01*
X25711Y51038D01*
X25713Y51039D01*
X25716Y51039D01*
X25719Y51040D01*
X25723Y51040D01*
X25723D01*
X25724D01*
X25725Y51040D01*
X25728Y51040D01*
X25730Y51039D01*
X25733Y51038D01*
X25735Y51037D01*
X25738Y51036D01*
X25738Y51035D01*
X25739Y51035D01*
X25740Y51034D01*
X25742Y51032D01*
X25743Y51030D01*
X25745Y51028D01*
X25747Y51026D01*
X25748Y51022D01*
Y51023D01*
X25749Y51023D01*
X25749Y51024D01*
X25749Y51024D01*
X25750Y51026D01*
X25751Y51029D01*
X25752Y51032D01*
X25754Y51035D01*
X25757Y51038D01*
X25759Y51040D01*
X25760Y51040D01*
X25761Y51041D01*
X25763Y51042D01*
X25765Y51043D01*
X25768Y51044D01*
X25772Y51046D01*
X25776Y51046D01*
X25780Y51046D01*
X25780D01*
X25781D01*
X25782D01*
X25783Y51046D01*
D02*
G37*
G36*
X25818Y50931D02*
X25791Y50915D01*
X25791D01*
X25791Y50914D01*
X25790Y50914D01*
X25789Y50913D01*
X25787Y50912D01*
X25785Y50910D01*
X25782Y50908D01*
X25779Y50906D01*
X25776Y50904D01*
X25774Y50902D01*
X25773Y50902D01*
X25773Y50902D01*
X25772Y50901D01*
X25770Y50899D01*
X25767Y50897D01*
X25766Y50895D01*
X25765Y50894D01*
X25765Y50893D01*
X25765Y50893D01*
X25764Y50892D01*
X25764Y50891D01*
X25763Y50890D01*
X25763Y50889D01*
X25762Y50886D01*
Y50886D01*
X25762Y50885D01*
Y50885D01*
X25761Y50884D01*
X25761Y50882D01*
Y50881D01*
X25761Y50879D01*
Y50857D01*
X25818D01*
Y50840D01*
X25690D01*
Y50899D01*
X25690Y50901D01*
Y50903D01*
X25690Y50906D01*
X25691Y50910D01*
X25691Y50915D01*
X25692Y50919D01*
X25693Y50921D01*
X25693Y50923D01*
Y50923D01*
X25693Y50923D01*
X25694Y50924D01*
X25695Y50926D01*
X25696Y50928D01*
X25698Y50930D01*
X25700Y50932D01*
X25703Y50935D01*
X25705Y50937D01*
X25706D01*
X25706Y50937D01*
X25707Y50938D01*
X25709Y50939D01*
X25711Y50940D01*
X25714Y50941D01*
X25717Y50942D01*
X25721Y50942D01*
X25725Y50942D01*
X25725D01*
X25725D01*
X25726D01*
X25727Y50942D01*
X25728D01*
X25730Y50942D01*
X25733Y50941D01*
X25736Y50940D01*
X25740Y50939D01*
X25744Y50936D01*
X25746Y50935D01*
X25748Y50933D01*
X25748Y50933D01*
X25748Y50933D01*
X25749Y50932D01*
X25749Y50932D01*
X25750Y50931D01*
X25751Y50930D01*
X25752Y50928D01*
X25753Y50927D01*
X25754Y50925D01*
X25755Y50923D01*
X25756Y50921D01*
X25757Y50918D01*
X25757Y50915D01*
X25758Y50913D01*
X25759Y50910D01*
X25760Y50906D01*
X25760Y50907D01*
X25760Y50907D01*
X25761Y50908D01*
X25762Y50910D01*
X25764Y50913D01*
X25765Y50915D01*
X25766Y50916D01*
X25766Y50917D01*
X25767Y50918D01*
X25769Y50919D01*
X25771Y50921D01*
X25773Y50923D01*
X25776Y50925D01*
X25779Y50928D01*
X25783Y50930D01*
X25818Y50952D01*
Y50931D01*
D02*
G37*
G36*
X22226Y41260D02*
X22228Y41260D01*
X22229Y41259D01*
X22231Y41259D01*
X22233Y41259D01*
X22238Y41258D01*
X22242Y41256D01*
X22245Y41255D01*
X22247Y41253D01*
X22249Y41252D01*
X22251Y41250D01*
X22252Y41250D01*
X22252Y41249D01*
X22253Y41249D01*
X22253Y41248D01*
X22254Y41247D01*
X22255Y41246D01*
X22256Y41245D01*
X22257Y41243D01*
X22258Y41241D01*
X22259Y41239D01*
X22261Y41235D01*
X22263Y41230D01*
X22264Y41227D01*
X22264Y41224D01*
X22248Y41222D01*
Y41222D01*
X22248Y41222D01*
X22248Y41223D01*
X22248Y41224D01*
X22248Y41225D01*
X22247Y41227D01*
X22246Y41229D01*
X22245Y41233D01*
X22243Y41236D01*
X22241Y41239D01*
X22239Y41241D01*
X22239Y41241D01*
X22238Y41242D01*
X22237Y41243D01*
X22235Y41244D01*
X22233Y41245D01*
X22230Y41246D01*
X22227Y41247D01*
X22223Y41247D01*
X22222D01*
X22221Y41247D01*
X22219Y41247D01*
X22217Y41246D01*
X22214Y41245D01*
X22211Y41244D01*
X22208Y41242D01*
X22205Y41239D01*
X22204Y41239D01*
X22203Y41238D01*
X22202Y41236D01*
X22201Y41234D01*
X22199Y41231D01*
X22198Y41228D01*
X22197Y41224D01*
X22197Y41220D01*
Y41220D01*
Y41220D01*
Y41219D01*
X22197Y41219D01*
X22197Y41217D01*
X22198Y41214D01*
X22199Y41211D01*
X22200Y41208D01*
X22202Y41205D01*
X22204Y41202D01*
X22204Y41202D01*
X22205Y41201D01*
X22207Y41200D01*
X22209Y41199D01*
X22211Y41198D01*
X22215Y41197D01*
X22218Y41196D01*
X22222Y41195D01*
X22224D01*
X22225Y41196D01*
X22227Y41196D01*
X22229Y41196D01*
X22231Y41197D01*
X22233Y41197D01*
X22231Y41183D01*
X22230D01*
X22230Y41183D01*
X22227D01*
X22225Y41183D01*
X22223Y41183D01*
X22220Y41182D01*
X22217Y41181D01*
X22214Y41180D01*
X22211Y41178D01*
X22211D01*
X22210Y41178D01*
X22209Y41177D01*
X22208Y41176D01*
X22207Y41174D01*
X22205Y41172D01*
X22204Y41169D01*
X22203Y41166D01*
X22203Y41164D01*
Y41162D01*
Y41162D01*
Y41162D01*
Y41161D01*
X22203Y41159D01*
X22203Y41157D01*
X22204Y41155D01*
X22205Y41153D01*
X22206Y41150D01*
X22209Y41148D01*
X22209Y41148D01*
X22210Y41147D01*
X22211Y41146D01*
X22213Y41145D01*
X22215Y41144D01*
X22217Y41143D01*
X22220Y41142D01*
X22224Y41142D01*
X22225D01*
X22227Y41143D01*
X22229Y41143D01*
X22231Y41144D01*
X22234Y41145D01*
X22236Y41146D01*
X22239Y41148D01*
X22239Y41148D01*
X22240Y41149D01*
X22241Y41150D01*
X22242Y41152D01*
X22243Y41155D01*
X22245Y41158D01*
X22246Y41161D01*
X22247Y41165D01*
X22262Y41162D01*
Y41162D01*
X22262Y41162D01*
X22262Y41161D01*
X22262Y41160D01*
X22261Y41158D01*
X22261Y41157D01*
X22260Y41153D01*
X22258Y41149D01*
X22256Y41145D01*
X22253Y41141D01*
X22249Y41138D01*
X22249Y41138D01*
X22249Y41138D01*
X22248Y41137D01*
X22248Y41137D01*
X22247Y41136D01*
X22245Y41135D01*
X22244Y41134D01*
X22242Y41133D01*
X22239Y41132D01*
X22234Y41130D01*
X22229Y41130D01*
X22227Y41129D01*
X22222D01*
X22220Y41129D01*
X22218Y41130D01*
X22215Y41130D01*
X22211Y41131D01*
X22208Y41132D01*
X22205Y41134D01*
X22205D01*
X22204Y41134D01*
X22203Y41135D01*
X22202Y41136D01*
X22200Y41137D01*
X22198Y41139D01*
X22195Y41141D01*
X22193Y41143D01*
X22191Y41146D01*
X22191Y41146D01*
X22191Y41147D01*
X22190Y41149D01*
X22189Y41151D01*
X22188Y41153D01*
X22187Y41156D01*
X22187Y41159D01*
X22187Y41163D01*
Y41163D01*
Y41164D01*
X22187Y41165D01*
X22187Y41167D01*
X22188Y41170D01*
X22189Y41172D01*
X22190Y41175D01*
X22191Y41178D01*
X22191Y41178D01*
X22192Y41179D01*
X22193Y41180D01*
X22194Y41182D01*
X22196Y41183D01*
X22199Y41185D01*
X22201Y41187D01*
X22204Y41188D01*
X22204D01*
X22204Y41189D01*
X22203Y41189D01*
X22202Y41189D01*
X22200Y41190D01*
X22198Y41191D01*
X22195Y41192D01*
X22192Y41194D01*
X22189Y41197D01*
X22187Y41199D01*
X22186Y41200D01*
X22186Y41201D01*
X22184Y41203D01*
X22183Y41205D01*
X22182Y41208D01*
X22181Y41212D01*
X22180Y41216D01*
X22180Y41220D01*
Y41220D01*
Y41221D01*
Y41222D01*
X22180Y41223D01*
X22181Y41224D01*
X22181Y41226D01*
X22181Y41228D01*
X22182Y41230D01*
X22183Y41234D01*
X22184Y41237D01*
X22185Y41239D01*
X22187Y41241D01*
X22189Y41244D01*
X22190Y41246D01*
X22193Y41248D01*
X22193Y41249D01*
X22193Y41249D01*
X22194Y41249D01*
X22195Y41250D01*
X22196Y41251D01*
X22197Y41252D01*
X22199Y41253D01*
X22201Y41254D01*
X22203Y41255D01*
X22206Y41256D01*
X22208Y41257D01*
X22211Y41258D01*
X22214Y41259D01*
X22217Y41259D01*
X22220Y41260D01*
X22224Y41260D01*
X22225D01*
X22226Y41260D01*
D02*
G37*
G36*
X22335D02*
X22337D01*
X22339Y41260D01*
X22341Y41259D01*
X22344Y41259D01*
X22349Y41258D01*
X22355Y41256D01*
X22360Y41254D01*
X22363Y41253D01*
X22365Y41252D01*
X22366Y41251D01*
X22366Y41251D01*
X22367Y41251D01*
X22367Y41250D01*
X22369Y41249D01*
X22370Y41248D01*
X22371Y41247D01*
X22373Y41245D01*
X22374Y41244D01*
X22376Y41242D01*
X22379Y41238D01*
X22382Y41233D01*
X22385Y41227D01*
Y41227D01*
X22386Y41227D01*
X22386Y41226D01*
X22386Y41224D01*
X22387Y41223D01*
X22387Y41221D01*
X22388Y41219D01*
X22389Y41217D01*
X22389Y41214D01*
X22390Y41212D01*
X22391Y41206D01*
X22391Y41200D01*
X22392Y41193D01*
Y41193D01*
Y41192D01*
Y41191D01*
X22392Y41190D01*
Y41188D01*
X22391Y41186D01*
X22391Y41183D01*
X22391Y41181D01*
X22390Y41176D01*
X22389Y41170D01*
X22387Y41164D01*
X22384Y41158D01*
X22384Y41158D01*
X22384Y41157D01*
X22384Y41157D01*
X22383Y41156D01*
X22382Y41154D01*
X22381Y41153D01*
X22379Y41150D01*
X22376Y41146D01*
X22372Y41142D01*
X22368Y41138D01*
X22363Y41135D01*
X22362Y41135D01*
X22362Y41135D01*
X22361Y41135D01*
X22360Y41134D01*
X22359Y41133D01*
X22357Y41133D01*
X22355Y41132D01*
X22353Y41131D01*
X22351Y41131D01*
X22349Y41130D01*
X22344Y41129D01*
X22338Y41128D01*
X22332Y41128D01*
X22330D01*
X22328Y41128D01*
X22327Y41128D01*
X22325Y41128D01*
X22323Y41128D01*
X22320Y41129D01*
X22315Y41130D01*
X22310Y41132D01*
X22307Y41133D01*
X22304Y41134D01*
X22302Y41136D01*
X22299Y41137D01*
X22299Y41138D01*
X22299Y41138D01*
X22298Y41138D01*
X22297Y41139D01*
X22296Y41140D01*
X22295Y41141D01*
X22293Y41143D01*
X22292Y41144D01*
X22290Y41146D01*
X22289Y41148D01*
X22287Y41151D01*
X22286Y41153D01*
X22285Y41156D01*
X22283Y41159D01*
X22282Y41162D01*
X22281Y41165D01*
X22298Y41169D01*
Y41169D01*
X22298Y41168D01*
X22298Y41167D01*
X22298Y41167D01*
X22299Y41165D01*
X22299Y41164D01*
X22301Y41161D01*
X22303Y41158D01*
X22305Y41154D01*
X22308Y41151D01*
X22311Y41148D01*
X22311Y41148D01*
X22312Y41147D01*
X22314Y41146D01*
X22316Y41145D01*
X22320Y41144D01*
X22323Y41143D01*
X22327Y41142D01*
X22332Y41142D01*
X22333D01*
X22334Y41142D01*
X22336D01*
X22337Y41142D01*
X22341Y41143D01*
X22345Y41144D01*
X22349Y41145D01*
X22353Y41147D01*
X22357Y41149D01*
X22357D01*
X22357Y41150D01*
X22358Y41150D01*
X22360Y41152D01*
X22362Y41154D01*
X22364Y41157D01*
X22367Y41160D01*
X22369Y41164D01*
X22371Y41168D01*
Y41168D01*
X22371Y41169D01*
X22371Y41169D01*
X22371Y41170D01*
X22372Y41171D01*
X22372Y41173D01*
X22372Y41176D01*
X22373Y41180D01*
X22374Y41184D01*
X22374Y41188D01*
X22374Y41193D01*
Y41193D01*
Y41194D01*
Y41195D01*
Y41196D01*
X22374Y41197D01*
Y41199D01*
X22374Y41200D01*
X22374Y41202D01*
X22373Y41207D01*
X22372Y41212D01*
X22371Y41217D01*
X22370Y41221D01*
Y41222D01*
X22370Y41222D01*
X22369Y41222D01*
X22369Y41223D01*
X22368Y41226D01*
X22366Y41228D01*
X22364Y41231D01*
X22362Y41234D01*
X22359Y41237D01*
X22355Y41240D01*
X22355D01*
X22354Y41240D01*
X22354Y41240D01*
X22353Y41241D01*
X22352Y41241D01*
X22351Y41241D01*
X22349Y41243D01*
X22345Y41244D01*
X22342Y41245D01*
X22337Y41245D01*
X22333Y41246D01*
X22332D01*
X22331Y41245D01*
X22330D01*
X22328Y41245D01*
X22325Y41244D01*
X22321Y41244D01*
X22317Y41242D01*
X22313Y41240D01*
X22311Y41239D01*
X22309Y41237D01*
X22309Y41237D01*
X22309Y41237D01*
X22308Y41237D01*
X22308Y41236D01*
X22307Y41235D01*
X22306Y41234D01*
X22305Y41233D01*
X22304Y41231D01*
X22303Y41230D01*
X22301Y41228D01*
X22300Y41226D01*
X22299Y41224D01*
X22298Y41221D01*
X22297Y41219D01*
X22296Y41216D01*
X22296Y41213D01*
X22279Y41217D01*
Y41217D01*
X22279Y41218D01*
X22279Y41219D01*
X22280Y41221D01*
X22280Y41222D01*
X22281Y41224D01*
X22282Y41227D01*
X22283Y41229D01*
X22286Y41234D01*
X22289Y41239D01*
X22291Y41242D01*
X22293Y41245D01*
X22295Y41247D01*
X22298Y41249D01*
X22298Y41249D01*
X22298Y41250D01*
X22299Y41250D01*
X22300Y41251D01*
X22302Y41252D01*
X22303Y41253D01*
X22305Y41254D01*
X22307Y41254D01*
X22310Y41256D01*
X22312Y41256D01*
X22315Y41257D01*
X22318Y41258D01*
X22321Y41259D01*
X22325Y41259D01*
X22328Y41260D01*
X22332Y41260D01*
X22334D01*
X22335Y41260D01*
D02*
G37*
G36*
X22126D02*
X22127Y41260D01*
X22129Y41259D01*
X22131Y41259D01*
X22134Y41258D01*
X22136Y41258D01*
X22138Y41257D01*
X22141Y41256D01*
X22143Y41254D01*
X22145Y41253D01*
X22148Y41251D01*
X22150Y41249D01*
X22152Y41247D01*
X22152Y41247D01*
X22153Y41246D01*
X22153Y41245D01*
X22154Y41244D01*
X22155Y41242D01*
X22156Y41240D01*
X22157Y41237D01*
X22158Y41234D01*
X22160Y41231D01*
X22161Y41227D01*
X22162Y41223D01*
X22163Y41218D01*
X22164Y41213D01*
X22164Y41207D01*
X22164Y41201D01*
X22165Y41195D01*
Y41195D01*
Y41194D01*
Y41192D01*
Y41191D01*
X22164Y41189D01*
Y41187D01*
X22164Y41184D01*
X22164Y41182D01*
X22164Y41176D01*
X22163Y41170D01*
X22162Y41164D01*
X22161Y41161D01*
X22160Y41158D01*
Y41158D01*
X22160Y41158D01*
X22160Y41157D01*
X22159Y41156D01*
X22159Y41155D01*
X22158Y41153D01*
X22157Y41150D01*
X22155Y41147D01*
X22152Y41143D01*
X22150Y41140D01*
X22146Y41137D01*
X22146D01*
X22146Y41136D01*
X22145Y41136D01*
X22145Y41136D01*
X22144Y41135D01*
X22142Y41134D01*
X22140Y41133D01*
X22136Y41132D01*
X22132Y41130D01*
X22128Y41130D01*
X22123Y41129D01*
X22121D01*
X22119Y41129D01*
X22117Y41130D01*
X22114Y41130D01*
X22111Y41131D01*
X22108Y41132D01*
X22105Y41133D01*
X22105D01*
X22105Y41134D01*
X22104Y41134D01*
X22102Y41135D01*
X22100Y41136D01*
X22098Y41138D01*
X22096Y41140D01*
X22094Y41143D01*
X22092Y41145D01*
X22092Y41146D01*
X22091Y41147D01*
X22090Y41148D01*
X22089Y41151D01*
X22088Y41154D01*
X22086Y41157D01*
X22085Y41160D01*
X22084Y41165D01*
Y41165D01*
X22084Y41165D01*
X22084Y41166D01*
X22083Y41167D01*
X22083Y41168D01*
X22083Y41169D01*
X22083Y41171D01*
X22083Y41172D01*
X22082Y41175D01*
X22082Y41177D01*
X22082Y41179D01*
X22081Y41182D01*
X22081Y41185D01*
Y41188D01*
X22081Y41191D01*
Y41195D01*
Y41195D01*
Y41196D01*
Y41197D01*
Y41198D01*
X22081Y41200D01*
Y41203D01*
X22081Y41205D01*
X22082Y41208D01*
X22082Y41214D01*
X22083Y41220D01*
X22084Y41226D01*
X22085Y41228D01*
X22086Y41231D01*
Y41231D01*
X22086Y41232D01*
X22086Y41232D01*
X22087Y41233D01*
X22087Y41235D01*
X22088Y41236D01*
X22089Y41239D01*
X22091Y41242D01*
X22094Y41246D01*
X22096Y41249D01*
X22100Y41253D01*
X22100D01*
X22100Y41253D01*
X22101Y41253D01*
X22101Y41254D01*
X22102Y41254D01*
X22103Y41255D01*
X22106Y41256D01*
X22109Y41258D01*
X22113Y41259D01*
X22118Y41260D01*
X22123Y41260D01*
X22125D01*
X22126Y41260D01*
D02*
G37*
%LPC*%
G36*
X19401Y43149D02*
X19371D01*
Y43051D01*
X19402D01*
X19403Y43051D01*
X19406Y43051D01*
X19409Y43052D01*
X19412Y43052D01*
X19416Y43053D01*
X19418Y43053D01*
X19419Y43053D01*
X19420Y43054D01*
X19421Y43054D01*
X19423Y43055D01*
X19424Y43056D01*
X19426Y43057D01*
X19428Y43058D01*
X19430Y43060D01*
X19430Y43060D01*
X19431Y43061D01*
X19432Y43062D01*
X19433Y43064D01*
X19435Y43067D01*
X19436Y43069D01*
X19438Y43073D01*
X19439Y43076D01*
Y43076D01*
X19439Y43077D01*
X19440Y43077D01*
X19440Y43078D01*
X19440Y43079D01*
X19440Y43080D01*
X19441Y43081D01*
X19441Y43083D01*
X19442Y43087D01*
X19442Y43091D01*
X19443Y43096D01*
X19443Y43101D01*
Y43101D01*
Y43102D01*
Y43103D01*
X19443Y43104D01*
Y43106D01*
X19442Y43108D01*
X19442Y43110D01*
X19442Y43112D01*
X19441Y43117D01*
X19440Y43122D01*
X19438Y43127D01*
X19437Y43130D01*
X19436Y43132D01*
Y43132D01*
X19436Y43132D01*
X19435Y43133D01*
X19435Y43133D01*
X19433Y43135D01*
X19432Y43137D01*
X19429Y43140D01*
X19426Y43142D01*
X19423Y43144D01*
X19420Y43146D01*
X19420Y43146D01*
X19419Y43146D01*
X19417Y43147D01*
X19415Y43147D01*
X19412Y43148D01*
X19408Y43148D01*
X19406Y43149D01*
X19403D01*
X19401Y43149D01*
D02*
G37*
G36*
X14221Y50938D02*
X14221D01*
X14220D01*
X14219Y50938D01*
X14217Y50938D01*
X14215Y50938D01*
X14213Y50937D01*
X14211Y50936D01*
X14209Y50935D01*
X14209Y50934D01*
X14208Y50934D01*
X14207Y50933D01*
X14206Y50932D01*
X14205Y50931D01*
X14204Y50929D01*
X14203Y50927D01*
X14202Y50924D01*
X14201Y50924D01*
X14201Y50923D01*
X14201Y50921D01*
X14201Y50919D01*
X14200Y50917D01*
X14200Y50914D01*
X14199Y50910D01*
Y50876D01*
X14243D01*
Y50913D01*
X14243Y50916D01*
X14243Y50918D01*
X14243Y50920D01*
Y50920D01*
X14243Y50921D01*
X14243Y50922D01*
X14242Y50923D01*
X14241Y50926D01*
X14240Y50929D01*
X14239Y50929D01*
X14239Y50930D01*
X14238Y50931D01*
X14238Y50932D01*
X14237Y50933D01*
X14235Y50934D01*
X14234Y50935D01*
X14232Y50936D01*
X14232Y50936D01*
X14232Y50936D01*
X14230Y50937D01*
X14229Y50937D01*
X14228Y50938D01*
X14226Y50938D01*
X14224Y50938D01*
X14221Y50938D01*
D02*
G37*
G36*
X14165Y50933D02*
X14165D01*
X14164D01*
X14163Y50933D01*
X14162Y50933D01*
X14160Y50932D01*
X14158Y50932D01*
X14156Y50931D01*
X14154Y50930D01*
X14154Y50930D01*
X14154Y50929D01*
X14153Y50928D01*
X14152Y50928D01*
X14151Y50926D01*
X14149Y50925D01*
X14148Y50923D01*
X14148Y50921D01*
Y50921D01*
X14147Y50920D01*
X14147Y50918D01*
X14147Y50916D01*
X14146Y50914D01*
X14146Y50911D01*
X14146Y50906D01*
Y50876D01*
X14184D01*
Y50908D01*
X14184Y50910D01*
X14184Y50913D01*
X14184Y50915D01*
X14183Y50918D01*
X14183Y50920D01*
X14183Y50920D01*
X14183Y50921D01*
X14182Y50922D01*
X14181Y50923D01*
X14181Y50925D01*
X14179Y50927D01*
X14178Y50928D01*
X14176Y50930D01*
X14176Y50930D01*
X14176Y50930D01*
X14175Y50931D01*
X14173Y50931D01*
X14172Y50932D01*
X14170Y50932D01*
X14168Y50933D01*
X14165Y50933D01*
D02*
G37*
G36*
X13508Y50479D02*
X13470D01*
Y50447D01*
X13470Y50445D01*
X13470Y50442D01*
X13470Y50440D01*
X13471Y50437D01*
X13471Y50435D01*
X13471Y50435D01*
X13472Y50434D01*
X13472Y50433D01*
X13473Y50431D01*
X13474Y50430D01*
X13475Y50428D01*
X13476Y50426D01*
X13478Y50425D01*
X13478Y50425D01*
X13478Y50425D01*
X13479Y50424D01*
X13481Y50424D01*
X13482Y50423D01*
X13484Y50422D01*
X13486Y50422D01*
X13489Y50422D01*
X13489D01*
X13490D01*
X13491Y50422D01*
X13492Y50422D01*
X13494Y50423D01*
X13496Y50423D01*
X13498Y50424D01*
X13500Y50425D01*
X13500Y50425D01*
X13501Y50426D01*
X13502Y50426D01*
X13502Y50427D01*
X13504Y50429D01*
X13505Y50430D01*
X13506Y50432D01*
X13507Y50434D01*
Y50434D01*
X13507Y50435D01*
X13507Y50436D01*
X13507Y50438D01*
X13508Y50441D01*
X13508Y50444D01*
X13508Y50448D01*
Y50479D01*
D02*
G37*
G36*
X13455D02*
X13411D01*
Y50442D01*
X13411Y50438D01*
X13411Y50437D01*
X13411Y50435D01*
Y50435D01*
X13411Y50434D01*
X13412Y50433D01*
X13412Y50432D01*
X13413Y50429D01*
X13415Y50426D01*
X13415Y50425D01*
X13415Y50425D01*
X13416Y50424D01*
X13416Y50423D01*
X13418Y50422D01*
X13419Y50421D01*
X13420Y50420D01*
X13422Y50419D01*
X13422Y50419D01*
X13423Y50419D01*
X13424Y50418D01*
X13425Y50418D01*
X13426Y50417D01*
X13428Y50417D01*
X13430Y50416D01*
X13433Y50416D01*
X13433D01*
X13434D01*
X13435Y50416D01*
X13437Y50417D01*
X13439Y50417D01*
X13441Y50418D01*
X13443Y50419D01*
X13445Y50420D01*
X13445Y50420D01*
X13446Y50421D01*
X13447Y50422D01*
X13448Y50423D01*
X13449Y50424D01*
X13450Y50426D01*
X13452Y50428D01*
X13452Y50431D01*
X13453Y50431D01*
X13453Y50432D01*
X13453Y50433D01*
X13454Y50435D01*
X13454Y50438D01*
X13454Y50441D01*
X13455Y50445D01*
Y50479D01*
D02*
G37*
G36*
X14082Y49509D02*
X14045D01*
X14041Y49509D01*
X14040Y49509D01*
X14038Y49509D01*
X14038D01*
X14037Y49509D01*
X14036Y49508D01*
X14035Y49508D01*
X14032Y49507D01*
X14029Y49505D01*
X14029Y49505D01*
X14028Y49505D01*
X14027Y49504D01*
X14026Y49504D01*
X14025Y49502D01*
X14024Y49501D01*
X14023Y49500D01*
X14022Y49498D01*
X14022Y49498D01*
X14022Y49497D01*
X14021Y49496D01*
X14021Y49495D01*
X14020Y49494D01*
X14020Y49492D01*
X14020Y49490D01*
X14019Y49487D01*
Y49487D01*
Y49486D01*
X14020Y49485D01*
X14020Y49483D01*
X14020Y49481D01*
X14021Y49479D01*
X14022Y49477D01*
X14023Y49475D01*
X14024Y49475D01*
X14024Y49474D01*
X14025Y49473D01*
X14026Y49472D01*
X14027Y49471D01*
X14029Y49470D01*
X14031Y49468D01*
X14034Y49468D01*
X14034Y49467D01*
X14035Y49467D01*
X14036Y49467D01*
X14039Y49466D01*
X14041Y49466D01*
X14044Y49466D01*
X14048Y49465D01*
X14082D01*
Y49509D01*
D02*
G37*
G36*
Y49450D02*
X14050D01*
X14048Y49450D01*
X14045Y49450D01*
X14043Y49450D01*
X14040Y49449D01*
X14038Y49449D01*
X14038Y49449D01*
X14037Y49448D01*
X14036Y49448D01*
X14034Y49447D01*
X14033Y49446D01*
X14031Y49445D01*
X14030Y49444D01*
X14028Y49442D01*
X14028Y49442D01*
X14028Y49442D01*
X14027Y49440D01*
X14027Y49439D01*
X14026Y49438D01*
X14026Y49436D01*
X14025Y49434D01*
X14025Y49431D01*
Y49431D01*
Y49430D01*
X14025Y49429D01*
X14025Y49428D01*
X14026Y49426D01*
X14026Y49424D01*
X14027Y49422D01*
X14028Y49420D01*
X14028Y49420D01*
X14029Y49419D01*
X14029Y49418D01*
X14030Y49418D01*
X14032Y49416D01*
X14033Y49415D01*
X14035Y49414D01*
X14037Y49413D01*
X14037D01*
X14038Y49413D01*
X14039Y49413D01*
X14041Y49413D01*
X14044Y49412D01*
X14047Y49412D01*
X14051Y49412D01*
X14082D01*
Y49450D01*
D02*
G37*
G36*
X20977Y43274D02*
X20937D01*
Y43231D01*
X20975D01*
X20977Y43232D01*
X20980Y43232D01*
X20983Y43232D01*
X20986Y43232D01*
X20989Y43233D01*
X20991Y43234D01*
X20992Y43234D01*
X20993Y43234D01*
X20994Y43235D01*
X20995Y43235D01*
X20997Y43237D01*
X20998Y43238D01*
X21000Y43240D01*
X21001Y43241D01*
X21002Y43242D01*
X21002Y43242D01*
X21003Y43243D01*
X21003Y43245D01*
X21004Y43247D01*
X21004Y43248D01*
X21005Y43251D01*
X21005Y43253D01*
Y43253D01*
Y43253D01*
X21005Y43254D01*
X21005Y43256D01*
X21004Y43258D01*
X21003Y43260D01*
X21002Y43263D01*
X21000Y43265D01*
X20998Y43268D01*
X20998Y43268D01*
X20997Y43269D01*
X20995Y43270D01*
X20993Y43271D01*
X20990Y43272D01*
X20987Y43273D01*
X20982Y43274D01*
X20977Y43274D01*
D02*
G37*
G36*
X24705Y50925D02*
X24705D01*
X24705D01*
X24703Y50925D01*
X24702Y50925D01*
X24700Y50924D01*
X24697Y50923D01*
X24695Y50922D01*
X24692Y50920D01*
X24690Y50918D01*
X24690Y50918D01*
X24689Y50917D01*
X24688Y50915D01*
X24687Y50913D01*
X24686Y50910D01*
X24685Y50907D01*
X24684Y50902D01*
X24684Y50897D01*
Y50857D01*
X24726D01*
Y50895D01*
X24726Y50897D01*
X24726Y50900D01*
X24726Y50903D01*
X24725Y50906D01*
X24725Y50909D01*
X24724Y50911D01*
X24724Y50912D01*
X24724Y50913D01*
X24723Y50914D01*
X24722Y50915D01*
X24721Y50917D01*
X24720Y50918D01*
X24718Y50920D01*
X24716Y50921D01*
X24716Y50922D01*
X24715Y50922D01*
X24714Y50923D01*
X24713Y50923D01*
X24711Y50924D01*
X24709Y50924D01*
X24707Y50925D01*
X24705Y50925D01*
D02*
G37*
G36*
X14375Y46585D02*
X14339D01*
X14335Y46585D01*
X14333Y46584D01*
X14332Y46584D01*
X14331D01*
X14331Y46584D01*
X14330Y46584D01*
X14328Y46584D01*
X14325Y46582D01*
X14322Y46581D01*
X14322Y46581D01*
X14321Y46580D01*
X14321Y46580D01*
X14320Y46579D01*
X14319Y46578D01*
X14317Y46577D01*
X14316Y46575D01*
X14315Y46574D01*
X14315Y46574D01*
X14315Y46573D01*
X14315Y46572D01*
X14314Y46571D01*
X14314Y46569D01*
X14313Y46567D01*
X14313Y46565D01*
X14313Y46563D01*
Y46562D01*
Y46562D01*
X14313Y46560D01*
X14313Y46559D01*
X14314Y46557D01*
X14314Y46555D01*
X14315Y46553D01*
X14317Y46551D01*
X14317Y46550D01*
X14317Y46550D01*
X14318Y46549D01*
X14319Y46548D01*
X14321Y46546D01*
X14323Y46545D01*
X14325Y46544D01*
X14327Y46543D01*
X14327Y46543D01*
X14328Y46543D01*
X14330Y46542D01*
X14332Y46542D01*
X14334Y46542D01*
X14338Y46541D01*
X14341Y46541D01*
X14375D01*
Y46585D01*
D02*
G37*
G36*
Y46526D02*
X14344D01*
X14341Y46525D01*
X14339Y46525D01*
X14336Y46525D01*
X14333Y46525D01*
X14331Y46524D01*
X14331Y46524D01*
X14330Y46524D01*
X14329Y46523D01*
X14328Y46523D01*
X14326Y46522D01*
X14325Y46521D01*
X14323Y46519D01*
X14322Y46518D01*
X14321Y46518D01*
X14321Y46517D01*
X14321Y46516D01*
X14320Y46515D01*
X14319Y46513D01*
X14319Y46511D01*
X14319Y46509D01*
X14318Y46507D01*
Y46506D01*
Y46506D01*
X14319Y46505D01*
X14319Y46503D01*
X14319Y46501D01*
X14320Y46499D01*
X14320Y46498D01*
X14321Y46496D01*
X14322Y46495D01*
X14322Y46495D01*
X14323Y46494D01*
X14324Y46493D01*
X14325Y46492D01*
X14326Y46491D01*
X14328Y46490D01*
X14330Y46489D01*
X14331D01*
X14331Y46489D01*
X14333Y46488D01*
X14335Y46488D01*
X14338Y46488D01*
X14341Y46488D01*
X14345Y46487D01*
X14375D01*
Y46526D01*
D02*
G37*
G36*
X14269Y46555D02*
X14228D01*
Y46498D01*
X14269Y46555D01*
D02*
G37*
G36*
X22856Y51743D02*
X22814D01*
Y51705D01*
X22814Y51703D01*
X22814Y51700D01*
X22814Y51697D01*
X22815Y51694D01*
X22815Y51691D01*
X22816Y51689D01*
X22816Y51688D01*
X22816Y51687D01*
X22817Y51686D01*
X22818Y51685D01*
X22819Y51683D01*
X22820Y51682D01*
X22822Y51680D01*
X22824Y51679D01*
X22824Y51678D01*
X22825Y51678D01*
X22826Y51677D01*
X22827Y51677D01*
X22829Y51676D01*
X22831Y51676D01*
X22833Y51675D01*
X22835Y51675D01*
X22835D01*
X22835D01*
X22837Y51675D01*
X22838Y51675D01*
X22840Y51676D01*
X22843Y51677D01*
X22845Y51678D01*
X22848Y51680D01*
X22850Y51682D01*
X22850Y51682D01*
X22851Y51683D01*
X22852Y51685D01*
X22853Y51687D01*
X22854Y51690D01*
X22855Y51693D01*
X22856Y51698D01*
X22856Y51703D01*
Y51743D01*
D02*
G37*
G36*
X24834Y52038D02*
X24737D01*
Y52008D01*
X24737Y52006D01*
X24737Y52004D01*
X24737Y52000D01*
X24738Y51997D01*
X24738Y51994D01*
X24739Y51991D01*
X24739Y51991D01*
X24739Y51990D01*
X24740Y51988D01*
X24740Y51987D01*
X24742Y51985D01*
X24743Y51983D01*
X24744Y51981D01*
X24745Y51979D01*
X24746Y51979D01*
X24747Y51978D01*
X24748Y51977D01*
X24750Y51976D01*
X24752Y51974D01*
X24755Y51973D01*
X24758Y51971D01*
X24762Y51970D01*
X24762D01*
X24762Y51970D01*
X24763Y51970D01*
X24763Y51969D01*
X24764Y51969D01*
X24766Y51969D01*
X24767Y51969D01*
X24768Y51968D01*
X24772Y51968D01*
X24776Y51967D01*
X24781Y51967D01*
X24786Y51967D01*
X24787D01*
X24787D01*
X24788D01*
X24790Y51967D01*
X24791D01*
X24793Y51967D01*
X24795Y51967D01*
X24798Y51967D01*
X24803Y51968D01*
X24808Y51969D01*
X24813Y51971D01*
X24815Y51972D01*
X24817Y51973D01*
X24817D01*
X24818Y51974D01*
X24818Y51974D01*
X24819Y51974D01*
X24821Y51976D01*
X24823Y51978D01*
X24825Y51980D01*
X24828Y51983D01*
X24830Y51986D01*
X24831Y51989D01*
X24832Y51990D01*
X24832Y51991D01*
X24832Y51992D01*
X24833Y51995D01*
X24833Y51998D01*
X24834Y52001D01*
X24834Y52004D01*
Y52006D01*
X24834Y52008D01*
Y52038D01*
D02*
G37*
G36*
Y51590D02*
X24737D01*
Y51560D01*
X24737Y51559D01*
X24737Y51556D01*
X24737Y51553D01*
X24738Y51550D01*
X24738Y51546D01*
X24739Y51543D01*
X24739Y51543D01*
X24739Y51542D01*
X24740Y51541D01*
X24740Y51539D01*
X24742Y51537D01*
X24743Y51535D01*
X24744Y51534D01*
X24745Y51532D01*
X24746Y51532D01*
X24747Y51531D01*
X24748Y51530D01*
X24750Y51528D01*
X24752Y51527D01*
X24755Y51525D01*
X24758Y51524D01*
X24762Y51523D01*
X24762D01*
X24762Y51522D01*
X24763Y51522D01*
X24763Y51522D01*
X24764Y51522D01*
X24766Y51521D01*
X24767Y51521D01*
X24768Y51521D01*
X24772Y51520D01*
X24776Y51520D01*
X24781Y51519D01*
X24786Y51519D01*
X24787D01*
X24787D01*
X24788D01*
X24790Y51519D01*
X24791D01*
X24793Y51519D01*
X24795Y51520D01*
X24798Y51520D01*
X24803Y51521D01*
X24808Y51522D01*
X24813Y51523D01*
X24815Y51525D01*
X24817Y51526D01*
X24817D01*
X24818Y51526D01*
X24818Y51526D01*
X24819Y51527D01*
X24821Y51528D01*
X24823Y51530D01*
X24825Y51533D01*
X24828Y51535D01*
X24830Y51538D01*
X24831Y51542D01*
X24832Y51542D01*
X24832Y51543D01*
X24832Y51545D01*
X24833Y51547D01*
X24833Y51550D01*
X24834Y51554D01*
X24834Y51556D01*
Y51558D01*
X24834Y51561D01*
Y51590D01*
D02*
G37*
G36*
X15913Y51735D02*
X15855D01*
X15913Y51695D01*
Y51735D01*
D02*
G37*
G36*
X17657Y45716D02*
X17657D01*
X17657D01*
X17656D01*
X17655Y45715D01*
X17654D01*
X17653Y45715D01*
X17650Y45715D01*
X17646Y45714D01*
X17643Y45713D01*
X17640Y45711D01*
X17636Y45708D01*
X17636Y45708D01*
X17635Y45707D01*
X17634Y45706D01*
X17632Y45704D01*
X17631Y45701D01*
X17630Y45698D01*
X17629Y45694D01*
X17629Y45691D01*
Y45689D01*
X17629Y45689D01*
X17629Y45687D01*
X17630Y45684D01*
X17630Y45682D01*
X17632Y45678D01*
X17634Y45675D01*
X17636Y45672D01*
X17637Y45672D01*
X17638Y45671D01*
X17639Y45670D01*
X17642Y45669D01*
X17644Y45667D01*
X17648Y45666D01*
X17652Y45665D01*
X17656Y45665D01*
X17657D01*
X17658D01*
X17659Y45665D01*
X17661Y45665D01*
X17664Y45666D01*
X17666Y45667D01*
X17669Y45667D01*
X17672Y45668D01*
X17672Y45669D01*
X17673Y45669D01*
X17674Y45670D01*
X17676Y45671D01*
X17678Y45672D01*
X17680Y45674D01*
X17681Y45676D01*
X17683Y45678D01*
X17683Y45678D01*
X17684Y45679D01*
X17684Y45680D01*
X17685Y45682D01*
X17686Y45684D01*
X17687Y45686D01*
X17687Y45689D01*
X17687Y45691D01*
Y45692D01*
X17687Y45693D01*
X17687Y45695D01*
X17686Y45697D01*
X17685Y45700D01*
X17684Y45703D01*
X17682Y45706D01*
X17681Y45707D01*
X17679Y45708D01*
X17679D01*
X17679Y45709D01*
X17678Y45709D01*
X17676Y45711D01*
X17673Y45712D01*
X17670Y45713D01*
X17667Y45714D01*
X17662Y45715D01*
X17657Y45716D01*
D02*
G37*
G36*
X18625Y51457D02*
X18625D01*
X18624D01*
X18622D01*
X18620Y51457D01*
X18618D01*
X18615Y51456D01*
X18612Y51456D01*
X18608Y51456D01*
X18601Y51455D01*
X18598Y51454D01*
X18594Y51454D01*
X18591Y51453D01*
X18588Y51452D01*
X18586Y51451D01*
X18583Y51449D01*
X18583D01*
X18583Y51449D01*
X18582Y51448D01*
X18580Y51446D01*
X18578Y51444D01*
X18576Y51442D01*
X18575Y51438D01*
X18573Y51435D01*
X18573Y51433D01*
X18573Y51431D01*
Y51430D01*
X18573Y51429D01*
X18573Y51427D01*
X18574Y51425D01*
X18576Y51422D01*
X18577Y51419D01*
X18578Y51417D01*
X18580Y51416D01*
X18581Y51414D01*
X18583Y51413D01*
X18583D01*
X18584Y51413D01*
X18584Y51412D01*
X18585Y51412D01*
X18587Y51411D01*
X18588Y51410D01*
X18590Y51410D01*
X18592Y51409D01*
X18595Y51408D01*
X18598Y51408D01*
X18602Y51407D01*
X18605Y51406D01*
X18610Y51406D01*
X18614Y51406D01*
X18620Y51405D01*
X18625D01*
X18625D01*
X18626D01*
X18627D01*
X18628D01*
X18630Y51405D01*
X18633D01*
X18636Y51406D01*
X18639Y51406D01*
X18643Y51406D01*
X18650Y51407D01*
X18653Y51408D01*
X18656Y51408D01*
X18660Y51409D01*
X18662Y51410D01*
X18665Y51411D01*
X18667Y51413D01*
X18667D01*
X18668Y51413D01*
X18668Y51413D01*
X18669Y51414D01*
X18671Y51416D01*
X18673Y51418D01*
X18675Y51420D01*
X18676Y51424D01*
X18677Y51425D01*
X18677Y51427D01*
X18678Y51429D01*
X18678Y51431D01*
Y51432D01*
X18678Y51433D01*
X18677Y51435D01*
X18677Y51437D01*
X18676Y51440D01*
X18674Y51443D01*
X18673Y51445D01*
X18672Y51446D01*
X18670Y51447D01*
X18669Y51449D01*
X18668D01*
X18668Y51449D01*
X18667Y51450D01*
X18666Y51450D01*
X18665Y51451D01*
X18663Y51451D01*
X18661Y51452D01*
X18659Y51453D01*
X18656Y51453D01*
X18653Y51454D01*
X18649Y51455D01*
X18645Y51455D01*
X18641Y51456D01*
X18636Y51456D01*
X18631Y51457D01*
X18625Y51457D01*
D02*
G37*
G36*
X20524Y51655D02*
X20523D01*
X20522D01*
X20521Y51655D01*
X20519Y51655D01*
X20516Y51655D01*
X20514Y51654D01*
X20511Y51653D01*
X20508Y51652D01*
X20508Y51652D01*
X20507Y51651D01*
X20506Y51651D01*
X20504Y51650D01*
X20502Y51648D01*
X20500Y51647D01*
X20498Y51645D01*
X20497Y51642D01*
X20497Y51642D01*
X20496Y51641D01*
X20496Y51640D01*
X20495Y51638D01*
X20494Y51637D01*
X20494Y51634D01*
X20493Y51632D01*
X20493Y51629D01*
Y51628D01*
X20493Y51628D01*
X20493Y51626D01*
X20494Y51623D01*
X20495Y51621D01*
X20496Y51618D01*
X20498Y51615D01*
X20499Y51613D01*
X20501Y51612D01*
X20501D01*
X20501Y51612D01*
X20502Y51611D01*
X20504Y51610D01*
X20507Y51608D01*
X20510Y51607D01*
X20513Y51606D01*
X20518Y51605D01*
X20523Y51605D01*
X20523D01*
X20523D01*
X20524D01*
X20525Y51605D01*
X20526D01*
X20527Y51605D01*
X20530Y51606D01*
X20534Y51607D01*
X20537Y51608D01*
X20540Y51610D01*
X20544Y51612D01*
X20544Y51613D01*
X20545Y51613D01*
X20546Y51615D01*
X20548Y51617D01*
X20549Y51620D01*
X20550Y51623D01*
X20551Y51626D01*
X20551Y51630D01*
Y51631D01*
X20551Y51632D01*
X20551Y51634D01*
X20550Y51636D01*
X20550Y51639D01*
X20548Y51642D01*
X20546Y51645D01*
X20544Y51648D01*
X20543Y51648D01*
X20542Y51649D01*
X20541Y51650D01*
X20538Y51652D01*
X20536Y51653D01*
X20532Y51654D01*
X20528Y51655D01*
X20524Y51655D01*
D02*
G37*
G36*
X18893Y45329D02*
X18854D01*
Y45298D01*
X18855Y45296D01*
X18855Y45293D01*
X18855Y45290D01*
X18855Y45288D01*
X18856Y45286D01*
X18856Y45285D01*
X18856Y45285D01*
X18857Y45283D01*
X18857Y45282D01*
X18858Y45281D01*
X18859Y45279D01*
X18861Y45277D01*
X18862Y45276D01*
X18862Y45276D01*
X18863Y45275D01*
X18864Y45275D01*
X18865Y45274D01*
X18867Y45274D01*
X18869Y45273D01*
X18871Y45273D01*
X18873Y45273D01*
X18874D01*
X18874D01*
X18875Y45273D01*
X18877Y45273D01*
X18879Y45273D01*
X18881Y45274D01*
X18882Y45275D01*
X18884Y45276D01*
X18885Y45276D01*
X18885Y45276D01*
X18886Y45277D01*
X18887Y45278D01*
X18888Y45279D01*
X18889Y45281D01*
X18890Y45283D01*
X18891Y45285D01*
Y45285D01*
X18891Y45286D01*
X18892Y45287D01*
X18892Y45289D01*
X18892Y45292D01*
X18892Y45295D01*
X18893Y45299D01*
Y45329D01*
D02*
G37*
G36*
X18839D02*
X18795D01*
Y45293D01*
X18795Y45289D01*
X18796Y45287D01*
X18796Y45286D01*
Y45286D01*
X18796Y45285D01*
X18796Y45284D01*
X18796Y45283D01*
X18798Y45279D01*
X18799Y45276D01*
X18799Y45276D01*
X18800Y45276D01*
X18800Y45275D01*
X18801Y45274D01*
X18802Y45273D01*
X18803Y45272D01*
X18805Y45271D01*
X18806Y45270D01*
X18806Y45269D01*
X18807Y45269D01*
X18808Y45269D01*
X18809Y45268D01*
X18811Y45268D01*
X18813Y45267D01*
X18815Y45267D01*
X18817Y45267D01*
X18818D01*
X18818D01*
X18820Y45267D01*
X18821Y45268D01*
X18823Y45268D01*
X18825Y45269D01*
X18827Y45270D01*
X18829Y45271D01*
X18830Y45271D01*
X18830Y45272D01*
X18831Y45272D01*
X18832Y45274D01*
X18834Y45275D01*
X18835Y45277D01*
X18836Y45279D01*
X18837Y45281D01*
X18837Y45282D01*
X18837Y45282D01*
X18838Y45284D01*
X18838Y45286D01*
X18838Y45289D01*
X18839Y45292D01*
X18839Y45296D01*
Y45329D01*
D02*
G37*
G36*
X20173Y50235D02*
X20134D01*
Y50204D01*
X20135Y50201D01*
X20135Y50199D01*
X20135Y50196D01*
X20135Y50194D01*
X20136Y50191D01*
X20136Y50191D01*
X20136Y50190D01*
X20137Y50189D01*
X20137Y50188D01*
X20138Y50186D01*
X20139Y50185D01*
X20141Y50183D01*
X20142Y50182D01*
X20142Y50181D01*
X20143Y50181D01*
X20144Y50181D01*
X20145Y50180D01*
X20147Y50179D01*
X20149Y50179D01*
X20151Y50179D01*
X20153Y50178D01*
X20154D01*
X20154D01*
X20155Y50179D01*
X20157Y50179D01*
X20159Y50179D01*
X20161Y50180D01*
X20162Y50180D01*
X20164Y50181D01*
X20165Y50182D01*
X20165Y50182D01*
X20166Y50183D01*
X20167Y50184D01*
X20168Y50185D01*
X20169Y50186D01*
X20170Y50188D01*
X20171Y50190D01*
Y50191D01*
X20171Y50191D01*
X20172Y50193D01*
X20172Y50195D01*
X20172Y50198D01*
X20172Y50201D01*
X20173Y50205D01*
Y50235D01*
D02*
G37*
G36*
X20119D02*
X20075D01*
Y50199D01*
X20075Y50195D01*
X20076Y50193D01*
X20076Y50192D01*
Y50191D01*
X20076Y50191D01*
X20076Y50190D01*
X20076Y50188D01*
X20078Y50185D01*
X20079Y50182D01*
X20079Y50182D01*
X20080Y50181D01*
X20080Y50181D01*
X20081Y50180D01*
X20082Y50179D01*
X20083Y50177D01*
X20085Y50176D01*
X20086Y50175D01*
X20086Y50175D01*
X20087Y50175D01*
X20088Y50175D01*
X20089Y50174D01*
X20091Y50174D01*
X20093Y50173D01*
X20095Y50173D01*
X20097Y50173D01*
X20098D01*
X20098D01*
X20100Y50173D01*
X20101Y50173D01*
X20103Y50174D01*
X20105Y50174D01*
X20107Y50175D01*
X20109Y50177D01*
X20110Y50177D01*
X20110Y50177D01*
X20111Y50178D01*
X20112Y50179D01*
X20114Y50181D01*
X20115Y50183D01*
X20116Y50185D01*
X20117Y50187D01*
X20117Y50187D01*
X20117Y50188D01*
X20118Y50190D01*
X20118Y50192D01*
X20118Y50194D01*
X20119Y50198D01*
X20119Y50201D01*
Y50235D01*
D02*
G37*
G36*
X17975Y51735D02*
X17937D01*
Y51704D01*
X17937Y51701D01*
X17937Y51699D01*
X17937Y51696D01*
X17938Y51694D01*
X17938Y51691D01*
X17938Y51691D01*
X17938Y51690D01*
X17939Y51689D01*
X17940Y51688D01*
X17940Y51686D01*
X17941Y51685D01*
X17943Y51683D01*
X17944Y51682D01*
X17945Y51681D01*
X17945Y51681D01*
X17946Y51681D01*
X17947Y51680D01*
X17949Y51679D01*
X17951Y51679D01*
X17953Y51679D01*
X17955Y51678D01*
X17956D01*
X17957D01*
X17958Y51679D01*
X17959Y51679D01*
X17961Y51679D01*
X17963Y51680D01*
X17965Y51680D01*
X17967Y51681D01*
X17967Y51682D01*
X17967Y51682D01*
X17968Y51683D01*
X17969Y51684D01*
X17970Y51685D01*
X17971Y51686D01*
X17972Y51688D01*
X17973Y51690D01*
Y51691D01*
X17974Y51691D01*
X17974Y51693D01*
X17974Y51695D01*
X17975Y51698D01*
X17975Y51701D01*
X17975Y51705D01*
Y51735D01*
D02*
G37*
G36*
X17921D02*
X17877D01*
Y51699D01*
X17878Y51695D01*
X17878Y51693D01*
X17878Y51692D01*
Y51691D01*
X17878Y51691D01*
X17878Y51690D01*
X17879Y51688D01*
X17880Y51685D01*
X17881Y51682D01*
X17881Y51682D01*
X17882Y51681D01*
X17882Y51681D01*
X17883Y51680D01*
X17884Y51679D01*
X17885Y51677D01*
X17887Y51676D01*
X17888Y51675D01*
X17889Y51675D01*
X17889Y51675D01*
X17890Y51675D01*
X17892Y51674D01*
X17893Y51674D01*
X17895Y51673D01*
X17897Y51673D01*
X17899Y51673D01*
X17900D01*
X17901D01*
X17902Y51673D01*
X17904Y51673D01*
X17906Y51674D01*
X17908Y51674D01*
X17910Y51675D01*
X17912Y51677D01*
X17912Y51677D01*
X17913Y51677D01*
X17913Y51678D01*
X17915Y51679D01*
X17916Y51681D01*
X17917Y51683D01*
X17918Y51685D01*
X17919Y51687D01*
X17919Y51687D01*
X17920Y51688D01*
X17920Y51690D01*
X17920Y51692D01*
X17921Y51694D01*
X17921Y51698D01*
X17921Y51701D01*
Y51735D01*
D02*
G37*
G36*
X25839Y52183D02*
X25800D01*
Y52152D01*
X25800Y52149D01*
X25801Y52147D01*
X25801Y52144D01*
X25801Y52141D01*
X25802Y52139D01*
X25802Y52139D01*
X25802Y52138D01*
X25802Y52137D01*
X25803Y52136D01*
X25804Y52134D01*
X25805Y52132D01*
X25807Y52131D01*
X25808Y52130D01*
X25808Y52129D01*
X25809Y52129D01*
X25810Y52128D01*
X25811Y52128D01*
X25813Y52127D01*
X25814Y52127D01*
X25817Y52126D01*
X25819Y52126D01*
X25819D01*
X25820D01*
X25821Y52126D01*
X25823Y52127D01*
X25825Y52127D01*
X25827Y52127D01*
X25828Y52128D01*
X25830Y52129D01*
X25830Y52130D01*
X25831Y52130D01*
X25832Y52131D01*
X25833Y52132D01*
X25834Y52133D01*
X25835Y52134D01*
X25836Y52136D01*
X25837Y52138D01*
Y52138D01*
X25837Y52139D01*
X25837Y52141D01*
X25838Y52143D01*
X25838Y52145D01*
X25838Y52149D01*
X25839Y52153D01*
Y52183D01*
D02*
G37*
G36*
X25785D02*
X25741D01*
Y52147D01*
X25741Y52143D01*
X25741Y52141D01*
X25742Y52140D01*
Y52139D01*
X25742Y52139D01*
X25742Y52137D01*
X25742Y52136D01*
X25743Y52133D01*
X25745Y52130D01*
X25745Y52130D01*
X25745Y52129D01*
X25746Y52128D01*
X25747Y52127D01*
X25748Y52127D01*
X25749Y52125D01*
X25750Y52124D01*
X25752Y52123D01*
X25752Y52123D01*
X25753Y52123D01*
X25754Y52122D01*
X25755Y52122D01*
X25757Y52121D01*
X25759Y52121D01*
X25761Y52121D01*
X25763Y52121D01*
X25763D01*
X25764D01*
X25766Y52121D01*
X25767Y52121D01*
X25769Y52122D01*
X25771Y52122D01*
X25773Y52123D01*
X25775Y52125D01*
X25775Y52125D01*
X25776Y52125D01*
X25777Y52126D01*
X25778Y52127D01*
X25780Y52129D01*
X25781Y52130D01*
X25782Y52132D01*
X25783Y52135D01*
X25783Y52135D01*
X25783Y52136D01*
X25784Y52138D01*
X25784Y52140D01*
X25784Y52142D01*
X25785Y52145D01*
X25785Y52149D01*
Y52183D01*
D02*
G37*
G36*
X25760Y51130D02*
X25755D01*
X25755D01*
X25754D01*
X25753D01*
X25752D01*
X25750Y51129D01*
X25747D01*
X25744Y51129D01*
X25741Y51129D01*
X25737Y51129D01*
X25730Y51128D01*
X25727Y51127D01*
X25724Y51126D01*
X25720Y51126D01*
X25718Y51125D01*
X25715Y51123D01*
X25713Y51122D01*
X25713D01*
X25712Y51122D01*
X25712Y51121D01*
X25711Y51121D01*
X25709Y51119D01*
X25707Y51117D01*
X25705Y51114D01*
X25704Y51111D01*
X25703Y51110D01*
X25703Y51108D01*
X25702Y51106D01*
X25702Y51104D01*
Y51103D01*
X25702Y51102D01*
X25703Y51100D01*
X25703Y51097D01*
X25704Y51095D01*
X25706Y51092D01*
X25707Y51090D01*
X25708Y51089D01*
X25710Y51087D01*
X25711Y51086D01*
X25712D01*
X25712Y51086D01*
X25713Y51085D01*
X25714Y51085D01*
X25715Y51084D01*
X25717Y51083D01*
X25719Y51083D01*
X25721Y51082D01*
X25724Y51081D01*
X25727Y51081D01*
X25731Y51080D01*
X25735Y51079D01*
X25739Y51079D01*
X25744Y51078D01*
X25749Y51078D01*
X25755Y51078D01*
X25755D01*
X25756D01*
X25758D01*
X25760Y51078D01*
X25762D01*
X25765Y51078D01*
X25768Y51079D01*
X25772Y51079D01*
X25779Y51080D01*
X25782Y51080D01*
X25786Y51081D01*
X25789Y51082D01*
X25792Y51083D01*
X25794Y51084D01*
X25797Y51085D01*
X25797D01*
X25797Y51086D01*
X25798Y51087D01*
X25800Y51088D01*
X25802Y51090D01*
X25804Y51093D01*
X25805Y51096D01*
X25807Y51100D01*
X25807Y51102D01*
X25807Y51104D01*
Y51105D01*
X25807Y51106D01*
X25807Y51108D01*
X25806Y51110D01*
X25804Y51113D01*
X25803Y51116D01*
X25801Y51118D01*
X25800Y51119D01*
X25799Y51120D01*
X25797Y51122D01*
X25797D01*
X25796Y51122D01*
X25796Y51123D01*
X25795Y51123D01*
X25793Y51124D01*
X25792Y51124D01*
X25790Y51125D01*
X25788Y51126D01*
X25785Y51126D01*
X25782Y51127D01*
X25778Y51128D01*
X25775Y51128D01*
X25770Y51129D01*
X25766Y51129D01*
X25760Y51130D01*
D02*
G37*
G36*
X25725Y50925D02*
X25725D01*
X25725D01*
X25723Y50925D01*
X25722Y50925D01*
X25720Y50924D01*
X25717Y50923D01*
X25715Y50922D01*
X25712Y50920D01*
X25710Y50918D01*
X25710Y50918D01*
X25709Y50917D01*
X25708Y50915D01*
X25707Y50913D01*
X25706Y50910D01*
X25705Y50907D01*
X25704Y50902D01*
X25704Y50897D01*
Y50857D01*
X25746D01*
Y50895D01*
X25746Y50897D01*
X25746Y50900D01*
X25746Y50903D01*
X25745Y50906D01*
X25745Y50909D01*
X25744Y50911D01*
X25744Y50912D01*
X25744Y50913D01*
X25743Y50914D01*
X25742Y50915D01*
X25741Y50917D01*
X25740Y50918D01*
X25738Y50920D01*
X25736Y50921D01*
X25736Y50922D01*
X25735Y50922D01*
X25734Y50923D01*
X25733Y50923D01*
X25731Y50924D01*
X25729Y50924D01*
X25727Y50925D01*
X25725Y50925D01*
D02*
G37*
G36*
X22123Y41247D02*
X22122D01*
X22121Y41247D01*
X22119Y41247D01*
X22117Y41246D01*
X22114Y41244D01*
X22111Y41243D01*
X22109Y41241D01*
X22108Y41240D01*
X22106Y41239D01*
X22105Y41237D01*
Y41237D01*
X22104Y41236D01*
X22104Y41236D01*
X22104Y41235D01*
X22103Y41233D01*
X22102Y41232D01*
X22102Y41230D01*
X22101Y41228D01*
X22100Y41225D01*
X22100Y41222D01*
X22099Y41218D01*
X22098Y41215D01*
X22098Y41210D01*
X22098Y41206D01*
X22097Y41200D01*
Y41195D01*
Y41195D01*
Y41194D01*
Y41193D01*
Y41192D01*
X22097Y41190D01*
Y41187D01*
X22098Y41184D01*
X22098Y41181D01*
X22098Y41177D01*
X22099Y41170D01*
X22100Y41167D01*
X22100Y41164D01*
X22101Y41160D01*
X22102Y41158D01*
X22103Y41155D01*
X22105Y41153D01*
Y41153D01*
X22105Y41152D01*
X22105Y41152D01*
X22106Y41151D01*
X22108Y41149D01*
X22110Y41147D01*
X22112Y41145D01*
X22115Y41144D01*
X22117Y41143D01*
X22119Y41143D01*
X22121Y41142D01*
X22123Y41142D01*
X22124D01*
X22125Y41142D01*
X22127Y41143D01*
X22129Y41143D01*
X22132Y41144D01*
X22135Y41146D01*
X22137Y41147D01*
X22138Y41148D01*
X22139Y41150D01*
X22141Y41151D01*
Y41152D01*
X22141Y41152D01*
X22141Y41153D01*
X22142Y41154D01*
X22142Y41155D01*
X22143Y41157D01*
X22144Y41159D01*
X22145Y41161D01*
X22145Y41164D01*
X22146Y41167D01*
X22147Y41171D01*
X22147Y41175D01*
X22148Y41179D01*
X22148Y41184D01*
X22148Y41189D01*
X22149Y41195D01*
Y41195D01*
Y41196D01*
Y41198D01*
X22148Y41200D01*
Y41202D01*
X22148Y41205D01*
X22148Y41208D01*
X22148Y41212D01*
X22147Y41219D01*
X22146Y41222D01*
X22145Y41226D01*
X22145Y41229D01*
X22144Y41232D01*
X22142Y41234D01*
X22141Y41237D01*
Y41237D01*
X22141Y41237D01*
X22140Y41238D01*
X22138Y41240D01*
X22136Y41242D01*
X22133Y41244D01*
X22130Y41245D01*
X22127Y41247D01*
X22125Y41247D01*
X22123Y41247D01*
D02*
G37*
%LPD*%
D10*
X18643Y43327D02*
X19627D01*
Y42893D02*
Y43327D01*
X18643Y42893D02*
X19627D01*
X18643D02*
Y43327D01*
X14050Y50233D02*
Y50888D01*
X14390D01*
Y50233D02*
Y50888D01*
X14050Y50233D02*
X14390D01*
X20185Y52483D02*
Y53529D01*
X20815D01*
Y52483D02*
Y53529D01*
X20185Y52483D02*
X20815D01*
X13134Y51227D02*
X13586D01*
X13134Y50361D02*
Y51227D01*
Y50361D02*
X13586D01*
Y51227D01*
X21124Y49230D02*
X21916D01*
Y50730D01*
X21124D02*
X21916D01*
X21124Y49230D02*
Y50730D01*
X20292Y48984D02*
X20588D01*
Y49536D01*
X20292D02*
X20588D01*
X20292Y48984D02*
Y49536D01*
X22351Y43186D02*
Y43918D01*
X22729D01*
Y43186D02*
Y43918D01*
X22351Y43186D02*
X22729D01*
X14082Y49388D02*
X14780D01*
X14082D02*
Y49732D01*
X14780D01*
Y49388D02*
Y49732D01*
X20249Y43536D02*
X21591D01*
Y42784D02*
Y43536D01*
X20249Y42784D02*
X21591D01*
X20249D02*
Y43536D01*
X24643Y50476D02*
X24957D01*
Y51204D01*
X24643D02*
X24957D01*
X24643Y50476D02*
Y51204D01*
X14933Y46374D02*
Y46826D01*
X14067D02*
X14933D01*
X14067Y46374D02*
Y46826D01*
Y46374D02*
X14933D01*
X23311Y50894D02*
Y52626D01*
X22169Y50894D02*
X23311D01*
X22169D02*
Y52626D01*
X23311D01*
X24524Y52672D02*
X24996D01*
X24524Y51688D02*
Y52672D01*
Y51688D02*
X24996D01*
Y52672D01*
X20332Y46596D02*
X20628D01*
X20332Y46044D02*
Y46596D01*
Y46044D02*
X20628D01*
Y46596D01*
X19564Y46090D02*
X20356D01*
X19564Y44590D02*
Y46090D01*
Y44590D02*
X20356D01*
Y46090D01*
X15812Y51282D02*
X16108D01*
Y51833D01*
X15812D02*
X16108D01*
X15812Y51282D02*
Y51833D01*
X17552Y45244D02*
Y45796D01*
X17848D01*
Y45244D02*
Y45796D01*
X17552Y45244D02*
X17848D01*
X20672Y47527D02*
X20968D01*
Y48078D01*
X20672D02*
X20968D01*
X20672Y47527D02*
Y48078D01*
X18412Y51976D02*
X18708D01*
X18412Y51424D02*
Y51976D01*
Y51424D02*
X18708D01*
Y51976D01*
X16504Y51330D02*
X17296D01*
Y52830D01*
X16504D02*
X17296D01*
X16504Y51330D02*
Y52830D01*
X14796Y47125D02*
Y48626D01*
X14004Y47125D02*
X14796D01*
X14004D02*
Y48626D01*
X14796D01*
X20628Y51624D02*
Y52176D01*
X20332Y51624D02*
X20628D01*
X20332D02*
Y52176D01*
X20628D01*
X18554Y45887D02*
X19006D01*
X18554Y45021D02*
Y45887D01*
Y45021D02*
X19006D01*
Y45887D01*
X19934Y50773D02*
X20386D01*
X19934Y49907D02*
Y50773D01*
Y49907D02*
X20386D01*
Y50773D01*
X17634Y52293D02*
X18086D01*
X17634Y51427D02*
Y52293D01*
Y51427D02*
X18086D01*
Y52293D01*
X25564Y52692D02*
X26036D01*
X25564Y51708D02*
Y52692D01*
Y51708D02*
X26036D01*
Y52692D01*
X25663Y50476D02*
X25977D01*
Y51204D01*
X25663D02*
X25977D01*
X25663Y50476D02*
Y51204D01*
X22026Y41071D02*
X22758D01*
X22026D02*
Y41449D01*
X22758D01*
Y41071D02*
Y41449D01*
M02*
