G04*
G04 #@! TF.GenerationSoftware,Altium Limited,Altium Designer,21.6.4 (81)*
G04*
G04 Layer_Color=8388736*
%FSLAX24Y24*%
%MOIN*%
G70*
G04*
G04 #@! TF.SameCoordinates,8E317252-C3AD-47CA-8584-9DD6DEF08156*
G04*
G04*
G04 #@! TF.FilePolarity,Negative*
G04*
G01*
G75*
%ADD21R,0.0315X0.0315*%
%ADD22R,0.0182X0.0218*%
%ADD23R,0.0515X0.0396*%
%ADD24R,0.0276X0.0256*%
%ADD25R,0.0398X0.0476*%
%ADD26R,0.0197X0.0157*%
%ADD27R,0.0259X0.0277*%
%ADD28R,0.0242X0.0225*%
%ADD29R,0.0396X0.0554*%
%ADD30R,0.0236X0.0236*%
%ADD31R,0.0256X0.0276*%
%ADD32R,0.0669X0.0315*%
%ADD33R,0.0315X0.0315*%
%ADD42R,0.0277X0.0259*%
%ADD43R,0.0710X0.0395*%
%ADD44C,0.0552*%
%ADD45R,0.1178X0.0371*%
%ADD46R,0.0277X0.0966*%
%ADD47R,0.0887X0.1655*%
%ADD48R,0.0887X0.1458*%
%ADD49R,0.0375X0.0415*%
%ADD50R,0.0690X0.0434*%
%ADD51R,0.0690X0.1320*%
%ADD52R,0.0415X0.0375*%
%ADD53R,0.0670X0.0160*%
%ADD54R,0.1270X0.0920*%
%ADD55R,0.0257X0.0257*%
%ADD56C,0.1143*%
%ADD57C,0.0316*%
D21*
X19430Y43110D02*
D03*
X18839D02*
D03*
D22*
X14220Y50421D02*
D03*
Y50700D02*
D03*
D23*
X20500Y52720D02*
D03*
Y53292D02*
D03*
D24*
X13360Y50528D02*
D03*
Y51060D02*
D03*
X18780Y45188D02*
D03*
Y45720D02*
D03*
X20160Y50074D02*
D03*
Y50606D02*
D03*
X17860Y51594D02*
D03*
Y52126D02*
D03*
D25*
X21520Y50296D02*
D03*
Y49664D02*
D03*
X19960Y45024D02*
D03*
Y45656D02*
D03*
X16900Y52396D02*
D03*
Y51764D02*
D03*
X14400Y48191D02*
D03*
Y47560D02*
D03*
D26*
X20440Y49417D02*
D03*
Y49103D02*
D03*
X20480Y46163D02*
D03*
Y46477D02*
D03*
X15960Y51715D02*
D03*
Y51400D02*
D03*
X17700Y45363D02*
D03*
Y45677D02*
D03*
X20820Y47960D02*
D03*
Y47645D02*
D03*
X18560Y51543D02*
D03*
Y51857D02*
D03*
X20480Y52057D02*
D03*
Y51743D02*
D03*
D27*
X22540Y43384D02*
D03*
Y43720D02*
D03*
D28*
X14600Y49560D02*
D03*
X14263D02*
D03*
D29*
X20546Y43160D02*
D03*
X21294D02*
D03*
D30*
X24800Y51047D02*
D03*
Y50633D02*
D03*
X25820Y51047D02*
D03*
Y50633D02*
D03*
D31*
X14234Y46600D02*
D03*
X14766D02*
D03*
D32*
X22740Y52429D02*
D03*
Y51091D02*
D03*
D33*
X24760Y51885D02*
D03*
Y52475D02*
D03*
X25800Y51905D02*
D03*
Y52495D02*
D03*
D42*
X22560Y41260D02*
D03*
X22224D02*
D03*
D43*
X13420Y52191D02*
D03*
Y53529D02*
D03*
D44*
X24860Y40640D02*
D03*
X24720Y53440D02*
D03*
X17869Y43134D02*
D03*
X20800Y41220D02*
D03*
X18820Y40380D02*
D03*
X26140Y43705D02*
D03*
D45*
X16658Y39640D02*
D03*
X18260Y37640D02*
D03*
Y39140D02*
D03*
Y39640D02*
D03*
X16658Y39140D02*
D03*
Y38640D02*
D03*
X18260D02*
D03*
X16658Y38140D02*
D03*
X18260D02*
D03*
X16658Y37640D02*
D03*
D46*
X23451Y39490D02*
D03*
X23136D02*
D03*
X22821D02*
D03*
X22506D02*
D03*
X22191D02*
D03*
D47*
X24760Y37827D02*
D03*
X20882D02*
D03*
D48*
Y39500D02*
D03*
X24760D02*
D03*
D49*
X21394Y48480D02*
D03*
X21886D02*
D03*
D50*
X23590Y43306D02*
D03*
Y42400D02*
D03*
Y41494D02*
D03*
D51*
X26050Y42400D02*
D03*
D52*
X15500Y52288D02*
D03*
Y52780D02*
D03*
D53*
X26100Y47431D02*
D03*
Y46249D02*
D03*
Y47037D02*
D03*
Y45855D02*
D03*
Y47234D02*
D03*
Y46840D02*
D03*
Y46446D02*
D03*
Y46052D02*
D03*
Y45658D02*
D03*
Y46643D02*
D03*
D54*
X25320Y45009D02*
D03*
Y48080D02*
D03*
D55*
X19400Y51577D02*
D03*
Y51263D02*
D03*
D56*
X26040Y36780D02*
D03*
X12660D02*
D03*
X26020Y53520D02*
D03*
D57*
X22360Y45580D02*
D03*
X22060Y41880D02*
D03*
X12890Y46990D02*
D03*
X12860Y43900D02*
D03*
Y41140D02*
D03*
X12820Y38520D02*
D03*
X24020Y45020D02*
D03*
X25816Y40205D02*
D03*
X23920Y38640D02*
D03*
X14820Y39280D02*
D03*
X14280Y45200D02*
D03*
X22996Y44515D02*
D03*
X23420Y49680D02*
D03*
X19396Y52758D02*
D03*
X21660Y52780D02*
D03*
X13860Y36920D02*
D03*
X16520Y53900D02*
D03*
X23920Y53520D02*
D03*
X21880Y43720D02*
D03*
X16600Y43560D02*
D03*
X16500Y42440D02*
D03*
X15420Y43700D02*
D03*
X15960Y44480D02*
D03*
X18440Y41060D02*
D03*
X18015Y42370D02*
D03*
X18442Y50960D02*
D03*
X23640Y46660D02*
D03*
X23680Y47180D02*
D03*
X16300Y51040D02*
D03*
X19980Y46660D02*
D03*
X21150Y47190D02*
D03*
X22010Y47610D02*
D03*
X17020Y40680D02*
D03*
X21400Y53560D02*
D03*
X24820Y49620D02*
D03*
X25800D02*
D03*
X19360Y39320D02*
D03*
X19285Y37831D02*
D03*
X26200Y38780D02*
D03*
X23120Y38380D02*
D03*
X21680Y37780D02*
D03*
X15188Y41601D02*
D03*
X15620Y37880D02*
D03*
X22760Y40440D02*
D03*
X22140Y40380D02*
D03*
X20580Y48560D02*
D03*
X15060Y48700D02*
D03*
X15647Y50993D02*
D03*
X23040Y49140D02*
D03*
X19840Y47280D02*
D03*
X17220Y51040D02*
D03*
X16599Y45410D02*
D03*
X21060Y52080D02*
D03*
X15020Y48180D02*
D03*
X16240Y46120D02*
D03*
M02*
