M48
;Layer_Color=9474304
;FILE_FORMAT=2:5
INCH,LZ
;TYPE=PLATED
T1F00S00C0.00984
T2F00S00C0.01575
%
T01
X0164496Y0474055
X01658Y049
X01762Y04928
X0178796
X0185Y04942
X01832Y0505302
X01772Y04994
X0162
X01644Y05024
X016Y0504
T02
X01562Y03788
X01702Y04068
X0165985Y0454095
X01624Y04612
X02364Y04666
X02402Y04502
X02276Y04044
X02214Y04038
X02368Y04718
X02304Y04914
X02058Y04856
X0184416Y0509599
X01722Y05104
X01502Y04818
M30
