M48
;Layer_Color=9474304
;FILE_FORMAT=2:5
INCH,LZ
;TYPE=PLATED
T1F00S00C0.00984
T2F00S00C0.01575
T3F00S00C0.01600
T4F00S00C0.09449
%
T01
X0161417Y0464802
X0177357Y0473563
X018Y04738
Y04712
X0184948Y0471197
X0184917Y0486561
X01876Y0484
X01904Y04994
X01696
X0167
Y04968
X0162
X01594Y04892
T02
X0151884Y0416013
X01936Y03932
X0192848Y0378306
X02168Y03778
X02312Y03838
X0262Y03878
X02236Y04558
X01984Y04728
X02106Y05208
X0214Y05356
X02482Y04962
X0258
X0156475Y0509925
X01506Y0487
T03
X01386Y03692
X01282Y03852
X01286Y04114
Y0439
X01428Y0452
X01542Y0437
X01482Y03928
X0165Y04244
X0166Y04356
X01596Y04448
X0180154Y04237
X01844Y04106
X02206Y04188
X02188Y04372
X0229964Y0445151
X01998Y04666
X02392Y03864
X0258165Y0402049
X02201Y04761
X02115Y04719
X02342Y04968
X02392Y05352
X02166Y05278
X0193955Y0527577
X01652Y0539
X01289Y04699
T04
X01266Y03678
X02604
X02602Y05352
M30
