G04*
G04 #@! TF.GenerationSoftware,Altium Limited,Altium Designer,21.6.4 (81)*
G04*
G04 Layer_Color=32896*
%FSLAX24Y24*%
%MOIN*%
G70*
G04*
G04 #@! TF.SameCoordinates,8E317252-C3AD-47CA-8584-9DD6DEF08156*
G04*
G04*
G04 #@! TF.FilePolarity,Positive*
G04*
G01*
G75*
%ADD10C,0.0079*%
D10*
X18643Y43327D02*
X19627D01*
Y42893D02*
Y43327D01*
X18643Y42893D02*
X19627D01*
X18643D02*
Y43327D01*
X14050Y50233D02*
Y50888D01*
X14390D01*
Y50233D02*
Y50888D01*
X14050Y50233D02*
X14390D01*
X20185Y52483D02*
Y53529D01*
X20815D01*
Y52483D02*
Y53529D01*
X20185Y52483D02*
X20815D01*
X13134Y51227D02*
X13586D01*
X13134Y50361D02*
Y51227D01*
Y50361D02*
X13586D01*
Y51227D01*
X21124Y49230D02*
X21916D01*
Y50730D01*
X21124D02*
X21916D01*
X21124Y49230D02*
Y50730D01*
X20292Y48984D02*
X20588D01*
Y49536D01*
X20292D02*
X20588D01*
X20292Y48984D02*
Y49536D01*
X22351Y43186D02*
Y43918D01*
X22729D01*
Y43186D02*
Y43918D01*
X22351Y43186D02*
X22729D01*
X14082Y49388D02*
X14780D01*
X14082D02*
Y49732D01*
X14780D01*
Y49388D02*
Y49732D01*
X20249Y43536D02*
X21591D01*
Y42784D02*
Y43536D01*
X20249Y42784D02*
X21591D01*
X20249D02*
Y43536D01*
X24643Y50476D02*
X24957D01*
Y51204D01*
X24643D02*
X24957D01*
X24643Y50476D02*
Y51204D01*
X14933Y46374D02*
Y46826D01*
X14067D02*
X14933D01*
X14067Y46374D02*
Y46826D01*
Y46374D02*
X14933D01*
X23311Y50894D02*
Y52626D01*
X22169Y50894D02*
X23311D01*
X22169D02*
Y52626D01*
X23311D01*
X24524Y52672D02*
X24996D01*
X24524Y51688D02*
Y52672D01*
Y51688D02*
X24996D01*
Y52672D01*
X20332Y46596D02*
X20628D01*
X20332Y46044D02*
Y46596D01*
Y46044D02*
X20628D01*
Y46596D01*
X19564Y46090D02*
X20356D01*
X19564Y44590D02*
Y46090D01*
Y44590D02*
X20356D01*
Y46090D01*
X15812Y51282D02*
X16108D01*
Y51833D01*
X15812D02*
X16108D01*
X15812Y51282D02*
Y51833D01*
X17552Y45244D02*
Y45796D01*
X17848D01*
Y45244D02*
Y45796D01*
X17552Y45244D02*
X17848D01*
X20672Y47527D02*
X20968D01*
Y48078D01*
X20672D02*
X20968D01*
X20672Y47527D02*
Y48078D01*
X18412Y51976D02*
X18708D01*
X18412Y51424D02*
Y51976D01*
Y51424D02*
X18708D01*
Y51976D01*
X16504Y51330D02*
X17296D01*
Y52830D01*
X16504D02*
X17296D01*
X16504Y51330D02*
Y52830D01*
X14796Y47125D02*
Y48626D01*
X14004Y47125D02*
X14796D01*
X14004D02*
Y48626D01*
X14796D01*
X20628Y51624D02*
Y52176D01*
X20332Y51624D02*
X20628D01*
X20332D02*
Y52176D01*
X20628D01*
X18554Y45887D02*
X19006D01*
X18554Y45021D02*
Y45887D01*
Y45021D02*
X19006D01*
Y45887D01*
X19934Y50773D02*
X20386D01*
X19934Y49907D02*
Y50773D01*
Y49907D02*
X20386D01*
Y50773D01*
X17634Y52293D02*
X18086D01*
X17634Y51427D02*
Y52293D01*
Y51427D02*
X18086D01*
Y52293D01*
X25564Y52692D02*
X26036D01*
X25564Y51708D02*
Y52692D01*
Y51708D02*
X26036D01*
Y52692D01*
X25663Y50476D02*
X25977D01*
Y51204D01*
X25663D02*
X25977D01*
X25663Y50476D02*
Y51204D01*
X22026Y41071D02*
X22758D01*
X22026D02*
Y41449D01*
X22758D01*
Y41071D02*
Y41449D01*
M02*
