G04*
G04 #@! TF.GenerationSoftware,Altium Limited,Altium Designer,21.6.4 (81)*
G04*
G04 Layer_Color=16711935*
%FSLAX24Y24*%
%MOIN*%
G70*
G04*
G04 #@! TF.SameCoordinates,8E317252-C3AD-47CA-8584-9DD6DEF08156*
G04*
G04*
G04 #@! TF.FilePolarity,Negative*
G04*
G01*
G75*
%ADD26R,0.0197X0.0157*%
%ADD28R,0.0242X0.0225*%
%ADD44C,0.0552*%
%ADD53R,0.0670X0.0160*%
%ADD54R,0.1270X0.0920*%
%ADD55R,0.0257X0.0257*%
%ADD56C,0.1143*%
%ADD57C,0.0316*%
%ADD76R,0.0257X0.0277*%
%ADD77R,0.0257X0.0257*%
%ADD78R,0.0415X0.0513*%
%ADD79R,0.0690X0.0611*%
%ADD80R,0.0541X0.0789*%
%ADD81R,0.0828X0.0611*%
%ADD82R,0.0552X0.0474*%
%ADD83R,0.0375X0.0513*%
D26*
X16900Y48720D02*
D03*
Y49035D02*
D03*
D28*
X17857Y49720D02*
D03*
X17520D02*
D03*
D44*
X21554Y45451D02*
D03*
X18074Y38211D02*
D03*
D53*
X26080Y47392D02*
D03*
Y47194D02*
D03*
Y46997D02*
D03*
Y46800D02*
D03*
Y46603D02*
D03*
Y46210D02*
D03*
Y45816D02*
D03*
Y46406D02*
D03*
Y46013D02*
D03*
Y45619D02*
D03*
D54*
X25300Y44970D02*
D03*
Y48040D02*
D03*
D55*
X19900Y39957D02*
D03*
Y39643D02*
D03*
D56*
X26040Y36780D02*
D03*
X12660D02*
D03*
X26020Y53520D02*
D03*
D57*
X22360Y45580D02*
D03*
X22060Y41880D02*
D03*
X12890Y46990D02*
D03*
X12860Y43900D02*
D03*
Y41140D02*
D03*
X12820Y38520D02*
D03*
X25816Y40205D02*
D03*
X23920Y38640D02*
D03*
X14820Y39280D02*
D03*
X14280Y45200D02*
D03*
X22996Y44515D02*
D03*
X23420Y49680D02*
D03*
X19396Y52758D02*
D03*
X21660Y52780D02*
D03*
X13860Y36920D02*
D03*
X16520Y53900D02*
D03*
X23920Y53520D02*
D03*
X21880Y43720D02*
D03*
X16600Y43560D02*
D03*
X16500Y42440D02*
D03*
X15420Y43700D02*
D03*
X15960Y44480D02*
D03*
X18440Y41060D02*
D03*
X18015Y42370D02*
D03*
X19980Y46660D02*
D03*
X21150Y47190D02*
D03*
X22010Y47610D02*
D03*
X21400Y53560D02*
D03*
X24820Y49620D02*
D03*
X25800D02*
D03*
X19360Y39320D02*
D03*
X19285Y37831D02*
D03*
X26200Y38780D02*
D03*
X23120Y38380D02*
D03*
X21680Y37780D02*
D03*
X15188Y41601D02*
D03*
X15060Y48700D02*
D03*
X15647Y50993D02*
D03*
X19840Y47280D02*
D03*
X21060Y52080D02*
D03*
D76*
X19920Y37408D02*
D03*
Y37112D02*
D03*
X19940Y38235D02*
D03*
Y37940D02*
D03*
X25580Y38552D02*
D03*
Y38848D02*
D03*
X25600Y37928D02*
D03*
Y37632D02*
D03*
X19880Y38732D02*
D03*
Y39028D02*
D03*
D77*
X20145Y41400D02*
D03*
X20460D02*
D03*
D78*
X22854Y36649D02*
D03*
X22421D02*
D03*
X24153D02*
D03*
X21988D02*
D03*
X23287D02*
D03*
X23720D02*
D03*
X21555D02*
D03*
D79*
X20586Y36698D02*
D03*
D80*
X25043Y36787D02*
D03*
D81*
X24246Y40911D02*
D03*
X21895D02*
D03*
D82*
X20517Y39070D02*
D03*
Y40527D02*
D03*
D83*
X24566Y36649D02*
D03*
M02*
