G04*
G04 #@! TF.GenerationSoftware,Altium Limited,Altium Designer,21.6.4 (81)*
G04*
G04 Layer_Physical_Order=4*
G04 Layer_Color=16711680*
%FSLAX24Y24*%
%MOIN*%
G70*
G04*
G04 #@! TF.SameCoordinates,8E317252-C3AD-47CA-8584-9DD6DEF08156*
G04*
G04*
G04 #@! TF.FilePolarity,Positive*
G04*
G01*
G75*
%ADD13C,0.0050*%
%ADD14C,0.0100*%
%ADD26R,0.0197X0.0157*%
%ADD28R,0.0242X0.0225*%
%ADD39R,0.0630X0.0120*%
%ADD40R,0.1230X0.0880*%
%ADD41R,0.0177X0.0177*%
%ADD58C,0.0080*%
%ADD59C,0.0472*%
%ADD60C,0.0150*%
%ADD61C,0.0070*%
%ADD63C,0.1063*%
%ADD64C,0.0236*%
%ADD65C,0.0150*%
%ADD66R,0.0177X0.0197*%
%ADD67R,0.0177X0.0177*%
%ADD68R,0.0335X0.0433*%
%ADD69R,0.0610X0.0531*%
%ADD70R,0.0461X0.0709*%
%ADD71R,0.0748X0.0531*%
%ADD72R,0.0472X0.0394*%
%ADD73R,0.0295X0.0433*%
%ADD74R,0.0374X0.0413*%
%ADD75R,0.0413X0.0374*%
G36*
X26640Y53804D02*
X26590Y53794D01*
X26580Y53819D01*
X26511Y53923D01*
X26423Y54011D01*
X26319Y54080D01*
X26204Y54127D01*
X26082Y54152D01*
X25958D01*
X25836Y54127D01*
X25721Y54080D01*
X25617Y54011D01*
X25529Y53923D01*
X25460Y53819D01*
X25413Y53704D01*
X25389Y53582D01*
Y53458D01*
X25413Y53336D01*
X25460Y53221D01*
X25529Y53117D01*
X25617Y53029D01*
X25721Y52960D01*
X25836Y52913D01*
X25958Y52888D01*
X26082D01*
X26204Y52913D01*
X26319Y52960D01*
X26423Y53029D01*
X26511Y53117D01*
X26580Y53221D01*
X26590Y53246D01*
X26640Y53236D01*
Y37109D01*
X26590Y37094D01*
X26531Y37183D01*
X26443Y37271D01*
X26339Y37340D01*
X26224Y37387D01*
X26102Y37411D01*
X25978D01*
X25856Y37387D01*
X25741Y37340D01*
X25637Y37271D01*
X25549Y37183D01*
X25480Y37079D01*
X25433Y36964D01*
X25423Y36916D01*
X25373Y36921D01*
Y37241D01*
X25093D01*
Y36787D01*
Y36333D01*
X25373D01*
Y36639D01*
X25423Y36644D01*
X25433Y36596D01*
X25480Y36481D01*
X25549Y36377D01*
X25637Y36289D01*
X25741Y36220D01*
X25856Y36173D01*
X25970Y36150D01*
X25965Y36100D01*
X23332D01*
X23313Y36146D01*
X23388Y36221D01*
X23419Y36267D01*
X23430Y36322D01*
X23478Y36333D01*
X23670D01*
Y36649D01*
Y36966D01*
X23243D01*
X23224Y37012D01*
X23666Y37454D01*
X23705Y37512D01*
X23718Y37580D01*
Y38462D01*
X23768Y38483D01*
X23796Y38455D01*
X23870Y38425D01*
Y38640D01*
Y38855D01*
X23796Y38825D01*
X23768Y38797D01*
X23718Y38818D01*
Y40390D01*
X23765Y40409D01*
X25335Y38838D01*
X24052Y37555D01*
X24021Y37508D01*
X24010Y37454D01*
X24010Y37454D01*
Y36966D01*
X23770D01*
Y36649D01*
Y36333D01*
X24993D01*
Y36787D01*
Y37241D01*
X24839D01*
X24820Y37287D01*
X24986Y37454D01*
X25411D01*
Y37434D01*
X25789D01*
Y37887D01*
X25792Y37904D01*
X25789Y37921D01*
Y38126D01*
X25758D01*
Y38354D01*
X25769D01*
Y38374D01*
X25949D01*
X26017Y38388D01*
X26075Y38426D01*
X26211Y38562D01*
X26243D01*
X26324Y38595D01*
X26385Y38656D01*
X26418Y38737D01*
Y38746D01*
X26471Y38799D01*
X26510Y38857D01*
X26523Y38925D01*
X26523Y38925D01*
Y45315D01*
X26523Y45315D01*
X26510Y45383D01*
X26493Y45409D01*
X26495Y45458D01*
X26495Y45458D01*
Y45655D01*
Y45779D01*
X26080D01*
Y45852D01*
X26495D01*
Y46049D01*
Y46173D01*
X26080D01*
Y46246D01*
X26495D01*
Y46444D01*
Y46567D01*
X25665D01*
Y46549D01*
X25578D01*
X24673Y47454D01*
X24692Y47500D01*
X25665D01*
Y47442D01*
X26030D01*
Y47551D01*
X26015D01*
Y48580D01*
X25078D01*
X25059Y48626D01*
X25834Y49402D01*
X25843D01*
X25924Y49435D01*
X25985Y49496D01*
X26018Y49577D01*
Y49663D01*
X25985Y49744D01*
X25924Y49805D01*
X25843Y49838D01*
X25757D01*
X25676Y49805D01*
X25615Y49744D01*
X25582Y49663D01*
Y49654D01*
X24806Y48878D01*
X19984D01*
X19916Y48865D01*
X19858Y48826D01*
X19558Y48526D01*
X19538Y48497D01*
X18854D01*
X18836Y48514D01*
X18787Y48535D01*
X18733D01*
X18684Y48514D01*
X18646Y48476D01*
X18625Y48427D01*
Y48373D01*
X18646Y48324D01*
X18684Y48286D01*
X18733Y48265D01*
X18787D01*
X18836Y48286D01*
X18854Y48303D01*
X19538D01*
X19558Y48274D01*
X19616Y48235D01*
X19684Y48222D01*
X19752Y48235D01*
X19810Y48274D01*
X20058Y48522D01*
X24585D01*
Y47607D01*
X24539Y47588D01*
X24158Y47969D01*
X24112Y48000D01*
X24057Y48011D01*
X24057Y48011D01*
X20066D01*
X20012Y48000D01*
X19966Y47969D01*
X19966Y47969D01*
X19583Y47587D01*
X19552Y47540D01*
X19541Y47486D01*
X19542Y47481D01*
X19471Y47410D01*
X19450Y47378D01*
X19443Y47341D01*
Y46647D01*
X19266Y46470D01*
X19261Y46471D01*
X19207Y46460D01*
X19160Y46429D01*
X18954Y46223D01*
X16173D01*
X16113Y46283D01*
X16120Y46332D01*
X16157Y46346D01*
X16168D01*
X16218Y46366D01*
X16235Y46384D01*
X18420D01*
X18457Y46391D01*
X18489Y46412D01*
X18848Y46772D01*
X18869Y46803D01*
X18877Y46840D01*
Y47885D01*
X18869Y47922D01*
X18848Y47954D01*
X17947Y48856D01*
Y49232D01*
X17413D01*
Y49132D01*
X17058D01*
Y49174D01*
X16742D01*
Y49132D01*
X16685D01*
X16297Y49520D01*
Y49586D01*
X16314Y49604D01*
X16335Y49653D01*
Y49707D01*
X16314Y49756D01*
X16276Y49794D01*
X16227Y49815D01*
X16173D01*
X16124Y49794D01*
X16086Y49756D01*
X16065Y49707D01*
Y49653D01*
X16086Y49604D01*
X16103Y49586D01*
Y49480D01*
X16111Y49443D01*
X16132Y49412D01*
X16577Y48967D01*
X16608Y48946D01*
X16645Y48938D01*
X16676D01*
X16702Y48899D01*
Y48770D01*
X16900D01*
X17098D01*
Y48899D01*
X17124Y48938D01*
X17413D01*
Y48739D01*
X17382Y48702D01*
X17373D01*
Y48465D01*
X17680D01*
X17987D01*
Y48477D01*
X18033Y48496D01*
X18683Y47845D01*
Y46880D01*
X18639Y46835D01*
X18601Y46851D01*
X18591Y46859D01*
Y47026D01*
X18609Y47043D01*
X18629Y47093D01*
Y47146D01*
X18609Y47196D01*
X18571Y47234D01*
X18522Y47254D01*
X18468D01*
X18418Y47234D01*
X18381Y47196D01*
X18360Y47146D01*
Y47093D01*
X18381Y47043D01*
X18398Y47026D01*
Y46895D01*
X18360Y46857D01*
X16065D01*
X16028Y46849D01*
X15997Y46828D01*
X15898Y46730D01*
X15877Y46699D01*
X15870Y46662D01*
Y46432D01*
X15866Y46429D01*
X15835Y46383D01*
X15824Y46328D01*
Y46227D01*
X15824Y46227D01*
X15835Y46173D01*
X15866Y46126D01*
X16013Y45979D01*
X16013Y45979D01*
X16059Y45948D01*
X16114Y45937D01*
X16114Y45937D01*
X19013D01*
X19013Y45937D01*
X19068Y45948D01*
X19114Y45979D01*
X19362Y46227D01*
X19393Y46274D01*
X19404Y46328D01*
X19403Y46333D01*
X19608Y46538D01*
X19629Y46570D01*
X19637Y46607D01*
Y47104D01*
X19687Y47125D01*
X19716Y47095D01*
X19797Y47062D01*
X19856D01*
X19990Y46928D01*
X19969Y46878D01*
X19937D01*
X19856Y46845D01*
X19795Y46784D01*
X19765Y46710D01*
X19980D01*
Y46660D01*
X20030D01*
Y46445D01*
X20104Y46475D01*
X20165Y46536D01*
X20198Y46617D01*
Y46649D01*
X20248Y46670D01*
X20737Y46181D01*
Y45720D01*
X20737Y45720D01*
X20748Y45665D01*
X20779Y45619D01*
X21048Y45350D01*
X21048Y45350D01*
X21094Y45319D01*
X21149Y45308D01*
X21248D01*
X21285Y45245D01*
X21347Y45182D01*
X21424Y45138D01*
X21509Y45115D01*
X21598D01*
X21683Y45138D01*
X21760Y45182D01*
X21823Y45245D01*
X21867Y45321D01*
X21890Y45407D01*
Y45495D01*
X21867Y45581D01*
X21823Y45657D01*
X21760Y45720D01*
X21683Y45764D01*
X21598Y45787D01*
X21509D01*
X21424Y45764D01*
X21347Y45720D01*
X21285Y45657D01*
X21254Y45604D01*
X21202Y45600D01*
X21023Y45779D01*
Y46097D01*
X24584D01*
X24589Y46047D01*
X24539Y46037D01*
X24481Y45999D01*
X24241Y45758D01*
X22490D01*
X22484Y45765D01*
X22403Y45798D01*
X22317D01*
X22236Y45765D01*
X22175Y45704D01*
X22142Y45623D01*
Y45537D01*
X22175Y45456D01*
X22236Y45395D01*
X22317Y45362D01*
X22403D01*
X22484Y45395D01*
X22490Y45402D01*
X24315D01*
X24383Y45415D01*
X24441Y45454D01*
X24681Y45694D01*
X25294D01*
X25431Y45556D01*
X25412Y45510D01*
X24585D01*
Y44430D01*
X26015D01*
Y45327D01*
X26061Y45346D01*
X26167Y45241D01*
Y38999D01*
X26166Y38998D01*
X26157D01*
X26076Y38965D01*
X26015Y38904D01*
X25992Y38848D01*
X25875Y38731D01*
X25769D01*
Y39046D01*
X25545D01*
X25531Y39049D01*
X25531Y39049D01*
X25528D01*
X24078Y40499D01*
X24097Y40545D01*
X24720D01*
Y41277D01*
X23772D01*
Y40871D01*
X23725Y40852D01*
X21996Y42581D01*
X21950Y42612D01*
X21895Y42623D01*
X21895Y42623D01*
X19199D01*
X15643Y46179D01*
Y46328D01*
X15632Y46383D01*
X15601Y46429D01*
X15597Y46432D01*
Y46740D01*
X15880Y47023D01*
X17906D01*
X17924Y47006D01*
X17973Y46985D01*
X18027D01*
X18076Y47006D01*
X18114Y47044D01*
X18135Y47093D01*
Y47147D01*
X18114Y47196D01*
X18092Y47218D01*
X18082Y47250D01*
X18092Y47282D01*
X18114Y47304D01*
X18135Y47353D01*
Y47407D01*
X18114Y47456D01*
X18076Y47494D01*
X18027Y47515D01*
X17999D01*
X17825Y47688D01*
X17794Y47709D01*
X17757Y47717D01*
X17105D01*
X17072Y47753D01*
X17072Y47767D01*
Y48010D01*
X16785D01*
Y48060D01*
X16735D01*
Y48367D01*
X16498D01*
Y48358D01*
X16461Y48327D01*
X16448Y48327D01*
X16297D01*
Y48660D01*
X16289Y48697D01*
X16268Y48728D01*
X16075Y48922D01*
Y48947D01*
X16054Y48996D01*
X16016Y49034D01*
X15967Y49055D01*
X15913D01*
X15864Y49034D01*
X15826Y48996D01*
X15805Y48947D01*
Y48893D01*
X15826Y48844D01*
X15864Y48806D01*
X15913Y48785D01*
X15938D01*
X16103Y48620D01*
Y48327D01*
X15968D01*
Y47793D01*
X16448D01*
X16461Y47793D01*
X16467Y47789D01*
X16468Y47766D01*
X16422Y47717D01*
X15280D01*
X15243Y47709D01*
X15212Y47688D01*
X15189Y47666D01*
X15184Y47667D01*
X15129Y47656D01*
X15083Y47625D01*
X14499Y47041D01*
X14468Y46995D01*
X14457Y46940D01*
X14457Y46940D01*
Y45397D01*
X14411Y45377D01*
X14404Y45385D01*
X14330Y45415D01*
Y45200D01*
Y44985D01*
X14404Y45015D01*
X14411Y45023D01*
X14457Y45003D01*
Y43080D01*
X14457Y43080D01*
X14468Y43025D01*
X14499Y42979D01*
X19062Y38417D01*
X19042Y38370D01*
X18370D01*
X18343Y38417D01*
X18280Y38480D01*
X18203Y38524D01*
X18118Y38547D01*
X18029D01*
X17944Y38524D01*
X17867Y38480D01*
X17805Y38417D01*
X17760Y38341D01*
X17737Y38255D01*
Y38167D01*
X17760Y38081D01*
X17805Y38005D01*
X17867Y37942D01*
X17944Y37898D01*
X18029Y37875D01*
X18118D01*
X18203Y37898D01*
X18280Y37942D01*
X18343Y38005D01*
X18387Y38081D01*
X18388Y38085D01*
X19198D01*
X19208Y38035D01*
X19161Y38015D01*
X19100Y37954D01*
X19067Y37874D01*
Y37787D01*
X19100Y37707D01*
X19161Y37646D01*
X19241Y37612D01*
X19251D01*
X19582Y37281D01*
X19582Y37281D01*
X19639Y37243D01*
X19708Y37229D01*
X19731D01*
Y36914D01*
X20109D01*
Y36970D01*
X20181D01*
Y36748D01*
X20586D01*
Y36648D01*
X20181D01*
Y36333D01*
X20181D01*
X20171Y36287D01*
X16495D01*
X15331Y37451D01*
Y41436D01*
X15373Y41478D01*
X15407Y41558D01*
Y41645D01*
X15373Y41725D01*
X15312Y41786D01*
X15232Y41819D01*
X15145D01*
X15065Y41786D01*
X15004Y41725D01*
X14970Y41645D01*
Y41558D01*
X15004Y41478D01*
X15046Y41436D01*
Y39428D01*
X15039Y39424D01*
X14996Y39413D01*
X14944Y39465D01*
X14870Y39495D01*
Y39280D01*
Y39065D01*
X14944Y39095D01*
X14996Y39147D01*
X15039Y39136D01*
X15046Y39132D01*
Y37392D01*
X15046Y37392D01*
X15057Y37337D01*
X15087Y37291D01*
X16232Y36146D01*
X16213Y36100D01*
X12735D01*
X12730Y36150D01*
X12844Y36173D01*
X12959Y36220D01*
X13063Y36289D01*
X13151Y36377D01*
X13220Y36481D01*
X13267Y36596D01*
X13291Y36718D01*
Y36842D01*
X13267Y36964D01*
X13220Y37079D01*
X13151Y37183D01*
X13063Y37271D01*
X12959Y37340D01*
X12844Y37387D01*
X12722Y37411D01*
X12598D01*
X12476Y37387D01*
X12361Y37340D01*
X12257Y37271D01*
X12169Y37183D01*
X12130Y37123D01*
X12080Y37139D01*
Y53020D01*
X15200D01*
Y54300D01*
X26640D01*
Y53804D01*
D02*
G37*
G36*
X25294Y46429D02*
X25275Y46383D01*
X20939D01*
X20058Y47264D01*
Y47323D01*
X20025Y47404D01*
X19964Y47465D01*
X19936Y47477D01*
X19926Y47526D01*
X20126Y47725D01*
X21777D01*
X21804Y47684D01*
X21795Y47660D01*
X22225D01*
X22216Y47684D01*
X22243Y47725D01*
X23998D01*
X25294Y46429D01*
D02*
G37*
G36*
X17643Y47473D02*
X17624Y47453D01*
X15596D01*
X15559Y47446D01*
X15528Y47425D01*
X15189Y47086D01*
X15184Y47087D01*
X15129Y47076D01*
X15083Y47045D01*
X14793Y46755D01*
X14743Y46774D01*
Y46881D01*
X15285Y47423D01*
X15316Y47469D01*
X15327Y47523D01*
X17621D01*
X17643Y47473D01*
D02*
G37*
G36*
X21936Y41695D02*
X22017Y41662D01*
X22026D01*
X22361Y41327D01*
X22340Y41277D01*
X22333Y41277D01*
X22333Y41277D01*
X22331Y41277D01*
X21421D01*
Y40545D01*
X22369D01*
X22369Y41239D01*
Y41240D01*
Y41240D01*
X22369Y41248D01*
X22382Y41253D01*
X22419Y41268D01*
X22607Y41081D01*
X22607Y41081D01*
X22665Y41042D01*
X22729Y41029D01*
X23362Y40396D01*
Y38497D01*
X23312Y38487D01*
X23305Y38504D01*
X23244Y38565D01*
X23163Y38598D01*
X23104D01*
X22869Y38833D01*
X22822Y38864D01*
X22768Y38875D01*
X22768Y38875D01*
X20853D01*
Y39367D01*
X20464D01*
Y39540D01*
X20453Y39595D01*
X20422Y39641D01*
X20422Y39641D01*
X20131Y39932D01*
X20120Y39939D01*
X20089Y39971D01*
Y40146D01*
X19855D01*
Y40857D01*
X20209Y41211D01*
X20317D01*
Y40824D01*
X20181D01*
Y40230D01*
X20853D01*
Y40824D01*
X20603D01*
Y41211D01*
X20649D01*
Y41589D01*
X20598D01*
X20579Y41635D01*
X20646Y41702D01*
X21930D01*
X21936Y41695D01*
D02*
G37*
G36*
X15804Y47210D02*
X15803Y47209D01*
X15772Y47188D01*
X15432Y46848D01*
X15411Y46817D01*
X15403Y46780D01*
Y46432D01*
X15399Y46429D01*
X15368Y46383D01*
X15357Y46328D01*
Y46120D01*
X15357Y46120D01*
X15368Y46065D01*
X15399Y46019D01*
X19039Y42379D01*
X19039Y42379D01*
X19085Y42348D01*
X19140Y42337D01*
X21836D01*
X22029Y42144D01*
X22008Y42095D01*
X21936Y42065D01*
X21930Y42058D01*
X20572D01*
X20504Y42045D01*
X20446Y42006D01*
X20446Y42006D01*
X20110Y41671D01*
X20072Y41613D01*
X20067Y41589D01*
X19956D01*
Y41464D01*
X19550Y41058D01*
X19512Y41000D01*
X19498Y40931D01*
Y39744D01*
X19512Y39676D01*
X19550Y39618D01*
X19638Y39530D01*
X19696Y39491D01*
X19711Y39488D01*
Y39454D01*
X20089D01*
Y39505D01*
X20135Y39524D01*
X20178Y39481D01*
Y39227D01*
X20178Y39227D01*
X20181Y39213D01*
Y38875D01*
X20069D01*
Y39226D01*
X19884D01*
X19866Y39229D01*
X19703D01*
X19578Y39354D01*
Y39363D01*
X19545Y39444D01*
X19484Y39505D01*
X19403Y39538D01*
X19317D01*
X19286Y39526D01*
X19245Y39553D01*
Y41818D01*
X19245Y41818D01*
X19234Y41873D01*
X19203Y41919D01*
X19203Y41919D01*
X15023Y46099D01*
Y46581D01*
X15285Y46843D01*
X15316Y46889D01*
X15327Y46944D01*
X15326Y46949D01*
X15636Y47260D01*
X15799D01*
X15804Y47210D01*
D02*
G37*
G36*
X25391Y38425D02*
Y38354D01*
X25402D01*
Y37957D01*
X25411Y37908D01*
Y37811D01*
X24912D01*
X24844Y37797D01*
X24786Y37759D01*
X24786Y37759D01*
X24445Y37417D01*
X24406Y37359D01*
X24393Y37291D01*
Y36966D01*
X24296D01*
Y37395D01*
X25345Y38444D01*
X25391Y38425D01*
D02*
G37*
G36*
X15970Y44748D02*
X15949Y44698D01*
X15917D01*
X15836Y44665D01*
X15775Y44604D01*
X15745Y44530D01*
X15960D01*
Y44480D01*
X16010D01*
Y44265D01*
X16084Y44295D01*
X16145Y44356D01*
X16178Y44437D01*
Y44469D01*
X16228Y44490D01*
X18088Y42630D01*
X18065Y42596D01*
Y42420D01*
X18242D01*
X18275Y42443D01*
X18959Y41759D01*
Y39213D01*
X18959Y39213D01*
X18970Y39158D01*
X19001Y39112D01*
X19423Y38690D01*
X19423Y38690D01*
X19470Y38659D01*
X19524Y38648D01*
X19524Y38648D01*
X19691D01*
Y38534D01*
X20069D01*
Y38590D01*
X22709D01*
X22902Y38396D01*
Y38337D01*
X22935Y38256D01*
X22996Y38195D01*
X23077Y38162D01*
X23163D01*
X23244Y38195D01*
X23305Y38256D01*
X23312Y38273D01*
X23362Y38263D01*
Y37654D01*
X22820Y37112D01*
X22781Y37054D01*
X22768Y36986D01*
Y36966D01*
X22436D01*
Y37767D01*
X22436Y37767D01*
X22425Y37821D01*
X22394Y37868D01*
X22394Y37868D01*
X21933Y38329D01*
X21887Y38360D01*
X21832Y38370D01*
X21832Y38370D01*
X20129D01*
Y38434D01*
X19751D01*
Y38370D01*
X19511D01*
X14743Y43139D01*
Y45906D01*
X14793Y45925D01*
X15970Y44748D01*
D02*
G37*
G36*
X22151Y37707D02*
Y36966D01*
X22003D01*
Y37600D01*
X22003Y37600D01*
X21992Y37654D01*
X21961Y37701D01*
X21961Y37701D01*
X21898Y37764D01*
Y37823D01*
X21865Y37904D01*
X21804Y37965D01*
X21723Y37998D01*
X21637D01*
X21556Y37965D01*
X21495Y37904D01*
X21462Y37823D01*
Y37737D01*
X21495Y37656D01*
X21556Y37595D01*
X21637Y37562D01*
X21696D01*
X21718Y37541D01*
Y36966D01*
X21489D01*
X21241Y37213D01*
X21195Y37244D01*
X21141Y37255D01*
X21141Y37255D01*
X20109D01*
Y37606D01*
X20095D01*
Y37742D01*
X20129D01*
Y38037D01*
Y38085D01*
X21773D01*
X22151Y37707D01*
D02*
G37*
G36*
X13530Y53789D02*
X13481D01*
Y53835D01*
X13530D01*
Y53789D01*
D02*
G37*
G36*
X13072D02*
X13023D01*
Y53835D01*
X13072D01*
Y53789D01*
D02*
G37*
G36*
X14306Y53579D02*
X14256D01*
Y53671D01*
X14256Y53680D01*
X14256Y53687D01*
X14255Y53693D01*
X14254Y53698D01*
X14253Y53702D01*
X14253Y53704D01*
X14252Y53706D01*
Y53707D01*
X14250Y53711D01*
X14248Y53714D01*
X14246Y53717D01*
X14243Y53720D01*
X14241Y53722D01*
X14239Y53723D01*
X14238Y53724D01*
X14238Y53724D01*
X14234Y53727D01*
X14231Y53728D01*
X14227Y53729D01*
X14223Y53730D01*
X14221Y53730D01*
X14218Y53731D01*
X14216D01*
X14212Y53730D01*
X14209Y53730D01*
X14206Y53729D01*
X14203Y53728D01*
X14201Y53727D01*
X14199Y53727D01*
X14199Y53726D01*
X14198Y53726D01*
X14196Y53724D01*
X14194Y53722D01*
X14191Y53718D01*
X14190Y53716D01*
X14189Y53715D01*
X14188Y53714D01*
Y53713D01*
X14188Y53711D01*
X14187Y53710D01*
X14186Y53704D01*
X14186Y53698D01*
X14186Y53692D01*
X14185Y53686D01*
Y53683D01*
Y53681D01*
Y53679D01*
Y53677D01*
Y53677D01*
Y53676D01*
Y53579D01*
X14136D01*
Y53687D01*
Y53696D01*
X14137Y53704D01*
X14137Y53710D01*
X14137Y53715D01*
X14138Y53719D01*
X14138Y53722D01*
X14139Y53724D01*
Y53724D01*
X14140Y53728D01*
X14141Y53733D01*
X14143Y53736D01*
X14145Y53740D01*
X14146Y53742D01*
X14147Y53744D01*
X14148Y53745D01*
X14148Y53746D01*
X14151Y53749D01*
X14155Y53752D01*
X14158Y53755D01*
X14161Y53757D01*
X14164Y53759D01*
X14167Y53761D01*
X14168Y53761D01*
X14169Y53762D01*
X14174Y53764D01*
X14180Y53765D01*
X14185Y53767D01*
X14189Y53768D01*
X14194Y53768D01*
X14197Y53768D01*
X14200D01*
X14206Y53768D01*
X14212Y53767D01*
X14217Y53766D01*
X14222Y53764D01*
X14232Y53760D01*
X14236Y53757D01*
X14240Y53754D01*
X14244Y53751D01*
X14247Y53749D01*
X14250Y53747D01*
X14252Y53744D01*
X14254Y53742D01*
X14255Y53741D01*
X14256Y53740D01*
X14256Y53740D01*
Y53835D01*
X14306D01*
Y53579D01*
D02*
G37*
G36*
X15100D02*
X15048D01*
Y53691D01*
X14947D01*
Y53579D01*
X14895D01*
Y53835D01*
X14947D01*
Y53734D01*
X15048D01*
Y53835D01*
X15100D01*
Y53579D01*
D02*
G37*
G36*
X14783Y53768D02*
X14788Y53767D01*
X14794Y53766D01*
X14799Y53765D01*
X14803Y53764D01*
X14807Y53763D01*
X14811Y53762D01*
X14814Y53761D01*
X14817Y53759D01*
X14819Y53758D01*
X14821Y53757D01*
X14823Y53756D01*
X14824Y53756D01*
X14824Y53755D01*
X14825D01*
X14831Y53750D01*
X14836Y53743D01*
X14841Y53737D01*
X14844Y53730D01*
X14847Y53724D01*
X14848Y53722D01*
X14849Y53720D01*
X14850Y53718D01*
X14850Y53716D01*
X14850Y53715D01*
Y53715D01*
X14806Y53707D01*
X14804Y53711D01*
X14803Y53715D01*
X14801Y53718D01*
X14798Y53721D01*
X14797Y53723D01*
X14795Y53724D01*
X14795Y53725D01*
X14794Y53725D01*
X14791Y53727D01*
X14788Y53728D01*
X14784Y53729D01*
X14781Y53730D01*
X14778Y53730D01*
X14776Y53731D01*
X14774D01*
X14767Y53730D01*
X14761Y53730D01*
X14757Y53729D01*
X14753Y53728D01*
X14751Y53726D01*
X14749Y53725D01*
X14748Y53725D01*
X14747Y53724D01*
X14745Y53722D01*
X14743Y53719D01*
X14742Y53715D01*
X14741Y53712D01*
X14740Y53709D01*
X14740Y53706D01*
Y53705D01*
Y53704D01*
Y53699D01*
X14743Y53698D01*
X14746Y53697D01*
X14753Y53695D01*
X14761Y53693D01*
X14769Y53691D01*
X14776Y53689D01*
X14780Y53688D01*
X14783Y53688D01*
X14785Y53688D01*
X14787Y53687D01*
X14788Y53687D01*
X14788D01*
X14797Y53685D01*
X14805Y53683D01*
X14812Y53681D01*
X14817Y53680D01*
X14822Y53678D01*
X14825Y53677D01*
X14827Y53676D01*
X14827Y53676D01*
X14832Y53673D01*
X14836Y53670D01*
X14840Y53667D01*
X14842Y53664D01*
X14845Y53661D01*
X14847Y53659D01*
X14848Y53657D01*
X14848Y53657D01*
X14851Y53652D01*
X14852Y53647D01*
X14854Y53643D01*
X14854Y53638D01*
X14855Y53634D01*
X14855Y53631D01*
Y53630D01*
Y53629D01*
X14855Y53624D01*
X14855Y53620D01*
X14853Y53613D01*
X14850Y53606D01*
X14847Y53600D01*
X14844Y53596D01*
X14842Y53593D01*
X14840Y53590D01*
X14839Y53590D01*
Y53590D01*
X14832Y53584D01*
X14825Y53581D01*
X14818Y53578D01*
X14810Y53576D01*
X14804Y53575D01*
X14801Y53575D01*
X14799D01*
X14797Y53575D01*
X14794D01*
X14788Y53575D01*
X14782Y53576D01*
X14777Y53576D01*
X14773Y53577D01*
X14769Y53579D01*
X14766Y53580D01*
X14764Y53580D01*
X14763Y53580D01*
X14758Y53583D01*
X14753Y53586D01*
X14749Y53589D01*
X14744Y53592D01*
X14741Y53594D01*
X14739Y53597D01*
X14737Y53598D01*
X14736Y53599D01*
X14736Y53597D01*
X14735Y53595D01*
X14735Y53594D01*
X14734Y53593D01*
Y53593D01*
X14733Y53590D01*
X14733Y53587D01*
X14732Y53584D01*
X14731Y53582D01*
X14730Y53581D01*
X14730Y53579D01*
X14730Y53579D01*
Y53579D01*
X14681D01*
X14683Y53583D01*
X14685Y53588D01*
X14687Y53592D01*
X14688Y53596D01*
X14689Y53599D01*
X14690Y53601D01*
X14690Y53603D01*
Y53603D01*
X14691Y53608D01*
X14691Y53614D01*
X14692Y53620D01*
Y53626D01*
X14692Y53631D01*
Y53635D01*
Y53637D01*
Y53638D01*
Y53639D01*
Y53639D01*
X14692Y53697D01*
Y53703D01*
X14692Y53708D01*
X14692Y53713D01*
X14693Y53717D01*
X14693Y53721D01*
X14694Y53725D01*
X14694Y53728D01*
X14695Y53731D01*
X14696Y53733D01*
X14696Y53735D01*
X14697Y53738D01*
X14698Y53740D01*
X14698Y53741D01*
X14701Y53745D01*
X14704Y53749D01*
X14708Y53752D01*
X14712Y53755D01*
X14716Y53757D01*
X14719Y53759D01*
X14720Y53760D01*
X14721Y53760D01*
X14721D01*
X14724Y53762D01*
X14728Y53763D01*
X14736Y53765D01*
X14744Y53767D01*
X14751Y53767D01*
X14759Y53768D01*
X14762D01*
X14764Y53768D01*
X14777D01*
X14783Y53768D01*
D02*
G37*
G36*
X13669D02*
X13675Y53767D01*
X13680Y53766D01*
X13685Y53765D01*
X13690Y53764D01*
X13694Y53763D01*
X13697Y53762D01*
X13700Y53761D01*
X13703Y53759D01*
X13705Y53758D01*
X13708Y53757D01*
X13709Y53756D01*
X13710Y53756D01*
X13711Y53755D01*
X13711D01*
X13717Y53750D01*
X13722Y53743D01*
X13727Y53737D01*
X13731Y53730D01*
X13733Y53724D01*
X13734Y53722D01*
X13735Y53720D01*
X13736Y53718D01*
X13736Y53716D01*
X13737Y53715D01*
Y53715D01*
X13693Y53707D01*
X13691Y53711D01*
X13689Y53715D01*
X13687Y53718D01*
X13685Y53721D01*
X13683Y53723D01*
X13682Y53724D01*
X13681Y53725D01*
X13681Y53725D01*
X13678Y53727D01*
X13674Y53728D01*
X13671Y53729D01*
X13667Y53730D01*
X13664Y53730D01*
X13662Y53731D01*
X13660D01*
X13653Y53730D01*
X13648Y53730D01*
X13643Y53729D01*
X13640Y53728D01*
X13637Y53726D01*
X13635Y53725D01*
X13634Y53725D01*
X13634Y53724D01*
X13631Y53722D01*
X13629Y53719D01*
X13628Y53715D01*
X13627Y53712D01*
X13627Y53709D01*
X13626Y53706D01*
Y53705D01*
Y53704D01*
Y53699D01*
X13629Y53698D01*
X13632Y53697D01*
X13639Y53695D01*
X13647Y53693D01*
X13655Y53691D01*
X13663Y53689D01*
X13666Y53688D01*
X13669Y53688D01*
X13671Y53688D01*
X13673Y53687D01*
X13674Y53687D01*
X13674D01*
X13683Y53685D01*
X13691Y53683D01*
X13698Y53681D01*
X13704Y53680D01*
X13708Y53678D01*
X13711Y53677D01*
X13713Y53676D01*
X13714Y53676D01*
X13718Y53673D01*
X13722Y53670D01*
X13726Y53667D01*
X13729Y53664D01*
X13731Y53661D01*
X13733Y53659D01*
X13734Y53657D01*
X13734Y53657D01*
X13737Y53652D01*
X13739Y53647D01*
X13740Y53643D01*
X13741Y53638D01*
X13741Y53634D01*
X13742Y53631D01*
Y53630D01*
Y53629D01*
X13741Y53624D01*
X13741Y53620D01*
X13739Y53613D01*
X13737Y53606D01*
X13734Y53600D01*
X13731Y53596D01*
X13728Y53593D01*
X13726Y53590D01*
X13725Y53590D01*
Y53590D01*
X13719Y53584D01*
X13711Y53581D01*
X13704Y53578D01*
X13697Y53576D01*
X13690Y53575D01*
X13687Y53575D01*
X13685D01*
X13683Y53575D01*
X13680D01*
X13674Y53575D01*
X13668Y53576D01*
X13663Y53576D01*
X13659Y53577D01*
X13655Y53579D01*
X13652Y53580D01*
X13650Y53580D01*
X13650Y53580D01*
X13644Y53583D01*
X13639Y53586D01*
X13635Y53589D01*
X13631Y53592D01*
X13627Y53594D01*
X13625Y53597D01*
X13623Y53598D01*
X13623Y53599D01*
X13622Y53597D01*
X13621Y53595D01*
X13621Y53594D01*
X13621Y53593D01*
Y53593D01*
X13620Y53590D01*
X13619Y53587D01*
X13618Y53584D01*
X13617Y53582D01*
X13617Y53581D01*
X13616Y53579D01*
X13616Y53579D01*
Y53579D01*
X13567D01*
X13570Y53583D01*
X13572Y53588D01*
X13573Y53592D01*
X13574Y53596D01*
X13575Y53599D01*
X13576Y53601D01*
X13576Y53603D01*
Y53603D01*
X13577Y53608D01*
X13577Y53614D01*
X13578Y53620D01*
Y53626D01*
X13579Y53631D01*
Y53635D01*
Y53637D01*
Y53638D01*
Y53639D01*
Y53639D01*
X13578Y53697D01*
Y53703D01*
X13578Y53708D01*
X13579Y53713D01*
X13579Y53717D01*
X13579Y53721D01*
X13580Y53725D01*
X13580Y53728D01*
X13581Y53731D01*
X13582Y53733D01*
X13582Y53735D01*
X13583Y53738D01*
X13584Y53740D01*
X13584Y53741D01*
X13587Y53745D01*
X13591Y53749D01*
X13594Y53752D01*
X13599Y53755D01*
X13602Y53757D01*
X13605Y53759D01*
X13607Y53760D01*
X13607Y53760D01*
X13607D01*
X13611Y53762D01*
X13614Y53763D01*
X13622Y53765D01*
X13630Y53767D01*
X13638Y53767D01*
X13645Y53768D01*
X13648D01*
X13651Y53768D01*
X13663D01*
X13669Y53768D01*
D02*
G37*
G36*
X12913D02*
X12919Y53767D01*
X12924Y53766D01*
X12929Y53765D01*
X12934Y53764D01*
X12938Y53763D01*
X12941Y53762D01*
X12944Y53761D01*
X12947Y53759D01*
X12950Y53758D01*
X12952Y53757D01*
X12953Y53756D01*
X12954Y53756D01*
X12955Y53755D01*
X12955D01*
X12961Y53750D01*
X12967Y53743D01*
X12971Y53737D01*
X12975Y53730D01*
X12977Y53724D01*
X12978Y53722D01*
X12979Y53720D01*
X12980Y53718D01*
X12980Y53716D01*
X12981Y53715D01*
Y53715D01*
X12937Y53707D01*
X12935Y53711D01*
X12933Y53715D01*
X12931Y53718D01*
X12929Y53721D01*
X12927Y53723D01*
X12926Y53724D01*
X12925Y53725D01*
X12925Y53725D01*
X12922Y53727D01*
X12918Y53728D01*
X12915Y53729D01*
X12911Y53730D01*
X12908Y53730D01*
X12906Y53731D01*
X12904D01*
X12897Y53730D01*
X12892Y53730D01*
X12887Y53729D01*
X12884Y53728D01*
X12881Y53726D01*
X12879Y53725D01*
X12878Y53725D01*
X12878Y53724D01*
X12875Y53722D01*
X12873Y53719D01*
X12872Y53715D01*
X12871Y53712D01*
X12871Y53709D01*
X12870Y53706D01*
Y53705D01*
Y53704D01*
Y53699D01*
X12873Y53698D01*
X12876Y53697D01*
X12883Y53695D01*
X12891Y53693D01*
X12899Y53691D01*
X12907Y53689D01*
X12910Y53688D01*
X12913Y53688D01*
X12915Y53688D01*
X12917Y53687D01*
X12918Y53687D01*
X12918D01*
X12927Y53685D01*
X12936Y53683D01*
X12942Y53681D01*
X12948Y53680D01*
X12952Y53678D01*
X12955Y53677D01*
X12957Y53676D01*
X12958Y53676D01*
X12963Y53673D01*
X12967Y53670D01*
X12970Y53667D01*
X12973Y53664D01*
X12975Y53661D01*
X12977Y53659D01*
X12978Y53657D01*
X12978Y53657D01*
X12981Y53652D01*
X12983Y53647D01*
X12984Y53643D01*
X12985Y53638D01*
X12985Y53634D01*
X12986Y53631D01*
Y53630D01*
Y53629D01*
X12985Y53624D01*
X12985Y53620D01*
X12983Y53613D01*
X12981Y53606D01*
X12978Y53600D01*
X12975Y53596D01*
X12972Y53593D01*
X12970Y53590D01*
X12970Y53590D01*
Y53590D01*
X12963Y53584D01*
X12955Y53581D01*
X12948Y53578D01*
X12941Y53576D01*
X12934Y53575D01*
X12931Y53575D01*
X12929D01*
X12927Y53575D01*
X12924D01*
X12918Y53575D01*
X12913Y53576D01*
X12907Y53576D01*
X12903Y53577D01*
X12899Y53579D01*
X12896Y53580D01*
X12894Y53580D01*
X12894Y53580D01*
X12889Y53583D01*
X12883Y53586D01*
X12879Y53589D01*
X12875Y53592D01*
X12871Y53594D01*
X12869Y53597D01*
X12867Y53598D01*
X12867Y53599D01*
X12866Y53597D01*
X12866Y53595D01*
X12865Y53594D01*
X12865Y53593D01*
Y53593D01*
X12864Y53590D01*
X12863Y53587D01*
X12862Y53584D01*
X12861Y53582D01*
X12861Y53581D01*
X12860Y53579D01*
X12860Y53579D01*
Y53579D01*
X12812D01*
X12814Y53583D01*
X12816Y53588D01*
X12817Y53592D01*
X12819Y53596D01*
X12819Y53599D01*
X12820Y53601D01*
X12820Y53603D01*
Y53603D01*
X12821Y53608D01*
X12822Y53614D01*
X12822Y53620D01*
Y53626D01*
X12823Y53631D01*
Y53635D01*
Y53637D01*
Y53638D01*
Y53639D01*
Y53639D01*
X12822Y53697D01*
Y53703D01*
X12822Y53708D01*
X12823Y53713D01*
X12823Y53717D01*
X12823Y53721D01*
X12824Y53725D01*
X12824Y53728D01*
X12825Y53731D01*
X12826Y53733D01*
X12826Y53735D01*
X12827Y53738D01*
X12828Y53740D01*
X12829Y53741D01*
X12832Y53745D01*
X12835Y53749D01*
X12839Y53752D01*
X12843Y53755D01*
X12846Y53757D01*
X12849Y53759D01*
X12851Y53760D01*
X12851Y53760D01*
X12852D01*
X12855Y53762D01*
X12858Y53763D01*
X12866Y53765D01*
X12874Y53767D01*
X12882Y53767D01*
X12889Y53768D01*
X12892D01*
X12895Y53768D01*
X12907D01*
X12913Y53768D01*
D02*
G37*
G36*
X14562Y53768D02*
X14566Y53768D01*
X14570Y53767D01*
X14573Y53765D01*
X14575Y53764D01*
X14578Y53764D01*
X14579Y53763D01*
X14579Y53762D01*
X14583Y53760D01*
X14586Y53756D01*
X14590Y53752D01*
X14593Y53748D01*
X14596Y53744D01*
X14598Y53741D01*
X14599Y53738D01*
X14600Y53738D01*
Y53764D01*
X14645D01*
Y53579D01*
X14596D01*
Y53636D01*
Y53644D01*
Y53652D01*
X14596Y53659D01*
X14595Y53665D01*
Y53671D01*
X14595Y53676D01*
X14595Y53681D01*
X14594Y53684D01*
X14594Y53688D01*
X14593Y53691D01*
X14593Y53693D01*
Y53695D01*
X14593Y53696D01*
X14592Y53697D01*
Y53698D01*
X14591Y53703D01*
X14589Y53707D01*
X14587Y53711D01*
X14585Y53714D01*
X14584Y53716D01*
X14582Y53717D01*
X14582Y53718D01*
X14581Y53718D01*
X14578Y53720D01*
X14575Y53722D01*
X14572Y53723D01*
X14570Y53724D01*
X14568Y53724D01*
X14565Y53724D01*
X14564D01*
X14560Y53724D01*
X14556Y53723D01*
X14552Y53722D01*
X14548Y53720D01*
X14545Y53719D01*
X14543Y53717D01*
X14541Y53717D01*
X14541Y53716D01*
X14525Y53759D01*
X14531Y53762D01*
X14537Y53764D01*
X14542Y53766D01*
X14548Y53767D01*
X14552Y53768D01*
X14555Y53768D01*
X14558D01*
X14562Y53768D01*
D02*
G37*
G36*
X13986Y53579D02*
X13935D01*
Y53686D01*
X13918D01*
X13913Y53685D01*
X13908Y53685D01*
X13905Y53684D01*
X13902Y53684D01*
X13900Y53683D01*
X13899Y53683D01*
X13898D01*
X13895Y53681D01*
X13892Y53680D01*
X13890Y53678D01*
X13887Y53676D01*
X13885Y53674D01*
X13884Y53673D01*
X13883Y53672D01*
X13883Y53672D01*
X13881Y53670D01*
X13879Y53668D01*
X13875Y53663D01*
X13871Y53657D01*
X13866Y53650D01*
X13862Y53644D01*
X13860Y53641D01*
X13859Y53639D01*
X13857Y53637D01*
X13856Y53636D01*
X13856Y53634D01*
X13855Y53634D01*
X13818Y53579D01*
X13756D01*
X13788Y53629D01*
X13791Y53634D01*
X13794Y53639D01*
X13797Y53643D01*
X13800Y53647D01*
X13803Y53651D01*
X13805Y53655D01*
X13809Y53660D01*
X13813Y53665D01*
X13815Y53668D01*
X13817Y53670D01*
X13817Y53670D01*
X13821Y53674D01*
X13826Y53678D01*
X13831Y53682D01*
X13835Y53685D01*
X13839Y53688D01*
X13842Y53690D01*
X13844Y53691D01*
X13844Y53691D01*
X13845D01*
X13838Y53693D01*
X13833Y53694D01*
X13828Y53696D01*
X13822Y53697D01*
X13818Y53699D01*
X13814Y53701D01*
X13810Y53703D01*
X13806Y53705D01*
X13804Y53707D01*
X13801Y53709D01*
X13799Y53711D01*
X13797Y53712D01*
X13796Y53713D01*
X13795Y53714D01*
X13794Y53715D01*
X13794Y53715D01*
X13791Y53719D01*
X13788Y53723D01*
X13784Y53731D01*
X13781Y53738D01*
X13779Y53746D01*
X13778Y53753D01*
X13777Y53755D01*
Y53758D01*
X13777Y53760D01*
Y53762D01*
Y53762D01*
Y53763D01*
X13777Y53771D01*
X13779Y53779D01*
X13781Y53785D01*
X13782Y53791D01*
X13785Y53796D01*
X13786Y53800D01*
X13787Y53801D01*
X13788Y53802D01*
X13788Y53802D01*
Y53803D01*
X13793Y53809D01*
X13798Y53814D01*
X13802Y53818D01*
X13807Y53822D01*
X13812Y53824D01*
X13815Y53826D01*
X13817Y53827D01*
X13818Y53828D01*
X13818D01*
X13822Y53829D01*
X13826Y53830D01*
X13835Y53832D01*
X13845Y53833D01*
X13855Y53834D01*
X13859D01*
X13863Y53834D01*
X13868D01*
X13871Y53835D01*
X13986D01*
Y53579D01*
D02*
G37*
G36*
X13130Y53768D02*
X13134Y53768D01*
X13138Y53767D01*
X13141Y53765D01*
X13143Y53764D01*
X13146Y53764D01*
X13147Y53763D01*
X13147Y53762D01*
X13151Y53760D01*
X13154Y53756D01*
X13158Y53752D01*
X13161Y53748D01*
X13164Y53744D01*
X13166Y53741D01*
X13167Y53738D01*
X13168Y53738D01*
Y53764D01*
X13213D01*
Y53579D01*
X13164D01*
Y53636D01*
Y53644D01*
Y53652D01*
X13164Y53659D01*
X13163Y53665D01*
Y53671D01*
X13163Y53676D01*
X13163Y53681D01*
X13162Y53684D01*
X13162Y53688D01*
X13162Y53691D01*
X13161Y53693D01*
Y53695D01*
X13161Y53696D01*
X13160Y53697D01*
Y53698D01*
X13159Y53703D01*
X13157Y53707D01*
X13155Y53711D01*
X13153Y53714D01*
X13152Y53716D01*
X13150Y53717D01*
X13150Y53718D01*
X13149Y53718D01*
X13146Y53720D01*
X13143Y53722D01*
X13140Y53723D01*
X13138Y53724D01*
X13136Y53724D01*
X13133Y53724D01*
X13132D01*
X13128Y53724D01*
X13124Y53723D01*
X13120Y53722D01*
X13116Y53720D01*
X13113Y53719D01*
X13111Y53717D01*
X13109Y53717D01*
X13109Y53716D01*
X13093Y53759D01*
X13099Y53762D01*
X13105Y53764D01*
X13111Y53766D01*
X13116Y53767D01*
X13120Y53768D01*
X13123Y53768D01*
X13126D01*
X13130Y53768D01*
D02*
G37*
G36*
X13072Y53579D02*
X13023D01*
Y53764D01*
X13072D01*
Y53579D01*
D02*
G37*
G36*
X14451Y53768D02*
X14457Y53767D01*
X14463Y53766D01*
X14468Y53765D01*
X14473Y53763D01*
X14477Y53762D01*
X14481Y53760D01*
X14485Y53758D01*
X14488Y53757D01*
X14490Y53755D01*
X14492Y53754D01*
X14494Y53753D01*
X14495Y53752D01*
X14495Y53752D01*
X14496Y53752D01*
X14499Y53749D01*
X14502Y53745D01*
X14505Y53742D01*
X14507Y53738D01*
X14510Y53732D01*
X14512Y53725D01*
X14514Y53720D01*
X14514Y53717D01*
X14514Y53715D01*
X14515Y53714D01*
Y53713D01*
Y53712D01*
Y53711D01*
X14514Y53707D01*
X14514Y53702D01*
X14513Y53698D01*
X14511Y53694D01*
X14508Y53687D01*
X14504Y53681D01*
X14500Y53676D01*
X14496Y53673D01*
X14495Y53671D01*
X14494Y53670D01*
X14493Y53670D01*
X14493Y53670D01*
X14490Y53668D01*
X14485Y53666D01*
X14480Y53663D01*
X14474Y53661D01*
X14468Y53659D01*
X14462Y53657D01*
X14449Y53654D01*
X14443Y53652D01*
X14437Y53650D01*
X14432Y53649D01*
X14427Y53648D01*
X14423Y53647D01*
X14420Y53646D01*
X14418Y53646D01*
X14417D01*
X14413Y53644D01*
X14410Y53643D01*
X14407Y53642D01*
X14404Y53641D01*
X14403Y53640D01*
X14402Y53640D01*
X14401Y53639D01*
X14399Y53636D01*
X14398Y53633D01*
X14397Y53631D01*
Y53630D01*
Y53630D01*
X14398Y53627D01*
X14398Y53624D01*
X14400Y53622D01*
X14401Y53620D01*
X14402Y53619D01*
X14403Y53618D01*
X14404Y53617D01*
X14404Y53617D01*
X14408Y53614D01*
X14413Y53613D01*
X14417Y53612D01*
X14422Y53611D01*
X14426Y53610D01*
X14430Y53610D01*
X14433D01*
X14439Y53610D01*
X14444Y53611D01*
X14449Y53612D01*
X14453Y53614D01*
X14455Y53615D01*
X14458Y53616D01*
X14459Y53617D01*
X14460Y53617D01*
X14463Y53620D01*
X14465Y53624D01*
X14468Y53627D01*
X14470Y53631D01*
X14471Y53634D01*
X14471Y53637D01*
X14472Y53638D01*
Y53639D01*
X14521Y53631D01*
X14518Y53622D01*
X14514Y53614D01*
X14509Y53607D01*
X14505Y53601D01*
X14500Y53596D01*
X14496Y53593D01*
X14495Y53591D01*
X14494Y53590D01*
X14493Y53590D01*
X14493Y53590D01*
X14488Y53587D01*
X14484Y53584D01*
X14474Y53581D01*
X14464Y53578D01*
X14454Y53576D01*
X14450Y53576D01*
X14446Y53575D01*
X14442Y53575D01*
X14439D01*
X14436Y53575D01*
X14433D01*
X14425Y53575D01*
X14418Y53575D01*
X14411Y53576D01*
X14405Y53577D01*
X14400Y53579D01*
X14394Y53580D01*
X14390Y53582D01*
X14386Y53584D01*
X14382Y53585D01*
X14378Y53587D01*
X14376Y53589D01*
X14374Y53590D01*
X14372Y53591D01*
X14371Y53592D01*
X14370Y53592D01*
X14370Y53593D01*
X14366Y53596D01*
X14363Y53600D01*
X14360Y53604D01*
X14357Y53607D01*
X14355Y53611D01*
X14353Y53615D01*
X14351Y53622D01*
X14349Y53628D01*
X14349Y53630D01*
X14349Y53632D01*
X14348Y53634D01*
Y53636D01*
Y53636D01*
Y53637D01*
X14349Y53645D01*
X14351Y53652D01*
X14353Y53658D01*
X14356Y53664D01*
X14359Y53668D01*
X14361Y53671D01*
X14363Y53672D01*
X14364Y53673D01*
X14367Y53675D01*
X14370Y53678D01*
X14374Y53680D01*
X14379Y53682D01*
X14388Y53686D01*
X14397Y53689D01*
X14405Y53691D01*
X14409Y53692D01*
X14412Y53693D01*
X14415Y53694D01*
X14417Y53694D01*
X14418Y53695D01*
X14418D01*
X14425Y53697D01*
X14432Y53698D01*
X14437Y53700D01*
X14442Y53701D01*
X14447Y53702D01*
X14450Y53703D01*
X14453Y53704D01*
X14456Y53705D01*
X14458Y53706D01*
X14460Y53707D01*
X14462Y53707D01*
X14462Y53708D01*
X14464Y53708D01*
X14464Y53709D01*
X14466Y53710D01*
X14467Y53712D01*
X14468Y53715D01*
X14469Y53717D01*
Y53717D01*
Y53718D01*
X14469Y53720D01*
X14468Y53722D01*
X14466Y53725D01*
X14464Y53727D01*
X14464Y53728D01*
X14464D01*
X14460Y53730D01*
X14456Y53731D01*
X14451Y53732D01*
X14447Y53733D01*
X14443Y53733D01*
X14439Y53733D01*
X14436D01*
X14430Y53733D01*
X14425Y53733D01*
X14421Y53731D01*
X14418Y53730D01*
X14416Y53729D01*
X14414Y53728D01*
X14413Y53728D01*
X14412Y53727D01*
X14409Y53725D01*
X14407Y53723D01*
X14405Y53720D01*
X14403Y53717D01*
X14402Y53715D01*
X14401Y53713D01*
X14401Y53711D01*
Y53711D01*
X14354Y53720D01*
X14357Y53728D01*
X14361Y53735D01*
X14366Y53742D01*
X14370Y53747D01*
X14374Y53751D01*
X14377Y53754D01*
X14379Y53755D01*
X14380Y53756D01*
X14380D01*
X14384Y53758D01*
X14388Y53760D01*
X14397Y53763D01*
X14406Y53765D01*
X14415Y53767D01*
X14420Y53767D01*
X14424Y53768D01*
X14427Y53768D01*
X14430Y53768D01*
X14444D01*
X14451Y53768D01*
D02*
G37*
G36*
X13356Y53768D02*
X13365Y53767D01*
X13374Y53765D01*
X13381Y53762D01*
X13384Y53761D01*
X13387Y53760D01*
X13389Y53759D01*
X13391Y53758D01*
X13393Y53757D01*
X13394Y53757D01*
X13395Y53756D01*
X13395D01*
X13403Y53751D01*
X13410Y53745D01*
X13416Y53740D01*
X13421Y53734D01*
X13424Y53729D01*
X13427Y53725D01*
X13428Y53723D01*
X13429Y53722D01*
X13429Y53721D01*
Y53721D01*
X13434Y53713D01*
X13436Y53704D01*
X13438Y53696D01*
X13440Y53689D01*
X13441Y53683D01*
X13441Y53680D01*
Y53678D01*
X13441Y53677D01*
Y53675D01*
Y53674D01*
Y53674D01*
X13441Y53663D01*
X13439Y53652D01*
X13438Y53643D01*
X13436Y53639D01*
X13435Y53635D01*
X13434Y53631D01*
X13433Y53629D01*
X13432Y53626D01*
X13431Y53624D01*
X13431Y53622D01*
X13430Y53621D01*
X13429Y53620D01*
Y53620D01*
X13424Y53612D01*
X13419Y53605D01*
X13413Y53599D01*
X13407Y53594D01*
X13402Y53591D01*
X13398Y53588D01*
X13397Y53587D01*
X13395Y53586D01*
X13395Y53586D01*
X13394D01*
X13385Y53582D01*
X13377Y53579D01*
X13369Y53577D01*
X13361Y53576D01*
X13355Y53575D01*
X13352Y53575D01*
X13350D01*
X13348Y53575D01*
X13345D01*
X13338Y53575D01*
X13331Y53576D01*
X13324Y53577D01*
X13317Y53579D01*
X13311Y53581D01*
X13305Y53583D01*
X13300Y53586D01*
X13296Y53588D01*
X13291Y53591D01*
X13288Y53593D01*
X13284Y53596D01*
X13282Y53597D01*
X13280Y53599D01*
X13278Y53601D01*
X13277Y53602D01*
X13277Y53602D01*
X13272Y53607D01*
X13268Y53613D01*
X13264Y53619D01*
X13261Y53624D01*
X13259Y53630D01*
X13256Y53636D01*
X13254Y53642D01*
X13253Y53647D01*
X13252Y53652D01*
X13251Y53657D01*
X13250Y53661D01*
X13250Y53665D01*
X13250Y53668D01*
Y53670D01*
Y53671D01*
Y53672D01*
X13250Y53680D01*
X13251Y53687D01*
X13252Y53694D01*
X13254Y53700D01*
X13256Y53706D01*
X13258Y53712D01*
X13261Y53717D01*
X13263Y53722D01*
X13266Y53726D01*
X13268Y53730D01*
X13270Y53733D01*
X13273Y53736D01*
X13274Y53738D01*
X13276Y53740D01*
X13276Y53741D01*
X13277Y53741D01*
X13282Y53746D01*
X13287Y53750D01*
X13293Y53754D01*
X13299Y53757D01*
X13305Y53760D01*
X13310Y53762D01*
X13316Y53764D01*
X13321Y53765D01*
X13326Y53766D01*
X13331Y53767D01*
X13335Y53768D01*
X13339Y53768D01*
X13342Y53768D01*
X13346D01*
X13356Y53768D01*
D02*
G37*
G36*
X13530Y53587D02*
Y53583D01*
Y53579D01*
Y53576D01*
X13531Y53573D01*
X13531Y53569D01*
Y53565D01*
X13532Y53563D01*
X13532Y53561D01*
X13532Y53560D01*
Y53560D01*
X13534Y53557D01*
X13536Y53554D01*
X13538Y53553D01*
X13538Y53552D01*
X13539D01*
X13543Y53550D01*
X13546Y53549D01*
X13548D01*
X13550Y53549D01*
X13553D01*
X13555Y53549D01*
X13556Y53549D01*
X13556D01*
X13559Y53550D01*
X13560Y53550D01*
X13562Y53550D01*
X13563D01*
X13572Y53509D01*
X13564Y53507D01*
X13562Y53506D01*
X13559Y53506D01*
X13556Y53505D01*
X13555Y53505D01*
X13554Y53505D01*
X13553D01*
X13547Y53504D01*
X13545Y53503D01*
X13542D01*
X13540Y53503D01*
X13537D01*
X13530Y53503D01*
X13524Y53505D01*
X13518Y53506D01*
X13513Y53508D01*
X13509Y53509D01*
X13506Y53510D01*
X13505Y53511D01*
X13504Y53512D01*
X13500Y53515D01*
X13496Y53519D01*
X13493Y53522D01*
X13490Y53526D01*
X13488Y53529D01*
X13487Y53532D01*
X13486Y53534D01*
X13486Y53535D01*
X13485Y53538D01*
X13485Y53541D01*
X13483Y53548D01*
X13482Y53557D01*
X13482Y53565D01*
X13482Y53572D01*
X13481Y53576D01*
Y53579D01*
Y53581D01*
Y53583D01*
Y53584D01*
Y53584D01*
Y53764D01*
X13530D01*
Y53587D01*
D02*
G37*
G36*
X14814Y53299D02*
Y53191D01*
X14762D01*
Y53298D01*
X14669Y53447D01*
X14728D01*
X14787Y53346D01*
X14847Y53447D01*
X14908D01*
X14814Y53299D01*
D02*
G37*
G36*
X14453Y53440D02*
X14457Y53432D01*
X14462Y53425D01*
X14468Y53419D01*
X14472Y53414D01*
X14476Y53410D01*
X14478Y53409D01*
X14479Y53408D01*
X14480Y53407D01*
X14480Y53407D01*
X14488Y53401D01*
X14496Y53396D01*
X14503Y53392D01*
X14509Y53389D01*
X14514Y53387D01*
X14518Y53385D01*
X14519Y53385D01*
X14521Y53384D01*
X14521Y53384D01*
X14521D01*
Y53339D01*
X14508Y53345D01*
X14496Y53350D01*
X14491Y53353D01*
X14485Y53356D01*
X14481Y53359D01*
X14476Y53362D01*
X14472Y53365D01*
X14468Y53368D01*
X14465Y53370D01*
X14463Y53372D01*
X14461Y53374D01*
X14459Y53375D01*
X14458Y53376D01*
X14458Y53376D01*
Y53191D01*
X14409D01*
Y53449D01*
X14449D01*
X14453Y53440D01*
D02*
G37*
G36*
X14249Y53448D02*
X14256Y53447D01*
X14263Y53446D01*
X14270Y53444D01*
X14276Y53441D01*
X14282Y53439D01*
X14286Y53436D01*
X14291Y53433D01*
X14295Y53430D01*
X14299Y53427D01*
X14302Y53425D01*
X14304Y53422D01*
X14307Y53420D01*
X14308Y53419D01*
X14309Y53417D01*
X14309Y53417D01*
X14314Y53411D01*
X14318Y53404D01*
X14321Y53396D01*
X14324Y53388D01*
X14327Y53380D01*
X14329Y53371D01*
X14331Y53363D01*
X14332Y53355D01*
X14333Y53347D01*
X14334Y53339D01*
X14334Y53333D01*
X14335Y53327D01*
X14335Y53322D01*
Y53318D01*
Y53317D01*
Y53316D01*
Y53316D01*
Y53315D01*
X14335Y53303D01*
X14334Y53291D01*
X14333Y53281D01*
X14331Y53271D01*
X14329Y53262D01*
X14327Y53254D01*
X14325Y53247D01*
X14323Y53240D01*
X14320Y53234D01*
X14318Y53230D01*
X14316Y53225D01*
X14314Y53222D01*
X14313Y53220D01*
X14312Y53218D01*
X14311Y53217D01*
X14310Y53216D01*
X14306Y53211D01*
X14300Y53206D01*
X14295Y53202D01*
X14290Y53199D01*
X14285Y53196D01*
X14279Y53194D01*
X14274Y53191D01*
X14269Y53190D01*
X14264Y53189D01*
X14260Y53188D01*
X14256Y53187D01*
X14253Y53187D01*
X14250D01*
X14248Y53186D01*
X14246D01*
X14240Y53187D01*
X14233Y53187D01*
X14228Y53188D01*
X14222Y53190D01*
X14216Y53192D01*
X14212Y53194D01*
X14207Y53196D01*
X14203Y53198D01*
X14199Y53200D01*
X14196Y53203D01*
X14194Y53204D01*
X14191Y53206D01*
X14189Y53208D01*
X14188Y53209D01*
X14188Y53210D01*
X14187Y53210D01*
X14183Y53214D01*
X14179Y53220D01*
X14176Y53225D01*
X14174Y53230D01*
X14171Y53235D01*
X14169Y53240D01*
X14167Y53251D01*
X14166Y53255D01*
X14165Y53259D01*
X14165Y53263D01*
X14164Y53267D01*
X14164Y53269D01*
Y53271D01*
Y53273D01*
Y53273D01*
X14164Y53280D01*
X14165Y53286D01*
X14166Y53293D01*
X14167Y53298D01*
X14169Y53304D01*
X14171Y53309D01*
X14173Y53314D01*
X14175Y53318D01*
X14177Y53321D01*
X14179Y53325D01*
X14181Y53327D01*
X14183Y53330D01*
X14184Y53332D01*
X14185Y53333D01*
X14186Y53333D01*
X14186Y53334D01*
X14190Y53338D01*
X14195Y53342D01*
X14199Y53345D01*
X14203Y53348D01*
X14208Y53350D01*
X14212Y53352D01*
X14221Y53355D01*
X14224Y53356D01*
X14228Y53356D01*
X14231Y53357D01*
X14233Y53357D01*
X14236Y53358D01*
X14239D01*
X14244Y53357D01*
X14249Y53356D01*
X14253Y53356D01*
X14258Y53354D01*
X14265Y53351D01*
X14272Y53347D01*
X14277Y53343D01*
X14279Y53341D01*
X14281Y53339D01*
X14283Y53338D01*
X14284Y53337D01*
X14284Y53336D01*
X14285Y53336D01*
X14284Y53343D01*
X14283Y53351D01*
X14282Y53358D01*
X14281Y53363D01*
X14280Y53369D01*
X14279Y53373D01*
X14278Y53378D01*
X14276Y53381D01*
X14275Y53385D01*
X14275Y53387D01*
X14273Y53389D01*
X14273Y53391D01*
X14272Y53392D01*
X14271Y53393D01*
X14271Y53394D01*
X14267Y53399D01*
X14262Y53402D01*
X14258Y53405D01*
X14254Y53406D01*
X14250Y53407D01*
X14247Y53407D01*
X14245Y53408D01*
X14245D01*
X14240Y53407D01*
X14236Y53407D01*
X14233Y53406D01*
X14231Y53405D01*
X14228Y53403D01*
X14227Y53402D01*
X14226Y53401D01*
X14225Y53401D01*
X14223Y53398D01*
X14221Y53395D01*
X14219Y53391D01*
X14218Y53388D01*
X14217Y53384D01*
X14216Y53382D01*
X14216Y53380D01*
Y53379D01*
X14169Y53385D01*
X14171Y53396D01*
X14175Y53405D01*
X14179Y53413D01*
X14183Y53420D01*
X14187Y53425D01*
X14189Y53427D01*
X14191Y53429D01*
X14192Y53430D01*
X14193Y53431D01*
X14193Y53432D01*
X14194D01*
X14197Y53435D01*
X14201Y53437D01*
X14209Y53442D01*
X14217Y53444D01*
X14225Y53446D01*
X14231Y53448D01*
X14234Y53448D01*
X14237D01*
X14239Y53449D01*
X14242D01*
X14249Y53448D01*
D02*
G37*
G36*
X13708Y53380D02*
X13714Y53380D01*
X13719Y53379D01*
X13724Y53378D01*
X13729Y53377D01*
X13733Y53375D01*
X13737Y53374D01*
X13740Y53373D01*
X13742Y53372D01*
X13745Y53370D01*
X13747Y53370D01*
X13748Y53369D01*
X13750Y53368D01*
X13750Y53368D01*
X13750D01*
X13757Y53362D01*
X13762Y53356D01*
X13766Y53349D01*
X13770Y53343D01*
X13772Y53337D01*
X13774Y53334D01*
X13774Y53332D01*
X13775Y53330D01*
X13775Y53329D01*
X13776Y53328D01*
Y53328D01*
X13732Y53319D01*
X13730Y53324D01*
X13728Y53328D01*
X13726Y53331D01*
X13724Y53333D01*
X13722Y53335D01*
X13721Y53336D01*
X13720Y53337D01*
X13720Y53338D01*
X13717Y53339D01*
X13714Y53341D01*
X13710Y53342D01*
X13707Y53342D01*
X13704Y53343D01*
X13701Y53343D01*
X13699D01*
X13693Y53343D01*
X13687Y53342D01*
X13683Y53341D01*
X13679Y53340D01*
X13676Y53339D01*
X13674Y53338D01*
X13673Y53337D01*
X13673Y53337D01*
X13670Y53334D01*
X13668Y53331D01*
X13667Y53328D01*
X13666Y53325D01*
X13666Y53321D01*
X13666Y53319D01*
Y53317D01*
Y53316D01*
Y53312D01*
X13668Y53311D01*
X13671Y53309D01*
X13678Y53307D01*
X13687Y53305D01*
X13694Y53304D01*
X13702Y53302D01*
X13705Y53301D01*
X13708Y53301D01*
X13710Y53300D01*
X13712Y53300D01*
X13713Y53299D01*
X13714D01*
X13722Y53298D01*
X13731Y53296D01*
X13737Y53294D01*
X13743Y53292D01*
X13747Y53290D01*
X13750Y53289D01*
X13752Y53288D01*
X13753Y53288D01*
X13758Y53285D01*
X13762Y53282D01*
X13765Y53279D01*
X13768Y53276D01*
X13771Y53274D01*
X13772Y53271D01*
X13773Y53270D01*
X13774Y53269D01*
X13776Y53264D01*
X13778Y53259D01*
X13779Y53255D01*
X13780Y53251D01*
X13781Y53247D01*
X13781Y53244D01*
Y53242D01*
Y53241D01*
X13781Y53237D01*
X13780Y53233D01*
X13778Y53225D01*
X13776Y53218D01*
X13773Y53213D01*
X13770Y53208D01*
X13767Y53205D01*
X13765Y53203D01*
X13765Y53203D01*
Y53202D01*
X13758Y53197D01*
X13751Y53193D01*
X13743Y53191D01*
X13736Y53189D01*
X13730Y53188D01*
X13727Y53187D01*
X13724D01*
X13722Y53187D01*
X13720D01*
X13714Y53187D01*
X13708Y53188D01*
X13703Y53189D01*
X13698Y53190D01*
X13694Y53191D01*
X13691Y53192D01*
X13690Y53193D01*
X13689Y53193D01*
X13684Y53195D01*
X13678Y53198D01*
X13674Y53201D01*
X13670Y53204D01*
X13667Y53207D01*
X13664Y53209D01*
X13663Y53211D01*
X13662Y53211D01*
X13661Y53210D01*
X13661Y53208D01*
X13660Y53206D01*
X13660Y53206D01*
Y53205D01*
X13659Y53202D01*
X13658Y53199D01*
X13657Y53197D01*
X13657Y53195D01*
X13656Y53193D01*
X13656Y53192D01*
X13655Y53191D01*
Y53191D01*
X13607D01*
X13609Y53196D01*
X13611Y53200D01*
X13612Y53204D01*
X13614Y53208D01*
X13614Y53211D01*
X13615Y53214D01*
X13616Y53215D01*
Y53215D01*
X13616Y53220D01*
X13617Y53226D01*
X13617Y53232D01*
Y53238D01*
X13618Y53243D01*
Y53248D01*
Y53250D01*
Y53251D01*
Y53251D01*
Y53252D01*
X13617Y53309D01*
Y53315D01*
X13617Y53320D01*
X13618Y53325D01*
X13618Y53329D01*
X13619Y53333D01*
X13619Y53337D01*
X13620Y53341D01*
X13620Y53343D01*
X13621Y53346D01*
X13621Y53348D01*
X13623Y53351D01*
X13623Y53352D01*
X13624Y53353D01*
X13627Y53357D01*
X13630Y53361D01*
X13634Y53365D01*
X13638Y53368D01*
X13641Y53370D01*
X13644Y53371D01*
X13646Y53372D01*
X13646Y53373D01*
X13647D01*
X13650Y53374D01*
X13653Y53375D01*
X13661Y53378D01*
X13669Y53379D01*
X13677Y53380D01*
X13684Y53380D01*
X13687D01*
X13690Y53381D01*
X13702D01*
X13708Y53380D01*
D02*
G37*
G36*
X14649Y53259D02*
X14552D01*
Y53309D01*
X14649D01*
Y53259D01*
D02*
G37*
G36*
X13925Y53452D02*
X13935Y53450D01*
X13943Y53449D01*
X13952Y53446D01*
X13959Y53444D01*
X13966Y53441D01*
X13973Y53437D01*
X13979Y53434D01*
X13984Y53431D01*
X13989Y53427D01*
X13993Y53425D01*
X13996Y53422D01*
X13999Y53420D01*
X14000Y53418D01*
X14001Y53417D01*
X14002Y53416D01*
X14008Y53409D01*
X14013Y53402D01*
X14017Y53394D01*
X14021Y53386D01*
X14024Y53378D01*
X14027Y53369D01*
X14029Y53361D01*
X14031Y53353D01*
X14032Y53346D01*
X14033Y53339D01*
X14034Y53333D01*
X14034Y53328D01*
Y53323D01*
X14035Y53320D01*
Y53318D01*
Y53317D01*
Y53317D01*
X14034Y53306D01*
X14033Y53295D01*
X14032Y53285D01*
X14030Y53277D01*
X14027Y53268D01*
X14024Y53260D01*
X14021Y53253D01*
X14018Y53247D01*
X14016Y53241D01*
X14013Y53235D01*
X14010Y53231D01*
X14007Y53228D01*
X14005Y53225D01*
X14004Y53223D01*
X14003Y53222D01*
X14002Y53221D01*
X13996Y53215D01*
X13989Y53210D01*
X13982Y53205D01*
X13975Y53201D01*
X13968Y53198D01*
X13961Y53195D01*
X13954Y53193D01*
X13948Y53191D01*
X13942Y53190D01*
X13936Y53188D01*
X13931Y53188D01*
X13927Y53187D01*
X13923Y53187D01*
X13921Y53187D01*
X13919D01*
X13911Y53187D01*
X13904Y53187D01*
X13897Y53188D01*
X13890Y53190D01*
X13885Y53191D01*
X13879Y53193D01*
X13874Y53195D01*
X13869Y53197D01*
X13865Y53199D01*
X13861Y53201D01*
X13858Y53202D01*
X13855Y53204D01*
X13853Y53205D01*
X13852Y53206D01*
X13851Y53207D01*
X13851Y53207D01*
X13846Y53211D01*
X13841Y53215D01*
X13833Y53225D01*
X13826Y53236D01*
X13821Y53246D01*
X13819Y53251D01*
X13817Y53255D01*
X13816Y53259D01*
X13814Y53262D01*
X13813Y53265D01*
X13812Y53268D01*
X13812Y53269D01*
Y53269D01*
X13862Y53285D01*
X13865Y53275D01*
X13869Y53267D01*
X13872Y53259D01*
X13876Y53254D01*
X13879Y53249D01*
X13881Y53246D01*
X13883Y53244D01*
X13884Y53244D01*
X13890Y53239D01*
X13896Y53236D01*
X13902Y53234D01*
X13907Y53232D01*
X13912Y53231D01*
X13916Y53231D01*
X13917Y53231D01*
X13919D01*
X13924Y53231D01*
X13929Y53231D01*
X13938Y53234D01*
X13946Y53237D01*
X13952Y53241D01*
X13957Y53245D01*
X13961Y53248D01*
X13962Y53249D01*
X13963Y53250D01*
X13964Y53251D01*
X13964Y53251D01*
X13967Y53255D01*
X13970Y53260D01*
X13972Y53265D01*
X13974Y53271D01*
X13977Y53282D01*
X13979Y53294D01*
X13980Y53299D01*
X13980Y53304D01*
X13981Y53309D01*
Y53313D01*
X13981Y53316D01*
Y53318D01*
Y53320D01*
Y53321D01*
X13981Y53329D01*
X13981Y53337D01*
X13980Y53344D01*
X13979Y53351D01*
X13977Y53356D01*
X13976Y53362D01*
X13974Y53367D01*
X13973Y53371D01*
X13971Y53375D01*
X13970Y53378D01*
X13968Y53381D01*
X13967Y53383D01*
X13966Y53385D01*
X13965Y53386D01*
X13964Y53387D01*
Y53387D01*
X13961Y53391D01*
X13957Y53394D01*
X13953Y53397D01*
X13949Y53399D01*
X13942Y53403D01*
X13934Y53405D01*
X13928Y53407D01*
X13925Y53407D01*
X13923Y53407D01*
X13920Y53408D01*
X13918D01*
X13910Y53407D01*
X13904Y53406D01*
X13898Y53404D01*
X13893Y53402D01*
X13889Y53400D01*
X13886Y53398D01*
X13884Y53396D01*
X13883Y53396D01*
X13878Y53392D01*
X13874Y53386D01*
X13870Y53381D01*
X13868Y53376D01*
X13866Y53372D01*
X13865Y53368D01*
X13864Y53367D01*
Y53366D01*
X13864Y53365D01*
Y53365D01*
X13813Y53377D01*
X13816Y53388D01*
X13821Y53397D01*
X13825Y53405D01*
X13829Y53412D01*
X13833Y53417D01*
X13835Y53419D01*
X13836Y53421D01*
X13837Y53422D01*
X13838Y53423D01*
X13839Y53424D01*
X13839D01*
X13845Y53429D01*
X13851Y53433D01*
X13857Y53437D01*
X13863Y53440D01*
X13870Y53443D01*
X13876Y53445D01*
X13882Y53447D01*
X13888Y53449D01*
X13894Y53450D01*
X13899Y53450D01*
X13903Y53451D01*
X13907Y53452D01*
X13911Y53452D01*
X13915D01*
X13925Y53452D01*
D02*
G37*
G36*
X13149Y53414D02*
Y53377D01*
X13171D01*
Y53338D01*
X13149D01*
Y53257D01*
Y53252D01*
Y53248D01*
Y53244D01*
X13148Y53240D01*
Y53234D01*
X13148Y53230D01*
X13148Y53226D01*
Y53224D01*
X13147Y53222D01*
Y53222D01*
X13146Y53218D01*
X13145Y53214D01*
X13144Y53211D01*
X13143Y53208D01*
X13142Y53206D01*
X13141Y53204D01*
X13141Y53203D01*
X13140Y53203D01*
X13138Y53200D01*
X13136Y53198D01*
X13130Y53194D01*
X13128Y53193D01*
X13126Y53192D01*
X13125Y53192D01*
X13125Y53191D01*
X13120Y53190D01*
X13116Y53189D01*
X13112Y53188D01*
X13109Y53188D01*
X13105Y53187D01*
X13103Y53187D01*
X13101D01*
X13093Y53187D01*
X13085Y53188D01*
X13079Y53189D01*
X13073Y53191D01*
X13068Y53192D01*
X13065Y53193D01*
X13062Y53194D01*
X13062Y53194D01*
X13062D01*
X13066Y53232D01*
X13071Y53231D01*
X13075Y53230D01*
X13078Y53229D01*
X13081Y53228D01*
X13083Y53228D01*
X13085Y53228D01*
X13086D01*
X13089Y53228D01*
X13092Y53229D01*
X13093Y53230D01*
X13094Y53230D01*
X13096Y53232D01*
X13098Y53234D01*
X13098Y53235D01*
X13099Y53236D01*
Y53237D01*
X13099Y53238D01*
Y53242D01*
Y53246D01*
X13099Y53251D01*
Y53255D01*
Y53259D01*
Y53260D01*
Y53261D01*
Y53262D01*
Y53262D01*
Y53338D01*
X13066D01*
Y53377D01*
X13099D01*
Y53443D01*
X13149Y53414D01*
D02*
G37*
G36*
X12531Y53380D02*
X12537Y53380D01*
X12543Y53378D01*
X12549Y53377D01*
X12554Y53375D01*
X12559Y53373D01*
X12564Y53370D01*
X12568Y53368D01*
X12572Y53365D01*
X12575Y53363D01*
X12578Y53361D01*
X12580Y53359D01*
X12582Y53357D01*
X12584Y53356D01*
X12584Y53355D01*
X12585Y53355D01*
X12589Y53349D01*
X12593Y53344D01*
X12596Y53338D01*
X12599Y53332D01*
X12601Y53326D01*
X12603Y53320D01*
X12606Y53309D01*
X12607Y53303D01*
X12608Y53298D01*
X12608Y53294D01*
X12608Y53290D01*
X12609Y53287D01*
Y53284D01*
Y53283D01*
Y53282D01*
X12608Y53275D01*
X12608Y53268D01*
X12607Y53262D01*
X12606Y53256D01*
X12605Y53250D01*
X12603Y53245D01*
X12601Y53240D01*
X12600Y53236D01*
X12598Y53232D01*
X12596Y53228D01*
X12595Y53225D01*
X12594Y53223D01*
X12592Y53221D01*
X12591Y53220D01*
X12591Y53219D01*
X12591Y53218D01*
X12586Y53213D01*
X12581Y53208D01*
X12575Y53204D01*
X12570Y53200D01*
X12564Y53197D01*
X12558Y53195D01*
X12552Y53193D01*
X12546Y53191D01*
X12541Y53190D01*
X12536Y53189D01*
X12531Y53188D01*
X12527Y53187D01*
X12523D01*
X12521Y53187D01*
X12519D01*
X12508Y53188D01*
X12498Y53189D01*
X12490Y53191D01*
X12482Y53194D01*
X12479Y53195D01*
X12476Y53197D01*
X12474Y53198D01*
X12472Y53199D01*
X12470Y53200D01*
X12469Y53200D01*
X12469Y53201D01*
X12468D01*
X12461Y53207D01*
X12455Y53213D01*
X12450Y53220D01*
X12446Y53227D01*
X12442Y53233D01*
X12441Y53235D01*
X12440Y53238D01*
X12439Y53240D01*
X12439Y53241D01*
X12438Y53242D01*
Y53242D01*
X12487Y53250D01*
X12489Y53245D01*
X12491Y53241D01*
X12493Y53238D01*
X12495Y53235D01*
X12496Y53232D01*
X12498Y53231D01*
X12499Y53230D01*
X12499Y53230D01*
X12502Y53228D01*
X12506Y53226D01*
X12509Y53225D01*
X12512Y53224D01*
X12514Y53224D01*
X12517Y53224D01*
X12519D01*
X12524Y53224D01*
X12530Y53225D01*
X12535Y53227D01*
X12539Y53230D01*
X12543Y53232D01*
X12545Y53234D01*
X12547Y53235D01*
X12547Y53235D01*
X12551Y53240D01*
X12553Y53246D01*
X12556Y53252D01*
X12557Y53257D01*
X12558Y53262D01*
X12558Y53266D01*
X12558Y53267D01*
Y53268D01*
Y53269D01*
Y53269D01*
X12436D01*
Y53280D01*
X12436Y53289D01*
X12437Y53298D01*
X12439Y53306D01*
X12441Y53314D01*
X12443Y53321D01*
X12445Y53327D01*
X12447Y53332D01*
X12449Y53337D01*
X12452Y53342D01*
X12453Y53345D01*
X12455Y53348D01*
X12457Y53350D01*
X12458Y53352D01*
X12459Y53353D01*
X12459Y53353D01*
X12463Y53358D01*
X12469Y53362D01*
X12474Y53366D01*
X12479Y53369D01*
X12484Y53372D01*
X12490Y53374D01*
X12495Y53376D01*
X12500Y53378D01*
X12505Y53379D01*
X12510Y53379D01*
X12514Y53380D01*
X12517Y53380D01*
X12520Y53381D01*
X12524D01*
X12531Y53380D01*
D02*
G37*
G36*
X12714D02*
X12721Y53379D01*
X12726Y53378D01*
X12732Y53376D01*
X12738Y53373D01*
X12743Y53371D01*
X12748Y53368D01*
X12752Y53365D01*
X12755Y53362D01*
X12759Y53359D01*
X12762Y53357D01*
X12764Y53354D01*
X12766Y53352D01*
X12767Y53351D01*
X12768Y53350D01*
X12768Y53349D01*
Y53377D01*
X12814D01*
Y53191D01*
X12765D01*
Y53275D01*
Y53280D01*
Y53285D01*
X12764Y53290D01*
X12764Y53294D01*
Y53298D01*
X12763Y53302D01*
X12763Y53305D01*
X12763Y53308D01*
X12762Y53312D01*
X12762Y53315D01*
X12761Y53317D01*
Y53317D01*
X12759Y53321D01*
X12757Y53325D01*
X12755Y53328D01*
X12753Y53331D01*
X12751Y53333D01*
X12749Y53335D01*
X12748Y53336D01*
X12747Y53336D01*
X12743Y53338D01*
X12739Y53340D01*
X12735Y53341D01*
X12732Y53342D01*
X12729Y53343D01*
X12726Y53343D01*
X12724D01*
X12721Y53343D01*
X12717Y53342D01*
X12715Y53342D01*
X12712Y53341D01*
X12710Y53339D01*
X12708Y53339D01*
X12708Y53338D01*
X12707Y53338D01*
X12705Y53336D01*
X12703Y53334D01*
X12699Y53329D01*
X12698Y53327D01*
X12698Y53326D01*
X12697Y53325D01*
Y53324D01*
X12696Y53322D01*
X12696Y53320D01*
X12695Y53315D01*
X12694Y53308D01*
X12694Y53302D01*
X12694Y53295D01*
Y53293D01*
Y53290D01*
Y53288D01*
Y53287D01*
Y53286D01*
Y53285D01*
Y53191D01*
X12644D01*
Y53306D01*
Y53314D01*
X12645Y53320D01*
X12645Y53326D01*
X12646Y53331D01*
X12646Y53334D01*
X12647Y53337D01*
X12647Y53339D01*
Y53339D01*
X12648Y53343D01*
X12650Y53347D01*
X12651Y53351D01*
X12653Y53354D01*
X12655Y53356D01*
X12656Y53358D01*
X12657Y53359D01*
X12657Y53360D01*
X12660Y53363D01*
X12663Y53366D01*
X12667Y53369D01*
X12670Y53371D01*
X12673Y53373D01*
X12675Y53374D01*
X12677Y53375D01*
X12678Y53375D01*
X12683Y53377D01*
X12688Y53378D01*
X12693Y53379D01*
X12697Y53380D01*
X12701Y53380D01*
X12705Y53381D01*
X12707D01*
X12714Y53380D01*
D02*
G37*
G36*
X13297Y53380D02*
X13303Y53379D01*
X13309Y53378D01*
X13314Y53377D01*
X13319Y53376D01*
X13323Y53374D01*
X13327Y53373D01*
X13331Y53371D01*
X13334Y53369D01*
X13336Y53368D01*
X13338Y53367D01*
X13340Y53366D01*
X13341Y53365D01*
X13341Y53365D01*
X13342Y53364D01*
X13345Y53361D01*
X13348Y53358D01*
X13351Y53355D01*
X13352Y53351D01*
X13356Y53344D01*
X13358Y53338D01*
X13360Y53332D01*
X13360Y53330D01*
X13360Y53328D01*
X13361Y53326D01*
Y53325D01*
Y53324D01*
Y53324D01*
X13360Y53319D01*
X13360Y53315D01*
X13359Y53310D01*
X13357Y53306D01*
X13354Y53299D01*
X13350Y53293D01*
X13346Y53288D01*
X13342Y53285D01*
X13341Y53284D01*
X13340Y53283D01*
X13339Y53282D01*
X13339Y53282D01*
X13335Y53280D01*
X13331Y53278D01*
X13326Y53276D01*
X13320Y53274D01*
X13314Y53272D01*
X13308Y53270D01*
X13295Y53266D01*
X13289Y53264D01*
X13283Y53263D01*
X13278Y53261D01*
X13273Y53260D01*
X13269Y53259D01*
X13266Y53259D01*
X13264Y53258D01*
X13263D01*
X13259Y53257D01*
X13256Y53256D01*
X13253Y53255D01*
X13250Y53254D01*
X13249Y53253D01*
X13248Y53252D01*
X13247Y53252D01*
X13245Y53249D01*
X13244Y53246D01*
X13243Y53244D01*
Y53243D01*
Y53242D01*
X13244Y53240D01*
X13244Y53237D01*
X13246Y53235D01*
X13247Y53233D01*
X13248Y53231D01*
X13249Y53230D01*
X13250Y53230D01*
X13250Y53229D01*
X13254Y53227D01*
X13259Y53225D01*
X13263Y53224D01*
X13268Y53223D01*
X13272Y53223D01*
X13276Y53222D01*
X13278D01*
X13285Y53223D01*
X13290Y53224D01*
X13295Y53225D01*
X13298Y53226D01*
X13301Y53227D01*
X13304Y53228D01*
X13305Y53229D01*
X13305Y53230D01*
X13309Y53232D01*
X13311Y53236D01*
X13314Y53240D01*
X13315Y53243D01*
X13317Y53247D01*
X13317Y53249D01*
X13318Y53251D01*
Y53251D01*
X13367Y53244D01*
X13364Y53235D01*
X13360Y53226D01*
X13355Y53219D01*
X13351Y53213D01*
X13346Y53208D01*
X13342Y53205D01*
X13341Y53204D01*
X13340Y53203D01*
X13339Y53203D01*
X13339Y53202D01*
X13334Y53200D01*
X13330Y53197D01*
X13320Y53193D01*
X13310Y53191D01*
X13300Y53189D01*
X13296Y53188D01*
X13292Y53188D01*
X13288Y53187D01*
X13285D01*
X13282Y53187D01*
X13278D01*
X13271Y53187D01*
X13264Y53188D01*
X13257Y53189D01*
X13251Y53190D01*
X13246Y53191D01*
X13240Y53193D01*
X13236Y53194D01*
X13232Y53196D01*
X13228Y53198D01*
X13224Y53200D01*
X13222Y53201D01*
X13220Y53202D01*
X13218Y53204D01*
X13217Y53204D01*
X13216Y53205D01*
X13216Y53205D01*
X13212Y53209D01*
X13209Y53212D01*
X13206Y53216D01*
X13203Y53220D01*
X13201Y53224D01*
X13199Y53227D01*
X13197Y53234D01*
X13195Y53240D01*
X13195Y53243D01*
X13195Y53245D01*
X13194Y53247D01*
Y53248D01*
Y53249D01*
Y53249D01*
X13195Y53257D01*
X13197Y53265D01*
X13199Y53271D01*
X13202Y53276D01*
X13205Y53280D01*
X13207Y53283D01*
X13209Y53285D01*
X13210Y53285D01*
X13213Y53288D01*
X13216Y53290D01*
X13220Y53292D01*
X13225Y53294D01*
X13234Y53298D01*
X13243Y53301D01*
X13251Y53304D01*
X13255Y53305D01*
X13258Y53306D01*
X13261Y53306D01*
X13263Y53307D01*
X13264Y53307D01*
X13264D01*
X13271Y53309D01*
X13278Y53311D01*
X13283Y53312D01*
X13288Y53314D01*
X13293Y53315D01*
X13296Y53316D01*
X13299Y53317D01*
X13302Y53318D01*
X13304Y53319D01*
X13306Y53319D01*
X13308Y53320D01*
X13308Y53321D01*
X13310Y53321D01*
X13310Y53321D01*
X13312Y53323D01*
X13313Y53324D01*
X13314Y53327D01*
X13315Y53329D01*
Y53330D01*
Y53330D01*
X13315Y53332D01*
X13314Y53334D01*
X13312Y53338D01*
X13310Y53339D01*
X13310Y53340D01*
X13310D01*
X13306Y53342D01*
X13302Y53343D01*
X13297Y53344D01*
X13293Y53345D01*
X13288Y53345D01*
X13285Y53346D01*
X13282D01*
X13276Y53345D01*
X13271Y53345D01*
X13267Y53344D01*
X13264Y53343D01*
X13261Y53342D01*
X13260Y53341D01*
X13259Y53340D01*
X13258Y53340D01*
X13255Y53338D01*
X13253Y53335D01*
X13251Y53332D01*
X13249Y53329D01*
X13248Y53327D01*
X13247Y53325D01*
X13247Y53324D01*
Y53323D01*
X13200Y53332D01*
X13203Y53341D01*
X13207Y53348D01*
X13212Y53354D01*
X13216Y53359D01*
X13220Y53363D01*
X13223Y53366D01*
X13225Y53368D01*
X13226Y53368D01*
X13226D01*
X13230Y53370D01*
X13234Y53372D01*
X13243Y53376D01*
X13252Y53378D01*
X13261Y53379D01*
X13266Y53380D01*
X13270Y53380D01*
X13273Y53380D01*
X13276Y53381D01*
X13290D01*
X13297Y53380D01*
D02*
G37*
G36*
X12958Y53380D02*
X12967Y53379D01*
X12975Y53377D01*
X12983Y53375D01*
X12986Y53373D01*
X12989Y53372D01*
X12991Y53372D01*
X12993Y53370D01*
X12995Y53370D01*
X12996Y53369D01*
X12997Y53369D01*
X12997D01*
X13005Y53363D01*
X13012Y53358D01*
X13018Y53352D01*
X13022Y53346D01*
X13026Y53341D01*
X13029Y53337D01*
X13030Y53336D01*
X13031Y53335D01*
X13031Y53334D01*
Y53333D01*
X13035Y53325D01*
X13038Y53316D01*
X13040Y53309D01*
X13042Y53302D01*
X13042Y53295D01*
X13043Y53293D01*
Y53291D01*
X13043Y53289D01*
Y53288D01*
Y53287D01*
Y53286D01*
X13043Y53275D01*
X13041Y53264D01*
X13039Y53255D01*
X13038Y53251D01*
X13037Y53247D01*
X13036Y53244D01*
X13035Y53241D01*
X13034Y53238D01*
X13033Y53236D01*
X13032Y53234D01*
X13032Y53233D01*
X13031Y53232D01*
Y53232D01*
X13026Y53224D01*
X13021Y53218D01*
X13015Y53212D01*
X13009Y53207D01*
X13004Y53203D01*
X13000Y53201D01*
X12998Y53200D01*
X12997Y53199D01*
X12997Y53198D01*
X12996D01*
X12987Y53195D01*
X12979Y53192D01*
X12971Y53190D01*
X12963Y53188D01*
X12957Y53188D01*
X12954Y53187D01*
X12952D01*
X12950Y53187D01*
X12947D01*
X12940Y53187D01*
X12933Y53188D01*
X12926Y53190D01*
X12919Y53191D01*
X12913Y53193D01*
X12907Y53195D01*
X12902Y53198D01*
X12897Y53201D01*
X12893Y53203D01*
X12890Y53206D01*
X12886Y53208D01*
X12884Y53210D01*
X12881Y53212D01*
X12880Y53213D01*
X12879Y53214D01*
X12879Y53214D01*
X12874Y53220D01*
X12870Y53225D01*
X12866Y53231D01*
X12863Y53237D01*
X12860Y53243D01*
X12858Y53249D01*
X12856Y53254D01*
X12855Y53260D01*
X12854Y53265D01*
X12853Y53269D01*
X12852Y53274D01*
X12852Y53277D01*
X12852Y53280D01*
Y53282D01*
Y53284D01*
Y53284D01*
X12852Y53292D01*
X12853Y53299D01*
X12854Y53306D01*
X12856Y53313D01*
X12858Y53319D01*
X12860Y53325D01*
X12863Y53330D01*
X12865Y53335D01*
X12867Y53339D01*
X12870Y53343D01*
X12872Y53346D01*
X12874Y53349D01*
X12876Y53351D01*
X12877Y53352D01*
X12878Y53353D01*
X12879Y53353D01*
X12884Y53358D01*
X12889Y53362D01*
X12895Y53366D01*
X12901Y53369D01*
X12907Y53372D01*
X12912Y53374D01*
X12918Y53376D01*
X12923Y53378D01*
X12928Y53379D01*
X12933Y53379D01*
X12937Y53380D01*
X12941Y53380D01*
X12944Y53381D01*
X12948D01*
X12958Y53380D01*
D02*
G37*
G36*
X14988Y53281D02*
Y53275D01*
X14988Y53270D01*
X14989Y53266D01*
X14989Y53261D01*
X14990Y53258D01*
X14990Y53254D01*
X14991Y53251D01*
X14992Y53249D01*
X14993Y53245D01*
X14994Y53242D01*
X14995Y53240D01*
X14995Y53240D01*
X14998Y53237D01*
X15002Y53234D01*
X15006Y53232D01*
X15010Y53231D01*
X15013Y53231D01*
X15016Y53230D01*
X15019D01*
X15025Y53231D01*
X15030Y53232D01*
X15035Y53235D01*
X15038Y53237D01*
X15041Y53240D01*
X15043Y53242D01*
X15044Y53243D01*
X15044Y53244D01*
X15046Y53248D01*
X15048Y53252D01*
X15049Y53258D01*
X15050Y53263D01*
X15050Y53268D01*
Y53271D01*
X15051Y53273D01*
Y53274D01*
Y53275D01*
Y53275D01*
X15100Y53269D01*
X15100Y53262D01*
X15099Y53255D01*
X15098Y53248D01*
X15097Y53242D01*
X15095Y53237D01*
X15094Y53232D01*
X15092Y53227D01*
X15090Y53223D01*
X15088Y53220D01*
X15086Y53216D01*
X15084Y53214D01*
X15083Y53211D01*
X15081Y53210D01*
X15080Y53208D01*
X15080Y53208D01*
X15080Y53207D01*
X15076Y53204D01*
X15071Y53200D01*
X15067Y53198D01*
X15062Y53195D01*
X15057Y53193D01*
X15052Y53191D01*
X15043Y53189D01*
X15038Y53188D01*
X15034Y53187D01*
X15031Y53187D01*
X15027Y53187D01*
X15025Y53186D01*
X15021D01*
X15010Y53187D01*
X14999Y53188D01*
X14990Y53190D01*
X14987Y53192D01*
X14983Y53193D01*
X14980Y53194D01*
X14977Y53195D01*
X14975Y53197D01*
X14973Y53197D01*
X14971Y53198D01*
X14970Y53199D01*
X14970Y53200D01*
X14969D01*
X14962Y53205D01*
X14957Y53211D01*
X14952Y53217D01*
X14948Y53222D01*
X14945Y53228D01*
X14943Y53232D01*
X14943Y53233D01*
X14942Y53234D01*
X14942Y53235D01*
Y53235D01*
X14940Y53242D01*
X14939Y53251D01*
X14938Y53259D01*
X14937Y53267D01*
X14936Y53274D01*
X14936Y53277D01*
Y53279D01*
Y53282D01*
Y53283D01*
Y53284D01*
Y53285D01*
Y53447D01*
X14988D01*
Y53281D01*
D02*
G37*
G36*
X13473Y53380D02*
X13479Y53379D01*
X13485Y53378D01*
X13490Y53376D01*
X13494Y53375D01*
X13498Y53373D01*
X13499Y53372D01*
X13500Y53372D01*
X13506Y53369D01*
X13510Y53365D01*
X13515Y53361D01*
X13518Y53358D01*
X13520Y53354D01*
X13523Y53352D01*
X13524Y53350D01*
X13524Y53349D01*
Y53377D01*
X13570D01*
Y53120D01*
X13521D01*
Y53214D01*
X13516Y53209D01*
X13511Y53204D01*
X13507Y53201D01*
X13503Y53198D01*
X13499Y53196D01*
X13497Y53194D01*
X13495Y53193D01*
X13495Y53193D01*
X13490Y53191D01*
X13485Y53190D01*
X13481Y53188D01*
X13476Y53188D01*
X13472Y53187D01*
X13469Y53187D01*
X13467D01*
X13461Y53187D01*
X13455Y53188D01*
X13450Y53189D01*
X13445Y53191D01*
X13435Y53195D01*
X13431Y53197D01*
X13427Y53200D01*
X13424Y53202D01*
X13421Y53204D01*
X13418Y53207D01*
X13416Y53208D01*
X13414Y53210D01*
X13413Y53211D01*
X13412Y53212D01*
X13412Y53212D01*
X13408Y53218D01*
X13405Y53223D01*
X13401Y53229D01*
X13399Y53235D01*
X13397Y53241D01*
X13395Y53247D01*
X13392Y53258D01*
X13391Y53264D01*
X13390Y53269D01*
X13390Y53273D01*
X13389Y53277D01*
X13389Y53280D01*
Y53283D01*
Y53284D01*
Y53285D01*
X13389Y53293D01*
X13390Y53301D01*
X13391Y53308D01*
X13392Y53315D01*
X13394Y53321D01*
X13396Y53327D01*
X13398Y53332D01*
X13400Y53337D01*
X13402Y53341D01*
X13405Y53345D01*
X13407Y53348D01*
X13408Y53351D01*
X13409Y53353D01*
X13411Y53354D01*
X13411Y53355D01*
X13412Y53355D01*
X13416Y53360D01*
X13421Y53364D01*
X13425Y53367D01*
X13430Y53370D01*
X13434Y53373D01*
X13439Y53375D01*
X13443Y53376D01*
X13448Y53378D01*
X13451Y53379D01*
X13455Y53379D01*
X13458Y53380D01*
X13461Y53380D01*
X13463Y53381D01*
X13466D01*
X13473Y53380D01*
D02*
G37*
%LPC*%
G36*
X21100Y54003D02*
X21100Y54003D01*
X18020D01*
X18020Y54003D01*
X17965Y53992D01*
X17919Y53961D01*
X17919Y53961D01*
X16599Y52641D01*
X16568Y52595D01*
X16557Y52540D01*
X16557Y52540D01*
Y50768D01*
X16568Y50714D01*
X16599Y50667D01*
X16614Y50658D01*
Y50044D01*
X16586Y50016D01*
X16565Y49967D01*
Y49913D01*
X16586Y49864D01*
X16608Y49842D01*
X16618Y49810D01*
X16608Y49778D01*
X16586Y49756D01*
X16565Y49707D01*
Y49653D01*
X16586Y49604D01*
X16624Y49566D01*
X16673Y49545D01*
X16727D01*
X16776Y49566D01*
X16794Y49583D01*
X17339D01*
Y49547D01*
X17636D01*
Y49507D01*
X17807D01*
Y49720D01*
Y49933D01*
X17646D01*
X17617Y49975D01*
X17696Y50054D01*
X18804D01*
X18905Y49952D01*
Y49913D01*
X18926Y49864D01*
X18964Y49826D01*
X19013Y49805D01*
X19067D01*
X19116Y49826D01*
X19154Y49864D01*
X19175Y49913D01*
Y49967D01*
X19154Y50016D01*
X19116Y50054D01*
X19067Y50075D01*
X19028D01*
X18901Y50201D01*
X18873Y50220D01*
X18840Y50226D01*
X17660D01*
X17627Y50220D01*
X17599Y50201D01*
X17459Y50061D01*
X17440Y50033D01*
X17434Y50000D01*
Y49893D01*
X17339D01*
Y49777D01*
X17048D01*
X17037Y49822D01*
X17037Y49827D01*
X17074Y49864D01*
X17095Y49913D01*
Y49967D01*
X17074Y50016D01*
X17047Y50044D01*
Y50658D01*
X17061Y50667D01*
X17092Y50714D01*
X17103Y50768D01*
Y52181D01*
X17979Y53057D01*
X19981D01*
X20863Y52175D01*
X20842Y52123D01*
Y52037D01*
X20875Y51956D01*
X20936Y51895D01*
X21017Y51862D01*
X21103D01*
X21184Y51895D01*
X21245Y51956D01*
X21278Y52037D01*
Y52123D01*
X21245Y52204D01*
X21184Y52265D01*
X21167Y52272D01*
X21161Y52281D01*
X21161Y52281D01*
X20141Y53301D01*
X20095Y53332D01*
X20040Y53343D01*
X20040Y53343D01*
X17920D01*
X17920Y53343D01*
X17865Y53332D01*
X17819Y53301D01*
X16893Y52375D01*
X16843Y52395D01*
Y52481D01*
X18079Y53717D01*
X21041D01*
X21182Y53576D01*
Y53517D01*
X21215Y53436D01*
X21276Y53375D01*
X21357Y53342D01*
X21443D01*
X21524Y53375D01*
X21585Y53436D01*
X21618Y53517D01*
Y53603D01*
X21585Y53684D01*
X21524Y53745D01*
X21443Y53778D01*
X21384D01*
X21201Y53961D01*
X21155Y53992D01*
X21100Y54003D01*
D02*
G37*
G36*
X16570Y54115D02*
Y53950D01*
X16735D01*
X16705Y54024D01*
X16644Y54085D01*
X16570Y54115D01*
D02*
G37*
G36*
X16470D02*
X16396Y54085D01*
X16335Y54024D01*
X16305Y53950D01*
X16470D01*
Y54115D01*
D02*
G37*
G36*
X16735Y53850D02*
X16570D01*
Y53685D01*
X16644Y53715D01*
X16705Y53776D01*
X16735Y53850D01*
D02*
G37*
G36*
X16470D02*
X16305D01*
X16335Y53776D01*
X16396Y53715D01*
X16470Y53685D01*
Y53850D01*
D02*
G37*
G36*
X23970Y53735D02*
Y53570D01*
X24135D01*
X24105Y53644D01*
X24044Y53705D01*
X23970Y53735D01*
D02*
G37*
G36*
X23870D02*
X23796Y53705D01*
X23735Y53644D01*
X23705Y53570D01*
X23870D01*
Y53735D01*
D02*
G37*
G36*
X24135Y53470D02*
X23970D01*
Y53305D01*
X24044Y53335D01*
X24105Y53396D01*
X24135Y53470D01*
D02*
G37*
G36*
X23870D02*
X23705D01*
X23735Y53396D01*
X23796Y53335D01*
X23870Y53305D01*
Y53470D01*
D02*
G37*
G36*
X21710Y52995D02*
Y52830D01*
X21875D01*
X21845Y52904D01*
X21784Y52965D01*
X21710Y52995D01*
D02*
G37*
G36*
X21610D02*
X21536Y52965D01*
X21475Y52904D01*
X21445Y52830D01*
X21610D01*
Y52995D01*
D02*
G37*
G36*
X19446Y52973D02*
Y52808D01*
X19611D01*
X19580Y52881D01*
X19519Y52943D01*
X19446Y52973D01*
D02*
G37*
G36*
X19346D02*
X19272Y52943D01*
X19211Y52881D01*
X19180Y52808D01*
X19346D01*
Y52973D01*
D02*
G37*
G36*
X21875Y52730D02*
X21710D01*
Y52565D01*
X21784Y52595D01*
X21845Y52656D01*
X21875Y52730D01*
D02*
G37*
G36*
X21610D02*
X21445D01*
X21475Y52656D01*
X21536Y52595D01*
X21610Y52565D01*
Y52730D01*
D02*
G37*
G36*
X19611Y52708D02*
X19446D01*
Y52542D01*
X19519Y52573D01*
X19580Y52634D01*
X19611Y52708D01*
D02*
G37*
G36*
X19346D02*
X19180D01*
X19211Y52634D01*
X19272Y52573D01*
X19346Y52542D01*
Y52708D01*
D02*
G37*
G36*
X18079Y49933D02*
X17907D01*
Y49770D01*
X18079D01*
Y49933D01*
D02*
G37*
G36*
Y49670D02*
X17907D01*
Y49507D01*
X18079D01*
Y49670D01*
D02*
G37*
G36*
X23635Y49630D02*
X23470D01*
Y49465D01*
X23544Y49495D01*
X23605Y49556D01*
X23635Y49630D01*
D02*
G37*
G36*
X23370D02*
X23205D01*
X23235Y49556D01*
X23296Y49495D01*
X23370Y49465D01*
Y49630D01*
D02*
G37*
G36*
X24400Y50218D02*
X19876D01*
X19807Y50205D01*
X19749Y50166D01*
X19558Y49975D01*
X19519Y49917D01*
X19506Y49849D01*
X19513Y49814D01*
X18490Y48791D01*
X18465D01*
X18415Y48770D01*
X18378Y48732D01*
X18357Y48683D01*
Y48629D01*
X18378Y48580D01*
X18415Y48542D01*
X18465Y48521D01*
X18518D01*
X18568Y48542D01*
X18606Y48580D01*
X18626Y48629D01*
Y48654D01*
X19649Y49677D01*
X19684Y49670D01*
X19752Y49684D01*
X19810Y49722D01*
X19949Y49862D01*
X23228D01*
X23247Y49815D01*
X23235Y49804D01*
X23205Y49730D01*
X23635D01*
X23605Y49804D01*
X23593Y49815D01*
X23612Y49862D01*
X24326D01*
X24602Y49586D01*
Y49577D01*
X24635Y49496D01*
X24696Y49435D01*
X24777Y49402D01*
X24863D01*
X24944Y49435D01*
X25005Y49496D01*
X25038Y49577D01*
Y49663D01*
X25005Y49744D01*
X24944Y49805D01*
X24863Y49838D01*
X24854D01*
X24526Y50166D01*
X24468Y50205D01*
X24400Y50218D01*
D02*
G37*
G36*
X15691Y51211D02*
X15604D01*
X15524Y51177D01*
X15463Y51116D01*
X15429Y51036D01*
Y50949D01*
X15463Y50869D01*
X15524Y50808D01*
X15604Y50774D01*
X15664D01*
X15771Y50667D01*
X15816Y50637D01*
Y49593D01*
X15198Y48974D01*
X15184Y48977D01*
X15126Y48965D01*
X15076Y48932D01*
X15062Y48918D01*
X15017D01*
X14936Y48885D01*
X14875Y48824D01*
X14842Y48743D01*
Y48657D01*
X14875Y48576D01*
X14936Y48515D01*
X15017Y48482D01*
X15103D01*
X15184Y48515D01*
X15245Y48576D01*
X15278Y48657D01*
Y48702D01*
X15292Y48716D01*
X15325Y48766D01*
X15337Y48824D01*
X15334Y48838D01*
X15982Y49485D01*
X16002Y49516D01*
X16010Y49553D01*
Y50727D01*
X16008Y50736D01*
X16015Y50768D01*
X16004Y50823D01*
X15973Y50869D01*
X15866Y50976D01*
Y51036D01*
X15832Y51116D01*
X15771Y51177D01*
X15691Y51211D01*
D02*
G37*
G36*
X17098Y48670D02*
X16950D01*
Y48541D01*
X17098D01*
Y48670D01*
D02*
G37*
G36*
X16850D02*
X16702D01*
Y48541D01*
X16850D01*
Y48670D01*
D02*
G37*
G36*
X17987Y48365D02*
X17730D01*
Y48128D01*
X17987D01*
Y48365D01*
D02*
G37*
G36*
X17630D02*
X17373D01*
Y48128D01*
X17630D01*
Y48365D01*
D02*
G37*
G36*
X17072Y48367D02*
X16835D01*
Y48110D01*
X17072D01*
Y48367D01*
D02*
G37*
G36*
X26495Y47551D02*
X26130D01*
Y47442D01*
X26495D01*
Y47551D01*
D02*
G37*
G36*
Y47341D02*
X25665D01*
Y47245D01*
X26495D01*
Y47341D01*
D02*
G37*
G36*
Y47144D02*
X25665D01*
Y47048D01*
X26495D01*
Y47144D01*
D02*
G37*
G36*
X12940Y47205D02*
Y47040D01*
X13105D01*
X13075Y47114D01*
X13014Y47175D01*
X12940Y47205D01*
D02*
G37*
G36*
X12840D02*
X12766Y47175D01*
X12705Y47114D01*
X12675Y47040D01*
X12840D01*
Y47205D01*
D02*
G37*
G36*
X26495Y46947D02*
X25665D01*
Y46851D01*
X26495D01*
Y46947D01*
D02*
G37*
G36*
X13105Y46940D02*
X12940D01*
Y46775D01*
X13014Y46805D01*
X13075Y46866D01*
X13105Y46940D01*
D02*
G37*
G36*
X12840D02*
X12675D01*
X12705Y46866D01*
X12766Y46805D01*
X12840Y46775D01*
Y46940D01*
D02*
G37*
G36*
X26495Y46750D02*
X25665D01*
Y46653D01*
X26495D01*
Y46750D01*
D02*
G37*
G36*
X19930Y46610D02*
X19765D01*
X19795Y46536D01*
X19856Y46475D01*
X19930Y46445D01*
Y46610D01*
D02*
G37*
G36*
X14230Y45415D02*
X14156Y45385D01*
X14095Y45324D01*
X14065Y45250D01*
X14230D01*
Y45415D01*
D02*
G37*
G36*
Y45150D02*
X14065D01*
X14095Y45076D01*
X14156Y45015D01*
X14230Y44985D01*
Y45150D01*
D02*
G37*
G36*
X23046Y44730D02*
Y44565D01*
X23212D01*
X23181Y44639D01*
X23120Y44700D01*
X23046Y44730D01*
D02*
G37*
G36*
X22946D02*
X22873Y44700D01*
X22812Y44639D01*
X22781Y44565D01*
X22946D01*
Y44730D01*
D02*
G37*
G36*
X23212Y44465D02*
X23046D01*
Y44300D01*
X23120Y44330D01*
X23181Y44392D01*
X23212Y44465D01*
D02*
G37*
G36*
X22946D02*
X22781D01*
X22812Y44392D01*
X22873Y44330D01*
X22946Y44300D01*
Y44465D01*
D02*
G37*
G36*
X12910Y44115D02*
Y43950D01*
X13075D01*
X13045Y44024D01*
X12984Y44085D01*
X12910Y44115D01*
D02*
G37*
G36*
X12810D02*
X12736Y44085D01*
X12675Y44024D01*
X12645Y43950D01*
X12810D01*
Y44115D01*
D02*
G37*
G36*
X21930Y43935D02*
Y43770D01*
X22095D01*
X22065Y43844D01*
X22004Y43905D01*
X21930Y43935D01*
D02*
G37*
G36*
X21830D02*
X21756Y43905D01*
X21695Y43844D01*
X21665Y43770D01*
X21830D01*
Y43935D01*
D02*
G37*
G36*
X13075Y43850D02*
X12910D01*
Y43685D01*
X12984Y43715D01*
X13045Y43776D01*
X13075Y43850D01*
D02*
G37*
G36*
X12810D02*
X12645D01*
X12675Y43776D01*
X12736Y43715D01*
X12810Y43685D01*
Y43850D01*
D02*
G37*
G36*
X22095Y43670D02*
X21930D01*
Y43505D01*
X22004Y43535D01*
X22065Y43596D01*
X22095Y43670D01*
D02*
G37*
G36*
X21830D02*
X21665D01*
X21695Y43596D01*
X21756Y43535D01*
X21830Y43505D01*
Y43670D01*
D02*
G37*
G36*
X12910Y41355D02*
Y41190D01*
X13075D01*
X13045Y41264D01*
X12984Y41325D01*
X12910Y41355D01*
D02*
G37*
G36*
X12810D02*
X12736Y41325D01*
X12675Y41264D01*
X12645Y41190D01*
X12810D01*
Y41355D01*
D02*
G37*
G36*
X13075Y41090D02*
X12910D01*
Y40925D01*
X12984Y40955D01*
X13045Y41016D01*
X13075Y41090D01*
D02*
G37*
G36*
X12810D02*
X12645D01*
X12675Y41016D01*
X12736Y40955D01*
X12810Y40925D01*
Y41090D01*
D02*
G37*
G36*
X25866Y40420D02*
Y40255D01*
X26032D01*
X26001Y40328D01*
X25940Y40390D01*
X25866Y40420D01*
D02*
G37*
G36*
X25766D02*
X25693Y40390D01*
X25632Y40328D01*
X25601Y40255D01*
X25766D01*
Y40420D01*
D02*
G37*
G36*
X26032Y40155D02*
X25866D01*
Y39990D01*
X25940Y40020D01*
X26001Y40081D01*
X26032Y40155D01*
D02*
G37*
G36*
X25766D02*
X25601D01*
X25632Y40081D01*
X25693Y40020D01*
X25766Y39990D01*
Y40155D01*
D02*
G37*
G36*
X14770Y39495D02*
X14696Y39465D01*
X14635Y39404D01*
X14605Y39330D01*
X14770D01*
Y39495D01*
D02*
G37*
G36*
Y39230D02*
X14605D01*
X14635Y39156D01*
X14696Y39095D01*
X14770Y39065D01*
Y39230D01*
D02*
G37*
G36*
X23970Y38855D02*
Y38690D01*
X24135D01*
X24105Y38764D01*
X24044Y38825D01*
X23970Y38855D01*
D02*
G37*
G36*
X12870Y38735D02*
Y38570D01*
X13035D01*
X13005Y38644D01*
X12944Y38705D01*
X12870Y38735D01*
D02*
G37*
G36*
X12770D02*
X12696Y38705D01*
X12635Y38644D01*
X12605Y38570D01*
X12770D01*
Y38735D01*
D02*
G37*
G36*
X24135Y38590D02*
X23970D01*
Y38425D01*
X24044Y38455D01*
X24105Y38516D01*
X24135Y38590D01*
D02*
G37*
G36*
X13035Y38470D02*
X12870D01*
Y38305D01*
X12944Y38335D01*
X13005Y38396D01*
X13035Y38470D01*
D02*
G37*
G36*
X12770D02*
X12605D01*
X12635Y38396D01*
X12696Y38335D01*
X12770Y38305D01*
Y38470D01*
D02*
G37*
G36*
X13910Y37135D02*
Y36970D01*
X14075D01*
X14045Y37044D01*
X13984Y37105D01*
X13910Y37135D01*
D02*
G37*
G36*
X13810D02*
X13736Y37105D01*
X13675Y37044D01*
X13645Y36970D01*
X13810D01*
Y37135D01*
D02*
G37*
G36*
X14075Y36870D02*
X13910D01*
Y36705D01*
X13984Y36735D01*
X14045Y36796D01*
X14075Y36870D01*
D02*
G37*
G36*
X13810D02*
X13645D01*
X13675Y36796D01*
X13736Y36735D01*
X13810Y36705D01*
Y36870D01*
D02*
G37*
G36*
X22225Y47560D02*
X22060D01*
Y47395D01*
X22134Y47425D01*
X22195Y47486D01*
X22225Y47560D01*
D02*
G37*
G36*
X21960D02*
X21795D01*
X21825Y47486D01*
X21886Y47425D01*
X21960Y47395D01*
Y47560D01*
D02*
G37*
G36*
X21200Y47405D02*
Y47240D01*
X21365D01*
X21335Y47314D01*
X21274Y47375D01*
X21200Y47405D01*
D02*
G37*
G36*
X21100D02*
X21026Y47375D01*
X20965Y47314D01*
X20935Y47240D01*
X21100D01*
Y47405D01*
D02*
G37*
G36*
X21365Y47140D02*
X21200D01*
Y46975D01*
X21274Y47005D01*
X21335Y47066D01*
X21365Y47140D01*
D02*
G37*
G36*
X21100D02*
X20935D01*
X20965Y47066D01*
X21026Y47005D01*
X21100Y46975D01*
Y47140D01*
D02*
G37*
G36*
X15910Y44430D02*
X15745D01*
X15775Y44356D01*
X15836Y44295D01*
X15910Y44265D01*
Y44430D01*
D02*
G37*
G36*
X15470Y43915D02*
Y43750D01*
X15635D01*
X15605Y43824D01*
X15544Y43885D01*
X15470Y43915D01*
D02*
G37*
G36*
X15370D02*
X15296Y43885D01*
X15235Y43824D01*
X15205Y43750D01*
X15370D01*
Y43915D01*
D02*
G37*
G36*
X16650Y43775D02*
Y43610D01*
X16815D01*
X16785Y43684D01*
X16724Y43745D01*
X16650Y43775D01*
D02*
G37*
G36*
X16550D02*
X16476Y43745D01*
X16415Y43684D01*
X16385Y43610D01*
X16550D01*
Y43775D01*
D02*
G37*
G36*
X15635Y43650D02*
X15470D01*
Y43485D01*
X15544Y43515D01*
X15605Y43576D01*
X15635Y43650D01*
D02*
G37*
G36*
X15370D02*
X15205D01*
X15235Y43576D01*
X15296Y43515D01*
X15370Y43485D01*
Y43650D01*
D02*
G37*
G36*
X16815Y43510D02*
X16650D01*
Y43345D01*
X16724Y43375D01*
X16785Y43436D01*
X16815Y43510D01*
D02*
G37*
G36*
X16550D02*
X16385D01*
X16415Y43436D01*
X16476Y43375D01*
X16550Y43345D01*
Y43510D01*
D02*
G37*
G36*
Y42655D02*
Y42490D01*
X16715D01*
X16685Y42564D01*
X16624Y42625D01*
X16550Y42655D01*
D02*
G37*
G36*
X16450D02*
X16376Y42625D01*
X16315Y42564D01*
X16285Y42490D01*
X16450D01*
Y42655D01*
D02*
G37*
G36*
X17965Y42585D02*
X17892Y42555D01*
X17830Y42494D01*
X17800Y42420D01*
X17965D01*
Y42585D01*
D02*
G37*
G36*
X16715Y42390D02*
X16550D01*
Y42225D01*
X16624Y42255D01*
X16685Y42316D01*
X16715Y42390D01*
D02*
G37*
G36*
X16450D02*
X16285D01*
X16315Y42316D01*
X16376Y42255D01*
X16450Y42225D01*
Y42390D01*
D02*
G37*
G36*
X18231Y42320D02*
X18065D01*
Y42155D01*
X18139Y42185D01*
X18200Y42246D01*
X18231Y42320D01*
D02*
G37*
G36*
X17965D02*
X17800D01*
X17830Y42246D01*
X17892Y42185D01*
X17965Y42155D01*
Y42320D01*
D02*
G37*
G36*
X18490Y41275D02*
Y41110D01*
X18655D01*
X18625Y41184D01*
X18564Y41245D01*
X18490Y41275D01*
D02*
G37*
G36*
X18390D02*
X18316Y41245D01*
X18255Y41184D01*
X18225Y41110D01*
X18390D01*
Y41275D01*
D02*
G37*
G36*
X18655Y41010D02*
X18490D01*
Y40845D01*
X18564Y40875D01*
X18625Y40936D01*
X18655Y41010D01*
D02*
G37*
G36*
X18390D02*
X18225D01*
X18255Y40936D01*
X18316Y40875D01*
X18390Y40845D01*
Y41010D01*
D02*
G37*
G36*
X14740Y53667D02*
X14740D01*
Y53657D01*
Y53651D01*
X14740Y53646D01*
X14741Y53642D01*
X14741Y53639D01*
X14741Y53637D01*
X14742Y53635D01*
X14742Y53634D01*
Y53634D01*
X14743Y53630D01*
X14745Y53627D01*
X14747Y53624D01*
X14749Y53622D01*
X14751Y53620D01*
X14752Y53619D01*
X14753Y53618D01*
X14754Y53617D01*
X14758Y53614D01*
X14763Y53613D01*
X14767Y53611D01*
X14771Y53610D01*
X14774Y53609D01*
X14777Y53609D01*
X14779D01*
X14783Y53609D01*
X14787Y53610D01*
X14791Y53611D01*
X14793Y53613D01*
X14796Y53614D01*
X14797Y53615D01*
X14798Y53616D01*
X14799Y53616D01*
X14801Y53619D01*
X14803Y53622D01*
X14804Y53625D01*
X14805Y53628D01*
X14806Y53630D01*
X14806Y53632D01*
Y53634D01*
Y53634D01*
X14806Y53638D01*
X14805Y53641D01*
X14803Y53644D01*
X14801Y53647D01*
X14800Y53649D01*
X14798Y53650D01*
X14797Y53651D01*
X14797Y53651D01*
X14794Y53653D01*
X14790Y53654D01*
X14786Y53656D01*
X14781Y53657D01*
X14777Y53658D01*
X14774Y53659D01*
X14772Y53659D01*
X14771Y53660D01*
X14770D01*
X14763Y53661D01*
X14757Y53663D01*
X14751Y53664D01*
X14747Y53665D01*
X14744Y53666D01*
X14742Y53667D01*
X14740Y53667D01*
D02*
G37*
G36*
X13627D02*
X13626D01*
Y53657D01*
Y53651D01*
X13627Y53646D01*
X13627Y53642D01*
X13627Y53639D01*
X13628Y53637D01*
X13628Y53635D01*
X13629Y53634D01*
Y53634D01*
X13630Y53630D01*
X13631Y53627D01*
X13633Y53624D01*
X13635Y53622D01*
X13637Y53620D01*
X13638Y53619D01*
X13640Y53618D01*
X13640Y53617D01*
X13644Y53614D01*
X13649Y53613D01*
X13653Y53611D01*
X13657Y53610D01*
X13661Y53609D01*
X13663Y53609D01*
X13666D01*
X13670Y53609D01*
X13674Y53610D01*
X13677Y53611D01*
X13680Y53613D01*
X13682Y53614D01*
X13684Y53615D01*
X13685Y53616D01*
X13685Y53616D01*
X13688Y53619D01*
X13690Y53622D01*
X13691Y53625D01*
X13691Y53628D01*
X13692Y53630D01*
X13693Y53632D01*
Y53634D01*
Y53634D01*
X13692Y53638D01*
X13691Y53641D01*
X13690Y53644D01*
X13688Y53647D01*
X13686Y53649D01*
X13685Y53650D01*
X13684Y53651D01*
X13683Y53651D01*
X13680Y53653D01*
X13677Y53654D01*
X13672Y53656D01*
X13668Y53657D01*
X13663Y53658D01*
X13660Y53659D01*
X13658Y53659D01*
X13657Y53660D01*
X13657D01*
X13649Y53661D01*
X13643Y53663D01*
X13638Y53664D01*
X13634Y53665D01*
X13630Y53666D01*
X13628Y53667D01*
X13627Y53667D01*
D02*
G37*
G36*
X12871D02*
X12870D01*
Y53657D01*
Y53651D01*
X12871Y53646D01*
X12871Y53642D01*
X12871Y53639D01*
X12872Y53637D01*
X12872Y53635D01*
X12873Y53634D01*
Y53634D01*
X12874Y53630D01*
X12876Y53627D01*
X12877Y53624D01*
X12879Y53622D01*
X12881Y53620D01*
X12883Y53619D01*
X12884Y53618D01*
X12884Y53617D01*
X12889Y53614D01*
X12893Y53613D01*
X12897Y53611D01*
X12901Y53610D01*
X12905Y53609D01*
X12907Y53609D01*
X12910D01*
X12914Y53609D01*
X12918Y53610D01*
X12921Y53611D01*
X12924Y53613D01*
X12926Y53614D01*
X12928Y53615D01*
X12929Y53616D01*
X12929Y53616D01*
X12932Y53619D01*
X12934Y53622D01*
X12935Y53625D01*
X12936Y53628D01*
X12936Y53630D01*
X12937Y53632D01*
Y53634D01*
Y53634D01*
X12936Y53638D01*
X12935Y53641D01*
X12934Y53644D01*
X12932Y53647D01*
X12930Y53649D01*
X12929Y53650D01*
X12928Y53651D01*
X12927Y53651D01*
X12924Y53653D01*
X12921Y53654D01*
X12916Y53656D01*
X12912Y53657D01*
X12907Y53658D01*
X12904Y53659D01*
X12903Y53659D01*
X12901Y53660D01*
X12901D01*
X12893Y53661D01*
X12887Y53663D01*
X12882Y53664D01*
X12878Y53665D01*
X12874Y53666D01*
X12872Y53667D01*
X12871Y53667D01*
D02*
G37*
G36*
X13935Y53791D02*
X13875D01*
X13872Y53791D01*
X13864D01*
X13860Y53791D01*
X13858D01*
X13857Y53790D01*
X13857D01*
X13852Y53789D01*
X13848Y53788D01*
X13845Y53786D01*
X13842Y53784D01*
X13840Y53782D01*
X13838Y53781D01*
X13838Y53780D01*
X13837Y53780D01*
X13835Y53777D01*
X13833Y53773D01*
X13832Y53770D01*
X13831Y53767D01*
X13831Y53764D01*
X13830Y53761D01*
Y53760D01*
Y53759D01*
X13831Y53755D01*
X13831Y53751D01*
X13832Y53748D01*
X13833Y53745D01*
X13834Y53743D01*
X13835Y53741D01*
X13835Y53740D01*
X13836Y53740D01*
X13838Y53737D01*
X13840Y53735D01*
X13845Y53732D01*
X13847Y53731D01*
X13849Y53730D01*
X13850Y53729D01*
X13850D01*
X13852Y53729D01*
X13855Y53728D01*
X13858Y53728D01*
X13861Y53727D01*
X13869Y53727D01*
X13877Y53727D01*
X13884Y53726D01*
X13935D01*
Y53791D01*
D02*
G37*
G36*
X13347Y53728D02*
X13345D01*
X13338Y53728D01*
X13332Y53726D01*
X13327Y53724D01*
X13322Y53721D01*
X13318Y53718D01*
X13315Y53716D01*
X13314Y53714D01*
X13313Y53714D01*
X13309Y53708D01*
X13305Y53701D01*
X13303Y53694D01*
X13301Y53687D01*
X13301Y53681D01*
X13300Y53678D01*
Y53676D01*
X13300Y53674D01*
Y53673D01*
Y53672D01*
Y53671D01*
X13301Y53662D01*
X13302Y53653D01*
X13304Y53646D01*
X13307Y53640D01*
X13309Y53635D01*
X13311Y53631D01*
X13313Y53630D01*
X13313Y53629D01*
X13318Y53624D01*
X13324Y53620D01*
X13329Y53618D01*
X13334Y53616D01*
X13339Y53615D01*
X13342Y53615D01*
X13344Y53614D01*
X13345D01*
X13352Y53615D01*
X13359Y53617D01*
X13364Y53619D01*
X13369Y53622D01*
X13373Y53624D01*
X13376Y53627D01*
X13377Y53628D01*
X13378Y53629D01*
X13382Y53635D01*
X13385Y53642D01*
X13388Y53649D01*
X13389Y53656D01*
X13390Y53662D01*
X13391Y53664D01*
Y53667D01*
X13391Y53669D01*
Y53670D01*
Y53671D01*
Y53671D01*
X13390Y53681D01*
X13389Y53690D01*
X13387Y53697D01*
X13384Y53703D01*
X13382Y53707D01*
X13380Y53711D01*
X13378Y53713D01*
X13378Y53714D01*
X13373Y53718D01*
X13367Y53722D01*
X13362Y53725D01*
X13357Y53727D01*
X13352Y53728D01*
X13349Y53728D01*
X13347Y53728D01*
D02*
G37*
G36*
X14249Y53321D02*
X14246D01*
X14241Y53321D01*
X14236Y53319D01*
X14232Y53318D01*
X14229Y53315D01*
X14226Y53313D01*
X14224Y53311D01*
X14222Y53310D01*
X14222Y53309D01*
X14219Y53305D01*
X14216Y53299D01*
X14215Y53292D01*
X14213Y53286D01*
X14212Y53281D01*
X14212Y53277D01*
Y53275D01*
Y53274D01*
Y53273D01*
Y53272D01*
X14212Y53264D01*
X14213Y53257D01*
X14215Y53251D01*
X14216Y53246D01*
X14218Y53242D01*
X14220Y53240D01*
X14221Y53238D01*
X14221Y53237D01*
X14225Y53234D01*
X14229Y53231D01*
X14233Y53230D01*
X14236Y53228D01*
X14239Y53228D01*
X14242Y53227D01*
X14244D01*
X14249Y53228D01*
X14254Y53229D01*
X14258Y53231D01*
X14262Y53234D01*
X14265Y53236D01*
X14267Y53238D01*
X14269Y53240D01*
X14269Y53240D01*
X14273Y53245D01*
X14276Y53251D01*
X14277Y53257D01*
X14279Y53263D01*
X14279Y53269D01*
X14280Y53273D01*
Y53275D01*
Y53276D01*
Y53277D01*
Y53277D01*
X14280Y53285D01*
X14279Y53291D01*
X14277Y53297D01*
X14275Y53302D01*
X14273Y53305D01*
X14272Y53308D01*
X14271Y53309D01*
X14270Y53310D01*
X14267Y53314D01*
X14263Y53316D01*
X14259Y53318D01*
X14255Y53320D01*
X14252Y53321D01*
X14249Y53321D01*
D02*
G37*
G36*
X13666Y53280D02*
X13666D01*
Y53270D01*
Y53264D01*
X13666Y53259D01*
X13666Y53255D01*
X13667Y53251D01*
X13667Y53249D01*
X13667Y53247D01*
X13668Y53247D01*
Y53246D01*
X13669Y53243D01*
X13671Y53240D01*
X13673Y53237D01*
X13674Y53234D01*
X13676Y53232D01*
X13678Y53231D01*
X13679Y53230D01*
X13679Y53230D01*
X13684Y53227D01*
X13688Y53225D01*
X13693Y53224D01*
X13697Y53222D01*
X13700Y53222D01*
X13703Y53221D01*
X13705D01*
X13709Y53222D01*
X13713Y53222D01*
X13716Y53224D01*
X13719Y53225D01*
X13721Y53227D01*
X13723Y53228D01*
X13724Y53228D01*
X13724Y53229D01*
X13727Y53232D01*
X13729Y53235D01*
X13730Y53238D01*
X13731Y53241D01*
X13731Y53243D01*
X13732Y53245D01*
Y53246D01*
Y53247D01*
X13731Y53250D01*
X13730Y53254D01*
X13729Y53257D01*
X13727Y53259D01*
X13725Y53261D01*
X13724Y53262D01*
X13723Y53263D01*
X13722Y53264D01*
X13720Y53265D01*
X13716Y53267D01*
X13711Y53268D01*
X13707Y53269D01*
X13703Y53271D01*
X13699Y53271D01*
X13698Y53272D01*
X13697Y53272D01*
X13696D01*
X13688Y53274D01*
X13683Y53275D01*
X13677Y53277D01*
X13673Y53278D01*
X13670Y53279D01*
X13667Y53279D01*
X13666Y53280D01*
D02*
G37*
G36*
X12524Y53343D02*
X12521D01*
X12516Y53343D01*
X12511Y53341D01*
X12506Y53339D01*
X12503Y53338D01*
X12500Y53335D01*
X12497Y53333D01*
X12496Y53332D01*
X12496Y53332D01*
X12492Y53327D01*
X12489Y53322D01*
X12487Y53316D01*
X12486Y53311D01*
X12485Y53307D01*
X12485Y53303D01*
X12484Y53301D01*
Y53301D01*
Y53300D01*
Y53299D01*
X12558D01*
X12557Y53306D01*
X12556Y53313D01*
X12555Y53318D01*
X12553Y53323D01*
X12551Y53326D01*
X12549Y53329D01*
X12548Y53331D01*
X12547Y53331D01*
X12543Y53335D01*
X12539Y53338D01*
X12534Y53340D01*
X12530Y53342D01*
X12527Y53342D01*
X12524Y53343D01*
D02*
G37*
G36*
X12949Y53341D02*
X12947D01*
X12940Y53340D01*
X12934Y53339D01*
X12929Y53336D01*
X12924Y53333D01*
X12920Y53331D01*
X12917Y53328D01*
X12916Y53327D01*
X12915Y53326D01*
X12911Y53320D01*
X12907Y53313D01*
X12905Y53306D01*
X12903Y53299D01*
X12903Y53294D01*
X12902Y53291D01*
Y53288D01*
X12902Y53286D01*
Y53285D01*
Y53284D01*
Y53284D01*
X12903Y53274D01*
X12904Y53265D01*
X12906Y53258D01*
X12908Y53252D01*
X12911Y53248D01*
X12913Y53244D01*
X12914Y53242D01*
X12915Y53241D01*
X12920Y53237D01*
X12926Y53233D01*
X12931Y53231D01*
X12936Y53229D01*
X12941Y53228D01*
X12944Y53227D01*
X12945Y53227D01*
X12947D01*
X12954Y53228D01*
X12961Y53229D01*
X12966Y53231D01*
X12971Y53234D01*
X12975Y53237D01*
X12978Y53239D01*
X12979Y53241D01*
X12980Y53241D01*
X12984Y53247D01*
X12987Y53254D01*
X12990Y53261D01*
X12991Y53268D01*
X12992Y53274D01*
X12992Y53277D01*
Y53279D01*
X12993Y53281D01*
Y53283D01*
Y53284D01*
Y53284D01*
X12992Y53294D01*
X12991Y53302D01*
X12989Y53309D01*
X12986Y53315D01*
X12984Y53320D01*
X12982Y53323D01*
X12980Y53325D01*
X12980Y53326D01*
X12975Y53331D01*
X12969Y53335D01*
X12964Y53337D01*
X12958Y53339D01*
X12954Y53340D01*
X12951Y53341D01*
X12949Y53341D01*
D02*
G37*
G36*
X13481Y53342D02*
X13480D01*
X13474Y53341D01*
X13468Y53340D01*
X13463Y53338D01*
X13459Y53335D01*
X13456Y53332D01*
X13454Y53330D01*
X13452Y53328D01*
X13451Y53328D01*
X13447Y53322D01*
X13444Y53315D01*
X13442Y53308D01*
X13441Y53301D01*
X13440Y53294D01*
X13440Y53292D01*
X13439Y53289D01*
Y53287D01*
Y53286D01*
Y53285D01*
Y53284D01*
Y53279D01*
X13440Y53274D01*
X13441Y53269D01*
X13441Y53264D01*
X13442Y53260D01*
X13443Y53257D01*
X13444Y53253D01*
X13445Y53250D01*
X13447Y53245D01*
X13449Y53242D01*
X13451Y53240D01*
X13451Y53240D01*
X13455Y53235D01*
X13460Y53232D01*
X13465Y53229D01*
X13469Y53228D01*
X13473Y53227D01*
X13476Y53226D01*
X13479Y53226D01*
X13479D01*
X13486Y53227D01*
X13492Y53228D01*
X13497Y53231D01*
X13501Y53233D01*
X13505Y53236D01*
X13507Y53238D01*
X13509Y53240D01*
X13509Y53241D01*
X13512Y53244D01*
X13513Y53247D01*
X13516Y53254D01*
X13519Y53262D01*
X13520Y53269D01*
X13521Y53276D01*
X13521Y53279D01*
Y53282D01*
X13522Y53284D01*
Y53285D01*
Y53286D01*
Y53287D01*
X13521Y53296D01*
X13520Y53305D01*
X13518Y53312D01*
X13516Y53318D01*
X13514Y53322D01*
X13512Y53325D01*
X13510Y53327D01*
X13510Y53328D01*
X13505Y53333D01*
X13500Y53336D01*
X13495Y53339D01*
X13491Y53340D01*
X13486Y53341D01*
X13483Y53342D01*
X13481Y53342D01*
D02*
G37*
%LPD*%
D13*
X17520Y50000D02*
X17660Y50140D01*
X17520Y49720D02*
Y50000D01*
X17660Y50140D02*
X18840D01*
X19040Y49940D01*
X16960D02*
Y50768D01*
X16700Y49940D02*
Y50768D01*
D14*
X15060Y48700D02*
X15184Y48824D01*
D26*
X16900Y48720D02*
D03*
Y49035D02*
D03*
D28*
X17857Y49720D02*
D03*
X17520D02*
D03*
D39*
X26080Y47392D02*
D03*
Y47194D02*
D03*
Y46997D02*
D03*
Y46800D02*
D03*
Y46603D02*
D03*
Y46210D02*
D03*
Y45816D02*
D03*
Y46406D02*
D03*
Y46013D02*
D03*
Y45619D02*
D03*
D40*
X25300Y44970D02*
D03*
Y48040D02*
D03*
D41*
X19900Y39957D02*
D03*
Y39643D02*
D03*
D58*
X21860Y36776D02*
X21988Y36649D01*
X21860Y36776D02*
Y37600D01*
X21680Y37780D02*
X21860Y37600D01*
X20478Y39070D02*
X20517D01*
X20321Y39227D02*
Y39540D01*
Y39227D02*
X20478Y39070D01*
X20030Y39831D02*
X20321Y39540D01*
X20460Y40584D02*
X20517Y40527D01*
X20460Y40584D02*
Y41400D01*
X23287Y36322D02*
Y36649D01*
X24153D02*
Y37454D01*
X21555Y36649D02*
Y36698D01*
X21141Y37112D02*
X21555Y36698D01*
X19920Y37112D02*
X21141D01*
X22293Y36776D02*
X22421Y36649D01*
X22293Y36776D02*
Y37767D01*
X21832Y38228D02*
X22293Y37767D01*
X19940Y38228D02*
X21832D01*
X19940D02*
Y38235D01*
X25531Y38789D02*
X25580Y38838D01*
X25488Y38789D02*
X25531D01*
X24153Y37454D02*
X25488Y38789D01*
X15188Y37392D02*
Y41601D01*
Y37392D02*
X16436Y36144D01*
X23109D01*
X23287Y36322D01*
X20026Y39831D02*
X20030D01*
X19900Y39957D02*
X20026Y39831D01*
X19920Y37112D02*
X19935Y37128D01*
X21895Y42480D02*
X25469Y38906D01*
X19880Y38732D02*
X22768D01*
X25531Y38906D02*
X25580Y38857D01*
X25469Y38906D02*
X25531D01*
X18074Y38211D02*
X18090Y38228D01*
X19452D01*
X21149Y45451D02*
X21554D01*
X20880Y45720D02*
X21149Y45451D01*
X20880Y45720D02*
Y46240D01*
X25430D01*
X19840Y47280D02*
X20880Y46240D01*
X25775Y46033D02*
X25805D01*
X25825Y46013D02*
X26080D01*
X25805Y46033D02*
X25825Y46013D01*
X25758Y46049D02*
X25775Y46033D01*
X25430Y46240D02*
X25621Y46049D01*
X25758D01*
X19932Y38228D02*
X19940Y38235D01*
X14600Y46940D02*
X15184Y47524D01*
X19452Y38228D02*
X19932D01*
X14600Y43080D02*
X19452Y38228D01*
X14600Y43080D02*
Y46940D01*
X15967Y46227D02*
Y46328D01*
Y46227D02*
X16114Y46080D01*
X19013D01*
X19261Y46328D01*
X19684Y47486D02*
X20066Y47868D01*
X24057D01*
X25519Y46406D02*
X26080D01*
X24057Y47868D02*
X25519Y46406D01*
X19140Y42480D02*
X21895D01*
X25580Y38838D02*
Y38857D01*
X21100Y53860D02*
X21400Y53560D01*
X18020Y53860D02*
X21100D01*
X15500Y46120D02*
Y46328D01*
Y46120D02*
X19140Y42480D01*
X15647Y50993D02*
X15872Y50768D01*
X19524Y38791D02*
X19831D01*
X19102Y39213D02*
X19524Y38791D01*
X14880Y46040D02*
X19102Y41818D01*
Y39213D02*
Y41818D01*
X19831Y38791D02*
X19880Y38742D01*
Y38732D02*
Y38742D01*
X14880Y46040D02*
Y46640D01*
X15184Y46944D01*
X22768Y38732D02*
X23120Y38380D01*
X26080Y45816D02*
X26097Y45833D01*
X26080Y46210D02*
X26097Y46192D01*
X21060Y52080D02*
Y52180D01*
X20040Y53200D02*
X21060Y52180D01*
X17920Y53200D02*
X20040D01*
X16960Y50768D02*
Y52240D01*
X17920Y53200D01*
X16700Y50768D02*
Y52540D01*
X18020Y53860D01*
D59*
X21554Y45451D02*
D03*
X18074Y38211D02*
D03*
D60*
X22360Y45580D02*
X24315D01*
X24607Y45873D01*
X22854Y36649D02*
X22946Y36741D01*
X24571Y36654D02*
Y37291D01*
X24566Y36649D02*
X24571Y36654D01*
X24912Y37632D02*
X25600D01*
X24571Y37291D02*
X24912Y37632D01*
X22946Y36741D02*
Y36986D01*
X23540Y37580D01*
Y40470D01*
X22803Y41207D02*
X23540Y40470D01*
X22733Y41207D02*
X22803D01*
X22060Y41880D02*
X22733Y41207D01*
X20572Y41880D02*
X22060D01*
X19684Y48400D02*
X19984Y48700D01*
X24880D01*
X25800Y49620D01*
X26060Y45600D02*
X26345Y45315D01*
X24633Y45873D02*
X25367D01*
X25640Y45600D01*
X26060D01*
X26200Y38780D02*
X26345Y38925D01*
Y45315D01*
X19916Y37421D02*
Y37906D01*
X19940Y37930D01*
Y37940D01*
X19676Y40931D02*
X20145Y41400D01*
X20236Y41491D01*
Y41544D01*
X20572Y41880D01*
X19676Y39744D02*
Y40931D01*
X19876Y50040D02*
X24400D01*
X24820Y49620D01*
X19684Y49849D02*
X19876Y50040D01*
X19285Y37831D02*
X19708Y37408D01*
X19285Y37831D02*
X19285D01*
X19708Y37408D02*
X19920D01*
X19764Y39656D02*
X19886D01*
X19676Y39744D02*
X19764Y39656D01*
X19886D02*
X19900Y39643D01*
X19629Y39051D02*
X19866D01*
X19360Y39320D02*
X19629Y39051D01*
X19866D02*
X19880Y39037D01*
Y39028D02*
Y39037D01*
X25949Y38552D02*
X26177Y38780D01*
X25580Y38552D02*
X25949D01*
X26177Y38780D02*
X26200D01*
X25600Y37918D02*
X25614Y37904D01*
X25600Y37918D02*
Y37928D01*
Y37937D01*
X25580Y37957D02*
Y38552D01*
Y37957D02*
X25600Y37937D01*
D61*
X15184Y47524D02*
X15280Y47620D01*
X17757D01*
X17997Y47380D01*
X18000D01*
X15967Y46328D02*
Y46662D01*
X16065Y46760D02*
X18400D01*
X15967Y46662D02*
X16065Y46760D01*
X18495Y46855D02*
Y47120D01*
X18400Y46760D02*
X18495Y46855D01*
X19261Y46328D02*
X19540Y46607D01*
Y47341D01*
X19684Y47486D01*
X15940Y48920D02*
X16200Y48660D01*
Y48075D02*
Y48660D01*
X15184Y48824D02*
X15913Y49553D01*
Y50727D01*
X15872Y50768D02*
X15913Y50727D01*
X16200Y48075D02*
X16215Y48060D01*
X18760Y48400D02*
X19684D01*
X18492Y48656D02*
X19684Y49849D01*
X17700Y48985D02*
X17852Y48833D01*
Y48814D02*
X18780Y47885D01*
Y46840D02*
Y47885D01*
X17680Y48985D02*
X17700D01*
X17852Y48814D02*
Y48833D01*
X17630Y49035D02*
X17680Y48985D01*
X16142Y46480D02*
X18420D01*
X15500Y46328D02*
Y46780D01*
X15840Y47120D01*
X18000D01*
X15184Y46944D02*
X15596Y47356D01*
X17736D01*
X18420Y46480D02*
X18780Y46840D01*
X16700Y49680D02*
X17480D01*
X17520Y49720D01*
X16645Y49035D02*
X16900D01*
X16200Y49480D02*
X16645Y49035D01*
X16200Y49480D02*
Y49680D01*
X16900Y49035D02*
X17630D01*
D63*
X26040Y36780D02*
D03*
X12660D02*
D03*
X26020Y53520D02*
D03*
D64*
X22360Y45580D02*
D03*
X22060Y41880D02*
D03*
X12890Y46990D02*
D03*
X12860Y43900D02*
D03*
Y41140D02*
D03*
X12820Y38520D02*
D03*
X25816Y40205D02*
D03*
X23920Y38640D02*
D03*
X14820Y39280D02*
D03*
X14280Y45200D02*
D03*
X22996Y44515D02*
D03*
X23420Y49680D02*
D03*
X19396Y52758D02*
D03*
X21660Y52780D02*
D03*
X13860Y36920D02*
D03*
X16520Y53900D02*
D03*
X23920Y53520D02*
D03*
X21880Y43720D02*
D03*
X16600Y43560D02*
D03*
X16500Y42440D02*
D03*
X15420Y43700D02*
D03*
X15960Y44480D02*
D03*
X18440Y41060D02*
D03*
X18015Y42370D02*
D03*
X19980Y46660D02*
D03*
X21150Y47190D02*
D03*
X22010Y47610D02*
D03*
X21400Y53560D02*
D03*
X24820Y49620D02*
D03*
X25800D02*
D03*
X19360Y39320D02*
D03*
X19285Y37831D02*
D03*
X26200Y38780D02*
D03*
X23120Y38380D02*
D03*
X21680Y37780D02*
D03*
X15188Y41601D02*
D03*
X15060Y48700D02*
D03*
X15647Y50993D02*
D03*
X19840Y47280D02*
D03*
X21060Y52080D02*
D03*
D65*
X15940Y48920D02*
D03*
X18760Y48400D02*
D03*
X18492Y48656D02*
D03*
X16142Y46480D02*
D03*
X17736Y47356D02*
D03*
X18495Y47120D02*
D03*
X18000Y47120D02*
D03*
Y47380D02*
D03*
X19040Y49940D02*
D03*
X16960D02*
D03*
X16700D02*
D03*
Y49680D02*
D03*
X16200D02*
D03*
D66*
X19920Y37408D02*
D03*
Y37112D02*
D03*
X19940Y38235D02*
D03*
Y37940D02*
D03*
X25580Y38552D02*
D03*
Y38848D02*
D03*
X25600Y37928D02*
D03*
Y37632D02*
D03*
X19880Y38732D02*
D03*
Y39028D02*
D03*
D67*
X20145Y41400D02*
D03*
X20460D02*
D03*
D68*
X22854Y36649D02*
D03*
X22421D02*
D03*
X24153D02*
D03*
X21988D02*
D03*
X23287D02*
D03*
X23720D02*
D03*
X21555D02*
D03*
D69*
X20586Y36698D02*
D03*
D70*
X25043Y36787D02*
D03*
D71*
X24246Y40911D02*
D03*
X21895D02*
D03*
D72*
X20517Y39070D02*
D03*
Y40527D02*
D03*
D73*
X24566Y36649D02*
D03*
D74*
X16785Y48060D02*
D03*
X16215D02*
D03*
D75*
X17680Y48415D02*
D03*
Y48985D02*
D03*
M02*
