G04*
G04 #@! TF.GenerationSoftware,Altium Limited,Altium Designer,21.6.4 (81)*
G04*
G04 Layer_Color=65535*
%FSLAX24Y24*%
%MOIN*%
G70*
G04*
G04 #@! TF.SameCoordinates,8E317252-C3AD-47CA-8584-9DD6DEF08156*
G04*
G04*
G04 #@! TF.FilePolarity,Positive*
G04*
G01*
G75*
%ADD10C,0.0079*%
%ADD11C,0.0039*%
%ADD12C,0.0098*%
%ADD13C,0.0050*%
%ADD14C,0.0100*%
D10*
X13459Y51758D02*
G03*
X13459Y51758I-39J0D01*
G01*
X15423Y50072D02*
G03*
X15423Y50072I-39J0D01*
G01*
X17325Y39890D02*
X17593D01*
X17325Y37390D02*
X17593D01*
X20872Y36242D02*
X24770D01*
X21443Y39785D02*
X21935D01*
X20872Y36242D02*
Y36882D01*
X24770Y36242D02*
Y36882D01*
X23707Y39785D02*
X24199D01*
X18800Y43445D02*
X19469D01*
X18800Y42775D02*
X19469D01*
X14469Y50312D02*
Y50809D01*
X13971Y50312D02*
Y50809D01*
X20933Y52522D02*
Y53490D01*
X20067Y52522D02*
Y53490D01*
X13065Y50450D02*
Y51139D01*
X13655Y50450D02*
Y51139D01*
X21163Y49426D02*
Y50534D01*
X21877Y49426D02*
Y50534D01*
X20686Y49053D02*
Y49467D01*
X20194Y49053D02*
Y49467D01*
X22827Y43245D02*
Y43859D01*
X22253Y43245D02*
Y43859D01*
X14141Y49830D02*
X14721D01*
X14141Y49290D02*
X14721D01*
X20891Y43406D02*
X20949D01*
X20891Y42914D02*
X20949D01*
X25076Y50633D02*
Y51047D01*
X24524Y50633D02*
Y51047D01*
X14156Y46885D02*
X14844D01*
X14156Y46315D02*
X14844D01*
X23272Y51130D02*
Y52390D01*
X22208Y51130D02*
X22258D01*
X23222D02*
X23272D01*
X22208D02*
Y52390D01*
X22258D01*
X23222D02*
X23272D01*
X25075Y51826D02*
Y52534D01*
X24445Y51826D02*
Y52534D01*
X24013Y41081D02*
Y43719D01*
X25627Y41081D02*
Y43719D01*
X24013D02*
X25627D01*
X24013Y41081D02*
X25627D01*
X20234Y46113D02*
Y46527D01*
X20726Y46113D02*
Y46527D01*
X20317Y44786D02*
Y45894D01*
X19603Y44786D02*
Y45894D01*
X16206Y51351D02*
Y51764D01*
X15714Y51351D02*
Y51764D01*
X17454Y45313D02*
Y45727D01*
X17946Y45313D02*
Y45727D01*
X21066Y47596D02*
Y48009D01*
X20574Y47596D02*
Y48009D01*
X18314Y51493D02*
Y51907D01*
X18806Y51493D02*
Y51907D01*
X16543Y51526D02*
Y52634D01*
X17257Y51526D02*
Y52634D01*
X14043Y47322D02*
Y48429D01*
X14757Y47322D02*
Y48429D01*
X20726Y51693D02*
Y52107D01*
X20234Y51693D02*
Y52107D01*
X18495Y45110D02*
Y45799D01*
X19065Y45110D02*
Y45799D01*
X19875Y49996D02*
Y50684D01*
X20445Y49996D02*
Y50684D01*
X17575Y51516D02*
Y52204D01*
X18145Y51516D02*
Y52204D01*
X26115Y51846D02*
Y52554D01*
X25485Y51846D02*
Y52554D01*
X26096Y50633D02*
Y51047D01*
X25544Y50633D02*
Y51047D01*
X22085Y41547D02*
X22699D01*
X22085Y40973D02*
X22699D01*
D11*
X25152Y40640D02*
G03*
X25152Y40640I-292J0D01*
G01*
X25012Y53440D02*
G03*
X25012Y53440I-292J0D01*
G01*
X18161Y43134D02*
G03*
X18161Y43134I-292J0D01*
G01*
X21092Y41220D02*
G03*
X21092Y41220I-292J0D01*
G01*
X19112Y40380D02*
G03*
X19112Y40380I-292J0D01*
G01*
X26432Y43705D02*
G03*
X26432Y43705I-292J0D01*
G01*
D12*
X15941Y39640D02*
G03*
X15941Y39640I-49J0D01*
G01*
X23500Y40150D02*
G03*
X23500Y40150I-49J0D01*
G01*
X18475Y43110D02*
G03*
X18475Y43110I-49J0D01*
G01*
X14269Y50068D02*
G03*
X14269Y50068I-49J0D01*
G01*
X24809Y52859D02*
G03*
X24809Y52859I-49J0D01*
G01*
X23639Y43699D02*
G03*
X23639Y43699I-49J0D01*
G01*
X25849Y52879D02*
G03*
X25849Y52879I-49J0D01*
G01*
D13*
X13105Y52474D02*
Y53246D01*
X13735Y52474D02*
Y53246D01*
X18238Y46765D02*
X19123D01*
Y47651D01*
X15580Y46765D02*
X16466D01*
X15580D02*
Y47651D01*
Y50308D02*
X16466D01*
X15580Y49422D02*
Y50308D01*
X18238D02*
X19123D01*
Y49422D02*
Y50308D01*
X13050Y54050D02*
Y54183D01*
X13117Y54250D01*
X13183Y54183D01*
Y54050D01*
Y54150D01*
X13050D01*
X13250Y54050D02*
Y54250D01*
X13383Y54050D01*
Y54250D01*
X13450D02*
X13583D01*
X13517D01*
Y54050D01*
X24618Y41415D02*
X24752D01*
X24685D01*
Y41215D01*
X24818D02*
Y41415D01*
X24918D01*
X24952Y41382D01*
Y41315D01*
X24918Y41282D01*
X24818D01*
X25018Y41215D02*
X25085D01*
X25052D01*
Y41415D01*
X25018Y41382D01*
X15840Y40190D02*
Y40390D01*
X15940D01*
X15973Y40357D01*
Y40290D01*
X15940Y40257D01*
X15840D01*
X16040Y40190D02*
X16107D01*
X16073D01*
Y40390D01*
X16040Y40357D01*
X26380Y40053D02*
Y40120D01*
Y40087D01*
X26213D01*
X26180Y40120D01*
Y40153D01*
X26213Y40187D01*
X26347Y39987D02*
X26380Y39953D01*
Y39887D01*
X26347Y39853D01*
X26313D01*
X26280Y39887D01*
Y39920D01*
Y39887D01*
X26247Y39853D01*
X26213D01*
X26180Y39887D01*
Y39953D01*
X26213Y39987D01*
X18873Y43740D02*
Y43540D01*
X19007D01*
X19207Y43740D02*
X19073D01*
Y43540D01*
X19207D01*
X19073Y43640D02*
X19140D01*
X19273Y43740D02*
Y43540D01*
X19373D01*
X19407Y43573D01*
Y43707D01*
X19373Y43740D01*
X19273D01*
X12150Y50257D02*
Y50057D01*
X12283D01*
X12350D02*
X12417D01*
X12383D01*
Y50257D01*
X12350Y50223D01*
X12517Y50023D02*
X12650D01*
X12717Y50257D02*
Y50057D01*
X12817D01*
X12850Y50090D01*
Y50123D01*
X12817Y50157D01*
X12717D01*
X12817D01*
X12850Y50190D01*
Y50223D01*
X12817Y50257D01*
X12717D01*
X12917D02*
Y50057D01*
X13050D01*
X13250Y50257D02*
X13117D01*
Y50057D01*
X13250D01*
X13117Y50157D02*
X13183D01*
X21167Y53320D02*
Y53120D01*
X21300D01*
X21367D02*
X21433D01*
X21400D01*
Y53320D01*
X21367Y53287D01*
X14783Y49834D02*
X14983D01*
Y49967D01*
Y50167D02*
Y50033D01*
X14850Y50167D01*
X14817D01*
X14783Y50133D01*
Y50067D01*
X14817Y50033D01*
X15017Y50233D02*
Y50367D01*
X14783Y50433D02*
X14983D01*
Y50533D01*
X14950Y50567D01*
X14917D01*
X14883Y50533D01*
Y50433D01*
Y50533D01*
X14850Y50567D01*
X14817D01*
X14783Y50533D01*
Y50433D01*
Y50633D02*
X14983D01*
Y50767D01*
X14783Y50966D02*
Y50833D01*
X14983D01*
Y50966D01*
X14883Y50833D02*
Y50900D01*
X21647Y51222D02*
X21613Y51256D01*
X21547D01*
X21513Y51222D01*
Y51089D01*
X21547Y51056D01*
X21613D01*
X21647Y51089D01*
X21847Y51056D02*
X21713D01*
X21847Y51189D01*
Y51222D01*
X21813Y51256D01*
X21747D01*
X21713Y51222D01*
X22047Y51056D02*
X21913D01*
X22047Y51189D01*
Y51222D01*
X22013Y51256D01*
X21947D01*
X21913Y51222D01*
X19780Y49347D02*
X19747Y49380D01*
X19680D01*
X19647Y49347D01*
Y49213D01*
X19680Y49180D01*
X19747D01*
X19780Y49213D01*
X19980Y49180D02*
X19847D01*
X19980Y49313D01*
Y49347D01*
X19947Y49380D01*
X19880D01*
X19847Y49347D01*
X20047Y49180D02*
X20113D01*
X20080D01*
Y49380D01*
X20047Y49347D01*
X22993Y43480D02*
X22960Y43447D01*
Y43380D01*
X22993Y43347D01*
X23127D01*
X23160Y43380D01*
Y43447D01*
X23127Y43480D01*
X22993Y43547D02*
X22960Y43580D01*
Y43647D01*
X22993Y43680D01*
X23027D01*
X23060Y43647D01*
Y43613D01*
Y43647D01*
X23093Y43680D01*
X23127D01*
X23160Y43647D01*
Y43580D01*
X23127Y43547D01*
X23160Y43747D02*
Y43813D01*
Y43780D01*
X22960D01*
X22993Y43747D01*
X13743Y49023D02*
X13710Y49057D01*
X13643D01*
X13610Y49023D01*
Y48890D01*
X13643Y48857D01*
X13710D01*
X13743Y48890D01*
X13810Y48857D02*
X13877D01*
X13843D01*
Y49057D01*
X13810Y49023D01*
X13977Y48823D02*
X14110D01*
X14177Y49057D02*
Y48857D01*
X14277D01*
X14310Y48890D01*
Y48923D01*
X14277Y48957D01*
X14177D01*
X14277D01*
X14310Y48990D01*
Y49023D01*
X14277Y49057D01*
X14177D01*
X14377D02*
Y48857D01*
X14510D01*
X14710Y49057D02*
X14577D01*
Y48857D01*
X14710D01*
X14577Y48957D02*
X14643D01*
X20140Y42663D02*
X19940D01*
Y42763D01*
X19973Y42797D01*
X20040D01*
X20073Y42763D01*
Y42663D01*
Y42730D02*
X20140Y42797D01*
Y42863D02*
Y42930D01*
Y42897D01*
X19940D01*
X19973Y42863D01*
X20140Y43030D02*
Y43097D01*
Y43063D01*
X19940D01*
X19973Y43030D01*
X25027Y50085D02*
Y50285D01*
X25127D01*
X25160Y50251D01*
Y50185D01*
X25127Y50151D01*
X25027D01*
X25093D02*
X25160Y50085D01*
X25227Y50251D02*
X25260Y50285D01*
X25327D01*
X25360Y50251D01*
Y50218D01*
X25327Y50185D01*
X25293D01*
X25327D01*
X25360Y50151D01*
Y50118D01*
X25327Y50085D01*
X25260D01*
X25227Y50118D01*
X25427Y50085D02*
X25493D01*
X25460D01*
Y50285D01*
X25427Y50251D01*
X14247Y46140D02*
X14113D01*
Y46040D01*
X14180D01*
X14113D01*
Y45940D01*
X14313Y46140D02*
Y45940D01*
X14413D01*
X14447Y45973D01*
Y46007D01*
X14413Y46040D01*
X14313D01*
X14413D01*
X14447Y46073D01*
Y46107D01*
X14413Y46140D01*
X14313D01*
X14613Y45940D02*
Y46140D01*
X14513Y46040D01*
X14647D01*
X22460Y49373D02*
X22260D01*
Y49473D01*
X22293Y49507D01*
X22360D01*
X22393Y49473D01*
Y49373D01*
Y49440D02*
X22460Y49507D01*
X22260Y49707D02*
Y49573D01*
X22460D01*
Y49707D01*
X22360Y49573D02*
Y49640D01*
X22293Y49907D02*
X22260Y49873D01*
Y49807D01*
X22293Y49773D01*
X22327D01*
X22360Y49807D01*
Y49873D01*
X22393Y49907D01*
X22427D01*
X22460Y49873D01*
Y49807D01*
X22427Y49773D01*
X22260Y50107D02*
Y49973D01*
X22460D01*
Y50107D01*
X22360Y49973D02*
Y50040D01*
X22260Y50173D02*
Y50307D01*
Y50240D01*
X22460D01*
X24227Y51483D02*
X24193Y51517D01*
X24127D01*
X24094Y51483D01*
Y51450D01*
X24127Y51417D01*
X24193D01*
X24227Y51383D01*
Y51350D01*
X24193Y51317D01*
X24127D01*
X24094Y51350D01*
X24293Y51517D02*
Y51317D01*
X24393D01*
X24427Y51350D01*
Y51483D01*
X24393Y51517D01*
X24293D01*
X24493Y51283D02*
X24627D01*
X24693Y51517D02*
Y51317D01*
X24827D01*
X25027Y51517D02*
X24893D01*
Y51317D01*
X25027D01*
X24893Y51417D02*
X24960D01*
X25093Y51517D02*
Y51317D01*
X25193D01*
X25226Y51350D01*
Y51483D01*
X25193Y51517D01*
X25093D01*
X21567Y49147D02*
X21533Y49180D01*
X21467D01*
X21433Y49147D01*
Y49013D01*
X21467Y48980D01*
X21533D01*
X21567Y49013D01*
X21767Y49180D02*
X21633D01*
Y49080D01*
X21700Y49113D01*
X21733D01*
X21767Y49080D01*
Y49013D01*
X21733Y48980D01*
X21667D01*
X21633Y49013D01*
X14510Y51160D02*
X14577D01*
X14543D01*
Y50960D01*
X14510D01*
X14577D01*
X14810Y51127D02*
X14777Y51160D01*
X14710D01*
X14677Y51127D01*
Y50993D01*
X14710Y50960D01*
X14777D01*
X14810Y50993D01*
X15010Y50960D02*
X14877D01*
X15010Y51093D01*
Y51127D01*
X14977Y51160D01*
X14910D01*
X14877Y51127D01*
X24687Y44040D02*
Y43873D01*
X24720Y43840D01*
X24787D01*
X24820Y43873D01*
Y44040D01*
X24887Y43840D02*
X24953D01*
X24920D01*
Y44040D01*
X24887Y44007D01*
X20460Y46929D02*
X20427Y46962D01*
X20360D01*
X20327Y46929D01*
Y46796D01*
X20360Y46763D01*
X20427D01*
X20460Y46796D01*
X20527Y46763D02*
X20593D01*
X20560D01*
Y46962D01*
X20527Y46929D01*
X20687Y45469D02*
X20720Y45502D01*
Y45569D01*
X20687Y45602D01*
X20553D01*
X20520Y45569D01*
Y45502D01*
X20553Y45469D01*
X20520Y45269D02*
Y45402D01*
X20653Y45269D01*
X20687D01*
X20720Y45302D01*
Y45369D01*
X20687Y45402D01*
X15467Y53361D02*
X15433Y53394D01*
X15367D01*
X15333Y53361D01*
Y53227D01*
X15367Y53194D01*
X15433D01*
X15467Y53227D01*
X15533Y53361D02*
X15567Y53394D01*
X15633D01*
X15667Y53361D01*
Y53327D01*
X15633Y53294D01*
X15600D01*
X15633D01*
X15667Y53261D01*
Y53227D01*
X15633Y53194D01*
X15567D01*
X15533Y53227D01*
X15853Y52287D02*
X15820Y52320D01*
X15753D01*
X15720Y52287D01*
Y52153D01*
X15753Y52120D01*
X15820D01*
X15853Y52153D01*
X16020Y52120D02*
Y52320D01*
X15920Y52220D01*
X16053D01*
X17647Y45067D02*
X17613Y45100D01*
X17547D01*
X17513Y45067D01*
Y44933D01*
X17547Y44900D01*
X17613D01*
X17647Y44933D01*
X17847Y45100D02*
X17780Y45067D01*
X17713Y45000D01*
Y44933D01*
X17747Y44900D01*
X17813D01*
X17847Y44933D01*
Y44967D01*
X17813Y45000D01*
X17713D01*
X20827Y48347D02*
X20793Y48380D01*
X20727D01*
X20693Y48347D01*
Y48213D01*
X20727Y48180D01*
X20793D01*
X20827Y48213D01*
X20893Y48380D02*
X21027D01*
Y48347D01*
X20893Y48213D01*
Y48180D01*
X18683Y52309D02*
X18650Y52342D01*
X18583D01*
X18550Y52309D01*
Y52176D01*
X18583Y52143D01*
X18650D01*
X18683Y52176D01*
X18750Y52143D02*
X18817D01*
X18783D01*
Y52342D01*
X18750Y52309D01*
X18917D02*
X18950Y52342D01*
X19017D01*
X19050Y52309D01*
Y52176D01*
X19017Y52143D01*
X18950D01*
X18917Y52176D01*
Y52309D01*
X16837Y53222D02*
X16803Y53256D01*
X16737D01*
X16703Y53222D01*
Y53089D01*
X16737Y53056D01*
X16803D01*
X16837Y53089D01*
X16903Y53056D02*
X16970D01*
X16937D01*
Y53256D01*
X16903Y53222D01*
X17070Y53056D02*
X17137D01*
X17103D01*
Y53256D01*
X17070Y53222D01*
X13483Y48027D02*
X13450Y48060D01*
X13383D01*
X13350Y48027D01*
Y47893D01*
X13383Y47860D01*
X13450D01*
X13483Y47893D01*
X13550Y47860D02*
X13617D01*
X13583D01*
Y48060D01*
X13550Y48027D01*
X13850Y48060D02*
X13717D01*
Y47960D01*
X13783Y47993D01*
X13817D01*
X13850Y47960D01*
Y47893D01*
X13817Y47860D01*
X13750D01*
X13717Y47893D01*
X21583Y51927D02*
X21550Y51960D01*
X21483D01*
X21450Y51927D01*
Y51793D01*
X21483Y51760D01*
X21550D01*
X21583Y51793D01*
X21650Y51760D02*
X21717D01*
X21683D01*
Y51960D01*
X21650Y51927D01*
X21950Y51960D02*
X21883Y51927D01*
X21817Y51860D01*
Y51793D01*
X21850Y51760D01*
X21917D01*
X21950Y51793D01*
Y51827D01*
X21917Y51860D01*
X21817D01*
X18700Y44920D02*
X18567D01*
Y44820D01*
X18633D01*
X18567D01*
Y44720D01*
X18767Y44920D02*
Y44720D01*
X18867D01*
X18900Y44753D01*
Y44787D01*
X18867Y44820D01*
X18767D01*
X18867D01*
X18900Y44853D01*
Y44887D01*
X18867Y44920D01*
X18767D01*
X18967Y44720D02*
X19033D01*
X19000D01*
Y44920D01*
X18967Y44887D01*
X20247Y51260D02*
X20113D01*
Y51160D01*
X20180D01*
X20113D01*
Y51060D01*
X20313Y51260D02*
Y51060D01*
X20413D01*
X20447Y51093D01*
Y51127D01*
X20413Y51160D01*
X20313D01*
X20413D01*
X20447Y51193D01*
Y51227D01*
X20413Y51260D01*
X20313D01*
X20647Y51060D02*
X20513D01*
X20647Y51193D01*
Y51227D01*
X20613Y51260D01*
X20547D01*
X20513Y51227D01*
X17767Y52646D02*
X17633D01*
Y52546D01*
X17700D01*
X17633D01*
Y52446D01*
X17833Y52646D02*
Y52446D01*
X17933D01*
X17967Y52479D01*
Y52512D01*
X17933Y52546D01*
X17833D01*
X17933D01*
X17967Y52579D01*
Y52612D01*
X17933Y52646D01*
X17833D01*
X18033Y52612D02*
X18067Y52646D01*
X18133D01*
X18167Y52612D01*
Y52579D01*
X18133Y52546D01*
X18100D01*
X18133D01*
X18167Y52512D01*
Y52479D01*
X18133Y52446D01*
X18067D01*
X18033Y52479D01*
X23973Y49340D02*
X23907D01*
X23940D01*
Y49173D01*
X23907Y49140D01*
X23873D01*
X23840Y49173D01*
X24040Y49140D02*
X24107D01*
X24073D01*
Y49340D01*
X24040Y49307D01*
X19720Y51867D02*
X19920D01*
Y51767D01*
X19887Y51733D01*
X19820D01*
X19787Y51767D01*
Y51867D01*
Y51800D02*
X19720Y51733D01*
Y51533D02*
Y51667D01*
X19853Y51533D01*
X19887D01*
X19920Y51567D01*
Y51633D01*
X19887Y51667D01*
X25633Y51560D02*
Y51360D01*
X25733D01*
X25767Y51393D01*
Y51427D01*
X25733Y51460D01*
X25633D01*
X25733D01*
X25767Y51493D01*
Y51527D01*
X25733Y51560D01*
X25633D01*
X25833D02*
Y51360D01*
X25967D01*
X26167Y51560D02*
X26033D01*
Y51360D01*
X26167D01*
X26033Y51460D02*
X26100D01*
X25733Y50080D02*
Y50280D01*
X25833D01*
X25867Y50247D01*
Y50180D01*
X25833Y50147D01*
X25733D01*
X25800D02*
X25867Y50080D01*
X25933Y50247D02*
X25967Y50280D01*
X26033D01*
X26067Y50247D01*
Y50213D01*
X26033Y50180D01*
X26000D01*
X26033D01*
X26067Y50147D01*
Y50113D01*
X26033Y50080D01*
X25967D01*
X25933Y50113D01*
X26133Y50247D02*
X26167Y50280D01*
X26233D01*
X26267Y50247D01*
Y50113D01*
X26233Y50080D01*
X26167D01*
X26133Y50113D01*
Y50247D01*
X24482Y54215D02*
X24615D01*
X24548D01*
Y54015D01*
X24682D02*
Y54215D01*
X24782D01*
X24815Y54182D01*
Y54115D01*
X24782Y54082D01*
X24682D01*
X25015Y54015D02*
X24882D01*
X25015Y54148D01*
Y54182D01*
X24982Y54215D01*
X24915D01*
X24882Y54182D01*
X17631Y43908D02*
X17764D01*
X17697D01*
Y43709D01*
X17831D02*
Y43908D01*
X17931D01*
X17964Y43875D01*
Y43809D01*
X17931Y43775D01*
X17831D01*
X18031Y43875D02*
X18064Y43908D01*
X18131D01*
X18164Y43875D01*
Y43842D01*
X18131Y43809D01*
X18097D01*
X18131D01*
X18164Y43775D01*
Y43742D01*
X18131Y43709D01*
X18064D01*
X18031Y43742D01*
X20562Y41995D02*
X20695D01*
X20628D01*
Y41795D01*
X20762D02*
Y41995D01*
X20862D01*
X20895Y41962D01*
Y41895D01*
X20862Y41862D01*
X20762D01*
X21095Y41995D02*
X21028Y41962D01*
X20962Y41895D01*
Y41828D01*
X20995Y41795D01*
X21061D01*
X21095Y41828D01*
Y41862D01*
X21061Y41895D01*
X20962D01*
X18587Y41155D02*
X18720D01*
X18653D01*
Y40955D01*
X18787D02*
Y41155D01*
X18887D01*
X18920Y41122D01*
Y41055D01*
X18887Y41022D01*
X18787D01*
X18987Y40955D02*
X19053D01*
X19020D01*
Y41155D01*
X18987Y41122D01*
X19153Y40955D02*
X19220D01*
X19186D01*
Y41155D01*
X19153Y41122D01*
X25833Y43340D02*
X25967D01*
X25900D01*
Y43140D01*
X26033D02*
Y43340D01*
X26133D01*
X26167Y43307D01*
Y43240D01*
X26133Y43207D01*
X26033D01*
X26233Y43173D02*
X26267Y43140D01*
X26333D01*
X26367Y43173D01*
Y43307D01*
X26333Y43340D01*
X26267D01*
X26233Y43307D01*
Y43273D01*
X26267Y43240D01*
X26367D01*
X22607Y41947D02*
X22573Y41980D01*
X22507D01*
X22473Y41947D01*
Y41813D01*
X22507Y41780D01*
X22573D01*
X22607Y41813D01*
X22673Y41947D02*
X22707Y41980D01*
X22773D01*
X22807Y41947D01*
Y41913D01*
X22773Y41880D01*
X22740D01*
X22773D01*
X22807Y41847D01*
Y41813D01*
X22773Y41780D01*
X22707D01*
X22673Y41813D01*
X22873Y41947D02*
X22907Y41980D01*
X22973D01*
X23007Y41947D01*
Y41813D01*
X22973Y41780D01*
X22907D01*
X22873Y41813D01*
Y41947D01*
D14*
X23835Y48840D02*
X26515D01*
X23835Y44250D02*
Y48840D01*
Y44250D02*
X26515D01*
Y48840D01*
M02*
