G04*
G04 #@! TF.GenerationSoftware,Altium Limited,Altium Designer,21.6.4 (81)*
G04*
G04 Layer_Physical_Order=3*
G04 Layer_Color=16440176*
%FSLAX24Y24*%
%MOIN*%
G70*
G04*
G04 #@! TF.SameCoordinates,8E317252-C3AD-47CA-8584-9DD6DEF08156*
G04*
G04*
G04 #@! TF.FilePolarity,Positive*
G04*
G01*
G75*
%ADD13C,0.0050*%
%ADD14C,0.0100*%
%ADD58C,0.0080*%
%ADD60C,0.0150*%
%ADD61C,0.0070*%
%ADD64C,0.0236*%
%ADD65C,0.0150*%
G36*
X26680Y53695D02*
X26630Y53690D01*
X26627Y53704D01*
X26580Y53819D01*
X26511Y53923D01*
X26423Y54011D01*
X26319Y54080D01*
X26204Y54127D01*
X26082Y54152D01*
X25958D01*
X25836Y54127D01*
X25721Y54080D01*
X25617Y54011D01*
X25529Y53923D01*
X25460Y53819D01*
X25413Y53704D01*
X25389Y53582D01*
Y53458D01*
X25413Y53336D01*
X25460Y53221D01*
X25529Y53117D01*
X25617Y53029D01*
X25721Y52960D01*
X25836Y52913D01*
X25958Y52888D01*
X26082D01*
X26204Y52913D01*
X26319Y52960D01*
X26423Y53029D01*
X26511Y53117D01*
X26580Y53221D01*
X26627Y53336D01*
X26630Y53350D01*
X26680Y53345D01*
Y37016D01*
X26630Y37006D01*
X26600Y37079D01*
X26531Y37183D01*
X26443Y37271D01*
X26339Y37340D01*
X26224Y37387D01*
X26102Y37411D01*
X25978D01*
X25856Y37387D01*
X25741Y37340D01*
X25637Y37271D01*
X25549Y37183D01*
X25480Y37079D01*
X25433Y36964D01*
X25408Y36842D01*
Y36718D01*
X25433Y36596D01*
X25480Y36481D01*
X25549Y36377D01*
X25637Y36289D01*
X25741Y36220D01*
X25856Y36173D01*
X25978Y36149D01*
X26102D01*
X26224Y36173D01*
X26339Y36220D01*
X26443Y36289D01*
X26531Y36377D01*
X26600Y36481D01*
X26630Y36554D01*
X26680Y36544D01*
Y36080D01*
X12096D01*
X12061Y36115D01*
X12061Y36450D01*
X12111Y36465D01*
X12169Y36377D01*
X12257Y36289D01*
X12361Y36220D01*
X12476Y36173D01*
X12598Y36149D01*
X12722D01*
X12844Y36173D01*
X12959Y36220D01*
X13063Y36289D01*
X13151Y36377D01*
X13220Y36481D01*
X13267Y36596D01*
X13291Y36718D01*
Y36842D01*
X13267Y36964D01*
X13220Y37079D01*
X13151Y37183D01*
X13063Y37271D01*
X12959Y37340D01*
X12844Y37387D01*
X12722Y37411D01*
X12598D01*
X12476Y37387D01*
X12361Y37340D01*
X12257Y37271D01*
X12169Y37183D01*
X12112Y37096D01*
X12062Y37111D01*
X12080Y54300D01*
X26680Y54300D01*
Y53695D01*
D02*
G37*
%LPC*%
G36*
X16570Y54115D02*
Y53950D01*
X16735D01*
X16705Y54024D01*
X16644Y54085D01*
X16570Y54115D01*
D02*
G37*
G36*
X16470D02*
X16396Y54085D01*
X16335Y54024D01*
X16305Y53950D01*
X16470D01*
Y54115D01*
D02*
G37*
G36*
X16735Y53850D02*
X16570D01*
Y53685D01*
X16644Y53715D01*
X16705Y53776D01*
X16735Y53850D01*
D02*
G37*
G36*
X16470D02*
X16305D01*
X16335Y53776D01*
X16396Y53715D01*
X16470Y53685D01*
Y53850D01*
D02*
G37*
G36*
X23970Y53735D02*
Y53570D01*
X24135D01*
X24105Y53644D01*
X24044Y53705D01*
X23970Y53735D01*
D02*
G37*
G36*
X23870D02*
X23796Y53705D01*
X23735Y53644D01*
X23705Y53570D01*
X23870D01*
Y53735D01*
D02*
G37*
G36*
X21443Y53778D02*
X21357D01*
X21276Y53745D01*
X21215Y53684D01*
X21182Y53603D01*
Y53517D01*
X21215Y53436D01*
X21276Y53375D01*
X21357Y53342D01*
X21443D01*
X21524Y53375D01*
X21585Y53436D01*
X21618Y53517D01*
Y53603D01*
X21585Y53684D01*
X21524Y53745D01*
X21443Y53778D01*
D02*
G37*
G36*
X24135Y53470D02*
X23970D01*
Y53305D01*
X24044Y53335D01*
X24105Y53396D01*
X24135Y53470D01*
D02*
G37*
G36*
X23870D02*
X23705D01*
X23735Y53396D01*
X23796Y53335D01*
X23870Y53305D01*
Y53470D01*
D02*
G37*
G36*
X21710Y52995D02*
Y52830D01*
X21875D01*
X21845Y52904D01*
X21784Y52965D01*
X21710Y52995D01*
D02*
G37*
G36*
X21610D02*
X21536Y52965D01*
X21475Y52904D01*
X21445Y52830D01*
X21610D01*
Y52995D01*
D02*
G37*
G36*
X19446Y52973D02*
Y52808D01*
X19611D01*
X19580Y52881D01*
X19519Y52943D01*
X19446Y52973D01*
D02*
G37*
G36*
X19346D02*
X19272Y52943D01*
X19211Y52881D01*
X19180Y52808D01*
X19346D01*
Y52973D01*
D02*
G37*
G36*
X21875Y52730D02*
X21710D01*
Y52565D01*
X21784Y52595D01*
X21845Y52656D01*
X21875Y52730D01*
D02*
G37*
G36*
X21610D02*
X21445D01*
X21475Y52656D01*
X21536Y52595D01*
X21610Y52565D01*
Y52730D01*
D02*
G37*
G36*
X19611Y52708D02*
X19446D01*
Y52542D01*
X19519Y52573D01*
X19580Y52634D01*
X19611Y52708D01*
D02*
G37*
G36*
X19346D02*
X19180D01*
X19211Y52634D01*
X19272Y52573D01*
X19346Y52542D01*
Y52708D01*
D02*
G37*
G36*
X21103Y52298D02*
X21017D01*
X20936Y52265D01*
X20875Y52204D01*
X20842Y52123D01*
Y52037D01*
X20875Y51956D01*
X20936Y51895D01*
X21017Y51862D01*
X21103D01*
X21184Y51895D01*
X21245Y51956D01*
X21278Y52037D01*
Y52123D01*
X21245Y52204D01*
X21184Y52265D01*
X21103Y52298D01*
D02*
G37*
G36*
X17263Y51258D02*
X17177D01*
X17096Y51225D01*
X17054Y51183D01*
X16060D01*
X16060Y51183D01*
X16005Y51172D01*
X15959Y51141D01*
X15959Y51141D01*
X15894Y51076D01*
X15845Y51086D01*
X15832Y51116D01*
X15771Y51177D01*
X15691Y51211D01*
X15604D01*
X15524Y51177D01*
X15463Y51116D01*
X15429Y51036D01*
Y50949D01*
X15463Y50869D01*
X15524Y50808D01*
X15592Y50779D01*
X15606Y50741D01*
X15608Y50724D01*
X15189Y50306D01*
X15184Y50307D01*
X15129Y50296D01*
X15083Y50265D01*
X14661Y49843D01*
X14630Y49797D01*
X14619Y49742D01*
X14619Y49742D01*
Y40899D01*
X14619Y40899D01*
X14630Y40844D01*
X14661Y40798D01*
X15477Y39981D01*
Y38046D01*
X15435Y38004D01*
X15402Y37923D01*
Y37837D01*
X15435Y37756D01*
X15496Y37695D01*
X15577Y37662D01*
X15663D01*
X15744Y37695D01*
X15805Y37756D01*
X15838Y37837D01*
Y37923D01*
X15805Y38004D01*
X15763Y38046D01*
Y40041D01*
X15763Y40041D01*
X15752Y40095D01*
X15721Y40141D01*
X15721Y40141D01*
X14905Y40958D01*
Y47947D01*
X14946Y47974D01*
X14977Y47962D01*
X15063D01*
X15144Y47995D01*
X15186Y48038D01*
X15239Y48048D01*
X15285Y48079D01*
X15288Y48083D01*
X15758D01*
X15795Y48091D01*
X15826Y48112D01*
X16580Y48865D01*
X16607D01*
X16656Y48886D01*
X16703Y48862D01*
Y46720D01*
X16462Y46478D01*
X16448Y46481D01*
X16390Y46469D01*
X16340Y46436D01*
X16312Y46408D01*
X16269Y46436D01*
X16276Y46453D01*
Y46507D01*
X16256Y46556D01*
X16218Y46594D01*
X16168Y46615D01*
X16115D01*
X16079Y46639D01*
Y47122D01*
X16266Y47309D01*
X16356D01*
X16373Y47291D01*
X16423Y47271D01*
X16476D01*
X16526Y47291D01*
X16564Y47329D01*
X16584Y47379D01*
Y47432D01*
X16564Y47482D01*
X16526Y47520D01*
X16476Y47540D01*
X16423D01*
X16373Y47520D01*
X16356Y47502D01*
X16225D01*
X16188Y47495D01*
X16157Y47474D01*
X15914Y47230D01*
X15893Y47199D01*
X15885Y47162D01*
Y46432D01*
X15881Y46429D01*
X15850Y46383D01*
X15839Y46328D01*
Y45998D01*
X15839Y45998D01*
X15850Y45943D01*
X15881Y45897D01*
X16380Y45398D01*
Y45366D01*
X16414Y45286D01*
X16475Y45225D01*
X16555Y45191D01*
X16642D01*
X16722Y45225D01*
X16783Y45286D01*
X16817Y45366D01*
Y45453D01*
X16783Y45533D01*
X16722Y45594D01*
X16642Y45628D01*
X16555D01*
X16554Y45627D01*
X16319Y45863D01*
X16331Y45922D01*
X16364Y45935D01*
X16425Y45996D01*
X16458Y46077D01*
Y46122D01*
X16556Y46220D01*
X16589Y46270D01*
X16601Y46328D01*
X16598Y46342D01*
X16868Y46612D01*
X16889Y46643D01*
X16897Y46680D01*
Y49080D01*
X16889Y49117D01*
X16868Y49148D01*
X16537Y49480D01*
Y49592D01*
X16582Y49603D01*
X16587Y49603D01*
X16624Y49566D01*
X16673Y49545D01*
X16727D01*
X16776Y49566D01*
X16814Y49604D01*
X16835Y49653D01*
Y49707D01*
X16814Y49756D01*
X16792Y49778D01*
X16782Y49810D01*
X16789Y49833D01*
X16837Y49856D01*
X16862Y49848D01*
X16884Y49826D01*
X16933Y49805D01*
X16987D01*
X16993Y49808D01*
X17043Y49775D01*
Y46432D01*
X17039Y46429D01*
X17008Y46383D01*
X16997Y46328D01*
Y41760D01*
X16997Y41760D01*
X17008Y41705D01*
X17039Y41659D01*
X18419Y40279D01*
X18419Y40279D01*
X18465Y40248D01*
X18520Y40237D01*
X18520Y40237D01*
X21974D01*
X22016Y40195D01*
X22097Y40162D01*
X22183D01*
X22264Y40195D01*
X22325Y40256D01*
X22358Y40337D01*
Y40423D01*
X22325Y40504D01*
X22264Y40565D01*
X22183Y40598D01*
X22097D01*
X22016Y40565D01*
X21974Y40523D01*
X18579D01*
X17283Y41819D01*
Y46328D01*
X17272Y46383D01*
X17241Y46429D01*
X17237Y46432D01*
Y50060D01*
X17229Y50097D01*
X17208Y50128D01*
X16803Y50533D01*
X16824Y50583D01*
X16880D01*
X17423Y50040D01*
Y49453D01*
X17392Y49422D01*
X17371Y49390D01*
X17364Y49353D01*
Y49207D01*
X17371Y49170D01*
X17392Y49138D01*
X17423Y49107D01*
Y46432D01*
X17419Y46429D01*
X17388Y46383D01*
X17377Y46328D01*
Y42320D01*
X17377Y42320D01*
X17388Y42265D01*
X17419Y42219D01*
X18299Y41339D01*
X18299Y41339D01*
X18343Y41310D01*
X18345Y41295D01*
X18346Y41257D01*
X18316Y41245D01*
X18255Y41184D01*
X18225Y41110D01*
X18655D01*
X18625Y41184D01*
X18564Y41245D01*
X18558Y41247D01*
X18568Y41297D01*
X21701D01*
X22542Y40456D01*
Y40397D01*
X22575Y40316D01*
X22636Y40255D01*
X22717Y40222D01*
X22803D01*
X22884Y40255D01*
X22945Y40316D01*
X22978Y40397D01*
Y40483D01*
X22945Y40564D01*
X22884Y40625D01*
X22803Y40658D01*
X22744D01*
X21861Y41541D01*
X21815Y41572D01*
X21760Y41583D01*
X21760Y41583D01*
X18459D01*
X17924Y42117D01*
X17953Y42160D01*
X17965Y42155D01*
Y42320D01*
X17800D01*
X17805Y42307D01*
X17763Y42279D01*
X17663Y42379D01*
Y46328D01*
X17652Y46383D01*
X17621Y46429D01*
X17617Y46432D01*
Y47214D01*
X17637Y47228D01*
X17667Y47239D01*
X17709Y47222D01*
X17762D01*
X17812Y47242D01*
X17841Y47271D01*
X17877Y47270D01*
X17896Y47265D01*
X17914Y47237D01*
X17908Y47218D01*
X17886Y47196D01*
X17865Y47147D01*
Y47093D01*
X17886Y47044D01*
X17924Y47006D01*
X17973Y46985D01*
X18027D01*
X18076Y47006D01*
X18114Y47044D01*
X18135Y47093D01*
Y47147D01*
X18114Y47196D01*
X18092Y47218D01*
X18082Y47250D01*
X18092Y47282D01*
X18114Y47304D01*
X18135Y47353D01*
Y47407D01*
X18114Y47456D01*
X18076Y47494D01*
X18027Y47515D01*
X17973D01*
X17924Y47494D01*
X17889Y47459D01*
X17884Y47456D01*
X17830Y47452D01*
X17812Y47470D01*
X17762Y47491D01*
X17709D01*
X17667Y47473D01*
X17637Y47485D01*
X17617Y47498D01*
Y49076D01*
X17667Y49097D01*
X17783Y48980D01*
Y48220D01*
X17791Y48183D01*
X17812Y48152D01*
X19542Y46421D01*
X19541Y46416D01*
X19552Y46361D01*
X19583Y46315D01*
X20979Y44919D01*
X20979Y44919D01*
X21025Y44888D01*
X21080Y44877D01*
X21080Y44877D01*
X23854D01*
X23896Y44835D01*
X23977Y44802D01*
X24063D01*
X24144Y44835D01*
X24205Y44896D01*
X24238Y44977D01*
Y45063D01*
X24205Y45144D01*
X24144Y45205D01*
X24063Y45238D01*
X23977D01*
X23896Y45205D01*
X23854Y45163D01*
X21139D01*
X19898Y46404D01*
X19927Y46446D01*
X19930Y46445D01*
Y46610D01*
X19765D01*
X19776Y46583D01*
X19747Y46556D01*
X19736Y46548D01*
X19684Y46559D01*
X19679Y46558D01*
X17977Y48260D01*
Y48738D01*
X18027Y48758D01*
X19310Y47475D01*
X19342Y47454D01*
X19379Y47446D01*
X19580D01*
X19583Y47442D01*
X19613Y47422D01*
X19629Y47411D01*
X19637Y47359D01*
X19622Y47323D01*
Y47237D01*
X19655Y47156D01*
X19716Y47095D01*
X19797Y47062D01*
X19883D01*
X19964Y47095D01*
X20025Y47156D01*
X20038Y47187D01*
X20087Y47197D01*
X20724Y46559D01*
X20724Y46559D01*
X20770Y46528D01*
X20825Y46517D01*
X20825Y46517D01*
X23474D01*
X23516Y46475D01*
X23597Y46442D01*
X23683D01*
X23764Y46475D01*
X23825Y46536D01*
X23858Y46617D01*
Y46703D01*
X23825Y46784D01*
X23764Y46845D01*
X23683Y46878D01*
X23597D01*
X23516Y46845D01*
X23474Y46803D01*
X20884D01*
X20043Y47644D01*
X19997Y47675D01*
X19942Y47686D01*
X19942Y47686D01*
X19684D01*
X19629Y47675D01*
X19583Y47644D01*
X19580Y47640D01*
X19419D01*
X18823Y48235D01*
X18831Y48275D01*
X18840Y48289D01*
X18874Y48324D01*
X18895Y48373D01*
Y48427D01*
X18885Y48449D01*
X18926Y48482D01*
X18943Y48471D01*
X18980Y48463D01*
X19580D01*
X19583Y48459D01*
X19629Y48428D01*
X19684Y48417D01*
X20414D01*
X20456Y48375D01*
X20537Y48342D01*
X20623D01*
X20704Y48375D01*
X20765Y48436D01*
X20798Y48517D01*
Y48603D01*
X20765Y48684D01*
X20704Y48745D01*
X20623Y48778D01*
X20537D01*
X20456Y48745D01*
X20414Y48703D01*
X19684D01*
X19629Y48692D01*
X19583Y48661D01*
X19580Y48657D01*
X19020D01*
X18597Y49080D01*
Y49326D01*
X18614Y49344D01*
X18635Y49393D01*
Y49447D01*
X18614Y49496D01*
X18597Y49514D01*
Y50350D01*
X18589Y50387D01*
X18568Y50419D01*
X18455Y50532D01*
Y50557D01*
X18434Y50606D01*
X18458Y50654D01*
X19574D01*
X19583Y50639D01*
X19629Y50608D01*
X19684Y50597D01*
X21381D01*
X22822Y49156D01*
Y49097D01*
X22855Y49016D01*
X22916Y48955D01*
X22997Y48922D01*
X23083D01*
X23164Y48955D01*
X23225Y49016D01*
X23258Y49097D01*
Y49115D01*
X23304Y49134D01*
X23537Y48901D01*
Y47346D01*
X23495Y47304D01*
X23462Y47223D01*
Y47137D01*
X23495Y47056D01*
X23556Y46995D01*
X23637Y46962D01*
X23723D01*
X23804Y46995D01*
X23865Y47056D01*
X23898Y47137D01*
Y47223D01*
X23865Y47304D01*
X23823Y47346D01*
Y48960D01*
X23823Y48960D01*
X23812Y49015D01*
X23781Y49061D01*
X23426Y49416D01*
X23445Y49462D01*
X23463D01*
X23544Y49495D01*
X23605Y49556D01*
X23635Y49630D01*
X23420D01*
Y49680D01*
X23370D01*
Y49895D01*
X23296Y49865D01*
X23235Y49804D01*
X23202Y49723D01*
Y49705D01*
X23156Y49686D01*
X21781Y51061D01*
X21735Y51092D01*
X21680Y51103D01*
X21680Y51103D01*
X18607D01*
X18565Y51145D01*
X18485Y51178D01*
X18398D01*
X18318Y51145D01*
X18257Y51083D01*
X18224Y51003D01*
Y50917D01*
X18240Y50877D01*
X18207Y50827D01*
X18040D01*
X18007Y50820D01*
X17979Y50801D01*
X17659Y50481D01*
X17640Y50453D01*
X17634Y50420D01*
Y50171D01*
X17604Y50156D01*
X17584Y50153D01*
X16988Y50748D01*
X16957Y50769D01*
X16920Y50777D01*
X16280D01*
X16243Y50769D01*
X16212Y50748D01*
X15998Y50535D01*
X15973D01*
X15924Y50514D01*
X15886Y50476D01*
X15865Y50427D01*
Y50373D01*
X15886Y50324D01*
X15924Y50286D01*
X15973Y50265D01*
X16027D01*
X16053Y50276D01*
X16103Y50248D01*
Y50034D01*
X16086Y50016D01*
X16065Y49967D01*
Y49913D01*
X16086Y49864D01*
X16108Y49842D01*
X16118Y49810D01*
X16108Y49778D01*
X16086Y49756D01*
X16065Y49707D01*
Y49653D01*
X16086Y49604D01*
X16124Y49566D01*
X16173Y49545D01*
X16227D01*
X16276Y49566D01*
X16293Y49583D01*
X16343Y49562D01*
Y49440D01*
X16351Y49403D01*
X16372Y49372D01*
X16559Y49185D01*
X16557Y49166D01*
X16542Y49130D01*
X16504Y49114D01*
X16466Y49076D01*
X16445Y49027D01*
Y49004D01*
X15718Y48277D01*
X15288D01*
X15285Y48281D01*
X15239Y48312D01*
X15186Y48322D01*
X15144Y48365D01*
X15063Y48398D01*
X14977D01*
X14946Y48386D01*
X14905Y48413D01*
Y48482D01*
X14955Y48508D01*
X15017Y48482D01*
X15103D01*
X15184Y48515D01*
X15245Y48576D01*
X15278Y48657D01*
Y48743D01*
X15245Y48824D01*
X15184Y48885D01*
X15103Y48918D01*
X15017D01*
X14955Y48892D01*
X14905Y48918D01*
Y49683D01*
X15285Y50063D01*
X15316Y50109D01*
X15327Y50164D01*
X15326Y50169D01*
X15783Y50626D01*
X15788Y50625D01*
X15843Y50636D01*
X15889Y50667D01*
X16119Y50897D01*
X17054D01*
X17096Y50855D01*
X17177Y50822D01*
X17263D01*
X17344Y50855D01*
X17405Y50916D01*
X17438Y50997D01*
Y51083D01*
X17405Y51164D01*
X17344Y51225D01*
X17263Y51258D01*
D02*
G37*
G36*
X19067Y50075D02*
X19013D01*
X18964Y50054D01*
X18926Y50016D01*
X18905Y49967D01*
Y49913D01*
X18926Y49864D01*
X18964Y49826D01*
X19013Y49805D01*
X19067D01*
X19116Y49826D01*
X19154Y49864D01*
X19175Y49913D01*
Y49967D01*
X19154Y50016D01*
X19116Y50054D01*
X19067Y50075D01*
D02*
G37*
G36*
X23470Y49895D02*
Y49730D01*
X23635D01*
X23605Y49804D01*
X23544Y49865D01*
X23470Y49895D01*
D02*
G37*
G36*
X25843Y49838D02*
X25757D01*
X25676Y49805D01*
X25615Y49744D01*
X25582Y49663D01*
Y49577D01*
X25615Y49496D01*
X25676Y49435D01*
X25757Y49402D01*
X25843D01*
X25924Y49435D01*
X25985Y49496D01*
X26018Y49577D01*
Y49663D01*
X25985Y49744D01*
X25924Y49805D01*
X25843Y49838D01*
D02*
G37*
G36*
X24863D02*
X24777D01*
X24696Y49805D01*
X24635Y49744D01*
X24602Y49663D01*
Y49577D01*
X24635Y49496D01*
X24696Y49435D01*
X24777Y49402D01*
X24863D01*
X24944Y49435D01*
X25005Y49496D01*
X25038Y49577D01*
Y49663D01*
X25005Y49744D01*
X24944Y49805D01*
X24863Y49838D01*
D02*
G37*
G36*
X15967Y49055D02*
X15913D01*
X15864Y49034D01*
X15826Y48996D01*
X15805Y48947D01*
Y48893D01*
X15826Y48844D01*
X15864Y48806D01*
X15913Y48785D01*
X15967D01*
X16016Y48806D01*
X16054Y48844D01*
X16075Y48893D01*
Y48947D01*
X16054Y48996D01*
X16016Y49034D01*
X15967Y49055D01*
D02*
G37*
G36*
X22060Y47825D02*
Y47660D01*
X22225D01*
X22195Y47734D01*
X22134Y47795D01*
X22060Y47825D01*
D02*
G37*
G36*
X21960D02*
X21886Y47795D01*
X21825Y47734D01*
X21795Y47660D01*
X21960D01*
Y47825D01*
D02*
G37*
G36*
X22225Y47560D02*
X22060D01*
Y47395D01*
X22134Y47425D01*
X22195Y47486D01*
X22225Y47560D01*
D02*
G37*
G36*
X21960D02*
X21795D01*
X21825Y47486D01*
X21886Y47425D01*
X21960Y47395D01*
Y47560D01*
D02*
G37*
G36*
X21200Y47405D02*
Y47240D01*
X21365D01*
X21335Y47314D01*
X21274Y47375D01*
X21200Y47405D01*
D02*
G37*
G36*
X21100D02*
X21026Y47375D01*
X20965Y47314D01*
X20935Y47240D01*
X21100D01*
Y47405D01*
D02*
G37*
G36*
X12940Y47205D02*
Y47040D01*
X13105D01*
X13075Y47114D01*
X13014Y47175D01*
X12940Y47205D01*
D02*
G37*
G36*
X12840D02*
X12766Y47175D01*
X12705Y47114D01*
X12675Y47040D01*
X12840D01*
Y47205D01*
D02*
G37*
G36*
X18522Y47254D02*
X18468D01*
X18418Y47234D01*
X18381Y47196D01*
X18360Y47146D01*
Y47093D01*
X18381Y47043D01*
X18418Y47006D01*
X18468Y46985D01*
X18522D01*
X18571Y47006D01*
X18609Y47043D01*
X18629Y47093D01*
Y47146D01*
X18609Y47196D01*
X18571Y47234D01*
X18522Y47254D01*
D02*
G37*
G36*
X21365Y47140D02*
X21200D01*
Y46975D01*
X21274Y47005D01*
X21335Y47066D01*
X21365Y47140D01*
D02*
G37*
G36*
X21100D02*
X20935D01*
X20965Y47066D01*
X21026Y47005D01*
X21100Y46975D01*
Y47140D01*
D02*
G37*
G36*
X13105Y46940D02*
X12940D01*
Y46775D01*
X13014Y46805D01*
X13075Y46866D01*
X13105Y46940D01*
D02*
G37*
G36*
X12840D02*
X12675D01*
X12705Y46866D01*
X12766Y46805D01*
X12840Y46775D01*
Y46940D01*
D02*
G37*
G36*
X20030Y46875D02*
Y46710D01*
X20195D01*
X20165Y46784D01*
X20104Y46845D01*
X20030Y46875D01*
D02*
G37*
G36*
X19930D02*
X19856Y46845D01*
X19795Y46784D01*
X19765Y46710D01*
X19930D01*
Y46875D01*
D02*
G37*
G36*
X20195Y46610D02*
X20030D01*
Y46445D01*
X20104Y46475D01*
X20165Y46536D01*
X20195Y46610D01*
D02*
G37*
G36*
X22403Y45798D02*
X22317D01*
X22236Y45765D01*
X22175Y45704D01*
X22142Y45623D01*
Y45537D01*
X22175Y45456D01*
X22236Y45395D01*
X22317Y45362D01*
X22403D01*
X22484Y45395D01*
X22545Y45456D01*
X22578Y45537D01*
Y45623D01*
X22545Y45704D01*
X22484Y45765D01*
X22403Y45798D01*
D02*
G37*
G36*
X14330Y45415D02*
Y45250D01*
X14495D01*
X14465Y45324D01*
X14404Y45385D01*
X14330Y45415D01*
D02*
G37*
G36*
X14230D02*
X14156Y45385D01*
X14095Y45324D01*
X14065Y45250D01*
X14230D01*
Y45415D01*
D02*
G37*
G36*
X14495Y45150D02*
X14330D01*
Y44985D01*
X14404Y45015D01*
X14465Y45076D01*
X14495Y45150D01*
D02*
G37*
G36*
X14230D02*
X14065D01*
X14095Y45076D01*
X14156Y45015D01*
X14230Y44985D01*
Y45150D01*
D02*
G37*
G36*
X23046Y44730D02*
Y44565D01*
X23212D01*
X23181Y44639D01*
X23120Y44700D01*
X23046Y44730D01*
D02*
G37*
G36*
X22946D02*
X22873Y44700D01*
X22812Y44639D01*
X22781Y44565D01*
X22946D01*
Y44730D01*
D02*
G37*
G36*
X16010Y44695D02*
Y44530D01*
X16175D01*
X16145Y44604D01*
X16084Y44665D01*
X16010Y44695D01*
D02*
G37*
G36*
X15910D02*
X15836Y44665D01*
X15775Y44604D01*
X15745Y44530D01*
X15910D01*
Y44695D01*
D02*
G37*
G36*
X23212Y44465D02*
X23046D01*
Y44300D01*
X23120Y44330D01*
X23181Y44392D01*
X23212Y44465D01*
D02*
G37*
G36*
X22946D02*
X22781D01*
X22812Y44392D01*
X22873Y44330D01*
X22946Y44300D01*
Y44465D01*
D02*
G37*
G36*
X16175Y44430D02*
X16010D01*
Y44265D01*
X16084Y44295D01*
X16145Y44356D01*
X16175Y44430D01*
D02*
G37*
G36*
X15910D02*
X15745D01*
X15775Y44356D01*
X15836Y44295D01*
X15910Y44265D01*
Y44430D01*
D02*
G37*
G36*
X12910Y44115D02*
Y43950D01*
X13075D01*
X13045Y44024D01*
X12984Y44085D01*
X12910Y44115D01*
D02*
G37*
G36*
X12810D02*
X12736Y44085D01*
X12675Y44024D01*
X12645Y43950D01*
X12810D01*
Y44115D01*
D02*
G37*
G36*
X21930Y43935D02*
Y43770D01*
X22095D01*
X22065Y43844D01*
X22004Y43905D01*
X21930Y43935D01*
D02*
G37*
G36*
X21830D02*
X21756Y43905D01*
X21695Y43844D01*
X21665Y43770D01*
X21830D01*
Y43935D01*
D02*
G37*
G36*
X15470Y43915D02*
Y43750D01*
X15635D01*
X15605Y43824D01*
X15544Y43885D01*
X15470Y43915D01*
D02*
G37*
G36*
X15370D02*
X15296Y43885D01*
X15235Y43824D01*
X15205Y43750D01*
X15370D01*
Y43915D01*
D02*
G37*
G36*
X13075Y43850D02*
X12910D01*
Y43685D01*
X12984Y43715D01*
X13045Y43776D01*
X13075Y43850D01*
D02*
G37*
G36*
X12810D02*
X12645D01*
X12675Y43776D01*
X12736Y43715D01*
X12810Y43685D01*
Y43850D01*
D02*
G37*
G36*
X16650Y43775D02*
Y43610D01*
X16815D01*
X16785Y43684D01*
X16724Y43745D01*
X16650Y43775D01*
D02*
G37*
G36*
X16550D02*
X16476Y43745D01*
X16415Y43684D01*
X16385Y43610D01*
X16550D01*
Y43775D01*
D02*
G37*
G36*
X22095Y43670D02*
X21930D01*
Y43505D01*
X22004Y43535D01*
X22065Y43596D01*
X22095Y43670D01*
D02*
G37*
G36*
X21830D02*
X21665D01*
X21695Y43596D01*
X21756Y43535D01*
X21830Y43505D01*
Y43670D01*
D02*
G37*
G36*
X15635Y43650D02*
X15470D01*
Y43485D01*
X15544Y43515D01*
X15605Y43576D01*
X15635Y43650D01*
D02*
G37*
G36*
X15370D02*
X15205D01*
X15235Y43576D01*
X15296Y43515D01*
X15370Y43485D01*
Y43650D01*
D02*
G37*
G36*
X16815Y43510D02*
X16650D01*
Y43345D01*
X16724Y43375D01*
X16785Y43436D01*
X16815Y43510D01*
D02*
G37*
G36*
X16550D02*
X16385D01*
X16415Y43436D01*
X16476Y43375D01*
X16550Y43345D01*
Y43510D01*
D02*
G37*
G36*
Y42655D02*
Y42490D01*
X16715D01*
X16685Y42564D01*
X16624Y42625D01*
X16550Y42655D01*
D02*
G37*
G36*
X16450D02*
X16376Y42625D01*
X16315Y42564D01*
X16285Y42490D01*
X16450D01*
Y42655D01*
D02*
G37*
G36*
X18065Y42585D02*
Y42420D01*
X18231D01*
X18200Y42494D01*
X18139Y42555D01*
X18065Y42585D01*
D02*
G37*
G36*
X17965D02*
X17892Y42555D01*
X17830Y42494D01*
X17800Y42420D01*
X17965D01*
Y42585D01*
D02*
G37*
G36*
X16715Y42390D02*
X16550D01*
Y42225D01*
X16624Y42255D01*
X16685Y42316D01*
X16715Y42390D01*
D02*
G37*
G36*
X16450D02*
X16285D01*
X16315Y42316D01*
X16376Y42255D01*
X16450Y42225D01*
Y42390D01*
D02*
G37*
G36*
X18231Y42320D02*
X18065D01*
Y42155D01*
X18139Y42185D01*
X18200Y42246D01*
X18231Y42320D01*
D02*
G37*
G36*
X22103Y42098D02*
X22017D01*
X21936Y42065D01*
X21875Y42004D01*
X21842Y41923D01*
Y41837D01*
X21875Y41756D01*
X21936Y41695D01*
X22017Y41662D01*
X22103D01*
X22184Y41695D01*
X22245Y41756D01*
X22278Y41837D01*
Y41923D01*
X22245Y42004D01*
X22184Y42065D01*
X22103Y42098D01*
D02*
G37*
G36*
X15232Y41819D02*
X15145D01*
X15065Y41786D01*
X15004Y41725D01*
X14970Y41645D01*
Y41558D01*
X15004Y41478D01*
X15065Y41416D01*
X15145Y41383D01*
X15232D01*
X15312Y41416D01*
X15373Y41478D01*
X15407Y41558D01*
Y41645D01*
X15373Y41725D01*
X15312Y41786D01*
X15232Y41819D01*
D02*
G37*
G36*
X12910Y41355D02*
Y41190D01*
X13075D01*
X13045Y41264D01*
X12984Y41325D01*
X12910Y41355D01*
D02*
G37*
G36*
X12810D02*
X12736Y41325D01*
X12675Y41264D01*
X12645Y41190D01*
X12810D01*
Y41355D01*
D02*
G37*
G36*
X13075Y41090D02*
X12910D01*
Y40925D01*
X12984Y40955D01*
X13045Y41016D01*
X13075Y41090D01*
D02*
G37*
G36*
X12810D02*
X12645D01*
X12675Y41016D01*
X12736Y40955D01*
X12810Y40925D01*
Y41090D01*
D02*
G37*
G36*
X18655Y41010D02*
X18490D01*
Y40845D01*
X18564Y40875D01*
X18625Y40936D01*
X18655Y41010D01*
D02*
G37*
G36*
X18390D02*
X18225D01*
X18255Y40936D01*
X18316Y40875D01*
X18390Y40845D01*
Y41010D01*
D02*
G37*
G36*
X25866Y40420D02*
Y40255D01*
X26032D01*
X26001Y40328D01*
X25940Y40390D01*
X25866Y40420D01*
D02*
G37*
G36*
X25766D02*
X25693Y40390D01*
X25632Y40328D01*
X25601Y40255D01*
X25766D01*
Y40420D01*
D02*
G37*
G36*
X26032Y40155D02*
X25866D01*
Y39990D01*
X25940Y40020D01*
X26001Y40081D01*
X26032Y40155D01*
D02*
G37*
G36*
X25766D02*
X25601D01*
X25632Y40081D01*
X25693Y40020D01*
X25766Y39990D01*
Y40155D01*
D02*
G37*
G36*
X14870Y39495D02*
Y39330D01*
X15035D01*
X15005Y39404D01*
X14944Y39465D01*
X14870Y39495D01*
D02*
G37*
G36*
X14770D02*
X14696Y39465D01*
X14635Y39404D01*
X14605Y39330D01*
X14770D01*
Y39495D01*
D02*
G37*
G36*
X15035Y39230D02*
X14870D01*
Y39065D01*
X14944Y39095D01*
X15005Y39156D01*
X15035Y39230D01*
D02*
G37*
G36*
X14770D02*
X14605D01*
X14635Y39156D01*
X14696Y39095D01*
X14770Y39065D01*
Y39230D01*
D02*
G37*
G36*
X23970Y38855D02*
Y38690D01*
X24135D01*
X24105Y38764D01*
X24044Y38825D01*
X23970Y38855D01*
D02*
G37*
G36*
X23870D02*
X23796Y38825D01*
X23735Y38764D01*
X23705Y38690D01*
X23870D01*
Y38855D01*
D02*
G37*
G36*
X12870Y38735D02*
Y38570D01*
X13035D01*
X13005Y38644D01*
X12944Y38705D01*
X12870Y38735D01*
D02*
G37*
G36*
X12770D02*
X12696Y38705D01*
X12635Y38644D01*
X12605Y38570D01*
X12770D01*
Y38735D01*
D02*
G37*
G36*
X26243Y38998D02*
X26157D01*
X26076Y38965D01*
X26015Y38904D01*
X25982Y38823D01*
Y38737D01*
X26015Y38656D01*
X26076Y38595D01*
X26157Y38562D01*
X26243D01*
X26324Y38595D01*
X26385Y38656D01*
X26418Y38737D01*
Y38823D01*
X26385Y38904D01*
X26324Y38965D01*
X26243Y38998D01*
D02*
G37*
G36*
X24135Y38590D02*
X23970D01*
Y38425D01*
X24044Y38455D01*
X24105Y38516D01*
X24135Y38590D01*
D02*
G37*
G36*
X23870D02*
X23705D01*
X23735Y38516D01*
X23796Y38455D01*
X23870Y38425D01*
Y38590D01*
D02*
G37*
G36*
X13035Y38470D02*
X12870D01*
Y38305D01*
X12944Y38335D01*
X13005Y38396D01*
X13035Y38470D01*
D02*
G37*
G36*
X12770D02*
X12605D01*
X12635Y38396D01*
X12696Y38335D01*
X12770Y38305D01*
Y38470D01*
D02*
G37*
G36*
X23163Y38598D02*
X23077D01*
X22996Y38565D01*
X22935Y38504D01*
X22902Y38423D01*
Y38337D01*
X22935Y38256D01*
X22996Y38195D01*
X23077Y38162D01*
X23163D01*
X23244Y38195D01*
X23305Y38256D01*
X23338Y38337D01*
Y38423D01*
X23305Y38504D01*
X23244Y38565D01*
X23163Y38598D01*
D02*
G37*
G36*
X17063Y40898D02*
X16977D01*
X16896Y40865D01*
X16835Y40804D01*
X16802Y40723D01*
Y40637D01*
X16835Y40556D01*
X16896Y40495D01*
X16977Y40462D01*
X17063D01*
X17144Y40495D01*
X17150Y40502D01*
X17486D01*
X18777Y39210D01*
X18835Y39172D01*
X18903Y39158D01*
X19182D01*
Y38024D01*
X19161Y38015D01*
X19100Y37954D01*
X19067Y37874D01*
Y37787D01*
X19100Y37707D01*
X19161Y37646D01*
X19241Y37612D01*
X19328D01*
X19408Y37646D01*
X19470Y37707D01*
X19503Y37787D01*
Y37828D01*
X19525Y37861D01*
X19538Y37929D01*
X19538Y37929D01*
Y39190D01*
X19545Y39196D01*
X19578Y39277D01*
Y39363D01*
X19545Y39444D01*
X19484Y39505D01*
X19403Y39538D01*
X19317D01*
X19261Y39515D01*
X18977D01*
X17686Y40806D01*
X17628Y40845D01*
X17560Y40858D01*
X17150D01*
X17144Y40865D01*
X17063Y40898D01*
D02*
G37*
G36*
X21723Y37998D02*
X21637D01*
X21556Y37965D01*
X21495Y37904D01*
X21462Y37823D01*
Y37737D01*
X21495Y37656D01*
X21556Y37595D01*
X21637Y37562D01*
X21723D01*
X21804Y37595D01*
X21865Y37656D01*
X21898Y37737D01*
Y37823D01*
X21865Y37904D01*
X21804Y37965D01*
X21723Y37998D01*
D02*
G37*
G36*
X13910Y37135D02*
Y36970D01*
X14075D01*
X14045Y37044D01*
X13984Y37105D01*
X13910Y37135D01*
D02*
G37*
G36*
X13810D02*
X13736Y37105D01*
X13675Y37044D01*
X13645Y36970D01*
X13810D01*
Y37135D01*
D02*
G37*
G36*
X14075Y36870D02*
X13910D01*
Y36705D01*
X13984Y36735D01*
X14045Y36796D01*
X14075Y36870D01*
D02*
G37*
G36*
X13810D02*
X13645D01*
X13675Y36796D01*
X13736Y36735D01*
X13810Y36705D01*
Y36870D01*
D02*
G37*
%LPD*%
G36*
X18206Y50606D02*
X18185Y50557D01*
Y50503D01*
X18206Y50454D01*
X18244Y50416D01*
X18293Y50396D01*
X18318D01*
X18403Y50310D01*
Y49514D01*
X18386Y49496D01*
X18365Y49447D01*
Y49393D01*
X18386Y49344D01*
X18403Y49326D01*
Y49040D01*
X18411Y49003D01*
X18432Y48972D01*
X18587Y48817D01*
X18558Y48774D01*
X18518Y48791D01*
X18465D01*
X18415Y48770D01*
X18380Y48735D01*
X18328Y48730D01*
X18163Y48895D01*
Y49093D01*
X18156Y49130D01*
X18135Y49161D01*
X18014Y49282D01*
Y49307D01*
X17994Y49356D01*
X17956Y49394D01*
X17906Y49415D01*
X17853D01*
X17803Y49394D01*
X17782Y49372D01*
X17750Y49362D01*
X17718Y49372D01*
X17696Y49394D01*
X17647Y49415D01*
X17617D01*
Y49788D01*
X17667Y49816D01*
X17693Y49805D01*
X17747D01*
X17796Y49826D01*
X17834Y49864D01*
X17855Y49913D01*
Y49967D01*
X17834Y50016D01*
X17807Y50044D01*
Y50384D01*
X18076Y50654D01*
X18182D01*
X18206Y50606D01*
D02*
G37*
D13*
X18040Y50740D02*
X19684D01*
X17720Y50420D02*
X18040Y50740D01*
X17720Y49940D02*
Y50420D01*
D14*
X16240Y46120D02*
X16448Y46328D01*
D58*
X21080Y45020D02*
X24020D01*
X21680Y50960D02*
X23680Y48960D01*
X18442Y50960D02*
X21680D01*
X19684Y50740D02*
X21440D01*
X23040Y49140D01*
X19942Y47543D02*
X20825Y46660D01*
X23640D01*
X19684Y46416D02*
X21080Y45020D01*
X23680Y47180D02*
Y48960D01*
X19684Y47543D02*
X19942D01*
X17520Y42320D02*
X18400Y41440D01*
X17520Y42320D02*
Y46328D01*
X15020Y48180D02*
X15184D01*
X17140Y41760D02*
X18520Y40380D01*
X22140D01*
X15620Y37880D02*
Y40041D01*
X14762Y40899D02*
X15620Y40041D01*
X17140Y41760D02*
Y46328D01*
X18400Y41440D02*
X21760D01*
X22760Y40440D01*
X19684Y48560D02*
X20580D01*
X14762Y40899D02*
Y49742D01*
X15184Y50164D01*
X15788Y50768D02*
X16060Y51040D01*
X17220D01*
X16570Y45410D02*
X16599D01*
X15982Y45998D02*
X16570Y45410D01*
X15982Y45998D02*
Y46328D01*
D60*
X19285Y37854D02*
X19360Y37929D01*
X19285Y37831D02*
Y37854D01*
X19360Y37929D02*
Y39320D01*
X17560Y40680D02*
X18903Y39337D01*
X19344D01*
X17020Y40680D02*
X17560D01*
X19344Y39337D02*
X19360Y39320D01*
D61*
X18500Y49040D02*
Y49420D01*
Y50350D01*
X18320Y50530D02*
X18500Y50350D01*
X17880Y49280D02*
X18067Y49093D01*
Y48855D02*
Y49093D01*
Y48855D02*
X19379Y47543D01*
X17880Y49280D02*
Y49280D01*
X19379Y47543D02*
X19684D01*
X16200Y49940D02*
Y50320D01*
X16380Y50500D01*
X17460Y49207D02*
Y49353D01*
Y49207D02*
X17520Y49147D01*
Y46328D02*
Y49147D01*
X15758Y48180D02*
X16578Y49000D01*
X16580D01*
X15184Y48180D02*
X15758D01*
X16440Y49440D02*
Y50240D01*
X16800Y46680D02*
Y49080D01*
X16440Y49440D02*
X16800Y49080D01*
X16448Y46328D02*
X16800Y46680D01*
X16225Y47405D02*
X16450D01*
X15982Y47162D02*
X16225Y47405D01*
X17880Y48220D02*
X19684Y46416D01*
X17620Y49280D02*
X17880Y49020D01*
Y48220D02*
Y49020D01*
X17460Y49353D02*
X17520Y49413D01*
X16920Y50680D02*
X17520Y50080D01*
Y49413D02*
Y50080D01*
X18980Y48560D02*
X19684D01*
X17140Y46328D02*
Y50060D01*
X16700Y50500D02*
X17140Y50060D01*
X16380Y50500D02*
X16700D01*
X15184Y50164D02*
X15788Y50768D01*
X15982Y46328D02*
Y47162D01*
X16280Y50680D02*
X16920D01*
X16000Y50400D02*
X16280Y50680D01*
X18500Y49040D02*
X18980Y48560D01*
D64*
X12890Y46990D02*
D03*
X12860Y43900D02*
D03*
Y41140D02*
D03*
X12820Y38520D02*
D03*
X24020Y45020D02*
D03*
X25816Y40205D02*
D03*
X23920Y38640D02*
D03*
X14820Y39280D02*
D03*
X14280Y45200D02*
D03*
X22996Y44515D02*
D03*
X23420Y49680D02*
D03*
X19396Y52758D02*
D03*
X21660Y52780D02*
D03*
X13860Y36920D02*
D03*
X16520Y53900D02*
D03*
X23920Y53520D02*
D03*
X21880Y43720D02*
D03*
X16600Y43560D02*
D03*
X16500Y42440D02*
D03*
X15420Y43700D02*
D03*
X15960Y44480D02*
D03*
X18440Y41060D02*
D03*
X18015Y42370D02*
D03*
X18442Y50960D02*
D03*
X23640Y46660D02*
D03*
X23680Y47180D02*
D03*
X19980Y46660D02*
D03*
X21150Y47190D02*
D03*
X22010Y47610D02*
D03*
X17020Y40680D02*
D03*
X19360Y39320D02*
D03*
X19285Y37831D02*
D03*
X15620Y37880D02*
D03*
X22760Y40440D02*
D03*
X22140Y40380D02*
D03*
X20580Y48560D02*
D03*
X23040Y49140D02*
D03*
X17220Y51040D02*
D03*
X16599Y45410D02*
D03*
X15020Y48180D02*
D03*
X16240Y46120D02*
D03*
D65*
X18320Y50530D02*
D03*
X16580Y49000D02*
D03*
X16450Y47405D02*
D03*
X17880Y49280D02*
D03*
X17620D02*
D03*
X17720Y49940D02*
D03*
X16200D02*
D03*
X16000Y50400D02*
D03*
X16440Y50240D02*
D03*
X18500Y49420D02*
D03*
M02*
